M48
; DRILL file {KiCad (6.0.0)} date Sat Jan 15 05:03:19 2022
; FORMAT={-:-/ absolute / inch / decimal}
; #@! TF.CreationDate,2022-01-15T05:03:19-05:00
; #@! TF.GenerationSoftware,Kicad,Pcbnew,(6.0.0)
; #@! TF.FileFunction,Plated,1,4,PTH
FMAT,2
INCH
; #@! TA.AperFunction,Plated,PTH,ViaDrill
T1C0.0120
; #@! TA.AperFunction,Plated,PTH,ComponentDrill
T2C0.0197
; #@! TA.AperFunction,Plated,PTH,ComponentDrill
T3C0.0315
; #@! TA.AperFunction,Plated,PTH,ComponentDrill
T4C0.0394
; #@! TA.AperFunction,Plated,PTH,ComponentDrill
T5C0.0400
%
G90
G05
T1
X-1.2126Y-0.3209
X-1.1791Y-0.3858
X-1.1673Y-0.1831
X-1.1378Y-0.4665
X-1.124Y-0.3189
X-1.0787Y-0.1417
X-1.0787Y-0.2362
X-1.0768Y-0.5846
X-1.0669Y-0.3976
X-1.0374Y-0.311
X-1.0217Y-0.561
X-1.0079Y-0.7008
X-0.9862Y-0.1713
X-0.9843Y-0.0945
X-0.9744Y-0.3839
X-0.9685Y-0.3346
X-0.9685Y-0.7795
X-0.9665Y-0.2441
X-0.9252Y-0.1201
X-0.9055Y-0.0551
X-0.8898Y-0.5039
X-0.874Y-0.5591
X-0.8701Y-0.2933
X-0.8614Y-0.6429
X-0.8425Y-0.7795
X-0.8327Y-0.25
X-0.7953Y-0.1378
X-0.7874Y-0.4882
X-0.7795Y-0.5591
X-0.7717Y-0.1811
X-0.7638Y-0.637
X-0.7638Y-0.6744
X-0.7402Y-0.7795
X-0.7008Y-0.1417
X-0.6929Y-0.4646
X-0.6929Y-0.5669
X-0.6457Y-0.3386
X-0.638Y-0.6231
X-0.638Y-0.6981
X-0.638Y-0.7681
X-0.6339Y-0.1791
X-0.6102Y-0.935
X-0.6004Y-0.8543
X-0.5827Y-0.1417
X-0.5787Y-0.4193
X-0.568Y-0.6231
X-0.568Y-0.6981
X-0.568Y-0.7681
X-0.5354Y-0.4567
X-0.5Y-0.4646
X-0.493Y-0.6231
X-0.493Y-0.6981
X-0.493Y-0.7681
X-0.4843Y-0.1745
X-0.4646Y-0.4724
X-0.4569Y-0.3388
X-0.4291Y-0.1745
X-0.4291Y-0.4803
X-0.4252Y-0.9331
X-0.3976Y-0.6181
X-0.3976Y-0.689
X-0.3051Y-0.8228
X-0.3031Y-0.1496
X-0.3031Y-0.2283
X-0.3031Y-0.2953
X-0.3031Y-0.374
X-0.2362Y-1.4685
X-0.1969Y-1.4291
X-0.1457Y-0.4858
X-0.1457Y-0.5344
X-0.1457Y-0.5837
X-0.1457Y-0.6335
X-0.1432Y-0.899
X-0.1348Y-1.2766
X-0.0925Y-1.2343
X-0.0039Y-0.9315
X0.1324Y-0.903
X0.1378Y-0.8484
X0.1654Y-0.4839
X0.1654Y-0.535
X0.1654Y-0.5843
X0.1654Y-0.6354
X0.1688Y-0.8484
X0.1969Y-1.4291
X0.2008Y-0.8484
X0.2126Y-0.663
X0.2362Y-1.3898
X0.2559Y-0.6634
X0.2923Y-0.69
X0.2933Y-0.7972
X0.2933Y-0.8524
X0.3022Y-0.4754
X0.315Y-1.311
X0.3219Y-0.5295
X0.3268Y-0.2126
X0.3268Y-0.3071
X0.3504Y-0.2598
X0.3504Y-0.3543
X0.3504Y-0.3996
X0.3583Y-0.7402
X0.4094Y-0.7402
X0.4409Y-0.6988
X0.4862Y-0.2008
X0.5472Y-0.2402
X0.5571Y-0.8878
X0.6437Y-0.3543
X0.6634Y-0.2382
X0.6831Y-0.3553
X0.7244Y-0.8583
X0.7362Y-0.6142
X0.7618Y-0.5906
X0.7874Y-0.5669
X0.811Y-0.9016
X0.8189Y-0.1693
X0.8819Y-0.1713
X0.8858Y-0.7835
X0.9449Y-0.1181
X1.0Y-0.3898
X1.0059Y-0.5709
X1.0059Y-0.6122
X1.0315Y-0.4764
X1.0472Y-0.3228
X1.063Y-0.2205
X1.126Y-0.2205
X1.126Y-0.3504
T3
X-0.8406Y-0.185
X-0.6516Y-0.2795
X-0.1299Y-1.1417
X-0.0433Y-1.1417
X0.0433Y-1.1417
X0.1299Y-1.1417
T4
X0.2795Y-0.0472
X0.3795Y-0.0472
X0.4795Y-0.0472
X0.5795Y-0.0472
X0.6795Y-0.0472
X0.7795Y-0.0472
T5
X-0.101Y-0.1187
X-0.101Y-0.3187
X0.099Y-0.1187
X0.099Y-0.3187
T2
G00X-0.624Y-1.3248
M15
G01X-0.624Y-1.2933
M16
G05
G00X-0.6126Y-1.0787
M15
G01X-0.6126Y-1.0472
M16
G05
G00X-0.5917Y-1.4449
M15
G01X-0.5917Y-1.4134
M16
G05
G00X-0.5831Y-1.2047
M15
G01X-0.5831Y-1.1732
M16
G05
G00X-0.3898Y-1.4449
M15
G01X-0.3898Y-1.4134
M16
G05
G00X-0.3882Y-1.0787
M15
G01X-0.3882Y-1.0472
M16
G05
G00X-0.3882Y-1.2047
M15
G01X-0.3882Y-1.1732
M16
G05
G00X0.3681Y-1.3248
M15
G01X0.3681Y-1.2933
M16
G05
G00X0.3795Y-1.0787
M15
G01X0.3795Y-1.0472
M16
G05
G00X0.4004Y-1.4449
M15
G01X0.4004Y-1.4134
M16
G05
G00X0.4091Y-1.2047
M15
G01X0.4091Y-1.1732
M16
G05
G00X0.6024Y-1.4449
M15
G01X0.6024Y-1.4134
M16
G05
G00X0.6039Y-1.0787
M15
G01X0.6039Y-1.0472
M16
G05
G00X0.6039Y-1.2047
M15
G01X0.6039Y-1.1732
M16
G05
T0
M30
