G04 #@! TF.GenerationSoftware,KiCad,Pcbnew,(6.0.0)*
G04 #@! TF.CreationDate,2022-01-15T05:03:17-05:00*
G04 #@! TF.ProjectId,spin-tgd-control,7370696e-2d74-4676-942d-636f6e74726f,rev?*
G04 #@! TF.SameCoordinates,Original*
G04 #@! TF.FileFunction,Legend,Top*
G04 #@! TF.FilePolarity,Positive*
%FSLAX46Y46*%
G04 Gerber Fmt 4.6, Leading zero omitted, Abs format (unit mm)*
G04 Created by KiCad (PCBNEW (6.0.0)) date 2022-01-15 05:03:17*
%MOMM*%
%LPD*%
G01*
G04 APERTURE LIST*
G04 Aperture macros list*
%AMRoundRect*
0 Rectangle with rounded corners*
0 $1 Rounding radius*
0 $2 $3 $4 $5 $6 $7 $8 $9 X,Y pos of 4 corners*
0 Add a 4 corners polygon primitive as box body*
4,1,4,$2,$3,$4,$5,$6,$7,$8,$9,$2,$3,0*
0 Add four circle primitives for the rounded corners*
1,1,$1+$1,$2,$3*
1,1,$1+$1,$4,$5*
1,1,$1+$1,$6,$7*
1,1,$1+$1,$8,$9*
0 Add four rect primitives between the rounded corners*
20,1,$1+$1,$2,$3,$4,$5,0*
20,1,$1+$1,$4,$5,$6,$7,0*
20,1,$1+$1,$6,$7,$8,$9,0*
20,1,$1+$1,$8,$9,$2,$3,0*%
%AMRotRect*
0 Rectangle, with rotation*
0 The origin of the aperture is its center*
0 $1 length*
0 $2 width*
0 $3 Rotation angle, in degrees counterclockwise*
0 Add horizontal line*
21,1,$1,$2,0,0,$3*%
%AMFreePoly0*
4,1,13,0.500000,-0.500000,0.000000,-0.500000,-0.095671,-0.480970,-0.176777,-0.426777,-0.230970,-0.345671,-0.250000,-0.250000,-0.250000,0.250000,-0.230970,0.345671,-0.176777,0.426777,-0.095671,0.480970,0.000000,0.500000,0.500000,0.500000,0.500000,-0.500000,0.500000,-0.500000,$1*%
%AMFreePoly1*
4,1,13,0.095671,0.480970,0.176777,0.426777,0.230970,0.345671,0.250000,0.250000,0.250000,-0.250000,0.230970,-0.345671,0.176777,-0.426777,0.095671,-0.480970,0.000000,-0.500000,-0.500000,-0.500000,-0.500000,0.500000,0.000000,0.500000,0.095671,0.480970,0.095671,0.480970,$1*%
G04 Aperture macros list end*
%ADD10C,0.120000*%
%ADD11C,0.200000*%
%ADD12C,0.150000*%
%ADD13C,0.100000*%
%ADD14RoundRect,0.225000X-0.225000X-0.250000X0.225000X-0.250000X0.225000X0.250000X-0.225000X0.250000X0*%
%ADD15RoundRect,0.225000X0.250000X-0.225000X0.250000X0.225000X-0.250000X0.225000X-0.250000X-0.225000X0*%
%ADD16RoundRect,0.225000X-0.250000X0.225000X-0.250000X-0.225000X0.250000X-0.225000X0.250000X0.225000X0*%
%ADD17RoundRect,0.140000X0.170000X-0.140000X0.170000X0.140000X-0.170000X0.140000X-0.170000X-0.140000X0*%
%ADD18RoundRect,0.140000X-0.170000X0.140000X-0.170000X-0.140000X0.170000X-0.140000X0.170000X0.140000X0*%
%ADD19RoundRect,0.250000X1.075000X-0.375000X1.075000X0.375000X-1.075000X0.375000X-1.075000X-0.375000X0*%
%ADD20R,0.900000X0.800000*%
%ADD21RoundRect,0.237500X0.250000X0.237500X-0.250000X0.237500X-0.250000X-0.237500X0.250000X-0.237500X0*%
%ADD22RoundRect,0.237500X-0.237500X0.250000X-0.237500X-0.250000X0.237500X-0.250000X0.237500X0.250000X0*%
%ADD23R,0.650000X1.220000*%
%ADD24RotRect,1.000000X0.300000X45.000000*%
%ADD25RotRect,0.300000X1.000000X45.000000*%
%ADD26RoundRect,0.075000X0.075000X-0.425000X0.075000X0.425000X-0.075000X0.425000X-0.075000X-0.425000X0*%
%ADD27RoundRect,0.075000X0.425000X-0.075000X0.425000X0.075000X-0.425000X0.075000X-0.425000X-0.075000X0*%
%ADD28R,4.800000X4.800000*%
%ADD29R,1.400000X1.200000*%
%ADD30C,1.778000*%
%ADD31RoundRect,0.237500X-0.098116X0.330574X-0.325112X-0.114929X0.098116X-0.330574X0.325112X0.114929X0*%
%ADD32C,2.200000*%
%ADD33R,1.300000X1.600000*%
%ADD34RoundRect,0.140000X0.140000X0.170000X-0.140000X0.170000X-0.140000X-0.170000X0.140000X-0.170000X0*%
%ADD35R,1.200000X0.900000*%
%ADD36RoundRect,0.375000X1.125000X-0.375000X1.125000X0.375000X-1.125000X0.375000X-1.125000X-0.375000X0*%
%ADD37C,1.500000*%
%ADD38O,0.900000X1.700000*%
%ADD39RoundRect,0.150000X-0.825000X-0.150000X0.825000X-0.150000X0.825000X0.150000X-0.825000X0.150000X0*%
%ADD40RoundRect,0.375000X-0.375000X-1.125000X0.375000X-1.125000X0.375000X1.125000X-0.375000X1.125000X0*%
%ADD41RoundRect,0.147500X0.172500X-0.147500X0.172500X0.147500X-0.172500X0.147500X-0.172500X-0.147500X0*%
%ADD42R,1.700000X1.700000*%
%ADD43O,1.700000X1.700000*%
%ADD44RoundRect,0.135000X0.185000X-0.135000X0.185000X0.135000X-0.185000X0.135000X-0.185000X-0.135000X0*%
%ADD45RoundRect,0.225000X0.225000X0.250000X-0.225000X0.250000X-0.225000X-0.250000X0.225000X-0.250000X0*%
%ADD46R,1.300000X1.700000*%
%ADD47RoundRect,0.147500X-0.147500X-0.172500X0.147500X-0.172500X0.147500X0.172500X-0.147500X0.172500X0*%
%ADD48RoundRect,0.237500X-0.250000X-0.237500X0.250000X-0.237500X0.250000X0.237500X-0.250000X0.237500X0*%
%ADD49FreePoly0,0.000000*%
%ADD50FreePoly1,0.000000*%
%ADD51RoundRect,0.237500X0.237500X-0.287500X0.237500X0.287500X-0.237500X0.287500X-0.237500X-0.287500X0*%
%ADD52RoundRect,0.147500X0.147500X0.172500X-0.147500X0.172500X-0.147500X-0.172500X0.147500X-0.172500X0*%
%ADD53RoundRect,0.075000X0.700000X0.075000X-0.700000X0.075000X-0.700000X-0.075000X0.700000X-0.075000X0*%
%ADD54RoundRect,0.075000X0.075000X0.700000X-0.075000X0.700000X-0.075000X-0.700000X0.075000X-0.700000X0*%
%ADD55R,0.400000X0.650000*%
%ADD56RoundRect,0.225000X0.017678X-0.335876X0.335876X-0.017678X-0.017678X0.335876X-0.335876X0.017678X0*%
G04 APERTURE END LIST*
D10*
X-3084000Y-9472000D02*
X-3884000Y-8672000D01*
D11*
X-21395238Y-652380D02*
X-21471428Y-614285D01*
X-21623809Y-614285D01*
X-21700000Y-652380D01*
X-21776190Y-728571D01*
X-21814285Y-804761D01*
X-21814285Y-957142D01*
X-21776190Y-1033333D01*
X-21700000Y-1109523D01*
X-21623809Y-1147619D01*
X-21471428Y-1147619D01*
X-21395238Y-1109523D01*
X-21547619Y-347619D02*
X-21738095Y-385714D01*
X-21928571Y-500000D01*
X-22042857Y-690476D01*
X-22080952Y-880952D01*
X-22042857Y-1071428D01*
X-21928571Y-1261904D01*
X-21738095Y-1376190D01*
X-21547619Y-1414285D01*
X-21357142Y-1376190D01*
X-21166666Y-1261904D01*
X-21052380Y-1071428D01*
X-21014285Y-880952D01*
X-21052380Y-690476D01*
X-21166666Y-500000D01*
X-21357142Y-385714D01*
X-21547619Y-347619D01*
X-19833333Y-461904D02*
X-19833333Y-1033333D01*
X-19871428Y-1147619D01*
X-19947619Y-1223809D01*
X-20061904Y-1261904D01*
X-20138095Y-1261904D01*
X-19109523Y-1261904D02*
X-19109523Y-842857D01*
X-19147619Y-766666D01*
X-19223809Y-728571D01*
X-19376190Y-728571D01*
X-19452380Y-766666D01*
X-19109523Y-1223809D02*
X-19185714Y-1261904D01*
X-19376190Y-1261904D01*
X-19452380Y-1223809D01*
X-19490476Y-1147619D01*
X-19490476Y-1071428D01*
X-19452380Y-995238D01*
X-19376190Y-957142D01*
X-19185714Y-957142D01*
X-19109523Y-919047D01*
X-18385714Y-1223809D02*
X-18461904Y-1261904D01*
X-18614285Y-1261904D01*
X-18690476Y-1223809D01*
X-18728571Y-1185714D01*
X-18766666Y-1109523D01*
X-18766666Y-880952D01*
X-18728571Y-804761D01*
X-18690476Y-766666D01*
X-18614285Y-728571D01*
X-18461904Y-728571D01*
X-18385714Y-766666D01*
X-17928571Y-1261904D02*
X-18004761Y-1223809D01*
X-18042857Y-1185714D01*
X-18080952Y-1109523D01*
X-18080952Y-880952D01*
X-18042857Y-804761D01*
X-18004761Y-766666D01*
X-17928571Y-728571D01*
X-17814285Y-728571D01*
X-17738095Y-766666D01*
X-17700000Y-804761D01*
X-17661904Y-880952D01*
X-17661904Y-1109523D01*
X-17700000Y-1185714D01*
X-17738095Y-1223809D01*
X-17814285Y-1261904D01*
X-17928571Y-1261904D01*
X-17319047Y-1261904D02*
X-17319047Y-461904D01*
X-17319047Y-766666D02*
X-17242857Y-728571D01*
X-17090476Y-728571D01*
X-17014285Y-766666D01*
X-16976190Y-804761D01*
X-16938095Y-880952D01*
X-16938095Y-1109523D01*
X-16976190Y-1185714D01*
X-17014285Y-1223809D01*
X-17090476Y-1261904D01*
X-17242857Y-1261904D01*
X-17319047Y-1223809D01*
X-16061904Y-461904D02*
X-15871428Y-1261904D01*
X-15719047Y-690476D01*
X-15566666Y-1261904D01*
X-15376190Y-461904D01*
X-15071428Y-1261904D02*
X-15071428Y-728571D01*
X-15071428Y-461904D02*
X-15109523Y-500000D01*
X-15071428Y-538095D01*
X-15033333Y-500000D01*
X-15071428Y-461904D01*
X-15071428Y-538095D01*
X-14576190Y-1261904D02*
X-14652380Y-1223809D01*
X-14690476Y-1147619D01*
X-14690476Y-461904D01*
X-14157142Y-1261904D02*
X-14233333Y-1223809D01*
X-14271428Y-1147619D01*
X-14271428Y-461904D01*
X-13852380Y-1261904D02*
X-13852380Y-728571D01*
X-13852380Y-461904D02*
X-13890476Y-500000D01*
X-13852380Y-538095D01*
X-13814285Y-500000D01*
X-13852380Y-461904D01*
X-13852380Y-538095D01*
X-13128571Y-1261904D02*
X-13128571Y-842857D01*
X-13166666Y-766666D01*
X-13242857Y-728571D01*
X-13395238Y-728571D01*
X-13471428Y-766666D01*
X-13128571Y-1223809D02*
X-13204761Y-1261904D01*
X-13395238Y-1261904D01*
X-13471428Y-1223809D01*
X-13509523Y-1147619D01*
X-13509523Y-1071428D01*
X-13471428Y-995238D01*
X-13395238Y-957142D01*
X-13204761Y-957142D01*
X-13128571Y-919047D01*
X-12747619Y-1261904D02*
X-12747619Y-728571D01*
X-12747619Y-804761D02*
X-12709523Y-766666D01*
X-12633333Y-728571D01*
X-12519047Y-728571D01*
X-12442857Y-766666D01*
X-12404761Y-842857D01*
X-12404761Y-1261904D01*
X-12404761Y-842857D02*
X-12366666Y-766666D01*
X-12290476Y-728571D01*
X-12176190Y-728571D01*
X-12100000Y-766666D01*
X-12061904Y-842857D01*
X-12061904Y-1261904D01*
X-11719047Y-1223809D02*
X-11642857Y-1261904D01*
X-11490476Y-1261904D01*
X-11414285Y-1223809D01*
X-11376190Y-1147619D01*
X-11376190Y-1109523D01*
X-11414285Y-1033333D01*
X-11490476Y-995238D01*
X-11604761Y-995238D01*
X-11680952Y-957142D01*
X-11719047Y-880952D01*
X-11719047Y-842857D01*
X-11680952Y-766666D01*
X-11604761Y-728571D01*
X-11490476Y-728571D01*
X-11414285Y-766666D01*
X-10461904Y-538095D02*
X-10423809Y-500000D01*
X-10347619Y-461904D01*
X-10157142Y-461904D01*
X-10080952Y-500000D01*
X-10042857Y-538095D01*
X-10004761Y-614285D01*
X-10004761Y-690476D01*
X-10042857Y-804761D01*
X-10500000Y-1261904D01*
X-10004761Y-1261904D01*
X-9509523Y-461904D02*
X-9433333Y-461904D01*
X-9357142Y-500000D01*
X-9319047Y-538095D01*
X-9280952Y-614285D01*
X-9242857Y-766666D01*
X-9242857Y-957142D01*
X-9280952Y-1109523D01*
X-9319047Y-1185714D01*
X-9357142Y-1223809D01*
X-9433333Y-1261904D01*
X-9509523Y-1261904D01*
X-9585714Y-1223809D01*
X-9623809Y-1185714D01*
X-9661904Y-1109523D01*
X-9700000Y-957142D01*
X-9700000Y-766666D01*
X-9661904Y-614285D01*
X-9623809Y-538095D01*
X-9585714Y-500000D01*
X-9509523Y-461904D01*
X-8938095Y-538095D02*
X-8900000Y-500000D01*
X-8823809Y-461904D01*
X-8633333Y-461904D01*
X-8557142Y-500000D01*
X-8519047Y-538095D01*
X-8480952Y-614285D01*
X-8480952Y-690476D01*
X-8519047Y-804761D01*
X-8976190Y-1261904D01*
X-8480952Y-1261904D01*
X-8176190Y-538095D02*
X-8138095Y-500000D01*
X-8061904Y-461904D01*
X-7871428Y-461904D01*
X-7795238Y-500000D01*
X-7757142Y-538095D01*
X-7719047Y-614285D01*
X-7719047Y-690476D01*
X-7757142Y-804761D01*
X-8214285Y-1261904D01*
X-7719047Y-1261904D01*
X11927618Y-3561904D02*
X11927618Y-2761904D01*
X12194284Y-3333333D01*
X12460951Y-2761904D01*
X12460951Y-3561904D01*
X12841903Y-3561904D02*
X12841903Y-2761904D01*
X16853330Y-3561904D02*
X16853330Y-2761904D01*
X17119997Y-3333333D01*
X17386664Y-2761904D01*
X17386664Y-3561904D01*
X17919997Y-2761904D02*
X18072378Y-2761904D01*
X18148568Y-2800000D01*
X18224759Y-2876190D01*
X18262854Y-3028571D01*
X18262854Y-3295238D01*
X18224759Y-3447619D01*
X18148568Y-3523809D01*
X18072378Y-3561904D01*
X17919997Y-3561904D01*
X17843806Y-3523809D01*
X17767616Y-3447619D01*
X17729521Y-3295238D01*
X17729521Y-3028571D01*
X17767616Y-2876190D01*
X17843806Y-2800000D01*
X17919997Y-2761904D01*
X19240000Y-3561904D02*
X19240000Y-2761904D01*
X19773333Y-2761904D02*
X19925714Y-2761904D01*
X20001904Y-2800000D01*
X20078095Y-2876190D01*
X20116190Y-3028571D01*
X20116190Y-3295238D01*
X20078095Y-3447619D01*
X20001904Y-3523809D01*
X19925714Y-3561904D01*
X19773333Y-3561904D01*
X19697142Y-3523809D01*
X19620952Y-3447619D01*
X19582857Y-3295238D01*
X19582857Y-3028571D01*
X19620952Y-2876190D01*
X19697142Y-2800000D01*
X19773333Y-2761904D01*
X20878095Y-3561904D02*
X20420952Y-3561904D01*
X20649523Y-3561904D02*
X20649523Y-2761904D01*
X20573333Y-2876190D01*
X20497142Y-2952380D01*
X20420952Y-2990476D01*
X9007618Y-2761904D02*
X9502856Y-2761904D01*
X9236190Y-3066666D01*
X9350475Y-3066666D01*
X9426666Y-3104761D01*
X9464761Y-3142857D01*
X9502856Y-3219047D01*
X9502856Y-3409523D01*
X9464761Y-3485714D01*
X9426666Y-3523809D01*
X9350475Y-3561904D01*
X9121904Y-3561904D01*
X9045714Y-3523809D01*
X9007618Y-3485714D01*
X9731428Y-2761904D02*
X9998095Y-3561904D01*
X10264761Y-2761904D01*
X10455237Y-2761904D02*
X10950475Y-2761904D01*
X10683809Y-3066666D01*
X10798095Y-3066666D01*
X10874285Y-3104761D01*
X10912380Y-3142857D01*
X10950475Y-3219047D01*
X10950475Y-3409523D01*
X10912380Y-3485714D01*
X10874285Y-3523809D01*
X10798095Y-3561904D01*
X10569523Y-3561904D01*
X10493333Y-3523809D01*
X10455237Y-3485714D01*
X-22071428Y-2623809D02*
X-21957142Y-2661904D01*
X-21766666Y-2661904D01*
X-21690476Y-2623809D01*
X-21652380Y-2585714D01*
X-21614285Y-2509523D01*
X-21614285Y-2433333D01*
X-21652380Y-2357142D01*
X-21690476Y-2319047D01*
X-21766666Y-2280952D01*
X-21919047Y-2242857D01*
X-21995238Y-2204761D01*
X-22033333Y-2166666D01*
X-22071428Y-2090476D01*
X-22071428Y-2014285D01*
X-22033333Y-1938095D01*
X-21995238Y-1900000D01*
X-21919047Y-1861904D01*
X-21728571Y-1861904D01*
X-21614285Y-1900000D01*
X-21271428Y-2661904D02*
X-21271428Y-1861904D01*
X-20966666Y-1861904D01*
X-20890476Y-1900000D01*
X-20852380Y-1938095D01*
X-20814285Y-2014285D01*
X-20814285Y-2128571D01*
X-20852380Y-2204761D01*
X-20890476Y-2242857D01*
X-20966666Y-2280952D01*
X-21271428Y-2280952D01*
X-20471428Y-2661904D02*
X-20471428Y-1861904D01*
X-20090476Y-2661904D02*
X-20090476Y-1861904D01*
X-19633333Y-2661904D01*
X-19633333Y-1861904D01*
X-19252380Y-2357142D02*
X-18642857Y-2357142D01*
X-18376190Y-1861904D02*
X-17919047Y-1861904D01*
X-18147619Y-2661904D02*
X-18147619Y-1861904D01*
X-17233333Y-1900000D02*
X-17309523Y-1861904D01*
X-17423809Y-1861904D01*
X-17538095Y-1900000D01*
X-17614285Y-1976190D01*
X-17652380Y-2052380D01*
X-17690476Y-2204761D01*
X-17690476Y-2319047D01*
X-17652380Y-2471428D01*
X-17614285Y-2547619D01*
X-17538095Y-2623809D01*
X-17423809Y-2661904D01*
X-17347619Y-2661904D01*
X-17233333Y-2623809D01*
X-17195238Y-2585714D01*
X-17195238Y-2319047D01*
X-17347619Y-2319047D01*
X-16852380Y-2661904D02*
X-16852380Y-1861904D01*
X-16661904Y-1861904D01*
X-16547619Y-1900000D01*
X-16471428Y-1976190D01*
X-16433333Y-2052380D01*
X-16395238Y-2204761D01*
X-16395238Y-2319047D01*
X-16433333Y-2471428D01*
X-16471428Y-2547619D01*
X-16547619Y-2623809D01*
X-16661904Y-2661904D01*
X-16852380Y-2661904D01*
X-16052380Y-2357142D02*
X-15442857Y-2357142D01*
X-15100000Y-2623809D02*
X-14985714Y-2661904D01*
X-14795238Y-2661904D01*
X-14719047Y-2623809D01*
X-14680952Y-2585714D01*
X-14642857Y-2509523D01*
X-14642857Y-2433333D01*
X-14680952Y-2357142D01*
X-14719047Y-2319047D01*
X-14795238Y-2280952D01*
X-14947619Y-2242857D01*
X-15023809Y-2204761D01*
X-15061904Y-2166666D01*
X-15100000Y-2090476D01*
X-15100000Y-2014285D01*
X-15061904Y-1938095D01*
X-15023809Y-1900000D01*
X-14947619Y-1861904D01*
X-14757142Y-1861904D01*
X-14642857Y-1900000D01*
X-14147619Y-1861904D02*
X-13995238Y-1861904D01*
X-13919047Y-1900000D01*
X-13842857Y-1976190D01*
X-13804761Y-2128571D01*
X-13804761Y-2395238D01*
X-13842857Y-2547619D01*
X-13919047Y-2623809D01*
X-13995238Y-2661904D01*
X-14147619Y-2661904D01*
X-14223809Y-2623809D01*
X-14300000Y-2547619D01*
X-14338095Y-2395238D01*
X-14338095Y-2128571D01*
X-14300000Y-1976190D01*
X-14223809Y-1900000D01*
X-14147619Y-1861904D01*
X-13461904Y-2661904D02*
X-13461904Y-1861904D01*
X-13004761Y-2661904D01*
X-13004761Y-1861904D01*
X-12623809Y-2661904D02*
X-12623809Y-1861904D01*
X-11785714Y-2585714D02*
X-11823809Y-2623809D01*
X-11938095Y-2661904D01*
X-12014285Y-2661904D01*
X-12128571Y-2623809D01*
X-12204761Y-2547619D01*
X-12242857Y-2471428D01*
X-12280952Y-2319047D01*
X-12280952Y-2204761D01*
X-12242857Y-2052380D01*
X-12204761Y-1976190D01*
X-12128571Y-1900000D01*
X-12014285Y-1861904D01*
X-11938095Y-1861904D01*
X-11823809Y-1900000D01*
X-11785714Y-1938095D01*
X-10947619Y-1861904D02*
X-10680952Y-2661904D01*
X-10414285Y-1861904D01*
X-10185714Y-1938095D02*
X-10147619Y-1900000D01*
X-10071428Y-1861904D01*
X-9880952Y-1861904D01*
X-9804761Y-1900000D01*
X-9766666Y-1938095D01*
X-9728571Y-2014285D01*
X-9728571Y-2090476D01*
X-9766666Y-2204761D01*
X-10223809Y-2661904D01*
X-9728571Y-2661904D01*
X6430476Y-2800000D02*
X6354285Y-2761904D01*
X6240000Y-2761904D01*
X6125714Y-2800000D01*
X6049523Y-2876190D01*
X6011428Y-2952380D01*
X5973333Y-3104761D01*
X5973333Y-3219047D01*
X6011428Y-3371428D01*
X6049523Y-3447619D01*
X6125714Y-3523809D01*
X6240000Y-3561904D01*
X6316190Y-3561904D01*
X6430476Y-3523809D01*
X6468571Y-3485714D01*
X6468571Y-3219047D01*
X6316190Y-3219047D01*
X6811428Y-3561904D02*
X6811428Y-2761904D01*
X7268571Y-3561904D01*
X7268571Y-2761904D01*
X7649523Y-3561904D02*
X7649523Y-2761904D01*
X7839999Y-2761904D01*
X7954285Y-2800000D01*
X8030476Y-2876190D01*
X8068571Y-2952380D01*
X8106666Y-3104761D01*
X8106666Y-3219047D01*
X8068571Y-3371428D01*
X8030476Y-3447619D01*
X7954285Y-3523809D01*
X7839999Y-3561904D01*
X7649523Y-3561904D01*
X13819045Y-3523809D02*
X13933331Y-3561904D01*
X14123807Y-3561904D01*
X14199997Y-3523809D01*
X14238093Y-3485714D01*
X14276188Y-3409523D01*
X14276188Y-3333333D01*
X14238093Y-3257142D01*
X14199997Y-3219047D01*
X14123807Y-3180952D01*
X13971426Y-3142857D01*
X13895236Y-3104761D01*
X13857140Y-3066666D01*
X13819045Y-2990476D01*
X13819045Y-2914285D01*
X13857140Y-2838095D01*
X13895236Y-2800000D01*
X13971426Y-2761904D01*
X14161902Y-2761904D01*
X14276188Y-2800000D01*
X15076188Y-3485714D02*
X15038093Y-3523809D01*
X14923807Y-3561904D01*
X14847617Y-3561904D01*
X14733331Y-3523809D01*
X14657140Y-3447619D01*
X14619045Y-3371428D01*
X14580950Y-3219047D01*
X14580950Y-3104761D01*
X14619045Y-2952380D01*
X14657140Y-2876190D01*
X14733331Y-2800000D01*
X14847617Y-2761904D01*
X14923807Y-2761904D01*
X15038093Y-2800000D01*
X15076188Y-2838095D01*
X15419045Y-3561904D02*
X15419045Y-2761904D01*
X15876188Y-3561904D02*
X15533331Y-3104761D01*
X15876188Y-2761904D02*
X15419045Y-3219047D01*
X21348214Y-23166964D02*
X21310119Y-23205059D01*
X21195833Y-23243154D01*
X21119642Y-23243154D01*
X21005357Y-23205059D01*
X20929166Y-23128869D01*
X20891071Y-23052678D01*
X20852976Y-22900297D01*
X20852976Y-22786011D01*
X20891071Y-22633630D01*
X20929166Y-22557440D01*
X21005357Y-22481250D01*
X21119642Y-22443154D01*
X21195833Y-22443154D01*
X21310119Y-22481250D01*
X21348214Y-22519345D01*
X22072023Y-22443154D02*
X21691071Y-22443154D01*
X21652976Y-22824107D01*
X21691071Y-22786011D01*
X21767261Y-22747916D01*
X21957738Y-22747916D01*
X22033928Y-22786011D01*
X22072023Y-22824107D01*
X22110119Y-22900297D01*
X22110119Y-23090773D01*
X22072023Y-23166964D01*
X22033928Y-23205059D01*
X21957738Y-23243154D01*
X21767261Y-23243154D01*
X21691071Y-23205059D01*
X21652976Y-23166964D01*
X22605357Y-22443154D02*
X22681547Y-22443154D01*
X22757738Y-22481250D01*
X22795833Y-22519345D01*
X22833928Y-22595535D01*
X22872023Y-22747916D01*
X22872023Y-22938392D01*
X22833928Y-23090773D01*
X22795833Y-23166964D01*
X22757738Y-23205059D01*
X22681547Y-23243154D01*
X22605357Y-23243154D01*
X22529166Y-23205059D01*
X22491071Y-23166964D01*
X22452976Y-23090773D01*
X22414880Y-22938392D01*
X22414880Y-22747916D01*
X22452976Y-22595535D01*
X22491071Y-22519345D01*
X22529166Y-22481250D01*
X22605357Y-22443154D01*
X-3201785Y-24799285D02*
X-3163690Y-24837380D01*
X-3125595Y-24951666D01*
X-3125595Y-25027857D01*
X-3163690Y-25142142D01*
X-3239880Y-25218333D01*
X-3316071Y-25256428D01*
X-3468452Y-25294523D01*
X-3582738Y-25294523D01*
X-3735119Y-25256428D01*
X-3811309Y-25218333D01*
X-3887500Y-25142142D01*
X-3925595Y-25027857D01*
X-3925595Y-24951666D01*
X-3887500Y-24837380D01*
X-3849404Y-24799285D01*
X-3849404Y-24494523D02*
X-3887500Y-24456428D01*
X-3925595Y-24380238D01*
X-3925595Y-24189761D01*
X-3887500Y-24113571D01*
X-3849404Y-24075476D01*
X-3773214Y-24037380D01*
X-3697023Y-24037380D01*
X-3582738Y-24075476D01*
X-3125595Y-24532619D01*
X-3125595Y-24037380D01*
X-3925595Y-23542142D02*
X-3925595Y-23465952D01*
X-3887500Y-23389761D01*
X-3849404Y-23351666D01*
X-3773214Y-23313571D01*
X-3620833Y-23275476D01*
X-3430357Y-23275476D01*
X-3277976Y-23313571D01*
X-3201785Y-23351666D01*
X-3163690Y-23389761D01*
X-3125595Y-23465952D01*
X-3125595Y-23542142D01*
X-3163690Y-23618333D01*
X-3201785Y-23656428D01*
X-3277976Y-23694523D01*
X-3430357Y-23732619D01*
X-3620833Y-23732619D01*
X-3773214Y-23694523D01*
X-3849404Y-23656428D01*
X-3887500Y-23618333D01*
X-3925595Y-23542142D01*
X3185714Y-25885714D02*
X3147619Y-25923809D01*
X3033333Y-25961904D01*
X2957142Y-25961904D01*
X2842857Y-25923809D01*
X2766666Y-25847619D01*
X2728571Y-25771428D01*
X2690476Y-25619047D01*
X2690476Y-25504761D01*
X2728571Y-25352380D01*
X2766666Y-25276190D01*
X2842857Y-25200000D01*
X2957142Y-25161904D01*
X3033333Y-25161904D01*
X3147619Y-25200000D01*
X3185714Y-25238095D01*
X3490476Y-25238095D02*
X3528571Y-25200000D01*
X3604761Y-25161904D01*
X3795238Y-25161904D01*
X3871428Y-25200000D01*
X3909523Y-25238095D01*
X3947619Y-25314285D01*
X3947619Y-25390476D01*
X3909523Y-25504761D01*
X3452380Y-25961904D01*
X3947619Y-25961904D01*
X4709523Y-25961904D02*
X4252380Y-25961904D01*
X4480952Y-25961904D02*
X4480952Y-25161904D01*
X4404761Y-25276190D01*
X4328571Y-25352380D01*
X4252380Y-25390476D01*
X-4264285Y-19859464D02*
X-4302380Y-19897559D01*
X-4416666Y-19935654D01*
X-4492857Y-19935654D01*
X-4607142Y-19897559D01*
X-4683333Y-19821369D01*
X-4721428Y-19745178D01*
X-4759523Y-19592797D01*
X-4759523Y-19478511D01*
X-4721428Y-19326130D01*
X-4683333Y-19249940D01*
X-4607142Y-19173750D01*
X-4492857Y-19135654D01*
X-4416666Y-19135654D01*
X-4302380Y-19173750D01*
X-4264285Y-19211845D01*
X-3959523Y-19211845D02*
X-3921428Y-19173750D01*
X-3845238Y-19135654D01*
X-3654761Y-19135654D01*
X-3578571Y-19173750D01*
X-3540476Y-19211845D01*
X-3502380Y-19288035D01*
X-3502380Y-19364226D01*
X-3540476Y-19478511D01*
X-3997619Y-19935654D01*
X-3502380Y-19935654D01*
X-3197619Y-19211845D02*
X-3159523Y-19173750D01*
X-3083333Y-19135654D01*
X-2892857Y-19135654D01*
X-2816666Y-19173750D01*
X-2778571Y-19211845D01*
X-2740476Y-19288035D01*
X-2740476Y-19364226D01*
X-2778571Y-19478511D01*
X-3235714Y-19935654D01*
X-2740476Y-19935654D01*
X2835714Y-19859464D02*
X2797619Y-19897559D01*
X2683333Y-19935654D01*
X2607142Y-19935654D01*
X2492857Y-19897559D01*
X2416666Y-19821369D01*
X2378571Y-19745178D01*
X2340476Y-19592797D01*
X2340476Y-19478511D01*
X2378571Y-19326130D01*
X2416666Y-19249940D01*
X2492857Y-19173750D01*
X2607142Y-19135654D01*
X2683333Y-19135654D01*
X2797619Y-19173750D01*
X2835714Y-19211845D01*
X3140476Y-19211845D02*
X3178571Y-19173750D01*
X3254761Y-19135654D01*
X3445238Y-19135654D01*
X3521428Y-19173750D01*
X3559523Y-19211845D01*
X3597619Y-19288035D01*
X3597619Y-19364226D01*
X3559523Y-19478511D01*
X3102380Y-19935654D01*
X3597619Y-19935654D01*
X3864285Y-19135654D02*
X4359523Y-19135654D01*
X4092857Y-19440416D01*
X4207142Y-19440416D01*
X4283333Y-19478511D01*
X4321428Y-19516607D01*
X4359523Y-19592797D01*
X4359523Y-19783273D01*
X4321428Y-19859464D01*
X4283333Y-19897559D01*
X4207142Y-19935654D01*
X3978571Y-19935654D01*
X3902380Y-19897559D01*
X3864285Y-19859464D01*
X-8314285Y-22685714D02*
X-8352380Y-22723809D01*
X-8466666Y-22761904D01*
X-8542857Y-22761904D01*
X-8657142Y-22723809D01*
X-8733333Y-22647619D01*
X-8771428Y-22571428D01*
X-8809523Y-22419047D01*
X-8809523Y-22304761D01*
X-8771428Y-22152380D01*
X-8733333Y-22076190D01*
X-8657142Y-22000000D01*
X-8542857Y-21961904D01*
X-8466666Y-21961904D01*
X-8352380Y-22000000D01*
X-8314285Y-22038095D01*
X-7628571Y-21961904D02*
X-7780952Y-21961904D01*
X-7857142Y-22000000D01*
X-7895238Y-22038095D01*
X-7971428Y-22152380D01*
X-8009523Y-22304761D01*
X-8009523Y-22609523D01*
X-7971428Y-22685714D01*
X-7933333Y-22723809D01*
X-7857142Y-22761904D01*
X-7704761Y-22761904D01*
X-7628571Y-22723809D01*
X-7590476Y-22685714D01*
X-7552380Y-22609523D01*
X-7552380Y-22419047D01*
X-7590476Y-22342857D01*
X-7628571Y-22304761D01*
X-7704761Y-22266666D01*
X-7857142Y-22266666D01*
X-7933333Y-22304761D01*
X-7971428Y-22342857D01*
X-8009523Y-22419047D01*
X-6790476Y-22761904D02*
X-7247619Y-22761904D01*
X-7019047Y-22761904D02*
X-7019047Y-21961904D01*
X-7095238Y-22076190D01*
X-7171428Y-22152380D01*
X-7247619Y-22190476D01*
X-14420285Y-25433714D02*
X-14458380Y-25471809D01*
X-14572666Y-25509904D01*
X-14648857Y-25509904D01*
X-14763142Y-25471809D01*
X-14839333Y-25395619D01*
X-14877428Y-25319428D01*
X-14915523Y-25167047D01*
X-14915523Y-25052761D01*
X-14877428Y-24900380D01*
X-14839333Y-24824190D01*
X-14763142Y-24748000D01*
X-14648857Y-24709904D01*
X-14572666Y-24709904D01*
X-14458380Y-24748000D01*
X-14420285Y-24786095D01*
X-13734571Y-24709904D02*
X-13886952Y-24709904D01*
X-13963142Y-24748000D01*
X-14001238Y-24786095D01*
X-14077428Y-24900380D01*
X-14115523Y-25052761D01*
X-14115523Y-25357523D01*
X-14077428Y-25433714D01*
X-14039333Y-25471809D01*
X-13963142Y-25509904D01*
X-13810761Y-25509904D01*
X-13734571Y-25471809D01*
X-13696476Y-25433714D01*
X-13658380Y-25357523D01*
X-13658380Y-25167047D01*
X-13696476Y-25090857D01*
X-13734571Y-25052761D01*
X-13810761Y-25014666D01*
X-13963142Y-25014666D01*
X-14039333Y-25052761D01*
X-14077428Y-25090857D01*
X-14115523Y-25167047D01*
X-13353619Y-24786095D02*
X-13315523Y-24748000D01*
X-13239333Y-24709904D01*
X-13048857Y-24709904D01*
X-12972666Y-24748000D01*
X-12934571Y-24786095D01*
X-12896476Y-24862285D01*
X-12896476Y-24938476D01*
X-12934571Y-25052761D01*
X-13391714Y-25509904D01*
X-12896476Y-25509904D01*
X-15514285Y-24526714D02*
X-15552380Y-24564809D01*
X-15666666Y-24602904D01*
X-15742857Y-24602904D01*
X-15857142Y-24564809D01*
X-15933333Y-24488619D01*
X-15971428Y-24412428D01*
X-16009523Y-24260047D01*
X-16009523Y-24145761D01*
X-15971428Y-23993380D01*
X-15933333Y-23917190D01*
X-15857142Y-23841000D01*
X-15742857Y-23802904D01*
X-15666666Y-23802904D01*
X-15552380Y-23841000D01*
X-15514285Y-23879095D01*
X-14828571Y-23802904D02*
X-14980952Y-23802904D01*
X-15057142Y-23841000D01*
X-15095238Y-23879095D01*
X-15171428Y-23993380D01*
X-15209523Y-24145761D01*
X-15209523Y-24450523D01*
X-15171428Y-24526714D01*
X-15133333Y-24564809D01*
X-15057142Y-24602904D01*
X-14904761Y-24602904D01*
X-14828571Y-24564809D01*
X-14790476Y-24526714D01*
X-14752380Y-24450523D01*
X-14752380Y-24260047D01*
X-14790476Y-24183857D01*
X-14828571Y-24145761D01*
X-14904761Y-24107666D01*
X-15057142Y-24107666D01*
X-15133333Y-24145761D01*
X-15171428Y-24183857D01*
X-15209523Y-24260047D01*
X-14485714Y-23802904D02*
X-13990476Y-23802904D01*
X-14257142Y-24107666D01*
X-14142857Y-24107666D01*
X-14066666Y-24145761D01*
X-14028571Y-24183857D01*
X-13990476Y-24260047D01*
X-13990476Y-24450523D01*
X-14028571Y-24526714D01*
X-14066666Y-24564809D01*
X-14142857Y-24602904D01*
X-14371428Y-24602904D01*
X-14447619Y-24564809D01*
X-14485714Y-24526714D01*
X-17908785Y-24526714D02*
X-17946880Y-24564809D01*
X-18061166Y-24602904D01*
X-18137357Y-24602904D01*
X-18251642Y-24564809D01*
X-18327833Y-24488619D01*
X-18365928Y-24412428D01*
X-18404023Y-24260047D01*
X-18404023Y-24145761D01*
X-18365928Y-23993380D01*
X-18327833Y-23917190D01*
X-18251642Y-23841000D01*
X-18137357Y-23802904D01*
X-18061166Y-23802904D01*
X-17946880Y-23841000D01*
X-17908785Y-23879095D01*
X-17223071Y-23802904D02*
X-17375452Y-23802904D01*
X-17451642Y-23841000D01*
X-17489738Y-23879095D01*
X-17565928Y-23993380D01*
X-17604023Y-24145761D01*
X-17604023Y-24450523D01*
X-17565928Y-24526714D01*
X-17527833Y-24564809D01*
X-17451642Y-24602904D01*
X-17299261Y-24602904D01*
X-17223071Y-24564809D01*
X-17184976Y-24526714D01*
X-17146880Y-24450523D01*
X-17146880Y-24260047D01*
X-17184976Y-24183857D01*
X-17223071Y-24145761D01*
X-17299261Y-24107666D01*
X-17451642Y-24107666D01*
X-17527833Y-24145761D01*
X-17565928Y-24183857D01*
X-17604023Y-24260047D01*
X-16461166Y-24069571D02*
X-16461166Y-24602904D01*
X-16651642Y-23764809D02*
X-16842119Y-24336238D01*
X-16346880Y-24336238D01*
X-18529285Y-23126714D02*
X-18567380Y-23164809D01*
X-18681666Y-23202904D01*
X-18757857Y-23202904D01*
X-18872142Y-23164809D01*
X-18948333Y-23088619D01*
X-18986428Y-23012428D01*
X-19024523Y-22860047D01*
X-19024523Y-22745761D01*
X-18986428Y-22593380D01*
X-18948333Y-22517190D01*
X-18872142Y-22441000D01*
X-18757857Y-22402904D01*
X-18681666Y-22402904D01*
X-18567380Y-22441000D01*
X-18529285Y-22479095D01*
X-17843571Y-22402904D02*
X-17995952Y-22402904D01*
X-18072142Y-22441000D01*
X-18110238Y-22479095D01*
X-18186428Y-22593380D01*
X-18224523Y-22745761D01*
X-18224523Y-23050523D01*
X-18186428Y-23126714D01*
X-18148333Y-23164809D01*
X-18072142Y-23202904D01*
X-17919761Y-23202904D01*
X-17843571Y-23164809D01*
X-17805476Y-23126714D01*
X-17767380Y-23050523D01*
X-17767380Y-22860047D01*
X-17805476Y-22783857D01*
X-17843571Y-22745761D01*
X-17919761Y-22707666D01*
X-18072142Y-22707666D01*
X-18148333Y-22745761D01*
X-18186428Y-22783857D01*
X-18224523Y-22860047D01*
X-17043571Y-22402904D02*
X-17424523Y-22402904D01*
X-17462619Y-22783857D01*
X-17424523Y-22745761D01*
X-17348333Y-22707666D01*
X-17157857Y-22707666D01*
X-17081666Y-22745761D01*
X-17043571Y-22783857D01*
X-17005476Y-22860047D01*
X-17005476Y-23050523D01*
X-17043571Y-23126714D01*
X-17081666Y-23164809D01*
X-17157857Y-23202904D01*
X-17348333Y-23202904D01*
X-17424523Y-23164809D01*
X-17462619Y-23126714D01*
X-18514285Y-19114285D02*
X-18476190Y-19152380D01*
X-18438095Y-19266666D01*
X-18438095Y-19342857D01*
X-18476190Y-19457142D01*
X-18552380Y-19533333D01*
X-18628571Y-19571428D01*
X-18780952Y-19609523D01*
X-18895238Y-19609523D01*
X-19047619Y-19571428D01*
X-19123809Y-19533333D01*
X-19200000Y-19457142D01*
X-19238095Y-19342857D01*
X-19238095Y-19266666D01*
X-19200000Y-19152380D01*
X-19161904Y-19114285D01*
X-19238095Y-18428571D02*
X-19238095Y-18580952D01*
X-19200000Y-18657142D01*
X-19161904Y-18695238D01*
X-19047619Y-18771428D01*
X-18895238Y-18809523D01*
X-18590476Y-18809523D01*
X-18514285Y-18771428D01*
X-18476190Y-18733333D01*
X-18438095Y-18657142D01*
X-18438095Y-18504761D01*
X-18476190Y-18428571D01*
X-18514285Y-18390476D01*
X-18590476Y-18352380D01*
X-18780952Y-18352380D01*
X-18857142Y-18390476D01*
X-18895238Y-18428571D01*
X-18933333Y-18504761D01*
X-18933333Y-18657142D01*
X-18895238Y-18733333D01*
X-18857142Y-18771428D01*
X-18780952Y-18809523D01*
X-19238095Y-17666666D02*
X-19238095Y-17819047D01*
X-19200000Y-17895238D01*
X-19161904Y-17933333D01*
X-19047619Y-18009523D01*
X-18895238Y-18047619D01*
X-18590476Y-18047619D01*
X-18514285Y-18009523D01*
X-18476190Y-17971428D01*
X-18438095Y-17895238D01*
X-18438095Y-17742857D01*
X-18476190Y-17666666D01*
X-18514285Y-17628571D01*
X-18590476Y-17590476D01*
X-18780952Y-17590476D01*
X-18857142Y-17628571D01*
X-18895238Y-17666666D01*
X-18933333Y-17742857D01*
X-18933333Y-17895238D01*
X-18895238Y-17971428D01*
X-18857142Y-18009523D01*
X-18780952Y-18047619D01*
X-19614285Y-19114285D02*
X-19576190Y-19152380D01*
X-19538095Y-19266666D01*
X-19538095Y-19342857D01*
X-19576190Y-19457142D01*
X-19652380Y-19533333D01*
X-19728571Y-19571428D01*
X-19880952Y-19609523D01*
X-19995238Y-19609523D01*
X-20147619Y-19571428D01*
X-20223809Y-19533333D01*
X-20300000Y-19457142D01*
X-20338095Y-19342857D01*
X-20338095Y-19266666D01*
X-20300000Y-19152380D01*
X-20261904Y-19114285D01*
X-20338095Y-18428571D02*
X-20338095Y-18580952D01*
X-20300000Y-18657142D01*
X-20261904Y-18695238D01*
X-20147619Y-18771428D01*
X-19995238Y-18809523D01*
X-19690476Y-18809523D01*
X-19614285Y-18771428D01*
X-19576190Y-18733333D01*
X-19538095Y-18657142D01*
X-19538095Y-18504761D01*
X-19576190Y-18428571D01*
X-19614285Y-18390476D01*
X-19690476Y-18352380D01*
X-19880952Y-18352380D01*
X-19957142Y-18390476D01*
X-19995238Y-18428571D01*
X-20033333Y-18504761D01*
X-20033333Y-18657142D01*
X-19995238Y-18733333D01*
X-19957142Y-18771428D01*
X-19880952Y-18809523D01*
X-20338095Y-18085714D02*
X-20338095Y-17552380D01*
X-19538095Y-17895238D01*
X21410714Y-24643154D02*
X21144047Y-24262202D01*
X20953571Y-24643154D02*
X20953571Y-23843154D01*
X21258333Y-23843154D01*
X21334523Y-23881250D01*
X21372619Y-23919345D01*
X21410714Y-23995535D01*
X21410714Y-24109821D01*
X21372619Y-24186011D01*
X21334523Y-24224107D01*
X21258333Y-24262202D01*
X20953571Y-24262202D01*
X22134523Y-23843154D02*
X21753571Y-23843154D01*
X21715476Y-24224107D01*
X21753571Y-24186011D01*
X21829761Y-24147916D01*
X22020238Y-24147916D01*
X22096428Y-24186011D01*
X22134523Y-24224107D01*
X22172619Y-24300297D01*
X22172619Y-24490773D01*
X22134523Y-24566964D01*
X22096428Y-24605059D01*
X22020238Y-24643154D01*
X21829761Y-24643154D01*
X21753571Y-24605059D01*
X21715476Y-24566964D01*
X22667857Y-23843154D02*
X22744047Y-23843154D01*
X22820238Y-23881250D01*
X22858333Y-23919345D01*
X22896428Y-23995535D01*
X22934523Y-24147916D01*
X22934523Y-24338392D01*
X22896428Y-24490773D01*
X22858333Y-24566964D01*
X22820238Y-24605059D01*
X22744047Y-24643154D01*
X22667857Y-24643154D01*
X22591666Y-24605059D01*
X22553571Y-24566964D01*
X22515476Y-24490773D01*
X22477380Y-24338392D01*
X22477380Y-24147916D01*
X22515476Y-23995535D01*
X22553571Y-23919345D01*
X22591666Y-23881250D01*
X22667857Y-23843154D01*
X13010714Y-24680654D02*
X12744047Y-24299702D01*
X12553571Y-24680654D02*
X12553571Y-23880654D01*
X12858333Y-23880654D01*
X12934523Y-23918750D01*
X12972619Y-23956845D01*
X13010714Y-24033035D01*
X13010714Y-24147321D01*
X12972619Y-24223511D01*
X12934523Y-24261607D01*
X12858333Y-24299702D01*
X12553571Y-24299702D01*
X13734523Y-23880654D02*
X13353571Y-23880654D01*
X13315476Y-24261607D01*
X13353571Y-24223511D01*
X13429761Y-24185416D01*
X13620238Y-24185416D01*
X13696428Y-24223511D01*
X13734523Y-24261607D01*
X13772619Y-24337797D01*
X13772619Y-24528273D01*
X13734523Y-24604464D01*
X13696428Y-24642559D01*
X13620238Y-24680654D01*
X13429761Y-24680654D01*
X13353571Y-24642559D01*
X13315476Y-24604464D01*
X14534523Y-24680654D02*
X14077380Y-24680654D01*
X14305952Y-24680654D02*
X14305952Y-23880654D01*
X14229761Y-23994940D01*
X14153571Y-24071130D01*
X14077380Y-24109226D01*
X5632270Y-8108460D02*
X5365603Y-7727508D01*
X5175127Y-8108460D02*
X5175127Y-7308460D01*
X5479889Y-7308460D01*
X5556079Y-7346556D01*
X5594175Y-7384651D01*
X5632270Y-7460841D01*
X5632270Y-7575127D01*
X5594175Y-7651317D01*
X5556079Y-7689413D01*
X5479889Y-7727508D01*
X5175127Y-7727508D01*
X6394175Y-8108460D02*
X5937032Y-8108460D01*
X6165603Y-8108460D02*
X6165603Y-7308460D01*
X6089413Y-7422746D01*
X6013222Y-7498936D01*
X5937032Y-7537032D01*
X6889413Y-7308460D02*
X6965603Y-7308460D01*
X7041794Y-7346556D01*
X7079889Y-7384651D01*
X7117984Y-7460841D01*
X7156079Y-7613222D01*
X7156079Y-7803698D01*
X7117984Y-7956079D01*
X7079889Y-8032270D01*
X7041794Y-8070365D01*
X6965603Y-8108460D01*
X6889413Y-8108460D01*
X6813222Y-8070365D01*
X6775127Y-8032270D01*
X6737032Y-7956079D01*
X6698936Y-7803698D01*
X6698936Y-7613222D01*
X6737032Y-7460841D01*
X6775127Y-7384651D01*
X6813222Y-7346556D01*
X6889413Y-7308460D01*
X5632270Y-5758460D02*
X5365603Y-5377508D01*
X5175127Y-5758460D02*
X5175127Y-4958460D01*
X5479889Y-4958460D01*
X5556079Y-4996556D01*
X5594175Y-5034651D01*
X5632270Y-5110841D01*
X5632270Y-5225127D01*
X5594175Y-5301317D01*
X5556079Y-5339413D01*
X5479889Y-5377508D01*
X5175127Y-5377508D01*
X6394175Y-5758460D02*
X5937032Y-5758460D01*
X6165603Y-5758460D02*
X6165603Y-4958460D01*
X6089413Y-5072746D01*
X6013222Y-5148936D01*
X5937032Y-5187032D01*
X7156079Y-5758460D02*
X6698936Y-5758460D01*
X6927508Y-5758460D02*
X6927508Y-4958460D01*
X6851317Y-5072746D01*
X6775127Y-5148936D01*
X6698936Y-5187032D01*
X-5814285Y-3261904D02*
X-6080952Y-2880952D01*
X-6271428Y-3261904D02*
X-6271428Y-2461904D01*
X-5966666Y-2461904D01*
X-5890476Y-2500000D01*
X-5852380Y-2538095D01*
X-5814285Y-2614285D01*
X-5814285Y-2728571D01*
X-5852380Y-2804761D01*
X-5890476Y-2842857D01*
X-5966666Y-2880952D01*
X-6271428Y-2880952D01*
X-5052380Y-3261904D02*
X-5509523Y-3261904D01*
X-5280952Y-3261904D02*
X-5280952Y-2461904D01*
X-5357142Y-2576190D01*
X-5433333Y-2652380D01*
X-5509523Y-2690476D01*
X-4747619Y-2538095D02*
X-4709523Y-2500000D01*
X-4633333Y-2461904D01*
X-4442857Y-2461904D01*
X-4366666Y-2500000D01*
X-4328571Y-2538095D01*
X-4290476Y-2614285D01*
X-4290476Y-2690476D01*
X-4328571Y-2804761D01*
X-4785714Y-3261904D01*
X-4290476Y-3261904D01*
X-5814285Y-10861904D02*
X-6080952Y-10480952D01*
X-6271428Y-10861904D02*
X-6271428Y-10061904D01*
X-5966666Y-10061904D01*
X-5890476Y-10100000D01*
X-5852380Y-10138095D01*
X-5814285Y-10214285D01*
X-5814285Y-10328571D01*
X-5852380Y-10404761D01*
X-5890476Y-10442857D01*
X-5966666Y-10480952D01*
X-6271428Y-10480952D01*
X-5052380Y-10861904D02*
X-5509523Y-10861904D01*
X-5280952Y-10861904D02*
X-5280952Y-10061904D01*
X-5357142Y-10176190D01*
X-5433333Y-10252380D01*
X-5509523Y-10290476D01*
X-4785714Y-10061904D02*
X-4290476Y-10061904D01*
X-4557142Y-10366666D01*
X-4442857Y-10366666D01*
X-4366666Y-10404761D01*
X-4328571Y-10442857D01*
X-4290476Y-10519047D01*
X-4290476Y-10709523D01*
X-4328571Y-10785714D01*
X-4366666Y-10823809D01*
X-4442857Y-10861904D01*
X-4671428Y-10861904D01*
X-4747619Y-10823809D01*
X-4785714Y-10785714D01*
X435714Y-19935654D02*
X169047Y-19554702D01*
X-21428Y-19935654D02*
X-21428Y-19135654D01*
X283333Y-19135654D01*
X359523Y-19173750D01*
X397619Y-19211845D01*
X435714Y-19288035D01*
X435714Y-19402321D01*
X397619Y-19478511D01*
X359523Y-19516607D01*
X283333Y-19554702D01*
X-21428Y-19554702D01*
X740476Y-19211845D02*
X778571Y-19173750D01*
X854761Y-19135654D01*
X1045238Y-19135654D01*
X1121428Y-19173750D01*
X1159523Y-19211845D01*
X1197619Y-19288035D01*
X1197619Y-19364226D01*
X1159523Y-19478511D01*
X702380Y-19935654D01*
X1197619Y-19935654D01*
X1692857Y-19135654D02*
X1769047Y-19135654D01*
X1845238Y-19173750D01*
X1883333Y-19211845D01*
X1921428Y-19288035D01*
X1959523Y-19440416D01*
X1959523Y-19630892D01*
X1921428Y-19783273D01*
X1883333Y-19859464D01*
X1845238Y-19897559D01*
X1769047Y-19935654D01*
X1692857Y-19935654D01*
X1616666Y-19897559D01*
X1578571Y-19859464D01*
X1540476Y-19783273D01*
X1502380Y-19630892D01*
X1502380Y-19440416D01*
X1540476Y-19288035D01*
X1578571Y-19211845D01*
X1616666Y-19173750D01*
X1692857Y-19135654D01*
X-1864285Y-19935654D02*
X-2130952Y-19554702D01*
X-2321428Y-19935654D02*
X-2321428Y-19135654D01*
X-2016666Y-19135654D01*
X-1940476Y-19173750D01*
X-1902380Y-19211845D01*
X-1864285Y-19288035D01*
X-1864285Y-19402321D01*
X-1902380Y-19478511D01*
X-1940476Y-19516607D01*
X-2016666Y-19554702D01*
X-2321428Y-19554702D01*
X-1559523Y-19211845D02*
X-1521428Y-19173750D01*
X-1445238Y-19135654D01*
X-1254761Y-19135654D01*
X-1178571Y-19173750D01*
X-1140476Y-19211845D01*
X-1102380Y-19288035D01*
X-1102380Y-19364226D01*
X-1140476Y-19478511D01*
X-1597619Y-19935654D01*
X-1102380Y-19935654D01*
X-340476Y-19935654D02*
X-797619Y-19935654D01*
X-569047Y-19935654D02*
X-569047Y-19135654D01*
X-645238Y-19249940D01*
X-721428Y-19326130D01*
X-797619Y-19364226D01*
X-8514285Y-20261904D02*
X-8780952Y-19880952D01*
X-8971428Y-20261904D02*
X-8971428Y-19461904D01*
X-8666666Y-19461904D01*
X-8590476Y-19500000D01*
X-8552380Y-19538095D01*
X-8514285Y-19614285D01*
X-8514285Y-19728571D01*
X-8552380Y-19804761D01*
X-8590476Y-19842857D01*
X-8666666Y-19880952D01*
X-8971428Y-19880952D01*
X-7828571Y-19461904D02*
X-7980952Y-19461904D01*
X-8057142Y-19500000D01*
X-8095238Y-19538095D01*
X-8171428Y-19652380D01*
X-8209523Y-19804761D01*
X-8209523Y-20109523D01*
X-8171428Y-20185714D01*
X-8133333Y-20223809D01*
X-8057142Y-20261904D01*
X-7904761Y-20261904D01*
X-7828571Y-20223809D01*
X-7790476Y-20185714D01*
X-7752380Y-20109523D01*
X-7752380Y-19919047D01*
X-7790476Y-19842857D01*
X-7828571Y-19804761D01*
X-7904761Y-19766666D01*
X-8057142Y-19766666D01*
X-8133333Y-19804761D01*
X-8171428Y-19842857D01*
X-8209523Y-19919047D01*
X-7257142Y-19461904D02*
X-7180952Y-19461904D01*
X-7104761Y-19500000D01*
X-7066666Y-19538095D01*
X-7028571Y-19614285D01*
X-6990476Y-19766666D01*
X-6990476Y-19957142D01*
X-7028571Y-20109523D01*
X-7066666Y-20185714D01*
X-7104761Y-20223809D01*
X-7180952Y-20261904D01*
X-7257142Y-20261904D01*
X-7333333Y-20223809D01*
X-7371428Y-20185714D01*
X-7409523Y-20109523D01*
X-7447619Y-19957142D01*
X-7447619Y-19766666D01*
X-7409523Y-19614285D01*
X-7371428Y-19538095D01*
X-7333333Y-19500000D01*
X-7257142Y-19461904D01*
X-17814285Y-10614285D02*
X-17776190Y-10652380D01*
X-17738095Y-10766666D01*
X-17738095Y-10842857D01*
X-17776190Y-10957142D01*
X-17852380Y-11033333D01*
X-17928571Y-11071428D01*
X-18080952Y-11109523D01*
X-18195238Y-11109523D01*
X-18347619Y-11071428D01*
X-18423809Y-11033333D01*
X-18500000Y-10957142D01*
X-18538095Y-10842857D01*
X-18538095Y-10766666D01*
X-18500000Y-10652380D01*
X-18461904Y-10614285D01*
X-18195238Y-10157142D02*
X-18233333Y-10233333D01*
X-18271428Y-10271428D01*
X-18347619Y-10309523D01*
X-18385714Y-10309523D01*
X-18461904Y-10271428D01*
X-18500000Y-10233333D01*
X-18538095Y-10157142D01*
X-18538095Y-10004761D01*
X-18500000Y-9928571D01*
X-18461904Y-9890476D01*
X-18385714Y-9852380D01*
X-18347619Y-9852380D01*
X-18271428Y-9890476D01*
X-18233333Y-9928571D01*
X-18195238Y-10004761D01*
X-18195238Y-10157142D01*
X-18157142Y-10233333D01*
X-18119047Y-10271428D01*
X-18042857Y-10309523D01*
X-17890476Y-10309523D01*
X-17814285Y-10271428D01*
X-17776190Y-10233333D01*
X-17738095Y-10157142D01*
X-17738095Y-10004761D01*
X-17776190Y-9928571D01*
X-17814285Y-9890476D01*
X-17890476Y-9852380D01*
X-18042857Y-9852380D01*
X-18119047Y-9890476D01*
X-18157142Y-9928571D01*
X-18195238Y-10004761D01*
X-18195238Y-9395238D02*
X-18233333Y-9471428D01*
X-18271428Y-9509523D01*
X-18347619Y-9547619D01*
X-18385714Y-9547619D01*
X-18461904Y-9509523D01*
X-18500000Y-9471428D01*
X-18538095Y-9395238D01*
X-18538095Y-9242857D01*
X-18500000Y-9166666D01*
X-18461904Y-9128571D01*
X-18385714Y-9090476D01*
X-18347619Y-9090476D01*
X-18271428Y-9128571D01*
X-18233333Y-9166666D01*
X-18195238Y-9242857D01*
X-18195238Y-9395238D01*
X-18157142Y-9471428D01*
X-18119047Y-9509523D01*
X-18042857Y-9547619D01*
X-17890476Y-9547619D01*
X-17814285Y-9509523D01*
X-17776190Y-9471428D01*
X-17738095Y-9395238D01*
X-17738095Y-9242857D01*
X-17776190Y-9166666D01*
X-17814285Y-9128571D01*
X-17890476Y-9090476D01*
X-18042857Y-9090476D01*
X-18119047Y-9128571D01*
X-18157142Y-9166666D01*
X-18195238Y-9242857D01*
X25361927Y-18883102D02*
X24901432Y-18947755D01*
X25154388Y-19290419D02*
X24441583Y-18927227D01*
X24579942Y-18655682D01*
X24648475Y-18605090D01*
X24699713Y-18588442D01*
X24784894Y-18589089D01*
X24886723Y-18640973D01*
X24937315Y-18709506D01*
X24953963Y-18760744D01*
X24953316Y-18845925D01*
X24814957Y-19117470D01*
X25707824Y-18204240D02*
X25500286Y-18611557D01*
X25604055Y-18407898D02*
X24891250Y-18044706D01*
X24958490Y-18164477D01*
X24991786Y-18266953D01*
X24991139Y-18352134D01*
X-8714285Y-14814285D02*
X-8676190Y-14852380D01*
X-8638095Y-14966666D01*
X-8638095Y-15042857D01*
X-8676190Y-15157142D01*
X-8752380Y-15233333D01*
X-8828571Y-15271428D01*
X-8980952Y-15309523D01*
X-9095238Y-15309523D01*
X-9247619Y-15271428D01*
X-9323809Y-15233333D01*
X-9400000Y-15157142D01*
X-9438095Y-15042857D01*
X-9438095Y-14966666D01*
X-9400000Y-14852380D01*
X-9361904Y-14814285D01*
X-9438095Y-14128571D02*
X-9438095Y-14280952D01*
X-9400000Y-14357142D01*
X-9361904Y-14395238D01*
X-9247619Y-14471428D01*
X-9095238Y-14509523D01*
X-8790476Y-14509523D01*
X-8714285Y-14471428D01*
X-8676190Y-14433333D01*
X-8638095Y-14357142D01*
X-8638095Y-14204761D01*
X-8676190Y-14128571D01*
X-8714285Y-14090476D01*
X-8790476Y-14052380D01*
X-8980952Y-14052380D01*
X-9057142Y-14090476D01*
X-9095238Y-14128571D01*
X-9133333Y-14204761D01*
X-9133333Y-14357142D01*
X-9095238Y-14433333D01*
X-9057142Y-14471428D01*
X-8980952Y-14509523D01*
X-9095238Y-13595238D02*
X-9133333Y-13671428D01*
X-9171428Y-13709523D01*
X-9247619Y-13747619D01*
X-9285714Y-13747619D01*
X-9361904Y-13709523D01*
X-9400000Y-13671428D01*
X-9438095Y-13595238D01*
X-9438095Y-13442857D01*
X-9400000Y-13366666D01*
X-9361904Y-13328571D01*
X-9285714Y-13290476D01*
X-9247619Y-13290476D01*
X-9171428Y-13328571D01*
X-9133333Y-13366666D01*
X-9095238Y-13442857D01*
X-9095238Y-13595238D01*
X-9057142Y-13671428D01*
X-9019047Y-13709523D01*
X-8942857Y-13747619D01*
X-8790476Y-13747619D01*
X-8714285Y-13709523D01*
X-8676190Y-13671428D01*
X-8638095Y-13595238D01*
X-8638095Y-13442857D01*
X-8676190Y-13366666D01*
X-8714285Y-13328571D01*
X-8790476Y-13290476D01*
X-8942857Y-13290476D01*
X-9019047Y-13328571D01*
X-9057142Y-13366666D01*
X-9095238Y-13442857D01*
X-24214285Y-21185714D02*
X-24252380Y-21223809D01*
X-24366666Y-21261904D01*
X-24442857Y-21261904D01*
X-24557142Y-21223809D01*
X-24633333Y-21147619D01*
X-24671428Y-21071428D01*
X-24709523Y-20919047D01*
X-24709523Y-20804761D01*
X-24671428Y-20652380D01*
X-24633333Y-20576190D01*
X-24557142Y-20500000D01*
X-24442857Y-20461904D01*
X-24366666Y-20461904D01*
X-24252380Y-20500000D01*
X-24214285Y-20538095D01*
X-23757142Y-20804761D02*
X-23833333Y-20766666D01*
X-23871428Y-20728571D01*
X-23909523Y-20652380D01*
X-23909523Y-20614285D01*
X-23871428Y-20538095D01*
X-23833333Y-20500000D01*
X-23757142Y-20461904D01*
X-23604761Y-20461904D01*
X-23528571Y-20500000D01*
X-23490476Y-20538095D01*
X-23452380Y-20614285D01*
X-23452380Y-20652380D01*
X-23490476Y-20728571D01*
X-23528571Y-20766666D01*
X-23604761Y-20804761D01*
X-23757142Y-20804761D01*
X-23833333Y-20842857D01*
X-23871428Y-20880952D01*
X-23909523Y-20957142D01*
X-23909523Y-21109523D01*
X-23871428Y-21185714D01*
X-23833333Y-21223809D01*
X-23757142Y-21261904D01*
X-23604761Y-21261904D01*
X-23528571Y-21223809D01*
X-23490476Y-21185714D01*
X-23452380Y-21109523D01*
X-23452380Y-20957142D01*
X-23490476Y-20880952D01*
X-23528571Y-20842857D01*
X-23604761Y-20804761D01*
X-22957142Y-20461904D02*
X-22880952Y-20461904D01*
X-22804761Y-20500000D01*
X-22766666Y-20538095D01*
X-22728571Y-20614285D01*
X-22690476Y-20766666D01*
X-22690476Y-20957142D01*
X-22728571Y-21109523D01*
X-22766666Y-21185714D01*
X-22804761Y-21223809D01*
X-22880952Y-21261904D01*
X-22957142Y-21261904D01*
X-23033333Y-21223809D01*
X-23071428Y-21185714D01*
X-23109523Y-21109523D01*
X-23147619Y-20957142D01*
X-23147619Y-20766666D01*
X-23109523Y-20614285D01*
X-23071428Y-20538095D01*
X-23033333Y-20500000D01*
X-22957142Y-20461904D01*
X-15114285Y-10614285D02*
X-15076190Y-10652380D01*
X-15038095Y-10766666D01*
X-15038095Y-10842857D01*
X-15076190Y-10957142D01*
X-15152380Y-11033333D01*
X-15228571Y-11071428D01*
X-15380952Y-11109523D01*
X-15495238Y-11109523D01*
X-15647619Y-11071428D01*
X-15723809Y-11033333D01*
X-15800000Y-10957142D01*
X-15838095Y-10842857D01*
X-15838095Y-10766666D01*
X-15800000Y-10652380D01*
X-15761904Y-10614285D01*
X-15495238Y-10157142D02*
X-15533333Y-10233333D01*
X-15571428Y-10271428D01*
X-15647619Y-10309523D01*
X-15685714Y-10309523D01*
X-15761904Y-10271428D01*
X-15800000Y-10233333D01*
X-15838095Y-10157142D01*
X-15838095Y-10004761D01*
X-15800000Y-9928571D01*
X-15761904Y-9890476D01*
X-15685714Y-9852380D01*
X-15647619Y-9852380D01*
X-15571428Y-9890476D01*
X-15533333Y-9928571D01*
X-15495238Y-10004761D01*
X-15495238Y-10157142D01*
X-15457142Y-10233333D01*
X-15419047Y-10271428D01*
X-15342857Y-10309523D01*
X-15190476Y-10309523D01*
X-15114285Y-10271428D01*
X-15076190Y-10233333D01*
X-15038095Y-10157142D01*
X-15038095Y-10004761D01*
X-15076190Y-9928571D01*
X-15114285Y-9890476D01*
X-15190476Y-9852380D01*
X-15342857Y-9852380D01*
X-15419047Y-9890476D01*
X-15457142Y-9928571D01*
X-15495238Y-10004761D01*
X-15838095Y-9585714D02*
X-15838095Y-9052380D01*
X-15038095Y-9395238D01*
X31566666Y-6285714D02*
X31528571Y-6323809D01*
X31414285Y-6361904D01*
X31338095Y-6361904D01*
X31223809Y-6323809D01*
X31147619Y-6247619D01*
X31109523Y-6171428D01*
X31071428Y-6019047D01*
X31071428Y-5904761D01*
X31109523Y-5752380D01*
X31147619Y-5676190D01*
X31223809Y-5600000D01*
X31338095Y-5561904D01*
X31414285Y-5561904D01*
X31528571Y-5600000D01*
X31566666Y-5638095D01*
X32290476Y-5561904D02*
X31909523Y-5561904D01*
X31871428Y-5942857D01*
X31909523Y-5904761D01*
X31985714Y-5866666D01*
X32176190Y-5866666D01*
X32252380Y-5904761D01*
X32290476Y-5942857D01*
X32328571Y-6019047D01*
X32328571Y-6209523D01*
X32290476Y-6285714D01*
X32252380Y-6323809D01*
X32176190Y-6361904D01*
X31985714Y-6361904D01*
X31909523Y-6323809D01*
X31871428Y-6285714D01*
X-9338095Y-4945535D02*
X-9719047Y-5212202D01*
X-9338095Y-5402678D02*
X-10138095Y-5402678D01*
X-10138095Y-5097916D01*
X-10100000Y-5021726D01*
X-10061904Y-4983630D01*
X-9985714Y-4945535D01*
X-9871428Y-4945535D01*
X-9795238Y-4983630D01*
X-9757142Y-5021726D01*
X-9719047Y-5097916D01*
X-9719047Y-5402678D01*
X-9338095Y-4183630D02*
X-9338095Y-4640773D01*
X-9338095Y-4412202D02*
X-10138095Y-4412202D01*
X-10023809Y-4488392D01*
X-9947619Y-4564583D01*
X-9909523Y-4640773D01*
X-10138095Y-3916964D02*
X-10138095Y-3383630D01*
X-9338095Y-3726488D01*
X16809523Y-33061904D02*
X16809523Y-32261904D01*
X17000000Y-32261904D01*
X17114285Y-32300000D01*
X17190476Y-32376190D01*
X17228571Y-32452380D01*
X17266666Y-32604761D01*
X17266666Y-32719047D01*
X17228571Y-32871428D01*
X17190476Y-32947619D01*
X17114285Y-33023809D01*
X17000000Y-33061904D01*
X16809523Y-33061904D01*
X17571428Y-32338095D02*
X17609523Y-32300000D01*
X17685714Y-32261904D01*
X17876190Y-32261904D01*
X17952380Y-32300000D01*
X17990476Y-32338095D01*
X18028571Y-32414285D01*
X18028571Y-32490476D01*
X17990476Y-32604761D01*
X17533333Y-33061904D01*
X18028571Y-33061904D01*
X29066666Y-11135714D02*
X29028571Y-11173809D01*
X28914285Y-11211904D01*
X28838095Y-11211904D01*
X28723809Y-11173809D01*
X28647619Y-11097619D01*
X28609523Y-11021428D01*
X28571428Y-10869047D01*
X28571428Y-10754761D01*
X28609523Y-10602380D01*
X28647619Y-10526190D01*
X28723809Y-10450000D01*
X28838095Y-10411904D01*
X28914285Y-10411904D01*
X29028571Y-10450000D01*
X29066666Y-10488095D01*
X29333333Y-10411904D02*
X29828571Y-10411904D01*
X29561904Y-10716666D01*
X29676190Y-10716666D01*
X29752380Y-10754761D01*
X29790476Y-10792857D01*
X29828571Y-10869047D01*
X29828571Y-11059523D01*
X29790476Y-11135714D01*
X29752380Y-11173809D01*
X29676190Y-11211904D01*
X29447619Y-11211904D01*
X29371428Y-11173809D01*
X29333333Y-11135714D01*
X25066666Y-7785714D02*
X25028571Y-7823809D01*
X24914285Y-7861904D01*
X24838095Y-7861904D01*
X24723809Y-7823809D01*
X24647619Y-7747619D01*
X24609523Y-7671428D01*
X24571428Y-7519047D01*
X24571428Y-7404761D01*
X24609523Y-7252380D01*
X24647619Y-7176190D01*
X24723809Y-7100000D01*
X24838095Y-7061904D01*
X24914285Y-7061904D01*
X25028571Y-7100000D01*
X25066666Y-7138095D01*
X25752380Y-7061904D02*
X25600000Y-7061904D01*
X25523809Y-7100000D01*
X25485714Y-7138095D01*
X25409523Y-7252380D01*
X25371428Y-7404761D01*
X25371428Y-7709523D01*
X25409523Y-7785714D01*
X25447619Y-7823809D01*
X25523809Y-7861904D01*
X25676190Y-7861904D01*
X25752380Y-7823809D01*
X25790476Y-7785714D01*
X25828571Y-7709523D01*
X25828571Y-7519047D01*
X25790476Y-7442857D01*
X25752380Y-7404761D01*
X25676190Y-7366666D01*
X25523809Y-7366666D01*
X25447619Y-7404761D01*
X25409523Y-7442857D01*
X25371428Y-7519047D01*
X-27064285Y-9385714D02*
X-27102380Y-9423809D01*
X-27216666Y-9461904D01*
X-27292857Y-9461904D01*
X-27407142Y-9423809D01*
X-27483333Y-9347619D01*
X-27521428Y-9271428D01*
X-27559523Y-9119047D01*
X-27559523Y-9004761D01*
X-27521428Y-8852380D01*
X-27483333Y-8776190D01*
X-27407142Y-8700000D01*
X-27292857Y-8661904D01*
X-27216666Y-8661904D01*
X-27102380Y-8700000D01*
X-27064285Y-8738095D01*
X-26797619Y-8661904D02*
X-26264285Y-8661904D01*
X-26607142Y-9461904D01*
X-25807142Y-8661904D02*
X-25730952Y-8661904D01*
X-25654761Y-8700000D01*
X-25616666Y-8738095D01*
X-25578571Y-8814285D01*
X-25540476Y-8966666D01*
X-25540476Y-9157142D01*
X-25578571Y-9309523D01*
X-25616666Y-9385714D01*
X-25654761Y-9423809D01*
X-25730952Y-9461904D01*
X-25807142Y-9461904D01*
X-25883333Y-9423809D01*
X-25921428Y-9385714D01*
X-25959523Y-9309523D01*
X-25997619Y-9157142D01*
X-25997619Y-8966666D01*
X-25959523Y-8814285D01*
X-25921428Y-8738095D01*
X-25883333Y-8700000D01*
X-25807142Y-8661904D01*
X-24214285Y-20085714D02*
X-24252380Y-20123809D01*
X-24366666Y-20161904D01*
X-24442857Y-20161904D01*
X-24557142Y-20123809D01*
X-24633333Y-20047619D01*
X-24671428Y-19971428D01*
X-24709523Y-19819047D01*
X-24709523Y-19704761D01*
X-24671428Y-19552380D01*
X-24633333Y-19476190D01*
X-24557142Y-19400000D01*
X-24442857Y-19361904D01*
X-24366666Y-19361904D01*
X-24252380Y-19400000D01*
X-24214285Y-19438095D01*
X-23757142Y-19704761D02*
X-23833333Y-19666666D01*
X-23871428Y-19628571D01*
X-23909523Y-19552380D01*
X-23909523Y-19514285D01*
X-23871428Y-19438095D01*
X-23833333Y-19400000D01*
X-23757142Y-19361904D01*
X-23604761Y-19361904D01*
X-23528571Y-19400000D01*
X-23490476Y-19438095D01*
X-23452380Y-19514285D01*
X-23452380Y-19552380D01*
X-23490476Y-19628571D01*
X-23528571Y-19666666D01*
X-23604761Y-19704761D01*
X-23757142Y-19704761D01*
X-23833333Y-19742857D01*
X-23871428Y-19780952D01*
X-23909523Y-19857142D01*
X-23909523Y-20009523D01*
X-23871428Y-20085714D01*
X-23833333Y-20123809D01*
X-23757142Y-20161904D01*
X-23604761Y-20161904D01*
X-23528571Y-20123809D01*
X-23490476Y-20085714D01*
X-23452380Y-20009523D01*
X-23452380Y-19857142D01*
X-23490476Y-19780952D01*
X-23528571Y-19742857D01*
X-23604761Y-19704761D01*
X-22690476Y-20161904D02*
X-23147619Y-20161904D01*
X-22919047Y-20161904D02*
X-22919047Y-19361904D01*
X-22995238Y-19476190D01*
X-23071428Y-19552380D01*
X-23147619Y-19590476D01*
X-25714285Y-18211904D02*
X-26095238Y-18211904D01*
X-26095238Y-17411904D01*
X-25104761Y-17411904D02*
X-25257142Y-17411904D01*
X-25333333Y-17450000D01*
X-25371428Y-17488095D01*
X-25447619Y-17602380D01*
X-25485714Y-17754761D01*
X-25485714Y-18059523D01*
X-25447619Y-18135714D01*
X-25409523Y-18173809D01*
X-25333333Y-18211904D01*
X-25180952Y-18211904D01*
X-25104761Y-18173809D01*
X-25066666Y-18135714D01*
X-25028571Y-18059523D01*
X-25028571Y-17869047D01*
X-25066666Y-17792857D01*
X-25104761Y-17754761D01*
X-25180952Y-17716666D01*
X-25333333Y-17716666D01*
X-25409523Y-17754761D01*
X-25447619Y-17792857D01*
X-25485714Y-17869047D01*
X-24723809Y-17488095D02*
X-24685714Y-17450000D01*
X-24609523Y-17411904D01*
X-24419047Y-17411904D01*
X-24342857Y-17450000D01*
X-24304761Y-17488095D01*
X-24266666Y-17564285D01*
X-24266666Y-17640476D01*
X-24304761Y-17754761D01*
X-24761904Y-18211904D01*
X-24266666Y-18211904D01*
X-5714285Y-13810714D02*
X-5752380Y-13848809D01*
X-5866666Y-13886904D01*
X-5942857Y-13886904D01*
X-6057142Y-13848809D01*
X-6133333Y-13772619D01*
X-6171428Y-13696428D01*
X-6209523Y-13544047D01*
X-6209523Y-13429761D01*
X-6171428Y-13277380D01*
X-6133333Y-13201190D01*
X-6057142Y-13125000D01*
X-5942857Y-13086904D01*
X-5866666Y-13086904D01*
X-5752380Y-13125000D01*
X-5714285Y-13163095D01*
X-5028571Y-13353571D02*
X-5028571Y-13886904D01*
X-5219047Y-13048809D02*
X-5409523Y-13620238D01*
X-4914285Y-13620238D01*
X-4457142Y-13086904D02*
X-4380952Y-13086904D01*
X-4304761Y-13125000D01*
X-4266666Y-13163095D01*
X-4228571Y-13239285D01*
X-4190476Y-13391666D01*
X-4190476Y-13582142D01*
X-4228571Y-13734523D01*
X-4266666Y-13810714D01*
X-4304761Y-13848809D01*
X-4380952Y-13886904D01*
X-4457142Y-13886904D01*
X-4533333Y-13848809D01*
X-4571428Y-13810714D01*
X-4609523Y-13734523D01*
X-4647619Y-13582142D01*
X-4647619Y-13391666D01*
X-4609523Y-13239285D01*
X-4571428Y-13163095D01*
X-4533333Y-13125000D01*
X-4457142Y-13086904D01*
X-17990476Y-33061904D02*
X-17990476Y-32261904D01*
X-17800000Y-32261904D01*
X-17685714Y-32300000D01*
X-17609523Y-32376190D01*
X-17571428Y-32452380D01*
X-17533333Y-32604761D01*
X-17533333Y-32719047D01*
X-17571428Y-32871428D01*
X-17609523Y-32947619D01*
X-17685714Y-33023809D01*
X-17800000Y-33061904D01*
X-17990476Y-33061904D01*
X-16771428Y-33061904D02*
X-17228571Y-33061904D01*
X-17000000Y-33061904D02*
X-17000000Y-32261904D01*
X-17076190Y-32376190D01*
X-17152380Y-32452380D01*
X-17228571Y-32490476D01*
X-22814285Y-13335714D02*
X-22852380Y-13373809D01*
X-22966666Y-13411904D01*
X-23042857Y-13411904D01*
X-23157142Y-13373809D01*
X-23233333Y-13297619D01*
X-23271428Y-13221428D01*
X-23309523Y-13069047D01*
X-23309523Y-12954761D01*
X-23271428Y-12802380D01*
X-23233333Y-12726190D01*
X-23157142Y-12650000D01*
X-23042857Y-12611904D01*
X-22966666Y-12611904D01*
X-22852380Y-12650000D01*
X-22814285Y-12688095D01*
X-22357142Y-12954761D02*
X-22433333Y-12916666D01*
X-22471428Y-12878571D01*
X-22509523Y-12802380D01*
X-22509523Y-12764285D01*
X-22471428Y-12688095D01*
X-22433333Y-12650000D01*
X-22357142Y-12611904D01*
X-22204761Y-12611904D01*
X-22128571Y-12650000D01*
X-22090476Y-12688095D01*
X-22052380Y-12764285D01*
X-22052380Y-12802380D01*
X-22090476Y-12878571D01*
X-22128571Y-12916666D01*
X-22204761Y-12954761D01*
X-22357142Y-12954761D01*
X-22433333Y-12992857D01*
X-22471428Y-13030952D01*
X-22509523Y-13107142D01*
X-22509523Y-13259523D01*
X-22471428Y-13335714D01*
X-22433333Y-13373809D01*
X-22357142Y-13411904D01*
X-22204761Y-13411904D01*
X-22128571Y-13373809D01*
X-22090476Y-13335714D01*
X-22052380Y-13259523D01*
X-22052380Y-13107142D01*
X-22090476Y-13030952D01*
X-22128571Y-12992857D01*
X-22204761Y-12954761D01*
X-21366666Y-12878571D02*
X-21366666Y-13411904D01*
X-21557142Y-12573809D02*
X-21747619Y-13145238D01*
X-21252380Y-13145238D01*
X-19738095Y-11314285D02*
X-20119047Y-11580952D01*
X-19738095Y-11771428D02*
X-20538095Y-11771428D01*
X-20538095Y-11466666D01*
X-20500000Y-11390476D01*
X-20461904Y-11352380D01*
X-20385714Y-11314285D01*
X-20271428Y-11314285D01*
X-20195238Y-11352380D01*
X-20157142Y-11390476D01*
X-20119047Y-11466666D01*
X-20119047Y-11771428D01*
X-20538095Y-10628571D02*
X-20538095Y-10780952D01*
X-20500000Y-10857142D01*
X-20461904Y-10895238D01*
X-20347619Y-10971428D01*
X-20195238Y-11009523D01*
X-19890476Y-11009523D01*
X-19814285Y-10971428D01*
X-19776190Y-10933333D01*
X-19738095Y-10857142D01*
X-19738095Y-10704761D01*
X-19776190Y-10628571D01*
X-19814285Y-10590476D01*
X-19890476Y-10552380D01*
X-20080952Y-10552380D01*
X-20157142Y-10590476D01*
X-20195238Y-10628571D01*
X-20233333Y-10704761D01*
X-20233333Y-10857142D01*
X-20195238Y-10933333D01*
X-20157142Y-10971428D01*
X-20080952Y-11009523D01*
X-19738095Y-9790476D02*
X-19738095Y-10247619D01*
X-19738095Y-10019047D02*
X-20538095Y-10019047D01*
X-20423809Y-10095238D01*
X-20347619Y-10171428D01*
X-20309523Y-10247619D01*
X-22714285Y-14861904D02*
X-23095238Y-14861904D01*
X-23095238Y-14061904D01*
X-22104761Y-14061904D02*
X-22257142Y-14061904D01*
X-22333333Y-14100000D01*
X-22371428Y-14138095D01*
X-22447619Y-14252380D01*
X-22485714Y-14404761D01*
X-22485714Y-14709523D01*
X-22447619Y-14785714D01*
X-22409523Y-14823809D01*
X-22333333Y-14861904D01*
X-22180952Y-14861904D01*
X-22104761Y-14823809D01*
X-22066666Y-14785714D01*
X-22028571Y-14709523D01*
X-22028571Y-14519047D01*
X-22066666Y-14442857D01*
X-22104761Y-14404761D01*
X-22180952Y-14366666D01*
X-22333333Y-14366666D01*
X-22409523Y-14404761D01*
X-22447619Y-14442857D01*
X-22485714Y-14519047D01*
X-21761904Y-14061904D02*
X-21266666Y-14061904D01*
X-21533333Y-14366666D01*
X-21419047Y-14366666D01*
X-21342857Y-14404761D01*
X-21304761Y-14442857D01*
X-21266666Y-14519047D01*
X-21266666Y-14709523D01*
X-21304761Y-14785714D01*
X-21342857Y-14823809D01*
X-21419047Y-14861904D01*
X-21647619Y-14861904D01*
X-21723809Y-14823809D01*
X-21761904Y-14785714D01*
D12*
D11*
X25016666Y-3985714D02*
X24978571Y-4023809D01*
X24864285Y-4061904D01*
X24788095Y-4061904D01*
X24673809Y-4023809D01*
X24597619Y-3947619D01*
X24559523Y-3871428D01*
X24521428Y-3719047D01*
X24521428Y-3604761D01*
X24559523Y-3452380D01*
X24597619Y-3376190D01*
X24673809Y-3300000D01*
X24788095Y-3261904D01*
X24864285Y-3261904D01*
X24978571Y-3300000D01*
X25016666Y-3338095D01*
X25778571Y-4061904D02*
X25321428Y-4061904D01*
X25550000Y-4061904D02*
X25550000Y-3261904D01*
X25473809Y-3376190D01*
X25397619Y-3452380D01*
X25321428Y-3490476D01*
X5632270Y-6911904D02*
X5365603Y-6530952D01*
X5175127Y-6911904D02*
X5175127Y-6111904D01*
X5479889Y-6111904D01*
X5556079Y-6150000D01*
X5594175Y-6188095D01*
X5632270Y-6264285D01*
X5632270Y-6378571D01*
X5594175Y-6454761D01*
X5556079Y-6492857D01*
X5479889Y-6530952D01*
X5175127Y-6530952D01*
X6394175Y-6911904D02*
X5937032Y-6911904D01*
X6165603Y-6911904D02*
X6165603Y-6111904D01*
X6089413Y-6226190D01*
X6013222Y-6302380D01*
X5937032Y-6340476D01*
X7117984Y-6111904D02*
X6737032Y-6111904D01*
X6698936Y-6492857D01*
X6737032Y-6454761D01*
X6813222Y-6416666D01*
X7003698Y-6416666D01*
X7079889Y-6454761D01*
X7117984Y-6492857D01*
X7156079Y-6569047D01*
X7156079Y-6759523D01*
X7117984Y-6835714D01*
X7079889Y-6873809D01*
X7003698Y-6911904D01*
X6813222Y-6911904D01*
X6737032Y-6873809D01*
X6698936Y-6835714D01*
X-21814285Y-22361904D02*
X-22195238Y-22361904D01*
X-22195238Y-21561904D01*
X-21204761Y-21561904D02*
X-21357142Y-21561904D01*
X-21433333Y-21600000D01*
X-21471428Y-21638095D01*
X-21547619Y-21752380D01*
X-21585714Y-21904761D01*
X-21585714Y-22209523D01*
X-21547619Y-22285714D01*
X-21509523Y-22323809D01*
X-21433333Y-22361904D01*
X-21280952Y-22361904D01*
X-21204761Y-22323809D01*
X-21166666Y-22285714D01*
X-21128571Y-22209523D01*
X-21128571Y-22019047D01*
X-21166666Y-21942857D01*
X-21204761Y-21904761D01*
X-21280952Y-21866666D01*
X-21433333Y-21866666D01*
X-21509523Y-21904761D01*
X-21547619Y-21942857D01*
X-21585714Y-22019047D01*
X-20366666Y-22361904D02*
X-20823809Y-22361904D01*
X-20595238Y-22361904D02*
X-20595238Y-21561904D01*
X-20671428Y-21676190D01*
X-20747619Y-21752380D01*
X-20823809Y-21790476D01*
X6266666Y-15211904D02*
X6000000Y-14830952D01*
X5809523Y-15211904D02*
X5809523Y-14411904D01*
X6114285Y-14411904D01*
X6190476Y-14450000D01*
X6228571Y-14488095D01*
X6266666Y-14564285D01*
X6266666Y-14678571D01*
X6228571Y-14754761D01*
X6190476Y-14792857D01*
X6114285Y-14830952D01*
X5809523Y-14830952D01*
X6533333Y-14411904D02*
X7028571Y-14411904D01*
X6761904Y-14716666D01*
X6876190Y-14716666D01*
X6952380Y-14754761D01*
X6990476Y-14792857D01*
X7028571Y-14869047D01*
X7028571Y-15059523D01*
X6990476Y-15135714D01*
X6952380Y-15173809D01*
X6876190Y-15211904D01*
X6647619Y-15211904D01*
X6571428Y-15173809D01*
X6533333Y-15135714D01*
X6433333Y-11611904D02*
X6433333Y-12183333D01*
X6395238Y-12297619D01*
X6319047Y-12373809D01*
X6204761Y-12411904D01*
X6128571Y-12411904D01*
X6814285Y-12411904D02*
X6814285Y-11611904D01*
X7119047Y-11611904D01*
X7195238Y-11650000D01*
X7233333Y-11688095D01*
X7271428Y-11764285D01*
X7271428Y-11878571D01*
X7233333Y-11954761D01*
X7195238Y-11992857D01*
X7119047Y-12030952D01*
X6814285Y-12030952D01*
X7538095Y-11611904D02*
X8033333Y-11611904D01*
X7766666Y-11916666D01*
X7880952Y-11916666D01*
X7957142Y-11954761D01*
X7995238Y-11992857D01*
X8033333Y-12069047D01*
X8033333Y-12259523D01*
X7995238Y-12335714D01*
X7957142Y-12373809D01*
X7880952Y-12411904D01*
X7652380Y-12411904D01*
X7576190Y-12373809D01*
X7538095Y-12335714D01*
D12*
D11*
X-25814285Y-17085714D02*
X-25852380Y-17123809D01*
X-25966666Y-17161904D01*
X-26042857Y-17161904D01*
X-26157142Y-17123809D01*
X-26233333Y-17047619D01*
X-26271428Y-16971428D01*
X-26309523Y-16819047D01*
X-26309523Y-16704761D01*
X-26271428Y-16552380D01*
X-26233333Y-16476190D01*
X-26157142Y-16400000D01*
X-26042857Y-16361904D01*
X-25966666Y-16361904D01*
X-25852380Y-16400000D01*
X-25814285Y-16438095D01*
X-25357142Y-16704761D02*
X-25433333Y-16666666D01*
X-25471428Y-16628571D01*
X-25509523Y-16552380D01*
X-25509523Y-16514285D01*
X-25471428Y-16438095D01*
X-25433333Y-16400000D01*
X-25357142Y-16361904D01*
X-25204761Y-16361904D01*
X-25128571Y-16400000D01*
X-25090476Y-16438095D01*
X-25052380Y-16514285D01*
X-25052380Y-16552380D01*
X-25090476Y-16628571D01*
X-25128571Y-16666666D01*
X-25204761Y-16704761D01*
X-25357142Y-16704761D01*
X-25433333Y-16742857D01*
X-25471428Y-16780952D01*
X-25509523Y-16857142D01*
X-25509523Y-17009523D01*
X-25471428Y-17085714D01*
X-25433333Y-17123809D01*
X-25357142Y-17161904D01*
X-25204761Y-17161904D01*
X-25128571Y-17123809D01*
X-25090476Y-17085714D01*
X-25052380Y-17009523D01*
X-25052380Y-16857142D01*
X-25090476Y-16780952D01*
X-25128571Y-16742857D01*
X-25204761Y-16704761D01*
X-24747619Y-16438095D02*
X-24709523Y-16400000D01*
X-24633333Y-16361904D01*
X-24442857Y-16361904D01*
X-24366666Y-16400000D01*
X-24328571Y-16438095D01*
X-24290476Y-16514285D01*
X-24290476Y-16590476D01*
X-24328571Y-16704761D01*
X-24785714Y-17161904D01*
X-24290476Y-17161904D01*
X27666666Y-13685714D02*
X27628571Y-13723809D01*
X27514285Y-13761904D01*
X27438095Y-13761904D01*
X27323809Y-13723809D01*
X27247619Y-13647619D01*
X27209523Y-13571428D01*
X27171428Y-13419047D01*
X27171428Y-13304761D01*
X27209523Y-13152380D01*
X27247619Y-13076190D01*
X27323809Y-13000000D01*
X27438095Y-12961904D01*
X27514285Y-12961904D01*
X27628571Y-13000000D01*
X27666666Y-13038095D01*
X28352380Y-13228571D02*
X28352380Y-13761904D01*
X28161904Y-12923809D02*
X27971428Y-13495238D01*
X28466666Y-13495238D01*
X-13138095Y-4845535D02*
X-13519047Y-5112202D01*
X-13138095Y-5302678D02*
X-13938095Y-5302678D01*
X-13938095Y-4997916D01*
X-13900000Y-4921726D01*
X-13861904Y-4883630D01*
X-13785714Y-4845535D01*
X-13671428Y-4845535D01*
X-13595238Y-4883630D01*
X-13557142Y-4921726D01*
X-13519047Y-4997916D01*
X-13519047Y-5302678D01*
X-13138095Y-4083630D02*
X-13138095Y-4540773D01*
X-13138095Y-4312202D02*
X-13938095Y-4312202D01*
X-13823809Y-4388392D01*
X-13747619Y-4464583D01*
X-13709523Y-4540773D01*
X-13595238Y-3626488D02*
X-13633333Y-3702678D01*
X-13671428Y-3740773D01*
X-13747619Y-3778869D01*
X-13785714Y-3778869D01*
X-13861904Y-3740773D01*
X-13900000Y-3702678D01*
X-13938095Y-3626488D01*
X-13938095Y-3474107D01*
X-13900000Y-3397916D01*
X-13861904Y-3359821D01*
X-13785714Y-3321726D01*
X-13747619Y-3321726D01*
X-13671428Y-3359821D01*
X-13633333Y-3397916D01*
X-13595238Y-3474107D01*
X-13595238Y-3626488D01*
X-13557142Y-3702678D01*
X-13519047Y-3740773D01*
X-13442857Y-3778869D01*
X-13290476Y-3778869D01*
X-13214285Y-3740773D01*
X-13176190Y-3702678D01*
X-13138095Y-3626488D01*
X-13138095Y-3474107D01*
X-13176190Y-3397916D01*
X-13214285Y-3359821D01*
X-13290476Y-3321726D01*
X-13442857Y-3321726D01*
X-13519047Y-3359821D01*
X-13557142Y-3397916D01*
X-13595238Y-3474107D01*
X6291666Y-16536904D02*
X6025000Y-16155952D01*
X5834523Y-16536904D02*
X5834523Y-15736904D01*
X6139285Y-15736904D01*
X6215476Y-15775000D01*
X6253571Y-15813095D01*
X6291666Y-15889285D01*
X6291666Y-16003571D01*
X6253571Y-16079761D01*
X6215476Y-16117857D01*
X6139285Y-16155952D01*
X5834523Y-16155952D01*
X6596428Y-15813095D02*
X6634523Y-15775000D01*
X6710714Y-15736904D01*
X6901190Y-15736904D01*
X6977380Y-15775000D01*
X7015476Y-15813095D01*
X7053571Y-15889285D01*
X7053571Y-15965476D01*
X7015476Y-16079761D01*
X6558333Y-16536904D01*
X7053571Y-16536904D01*
X-11371428Y-10393154D02*
X-11371428Y-9593154D01*
X-11180952Y-9593154D01*
X-11066666Y-9631250D01*
X-10990476Y-9707440D01*
X-10952380Y-9783630D01*
X-10914285Y-9936011D01*
X-10914285Y-10050297D01*
X-10952380Y-10202678D01*
X-10990476Y-10278869D01*
X-11066666Y-10355059D01*
X-11180952Y-10393154D01*
X-11371428Y-10393154D01*
X-10152380Y-10393154D02*
X-10609523Y-10393154D01*
X-10380952Y-10393154D02*
X-10380952Y-9593154D01*
X-10457142Y-9707440D01*
X-10533333Y-9783630D01*
X-10609523Y-9821726D01*
X-9847619Y-9669345D02*
X-9809523Y-9631250D01*
X-9733333Y-9593154D01*
X-9542857Y-9593154D01*
X-9466666Y-9631250D01*
X-9428571Y-9669345D01*
X-9390476Y-9745535D01*
X-9390476Y-9821726D01*
X-9428571Y-9936011D01*
X-9885714Y-10393154D01*
X-9390476Y-10393154D01*
X6433333Y-13011904D02*
X6433333Y-13583333D01*
X6395238Y-13697619D01*
X6319047Y-13773809D01*
X6204761Y-13811904D01*
X6128571Y-13811904D01*
X6814285Y-13811904D02*
X6814285Y-13011904D01*
X7119047Y-13011904D01*
X7195238Y-13050000D01*
X7233333Y-13088095D01*
X7271428Y-13164285D01*
X7271428Y-13278571D01*
X7233333Y-13354761D01*
X7195238Y-13392857D01*
X7119047Y-13430952D01*
X6814285Y-13430952D01*
X7576190Y-13088095D02*
X7614285Y-13050000D01*
X7690476Y-13011904D01*
X7880952Y-13011904D01*
X7957142Y-13050000D01*
X7995238Y-13088095D01*
X8033333Y-13164285D01*
X8033333Y-13240476D01*
X7995238Y-13354761D01*
X7538095Y-13811904D01*
X8033333Y-13811904D01*
X-13771428Y-10393154D02*
X-13771428Y-9593154D01*
X-13580952Y-9593154D01*
X-13466666Y-9631250D01*
X-13390476Y-9707440D01*
X-13352380Y-9783630D01*
X-13314285Y-9936011D01*
X-13314285Y-10050297D01*
X-13352380Y-10202678D01*
X-13390476Y-10278869D01*
X-13466666Y-10355059D01*
X-13580952Y-10393154D01*
X-13771428Y-10393154D01*
X-12552380Y-10393154D02*
X-13009523Y-10393154D01*
X-12780952Y-10393154D02*
X-12780952Y-9593154D01*
X-12857142Y-9707440D01*
X-12933333Y-9783630D01*
X-13009523Y-9821726D01*
X-12285714Y-9593154D02*
X-11790476Y-9593154D01*
X-12057142Y-9897916D01*
X-11942857Y-9897916D01*
X-11866666Y-9936011D01*
X-11828571Y-9974107D01*
X-11790476Y-10050297D01*
X-11790476Y-10240773D01*
X-11828571Y-10316964D01*
X-11866666Y-10355059D01*
X-11942857Y-10393154D01*
X-12171428Y-10393154D01*
X-12247619Y-10355059D01*
X-12285714Y-10316964D01*
X9216666Y-18835714D02*
X9178571Y-18873809D01*
X9064285Y-18911904D01*
X8988095Y-18911904D01*
X8873809Y-18873809D01*
X8797619Y-18797619D01*
X8759523Y-18721428D01*
X8721428Y-18569047D01*
X8721428Y-18454761D01*
X8759523Y-18302380D01*
X8797619Y-18226190D01*
X8873809Y-18150000D01*
X8988095Y-18111904D01*
X9064285Y-18111904D01*
X9178571Y-18150000D01*
X9216666Y-18188095D01*
X9673809Y-18454761D02*
X9597619Y-18416666D01*
X9559523Y-18378571D01*
X9521428Y-18302380D01*
X9521428Y-18264285D01*
X9559523Y-18188095D01*
X9597619Y-18150000D01*
X9673809Y-18111904D01*
X9826190Y-18111904D01*
X9902380Y-18150000D01*
X9940476Y-18188095D01*
X9978571Y-18264285D01*
X9978571Y-18302380D01*
X9940476Y-18378571D01*
X9902380Y-18416666D01*
X9826190Y-18454761D01*
X9673809Y-18454761D01*
X9597619Y-18492857D01*
X9559523Y-18530952D01*
X9521428Y-18607142D01*
X9521428Y-18759523D01*
X9559523Y-18835714D01*
X9597619Y-18873809D01*
X9673809Y-18911904D01*
X9826190Y-18911904D01*
X9902380Y-18873809D01*
X9940476Y-18835714D01*
X9978571Y-18759523D01*
X9978571Y-18607142D01*
X9940476Y-18530952D01*
X9902380Y-18492857D01*
X9826190Y-18454761D01*
X5632270Y-9358460D02*
X5365603Y-8977508D01*
X5175127Y-9358460D02*
X5175127Y-8558460D01*
X5479889Y-8558460D01*
X5556079Y-8596556D01*
X5594175Y-8634651D01*
X5632270Y-8710841D01*
X5632270Y-8825127D01*
X5594175Y-8901317D01*
X5556079Y-8939413D01*
X5479889Y-8977508D01*
X5175127Y-8977508D01*
X6394175Y-9358460D02*
X5937032Y-9358460D01*
X6165603Y-9358460D02*
X6165603Y-8558460D01*
X6089413Y-8672746D01*
X6013222Y-8748936D01*
X5937032Y-8787032D01*
X7079889Y-8825127D02*
X7079889Y-9358460D01*
X6889413Y-8520365D02*
X6698936Y-9091794D01*
X7194175Y-9091794D01*
X-26864285Y-14835714D02*
X-26902380Y-14873809D01*
X-27016666Y-14911904D01*
X-27092857Y-14911904D01*
X-27207142Y-14873809D01*
X-27283333Y-14797619D01*
X-27321428Y-14721428D01*
X-27359523Y-14569047D01*
X-27359523Y-14454761D01*
X-27321428Y-14302380D01*
X-27283333Y-14226190D01*
X-27207142Y-14150000D01*
X-27092857Y-14111904D01*
X-27016666Y-14111904D01*
X-26902380Y-14150000D01*
X-26864285Y-14188095D01*
X-26407142Y-14454761D02*
X-26483333Y-14416666D01*
X-26521428Y-14378571D01*
X-26559523Y-14302380D01*
X-26559523Y-14264285D01*
X-26521428Y-14188095D01*
X-26483333Y-14150000D01*
X-26407142Y-14111904D01*
X-26254761Y-14111904D01*
X-26178571Y-14150000D01*
X-26140476Y-14188095D01*
X-26102380Y-14264285D01*
X-26102380Y-14302380D01*
X-26140476Y-14378571D01*
X-26178571Y-14416666D01*
X-26254761Y-14454761D01*
X-26407142Y-14454761D01*
X-26483333Y-14492857D01*
X-26521428Y-14530952D01*
X-26559523Y-14607142D01*
X-26559523Y-14759523D01*
X-26521428Y-14835714D01*
X-26483333Y-14873809D01*
X-26407142Y-14911904D01*
X-26254761Y-14911904D01*
X-26178571Y-14873809D01*
X-26140476Y-14835714D01*
X-26102380Y-14759523D01*
X-26102380Y-14607142D01*
X-26140476Y-14530952D01*
X-26178571Y-14492857D01*
X-26254761Y-14454761D01*
X-25835714Y-14111904D02*
X-25340476Y-14111904D01*
X-25607142Y-14416666D01*
X-25492857Y-14416666D01*
X-25416666Y-14454761D01*
X-25378571Y-14492857D01*
X-25340476Y-14569047D01*
X-25340476Y-14759523D01*
X-25378571Y-14835714D01*
X-25416666Y-14873809D01*
X-25492857Y-14911904D01*
X-25721428Y-14911904D01*
X-25797619Y-14873809D01*
X-25835714Y-14835714D01*
X-25314285Y-8185714D02*
X-25352380Y-8223809D01*
X-25466666Y-8261904D01*
X-25542857Y-8261904D01*
X-25657142Y-8223809D01*
X-25733333Y-8147619D01*
X-25771428Y-8071428D01*
X-25809523Y-7919047D01*
X-25809523Y-7804761D01*
X-25771428Y-7652380D01*
X-25733333Y-7576190D01*
X-25657142Y-7500000D01*
X-25542857Y-7461904D01*
X-25466666Y-7461904D01*
X-25352380Y-7500000D01*
X-25314285Y-7538095D01*
X-25047619Y-7461904D02*
X-24514285Y-7461904D01*
X-24857142Y-8261904D01*
X-24247619Y-7538095D02*
X-24209523Y-7500000D01*
X-24133333Y-7461904D01*
X-23942857Y-7461904D01*
X-23866666Y-7500000D01*
X-23828571Y-7538095D01*
X-23790476Y-7614285D01*
X-23790476Y-7690476D01*
X-23828571Y-7804761D01*
X-24285714Y-8261904D01*
X-23790476Y-8261904D01*
X-21814285Y-23461904D02*
X-22195238Y-23461904D01*
X-22195238Y-22661904D01*
X-21204761Y-22661904D02*
X-21357142Y-22661904D01*
X-21433333Y-22700000D01*
X-21471428Y-22738095D01*
X-21547619Y-22852380D01*
X-21585714Y-23004761D01*
X-21585714Y-23309523D01*
X-21547619Y-23385714D01*
X-21509523Y-23423809D01*
X-21433333Y-23461904D01*
X-21280952Y-23461904D01*
X-21204761Y-23423809D01*
X-21166666Y-23385714D01*
X-21128571Y-23309523D01*
X-21128571Y-23119047D01*
X-21166666Y-23042857D01*
X-21204761Y-23004761D01*
X-21280952Y-22966666D01*
X-21433333Y-22966666D01*
X-21509523Y-23004761D01*
X-21547619Y-23042857D01*
X-21585714Y-23119047D01*
X-20633333Y-22661904D02*
X-20557142Y-22661904D01*
X-20480952Y-22700000D01*
X-20442857Y-22738095D01*
X-20404761Y-22814285D01*
X-20366666Y-22966666D01*
X-20366666Y-23157142D01*
X-20404761Y-23309523D01*
X-20442857Y-23385714D01*
X-20480952Y-23423809D01*
X-20557142Y-23461904D01*
X-20633333Y-23461904D01*
X-20709523Y-23423809D01*
X-20747619Y-23385714D01*
X-20785714Y-23309523D01*
X-20823809Y-23157142D01*
X-20823809Y-22966666D01*
X-20785714Y-22814285D01*
X-20747619Y-22738095D01*
X-20709523Y-22700000D01*
X-20633333Y-22661904D01*
X-21814285Y-21185714D02*
X-21852380Y-21223809D01*
X-21966666Y-21261904D01*
X-22042857Y-21261904D01*
X-22157142Y-21223809D01*
X-22233333Y-21147619D01*
X-22271428Y-21071428D01*
X-22309523Y-20919047D01*
X-22309523Y-20804761D01*
X-22271428Y-20652380D01*
X-22233333Y-20576190D01*
X-22157142Y-20500000D01*
X-22042857Y-20461904D01*
X-21966666Y-20461904D01*
X-21852380Y-20500000D01*
X-21814285Y-20538095D01*
X-21357142Y-20804761D02*
X-21433333Y-20766666D01*
X-21471428Y-20728571D01*
X-21509523Y-20652380D01*
X-21509523Y-20614285D01*
X-21471428Y-20538095D01*
X-21433333Y-20500000D01*
X-21357142Y-20461904D01*
X-21204761Y-20461904D01*
X-21128571Y-20500000D01*
X-21090476Y-20538095D01*
X-21052380Y-20614285D01*
X-21052380Y-20652380D01*
X-21090476Y-20728571D01*
X-21128571Y-20766666D01*
X-21204761Y-20804761D01*
X-21357142Y-20804761D01*
X-21433333Y-20842857D01*
X-21471428Y-20880952D01*
X-21509523Y-20957142D01*
X-21509523Y-21109523D01*
X-21471428Y-21185714D01*
X-21433333Y-21223809D01*
X-21357142Y-21261904D01*
X-21204761Y-21261904D01*
X-21128571Y-21223809D01*
X-21090476Y-21185714D01*
X-21052380Y-21109523D01*
X-21052380Y-20957142D01*
X-21090476Y-20880952D01*
X-21128571Y-20842857D01*
X-21204761Y-20804761D01*
X-20366666Y-20461904D02*
X-20519047Y-20461904D01*
X-20595238Y-20500000D01*
X-20633333Y-20538095D01*
X-20709523Y-20652380D01*
X-20747619Y-20804761D01*
X-20747619Y-21109523D01*
X-20709523Y-21185714D01*
X-20671428Y-21223809D01*
X-20595238Y-21261904D01*
X-20442857Y-21261904D01*
X-20366666Y-21223809D01*
X-20328571Y-21185714D01*
X-20290476Y-21109523D01*
X-20290476Y-20919047D01*
X-20328571Y-20842857D01*
X-20366666Y-20804761D01*
X-20442857Y-20766666D01*
X-20595238Y-20766666D01*
X-20671428Y-20804761D01*
X-20709523Y-20842857D01*
X-20747619Y-20919047D01*
X19166666Y-5285714D02*
X19128571Y-5323809D01*
X19014285Y-5361904D01*
X18938095Y-5361904D01*
X18823809Y-5323809D01*
X18747619Y-5247619D01*
X18709523Y-5171428D01*
X18671428Y-5019047D01*
X18671428Y-4904761D01*
X18709523Y-4752380D01*
X18747619Y-4676190D01*
X18823809Y-4600000D01*
X18938095Y-4561904D01*
X19014285Y-4561904D01*
X19128571Y-4600000D01*
X19166666Y-4638095D01*
X19471428Y-4638095D02*
X19509523Y-4600000D01*
X19585714Y-4561904D01*
X19776190Y-4561904D01*
X19852380Y-4600000D01*
X19890476Y-4638095D01*
X19928571Y-4714285D01*
X19928571Y-4790476D01*
X19890476Y-4904761D01*
X19433333Y-5361904D01*
X19928571Y-5361904D01*
X-21814285Y-20085714D02*
X-21852380Y-20123809D01*
X-21966666Y-20161904D01*
X-22042857Y-20161904D01*
X-22157142Y-20123809D01*
X-22233333Y-20047619D01*
X-22271428Y-19971428D01*
X-22309523Y-19819047D01*
X-22309523Y-19704761D01*
X-22271428Y-19552380D01*
X-22233333Y-19476190D01*
X-22157142Y-19400000D01*
X-22042857Y-19361904D01*
X-21966666Y-19361904D01*
X-21852380Y-19400000D01*
X-21814285Y-19438095D01*
X-21357142Y-19704761D02*
X-21433333Y-19666666D01*
X-21471428Y-19628571D01*
X-21509523Y-19552380D01*
X-21509523Y-19514285D01*
X-21471428Y-19438095D01*
X-21433333Y-19400000D01*
X-21357142Y-19361904D01*
X-21204761Y-19361904D01*
X-21128571Y-19400000D01*
X-21090476Y-19438095D01*
X-21052380Y-19514285D01*
X-21052380Y-19552380D01*
X-21090476Y-19628571D01*
X-21128571Y-19666666D01*
X-21204761Y-19704761D01*
X-21357142Y-19704761D01*
X-21433333Y-19742857D01*
X-21471428Y-19780952D01*
X-21509523Y-19857142D01*
X-21509523Y-20009523D01*
X-21471428Y-20085714D01*
X-21433333Y-20123809D01*
X-21357142Y-20161904D01*
X-21204761Y-20161904D01*
X-21128571Y-20123809D01*
X-21090476Y-20085714D01*
X-21052380Y-20009523D01*
X-21052380Y-19857142D01*
X-21090476Y-19780952D01*
X-21128571Y-19742857D01*
X-21204761Y-19704761D01*
X-20328571Y-19361904D02*
X-20709523Y-19361904D01*
X-20747619Y-19742857D01*
X-20709523Y-19704761D01*
X-20633333Y-19666666D01*
X-20442857Y-19666666D01*
X-20366666Y-19704761D01*
X-20328571Y-19742857D01*
X-20290476Y-19819047D01*
X-20290476Y-20009523D01*
X-20328571Y-20085714D01*
X-20366666Y-20123809D01*
X-20442857Y-20161904D01*
X-20633333Y-20161904D01*
X-20709523Y-20123809D01*
X-20747619Y-20085714D01*
X15666666Y-5385714D02*
X15628571Y-5423809D01*
X15514285Y-5461904D01*
X15438095Y-5461904D01*
X15323809Y-5423809D01*
X15247619Y-5347619D01*
X15209523Y-5271428D01*
X15171428Y-5119047D01*
X15171428Y-5004761D01*
X15209523Y-4852380D01*
X15247619Y-4776190D01*
X15323809Y-4700000D01*
X15438095Y-4661904D01*
X15514285Y-4661904D01*
X15628571Y-4700000D01*
X15666666Y-4738095D01*
X15933333Y-4661904D02*
X16466666Y-4661904D01*
X16123809Y-5461904D01*
X-3936624Y-34615685D02*
X-3936624Y-34669560D01*
X-3990499Y-34777309D01*
X-4044374Y-34831184D01*
X-4152123Y-34885059D01*
X-4259873Y-34885059D01*
X-4340685Y-34858122D01*
X-4475372Y-34777309D01*
X-4556184Y-34696497D01*
X-4636996Y-34561810D01*
X-4663934Y-34480998D01*
X-4663934Y-34373248D01*
X-4610059Y-34265499D01*
X-4556184Y-34211624D01*
X-4448435Y-34157749D01*
X-4394560Y-34157749D01*
X-4259873Y-33915312D02*
X-3909687Y-33565126D01*
X-3882749Y-33969187D01*
X-3801937Y-33888375D01*
X-3721125Y-33861438D01*
X-3667250Y-33861438D01*
X-3586438Y-33888375D01*
X-3451751Y-34023062D01*
X-3424813Y-34103874D01*
X-3424813Y-34157749D01*
X-3451751Y-34238561D01*
X-3613375Y-34400186D01*
X-3694187Y-34427123D01*
X-3748062Y-34427123D01*
X-2805253Y-33592064D02*
X-3128502Y-33915312D01*
X-2966877Y-33753688D02*
X-3532563Y-33188003D01*
X-3505625Y-33322690D01*
X-3505625Y-33430439D01*
X-3532563Y-33511251D01*
X-20814285Y-11414285D02*
X-20776190Y-11452380D01*
X-20738095Y-11566666D01*
X-20738095Y-11642857D01*
X-20776190Y-11757142D01*
X-20852380Y-11833333D01*
X-20928571Y-11871428D01*
X-21080952Y-11909523D01*
X-21195238Y-11909523D01*
X-21347619Y-11871428D01*
X-21423809Y-11833333D01*
X-21500000Y-11757142D01*
X-21538095Y-11642857D01*
X-21538095Y-11566666D01*
X-21500000Y-11452380D01*
X-21461904Y-11414285D01*
X-21538095Y-11147619D02*
X-21538095Y-10614285D01*
X-20738095Y-10957142D01*
X-20738095Y-9890476D02*
X-20738095Y-10347619D01*
X-20738095Y-10119047D02*
X-21538095Y-10119047D01*
X-21423809Y-10195238D01*
X-21347619Y-10271428D01*
X-21309523Y-10347619D01*
X-7414285Y-14814285D02*
X-7376190Y-14852380D01*
X-7338095Y-14966666D01*
X-7338095Y-15042857D01*
X-7376190Y-15157142D01*
X-7452380Y-15233333D01*
X-7528571Y-15271428D01*
X-7680952Y-15309523D01*
X-7795238Y-15309523D01*
X-7947619Y-15271428D01*
X-8023809Y-15233333D01*
X-8100000Y-15157142D01*
X-8138095Y-15042857D01*
X-8138095Y-14966666D01*
X-8100000Y-14852380D01*
X-8061904Y-14814285D01*
X-8138095Y-14128571D02*
X-8138095Y-14280952D01*
X-8100000Y-14357142D01*
X-8061904Y-14395238D01*
X-7947619Y-14471428D01*
X-7795238Y-14509523D01*
X-7490476Y-14509523D01*
X-7414285Y-14471428D01*
X-7376190Y-14433333D01*
X-7338095Y-14357142D01*
X-7338095Y-14204761D01*
X-7376190Y-14128571D01*
X-7414285Y-14090476D01*
X-7490476Y-14052380D01*
X-7680952Y-14052380D01*
X-7757142Y-14090476D01*
X-7795238Y-14128571D01*
X-7833333Y-14204761D01*
X-7833333Y-14357142D01*
X-7795238Y-14433333D01*
X-7757142Y-14471428D01*
X-7680952Y-14509523D01*
X-8138095Y-13557142D02*
X-8138095Y-13480952D01*
X-8100000Y-13404761D01*
X-8061904Y-13366666D01*
X-7985714Y-13328571D01*
X-7833333Y-13290476D01*
X-7642857Y-13290476D01*
X-7490476Y-13328571D01*
X-7414285Y-13366666D01*
X-7376190Y-13404761D01*
X-7338095Y-13480952D01*
X-7338095Y-13557142D01*
X-7376190Y-13633333D01*
X-7414285Y-13671428D01*
X-7490476Y-13709523D01*
X-7642857Y-13747619D01*
X-7833333Y-13747619D01*
X-7985714Y-13709523D01*
X-8061904Y-13671428D01*
X-8100000Y-13633333D01*
X-8138095Y-13557142D01*
X-16838095Y-12514285D02*
X-16838095Y-12895238D01*
X-17638095Y-12895238D01*
X-17638095Y-11904761D02*
X-17638095Y-12057142D01*
X-17600000Y-12133333D01*
X-17561904Y-12171428D01*
X-17447619Y-12247619D01*
X-17295238Y-12285714D01*
X-16990476Y-12285714D01*
X-16914285Y-12247619D01*
X-16876190Y-12209523D01*
X-16838095Y-12133333D01*
X-16838095Y-11980952D01*
X-16876190Y-11904761D01*
X-16914285Y-11866666D01*
X-16990476Y-11828571D01*
X-17180952Y-11828571D01*
X-17257142Y-11866666D01*
X-17295238Y-11904761D01*
X-17333333Y-11980952D01*
X-17333333Y-12133333D01*
X-17295238Y-12209523D01*
X-17257142Y-12247619D01*
X-17180952Y-12285714D01*
X-17371428Y-11142857D02*
X-16838095Y-11142857D01*
X-17676190Y-11333333D02*
X-17104761Y-11523809D01*
X-17104761Y-11028571D01*
X19046920Y-23410000D02*
X19328080Y-23410000D01*
X19046920Y-22390000D02*
X19328080Y-22390000D01*
X-1790000Y-24500580D02*
X-1790000Y-24219420D01*
X-2810000Y-24500580D02*
X-2810000Y-24219420D01*
X1590000Y-24219420D02*
X1590000Y-24500580D01*
X2610000Y-24219420D02*
X2610000Y-24500580D01*
X-4172500Y-21588080D02*
X-4172500Y-21306920D01*
X-3152500Y-21588080D02*
X-3152500Y-21306920D01*
X2610000Y-21419420D02*
X2610000Y-21700580D01*
X1590000Y-21419420D02*
X1590000Y-21700580D01*
X-8760000Y-23707836D02*
X-8760000Y-23492164D01*
X-8040000Y-23707836D02*
X-8040000Y-23492164D01*
X-13860000Y-23807836D02*
X-13860000Y-23592164D01*
X-13140000Y-23807836D02*
X-13140000Y-23592164D01*
X-14849500Y-22692164D02*
X-14849500Y-22907836D01*
X-14129500Y-22692164D02*
X-14129500Y-22907836D01*
X-15860000Y-22692164D02*
X-15860000Y-22907836D01*
X-15140000Y-22692164D02*
X-15140000Y-22907836D01*
X-16860000Y-22692164D02*
X-16860000Y-22907836D01*
X-16140000Y-22692164D02*
X-16140000Y-22907836D01*
X-19260000Y-16757836D02*
X-19260000Y-16542164D01*
X-18540000Y-16757836D02*
X-18540000Y-16542164D01*
X-19540000Y-16747836D02*
X-19540000Y-16532164D01*
X-20260000Y-16747836D02*
X-20260000Y-16532164D01*
X5666500Y-23558064D02*
X5666500Y-22353936D01*
X2946500Y-23558064D02*
X2946500Y-22353936D01*
X-6640000Y-6380000D02*
X-6640000Y-5450000D01*
X-6640000Y-3220000D02*
X-6640000Y-4150000D01*
X-6640000Y-3220000D02*
X-8800000Y-3220000D01*
X-6640000Y-6380000D02*
X-8100000Y-6380000D01*
X-6640000Y-10080000D02*
X-6640000Y-9150000D01*
X-6640000Y-6920000D02*
X-8800000Y-6920000D01*
X-6640000Y-6920000D02*
X-6640000Y-7850000D01*
X-6640000Y-10080000D02*
X-8100000Y-10080000D01*
X19554724Y-24822500D02*
X19045276Y-24822500D01*
X19554724Y-23777500D02*
X19045276Y-23777500D01*
X16404724Y-24822500D02*
X15895276Y-24822500D01*
X16404724Y-23777500D02*
X15895276Y-23777500D01*
X8854724Y-8322500D02*
X8345276Y-8322500D01*
X8854724Y-7277500D02*
X8345276Y-7277500D01*
X8854724Y-5922500D02*
X8345276Y-5922500D01*
X8854724Y-4877500D02*
X8345276Y-4877500D01*
X-4477500Y-4545276D02*
X-4477500Y-5054724D01*
X-5522500Y-4545276D02*
X-5522500Y-5054724D01*
X-5522500Y-8245276D02*
X-5522500Y-8754724D01*
X-4477500Y-8245276D02*
X-4477500Y-8754724D01*
X154724Y-21282500D02*
X-354724Y-21282500D01*
X154724Y-20237500D02*
X-354724Y-20237500D01*
X-2822500Y-21205276D02*
X-2822500Y-21714724D01*
X-1777500Y-21205276D02*
X-1777500Y-21714724D01*
X-7745276Y-20377500D02*
X-8254724Y-20377500D01*
X-7745276Y-21422500D02*
X-8254724Y-21422500D01*
X1410000Y-24540000D02*
X1410000Y-22110000D01*
X-1660000Y-22780000D02*
X-1660000Y-24540000D01*
D13*
X-2262742Y-35200000D02*
X-2050610Y-35412132D01*
X-212132Y-37250610D02*
X0Y-37462742D01*
X0Y-37462742D02*
X212132Y-37250610D01*
X2015254Y-35447487D02*
X2262742Y-35200000D01*
X2262742Y-35200000D02*
X2050610Y-34987868D01*
X-2015254Y-34952513D02*
X-2262742Y-35200000D01*
X0Y-32937258D02*
X212132Y-33149390D01*
X-2050610Y-35412132D02*
X-2474874Y-35836396D01*
X-212132Y-33149390D02*
X0Y-32937258D01*
D10*
X-11240000Y-14540000D02*
X-11990000Y-14540000D01*
X-11240000Y-20760000D02*
X-11990000Y-20760000D01*
X-11240000Y-15290000D02*
X-11240000Y-14540000D01*
X-11240000Y-20010000D02*
X-11240000Y-20760000D01*
X-17460000Y-14540000D02*
X-16710000Y-14540000D01*
X-17460000Y-15290000D02*
X-17460000Y-14540000D01*
X-17460000Y-20010000D02*
X-17460000Y-20760000D01*
D11*
X-8950000Y-21850000D02*
X-12950000Y-21850000D01*
X-8950000Y-25150000D02*
X-8950000Y-21850000D01*
D10*
X-1550000Y-4030000D02*
X-1550000Y-6570000D01*
X-3986000Y-9514000D02*
X4014000Y-9514000D01*
X4014000Y-9514000D02*
X4014000Y-1514000D01*
X-3986000Y-1514000D02*
X-3986000Y-9514000D01*
X-1042000Y-7078000D02*
X1498000Y-7078000D01*
X1498000Y-7078000D02*
X1498000Y-4030000D01*
X4014000Y-1514000D02*
X-3986000Y-1514000D01*
X-1550000Y-6570000D02*
X-1042000Y-7078000D01*
X1498000Y-4030000D02*
X-1550000Y-4030000D01*
X-17660000Y-9992164D02*
X-17660000Y-10207836D01*
X-16940000Y-9992164D02*
X-16940000Y-10207836D01*
D11*
X23550091Y-20035829D02*
X23318807Y-20489751D01*
X24481193Y-20510249D02*
X24249909Y-20964171D01*
D10*
X-8490000Y-16559420D02*
X-8490000Y-16840580D01*
X-9510000Y-16559420D02*
X-9510000Y-16840580D01*
D11*
X25950000Y-9550000D02*
X29650000Y-9550000D01*
X29650000Y-9550000D02*
X29650000Y-4250000D01*
X-23192164Y-18540000D02*
X-23407836Y-18540000D01*
X-23192164Y-19260000D02*
X-23407836Y-19260000D01*
D10*
X-16660000Y-10207836D02*
X-16660000Y-9992164D01*
X-15940000Y-10207836D02*
X-15940000Y-9992164D01*
D11*
X31010000Y-6759420D02*
X31010000Y-7040580D01*
X29990000Y-6759420D02*
X29990000Y-7040580D01*
X-11422500Y-4376526D02*
X-11422500Y-4885974D01*
X-10377500Y-4376526D02*
X-10377500Y-4885974D01*
X16700000Y-27750000D02*
X16700000Y-31650000D01*
X18700000Y-27750000D02*
X16700000Y-27750000D01*
X18700000Y-27750000D02*
X18700000Y-31650000D01*
X28610000Y-11409420D02*
X28610000Y-11690580D01*
X27590000Y-11409420D02*
X27590000Y-11690580D01*
X24690000Y-5840580D02*
X24690000Y-5559420D01*
X25710000Y-5840580D02*
X25710000Y-5559420D01*
D10*
X-25440000Y-10507836D02*
X-25440000Y-10292164D01*
X-26160000Y-10507836D02*
X-26160000Y-10292164D01*
D11*
X275000Y-11665000D02*
X-3175000Y-11665000D01*
X275000Y-11665000D02*
X2225000Y-11665000D01*
X275000Y-16785000D02*
X2225000Y-16785000D01*
X275000Y-16785000D02*
X-1675000Y-16785000D01*
X-23192164Y-18260000D02*
X-23407836Y-18260000D01*
X-23192164Y-17540000D02*
X-23407836Y-17540000D01*
X-5210000Y-15084420D02*
X-5210000Y-15365580D01*
X-4190000Y-15084420D02*
X-4190000Y-15365580D01*
D10*
X8370000Y-2530000D02*
X21130000Y-2530000D01*
X7100000Y-2530000D02*
X5770000Y-2530000D01*
X8370000Y-2530000D02*
X8370000Y130000D01*
X21130000Y-2530000D02*
X21130000Y130000D01*
X8370000Y130000D02*
X21130000Y130000D01*
X5770000Y-2530000D02*
X5770000Y-1200000D01*
D11*
X-16800000Y-27750000D02*
X-16800000Y-31650000D01*
X-16800000Y-27750000D02*
X-18800000Y-27750000D01*
X-18800000Y-27750000D02*
X-18800000Y-31650000D01*
D10*
X-24192164Y-13360000D02*
X-24407836Y-13360000D01*
X-24192164Y-12640000D02*
X-24407836Y-12640000D01*
X-19720000Y-9153641D02*
X-19720000Y-8846359D01*
X-20480000Y-9153641D02*
X-20480000Y-8846359D01*
D11*
X23290580Y-3190000D02*
X23009420Y-3190000D01*
X23290580Y-4210000D02*
X23009420Y-4210000D01*
X8854724Y-7122500D02*
X8345276Y-7122500D01*
X8854724Y-6077500D02*
X8345276Y-6077500D01*
X17650000Y-21500000D02*
X13350000Y-21500000D01*
X17650000Y-23500000D02*
X17650000Y-21500000D01*
X13350000Y-23500000D02*
X17650000Y-23500000D01*
X8345276Y-15372500D02*
X8854724Y-15372500D01*
X8345276Y-14327500D02*
X8854724Y-14327500D01*
D10*
X9850000Y-12650000D02*
X8450000Y-12650000D01*
X8450000Y-11450000D02*
X9850000Y-11450000D01*
X-25192164Y-15540000D02*
X-25407836Y-15540000D01*
X-25192164Y-16260000D02*
X-25407836Y-16260000D01*
D11*
X27310000Y-12959420D02*
X27310000Y-13240580D01*
X26290000Y-12959420D02*
X26290000Y-13240580D01*
D10*
X-12822500Y-4376526D02*
X-12822500Y-4885974D01*
X-11777500Y-4376526D02*
X-11777500Y-4885974D01*
D11*
X8879724Y-16697500D02*
X8370276Y-16697500D01*
X8879724Y-15652500D02*
X8370276Y-15652500D01*
D10*
X-11635000Y-6931250D02*
X-11635000Y-9391250D01*
X-10165000Y-9391250D02*
X-10165000Y-6931250D01*
X-11635000Y-9391250D02*
X-10165000Y-9391250D01*
X9850000Y-14050000D02*
X8450000Y-14050000D01*
X8450000Y-12850000D02*
X9850000Y-12850000D01*
X-13035000Y-9391250D02*
X-11565000Y-9391250D01*
X-13035000Y-6931250D02*
X-13035000Y-9391250D01*
X-11565000Y-9391250D02*
X-11565000Y-6931250D01*
D11*
X8965580Y-16990000D02*
X8684420Y-16990000D01*
X8965580Y-18010000D02*
X8684420Y-18010000D01*
X8854724Y-9522500D02*
X8345276Y-9522500D01*
X8854724Y-8477500D02*
X8345276Y-8477500D01*
D10*
X-25160000Y-14607836D02*
X-25160000Y-14392164D01*
X-24440000Y-14607836D02*
X-24440000Y-14392164D01*
X-23560000Y-8207836D02*
X-23560000Y-7992164D01*
X-22840000Y-8207836D02*
X-22840000Y-7992164D01*
D11*
X-21292164Y-17210000D02*
X-21507836Y-17210000D01*
X-21292164Y-16490000D02*
X-21507836Y-16490000D01*
X21459420Y-5510000D02*
X21740580Y-5510000D01*
X21459420Y-4490000D02*
X21740580Y-4490000D01*
X-21292164Y-15440000D02*
X-21507836Y-15440000D01*
X-21292164Y-16160000D02*
X-21507836Y-16160000D01*
X23210000Y-17260000D02*
X24550000Y-17260000D01*
X12990000Y-7990000D02*
X12990000Y-8940000D01*
X12990000Y-18210000D02*
X12990000Y-17260000D01*
X22260000Y-7990000D02*
X23210000Y-7990000D01*
X23210000Y-18210000D02*
X23210000Y-17260000D01*
X23210000Y-7990000D02*
X23210000Y-8940000D01*
X13940000Y-7990000D02*
X12990000Y-7990000D01*
X22260000Y-18210000D02*
X23210000Y-18210000D01*
X13940000Y-18210000D02*
X12990000Y-18210000D01*
X13940580Y-4590000D02*
X13659420Y-4590000D01*
X13940580Y-5610000D02*
X13659420Y-5610000D01*
D10*
X-22040000Y-11200000D02*
X-22040000Y-9800000D01*
X-24360000Y-9800000D02*
X-24360000Y-11700000D01*
D11*
X-2163781Y-32810030D02*
X-1964970Y-32611219D01*
X-2885030Y-32088781D02*
X-2686219Y-31889970D01*
D10*
X-21460000Y-8892164D02*
X-21460000Y-9107836D01*
X-20740000Y-8892164D02*
X-20740000Y-9107836D01*
D11*
X-8210000Y-16559420D02*
X-8210000Y-16840580D01*
X-7190000Y-16559420D02*
X-7190000Y-16840580D01*
%LPC*%
D14*
X18412500Y-22900000D03*
X19962500Y-22900000D03*
D15*
X-2300000Y-25135000D03*
X-2300000Y-23585000D03*
D16*
X2100000Y-23585000D03*
X2100000Y-25135000D03*
D15*
X-3662500Y-22222500D03*
X-3662500Y-20672500D03*
D16*
X2100000Y-20785000D03*
X2100000Y-22335000D03*
D17*
X-8400000Y-24080000D03*
X-8400000Y-23120000D03*
X-13500000Y-24180000D03*
X-13500000Y-23220000D03*
D18*
X-14489500Y-22320000D03*
X-14489500Y-23280000D03*
X-15500000Y-22320000D03*
X-15500000Y-23280000D03*
X-16500000Y-22320000D03*
X-16500000Y-23280000D03*
D17*
X-18900000Y-17130000D03*
X-18900000Y-16170000D03*
X-19900000Y-17120000D03*
X-19900000Y-16160000D03*
D19*
X4306500Y-24356000D03*
X4306500Y-21556000D03*
D20*
X-8400000Y-3850000D03*
X-8400000Y-5750000D03*
X-6400000Y-4800000D03*
X-8400000Y-7550000D03*
X-8400000Y-9450000D03*
X-6400000Y-8500000D03*
D21*
X20212500Y-24300000D03*
X18387500Y-24300000D03*
X17062500Y-24300000D03*
X15237500Y-24300000D03*
X9512500Y-7800000D03*
X7687500Y-7800000D03*
X9512500Y-5400000D03*
X7687500Y-5400000D03*
D22*
X-5000000Y-3887500D03*
X-5000000Y-5712500D03*
X-5000000Y-7587500D03*
X-5000000Y-9412500D03*
D21*
X812500Y-20760000D03*
X-1012500Y-20760000D03*
D22*
X-2300000Y-20547500D03*
X-2300000Y-22372500D03*
D21*
X-7087500Y-20900000D03*
X-8912500Y-20900000D03*
D23*
X850000Y-22350000D03*
X-100000Y-22350000D03*
X-1050000Y-22350000D03*
X-1050000Y-24970000D03*
X-100000Y-24970000D03*
X850000Y-24970000D03*
D24*
X-1732412Y-35518198D03*
X-1378858Y-35871751D03*
X-1025305Y-36225305D03*
X-671751Y-36578858D03*
X-318198Y-36932412D03*
D25*
X671751Y-36578858D03*
X1025305Y-36225305D03*
X1378858Y-35871751D03*
D24*
X1732412Y-34881802D03*
X1378858Y-34528249D03*
X1025305Y-34174695D03*
X671751Y-33821142D03*
X318198Y-33467588D03*
D25*
X-671751Y-33821142D03*
X-1025305Y-34174695D03*
X-1378858Y-34528249D03*
D26*
X-16300000Y-20750000D03*
X-15650000Y-20750000D03*
X-15000000Y-20750000D03*
X-14350000Y-20750000D03*
X-13700000Y-20750000D03*
X-13050000Y-20750000D03*
X-12400000Y-20750000D03*
D27*
X-11250000Y-19600000D03*
X-11250000Y-18950000D03*
X-11250000Y-18300000D03*
X-11250000Y-17650000D03*
X-11250000Y-17000000D03*
X-11250000Y-16350000D03*
X-11250000Y-15700000D03*
D26*
X-12400000Y-14550000D03*
X-13050000Y-14550000D03*
X-13700000Y-14550000D03*
X-14350000Y-14550000D03*
X-15000000Y-14550000D03*
X-15650000Y-14550000D03*
X-16300000Y-14550000D03*
D27*
X-17450000Y-15700000D03*
X-17450000Y-16350000D03*
X-17450000Y-17000000D03*
X-17450000Y-17650000D03*
X-17450000Y-18300000D03*
X-17450000Y-18950000D03*
X-17450000Y-19600000D03*
D28*
X-14350000Y-17650000D03*
D29*
X-9850000Y-22650000D03*
X-12050000Y-22650000D03*
X-12050000Y-24350000D03*
X-9850000Y-24350000D03*
D30*
X2514000Y-3014000D03*
X-2566000Y-3014000D03*
X-2566000Y-8094000D03*
X2514000Y-8094000D03*
D18*
X-17300000Y-9620000D03*
X-17300000Y-10580000D03*
D31*
X24314266Y-19686957D03*
X23485734Y-21313043D03*
D32*
X5500000Y-19000000D03*
D16*
X-9000000Y-15925000D03*
X-9000000Y-17475000D03*
D33*
X28800000Y-8550000D03*
X28800000Y-5250000D03*
X26800000Y-5250000D03*
X26800000Y-8550000D03*
D34*
X-22820000Y-18900000D03*
X-23780000Y-18900000D03*
D17*
X-16300000Y-10580000D03*
X-16300000Y-9620000D03*
D16*
X30500000Y-6125000D03*
X30500000Y-7675000D03*
D22*
X-10900000Y-3718750D03*
X-10900000Y-5543750D03*
D35*
X17700000Y-28350000D03*
X17700000Y-31650000D03*
D16*
X28100000Y-10775000D03*
X28100000Y-12325000D03*
D15*
X25200000Y-6475000D03*
X25200000Y-4925000D03*
D36*
X-22100000Y-4700000D03*
D17*
X-25800000Y-10880000D03*
X-25800000Y-9920000D03*
D37*
X12600000Y-36000000D03*
X12600000Y-29000000D03*
D38*
X15300000Y-36300000D03*
X10170000Y-36300000D03*
X15340000Y-27000000D03*
X9640000Y-27000000D03*
X10390000Y-30200000D03*
X15340000Y-30200000D03*
X9350000Y-33250000D03*
D39*
X-2200000Y-12320000D03*
X-2200000Y-13590000D03*
X-2200000Y-14860000D03*
X-2200000Y-16130000D03*
X2750000Y-16130000D03*
X2750000Y-14860000D03*
X2750000Y-13590000D03*
X2750000Y-12320000D03*
D34*
X-22820000Y-17900000D03*
X-23780000Y-17900000D03*
D40*
X-1100000Y-28250000D03*
D41*
X-23800000Y-16885000D03*
X-23800000Y-15915000D03*
D16*
X-4700000Y-14450000D03*
X-4700000Y-16000000D03*
D42*
X7100000Y-1200000D03*
D43*
X9640000Y-1200000D03*
X12180000Y-1200000D03*
X14720000Y-1200000D03*
X17260000Y-1200000D03*
X19800000Y-1200000D03*
D35*
X-17800000Y-28350000D03*
X-17800000Y-31650000D03*
D34*
X-23820000Y-13000000D03*
X-24780000Y-13000000D03*
D44*
X-20100000Y-9510000D03*
X-20100000Y-8490000D03*
D41*
X-23800000Y-14985000D03*
X-23800000Y-14015000D03*
D32*
X-30550000Y-6300000D03*
D45*
X23925000Y-3700000D03*
X22375000Y-3700000D03*
D21*
X9512500Y-6600000D03*
X7687500Y-6600000D03*
D46*
X16850000Y-22500000D03*
X13350000Y-22500000D03*
D47*
X-21905000Y-17900000D03*
X-20935000Y-17900000D03*
D48*
X7687500Y-14850000D03*
X9512500Y-14850000D03*
D49*
X8550000Y-12050000D03*
D50*
X9750000Y-12050000D03*
D40*
X-3300000Y-28250000D03*
D32*
X-27300000Y-12850000D03*
D34*
X-24820000Y-15900000D03*
X-25780000Y-15900000D03*
D16*
X26800000Y-12325000D03*
X26800000Y-13875000D03*
D22*
X-12300000Y-3718750D03*
X-12300000Y-5543750D03*
D40*
X3300000Y-28250000D03*
D21*
X9537500Y-16175000D03*
X7712500Y-16175000D03*
D36*
X-17300000Y-7100000D03*
D51*
X-10900000Y-8606250D03*
X-10900000Y-6856250D03*
D49*
X8550000Y-13450000D03*
D50*
X9750000Y-13450000D03*
D51*
X-12300000Y-8606250D03*
X-12300000Y-6856250D03*
D45*
X9600000Y-17500000D03*
X8050000Y-17500000D03*
D21*
X9512500Y-9000000D03*
X7687500Y-9000000D03*
D17*
X-24800000Y-14980000D03*
X-24800000Y-14020000D03*
X-23200000Y-8580000D03*
X-23200000Y-7620000D03*
D40*
X1100000Y-28250000D03*
D52*
X-20915000Y-18950000D03*
X-21885000Y-18950000D03*
D34*
X-20920000Y-16850000D03*
X-21880000Y-16850000D03*
D14*
X20825000Y-5000000D03*
X22375000Y-5000000D03*
D34*
X-20920000Y-15800000D03*
X-21880000Y-15800000D03*
D37*
X-12600000Y-29000000D03*
X-12600000Y-36000000D03*
D38*
X-9900000Y-36300000D03*
X-15030000Y-36300000D03*
X-9860000Y-27000000D03*
X-15560000Y-27000000D03*
X-14810000Y-30200000D03*
X-9860000Y-30200000D03*
X-15850000Y-33250000D03*
D53*
X23775000Y-16850000D03*
X23775000Y-16350000D03*
X23775000Y-15850000D03*
X23775000Y-15350000D03*
X23775000Y-14850000D03*
X23775000Y-14350000D03*
X23775000Y-13850000D03*
X23775000Y-13350000D03*
X23775000Y-12850000D03*
X23775000Y-12350000D03*
X23775000Y-11850000D03*
X23775000Y-11350000D03*
X23775000Y-10850000D03*
X23775000Y-10350000D03*
X23775000Y-9850000D03*
X23775000Y-9350000D03*
D54*
X21850000Y-7425000D03*
X21350000Y-7425000D03*
X20850000Y-7425000D03*
X20350000Y-7425000D03*
X19850000Y-7425000D03*
X19350000Y-7425000D03*
X18850000Y-7425000D03*
X18350000Y-7425000D03*
X17850000Y-7425000D03*
X17350000Y-7425000D03*
X16850000Y-7425000D03*
X16350000Y-7425000D03*
X15850000Y-7425000D03*
X15350000Y-7425000D03*
X14850000Y-7425000D03*
X14350000Y-7425000D03*
D53*
X12425000Y-9350000D03*
X12425000Y-9850000D03*
X12425000Y-10350000D03*
X12425000Y-10850000D03*
X12425000Y-11350000D03*
X12425000Y-11850000D03*
X12425000Y-12350000D03*
X12425000Y-12850000D03*
X12425000Y-13350000D03*
X12425000Y-13850000D03*
X12425000Y-14350000D03*
X12425000Y-14850000D03*
X12425000Y-15350000D03*
X12425000Y-15850000D03*
X12425000Y-16350000D03*
X12425000Y-16850000D03*
D54*
X14350000Y-18775000D03*
X14850000Y-18775000D03*
X15350000Y-18775000D03*
X15850000Y-18775000D03*
X16350000Y-18775000D03*
X16850000Y-18775000D03*
X17350000Y-18775000D03*
X17850000Y-18775000D03*
X18350000Y-18775000D03*
X18850000Y-18775000D03*
X19350000Y-18775000D03*
X19850000Y-18775000D03*
X20350000Y-18775000D03*
X20850000Y-18775000D03*
X21350000Y-18775000D03*
X21850000Y-18775000D03*
D45*
X14575000Y-5100000D03*
X13025000Y-5100000D03*
D55*
X-23850000Y-11450000D03*
X-23200000Y-11450000D03*
X-22550000Y-11450000D03*
X-22550000Y-9550000D03*
X-23200000Y-9550000D03*
X-23850000Y-9550000D03*
D56*
X-2973008Y-32898008D03*
X-1876992Y-31801992D03*
D32*
X-5500000Y-19000000D03*
D18*
X-21100000Y-8520000D03*
X-21100000Y-9480000D03*
D16*
X-7700000Y-15925000D03*
X-7700000Y-17475000D03*
D41*
X-16300000Y-12485000D03*
X-16300000Y-11515000D03*
M02*
