G04 #@! TF.GenerationSoftware,KiCad,Pcbnew,(6.0.0)*
G04 #@! TF.CreationDate,2022-01-15T05:03:17-05:00*
G04 #@! TF.ProjectId,spin-tgd-control,7370696e-2d74-4676-942d-636f6e74726f,rev?*
G04 #@! TF.SameCoordinates,Original*
G04 #@! TF.FileFunction,Copper,L1,Top*
G04 #@! TF.FilePolarity,Positive*
%FSLAX46Y46*%
G04 Gerber Fmt 4.6, Leading zero omitted, Abs format (unit mm)*
G04 Created by KiCad (PCBNEW (6.0.0)) date 2022-01-15 05:03:17*
%MOMM*%
%LPD*%
G01*
G04 APERTURE LIST*
G04 Aperture macros list*
%AMRoundRect*
0 Rectangle with rounded corners*
0 $1 Rounding radius*
0 $2 $3 $4 $5 $6 $7 $8 $9 X,Y pos of 4 corners*
0 Add a 4 corners polygon primitive as box body*
4,1,4,$2,$3,$4,$5,$6,$7,$8,$9,$2,$3,0*
0 Add four circle primitives for the rounded corners*
1,1,$1+$1,$2,$3*
1,1,$1+$1,$4,$5*
1,1,$1+$1,$6,$7*
1,1,$1+$1,$8,$9*
0 Add four rect primitives between the rounded corners*
20,1,$1+$1,$2,$3,$4,$5,0*
20,1,$1+$1,$4,$5,$6,$7,0*
20,1,$1+$1,$6,$7,$8,$9,0*
20,1,$1+$1,$8,$9,$2,$3,0*%
%AMRotRect*
0 Rectangle, with rotation*
0 The origin of the aperture is its center*
0 $1 length*
0 $2 width*
0 $3 Rotation angle, in degrees counterclockwise*
0 Add horizontal line*
21,1,$1,$2,0,0,$3*%
%AMFreePoly0*
4,1,13,0.500000,-0.500000,0.000000,-0.500000,-0.095671,-0.480970,-0.176777,-0.426777,-0.230970,-0.345671,-0.250000,-0.250000,-0.250000,0.250000,-0.230970,0.345671,-0.176777,0.426777,-0.095671,0.480970,0.000000,0.500000,0.500000,0.500000,0.500000,-0.500000,0.500000,-0.500000,$1*%
%AMFreePoly1*
4,1,13,0.095671,0.480970,0.176777,0.426777,0.230970,0.345671,0.250000,0.250000,0.250000,-0.250000,0.230970,-0.345671,0.176777,-0.426777,0.095671,-0.480970,0.000000,-0.500000,-0.500000,-0.500000,-0.500000,0.500000,0.000000,0.500000,0.095671,0.480970,0.095671,0.480970,$1*%
G04 Aperture macros list end*
G04 #@! TA.AperFunction,SMDPad,CuDef*
%ADD10RoundRect,0.225000X-0.225000X-0.250000X0.225000X-0.250000X0.225000X0.250000X-0.225000X0.250000X0*%
G04 #@! TD*
G04 #@! TA.AperFunction,SMDPad,CuDef*
%ADD11RoundRect,0.225000X0.250000X-0.225000X0.250000X0.225000X-0.250000X0.225000X-0.250000X-0.225000X0*%
G04 #@! TD*
G04 #@! TA.AperFunction,SMDPad,CuDef*
%ADD12RoundRect,0.225000X-0.250000X0.225000X-0.250000X-0.225000X0.250000X-0.225000X0.250000X0.225000X0*%
G04 #@! TD*
G04 #@! TA.AperFunction,SMDPad,CuDef*
%ADD13RoundRect,0.140000X0.170000X-0.140000X0.170000X0.140000X-0.170000X0.140000X-0.170000X-0.140000X0*%
G04 #@! TD*
G04 #@! TA.AperFunction,SMDPad,CuDef*
%ADD14RoundRect,0.140000X-0.170000X0.140000X-0.170000X-0.140000X0.170000X-0.140000X0.170000X0.140000X0*%
G04 #@! TD*
G04 #@! TA.AperFunction,SMDPad,CuDef*
%ADD15RoundRect,0.250000X1.075000X-0.375000X1.075000X0.375000X-1.075000X0.375000X-1.075000X-0.375000X0*%
G04 #@! TD*
G04 #@! TA.AperFunction,SMDPad,CuDef*
%ADD16R,0.900000X0.800000*%
G04 #@! TD*
G04 #@! TA.AperFunction,SMDPad,CuDef*
%ADD17RoundRect,0.237500X0.250000X0.237500X-0.250000X0.237500X-0.250000X-0.237500X0.250000X-0.237500X0*%
G04 #@! TD*
G04 #@! TA.AperFunction,SMDPad,CuDef*
%ADD18RoundRect,0.237500X-0.237500X0.250000X-0.237500X-0.250000X0.237500X-0.250000X0.237500X0.250000X0*%
G04 #@! TD*
G04 #@! TA.AperFunction,SMDPad,CuDef*
%ADD19R,0.650000X1.220000*%
G04 #@! TD*
G04 #@! TA.AperFunction,SMDPad,CuDef*
%ADD20RotRect,1.000000X0.300000X45.000000*%
G04 #@! TD*
G04 #@! TA.AperFunction,SMDPad,CuDef*
%ADD21RotRect,0.300000X1.000000X45.000000*%
G04 #@! TD*
G04 #@! TA.AperFunction,SMDPad,CuDef*
%ADD22RoundRect,0.075000X0.075000X-0.425000X0.075000X0.425000X-0.075000X0.425000X-0.075000X-0.425000X0*%
G04 #@! TD*
G04 #@! TA.AperFunction,SMDPad,CuDef*
%ADD23RoundRect,0.075000X0.425000X-0.075000X0.425000X0.075000X-0.425000X0.075000X-0.425000X-0.075000X0*%
G04 #@! TD*
G04 #@! TA.AperFunction,SMDPad,CuDef*
%ADD24R,4.800000X4.800000*%
G04 #@! TD*
G04 #@! TA.AperFunction,SMDPad,CuDef*
%ADD25R,1.400000X1.200000*%
G04 #@! TD*
G04 #@! TA.AperFunction,ComponentPad*
%ADD26C,1.778000*%
G04 #@! TD*
G04 #@! TA.AperFunction,SMDPad,CuDef*
%ADD27RoundRect,0.237500X-0.098116X0.330574X-0.325112X-0.114929X0.098116X-0.330574X0.325112X0.114929X0*%
G04 #@! TD*
G04 #@! TA.AperFunction,SMDPad,CuDef*
%ADD28R,1.300000X1.600000*%
G04 #@! TD*
G04 #@! TA.AperFunction,SMDPad,CuDef*
%ADD29RoundRect,0.140000X0.140000X0.170000X-0.140000X0.170000X-0.140000X-0.170000X0.140000X-0.170000X0*%
G04 #@! TD*
G04 #@! TA.AperFunction,SMDPad,CuDef*
%ADD30R,1.200000X0.900000*%
G04 #@! TD*
G04 #@! TA.AperFunction,ComponentPad*
%ADD31RoundRect,0.375000X1.125000X-0.375000X1.125000X0.375000X-1.125000X0.375000X-1.125000X-0.375000X0*%
G04 #@! TD*
G04 #@! TA.AperFunction,ComponentPad*
%ADD32O,0.900000X1.700000*%
G04 #@! TD*
G04 #@! TA.AperFunction,SMDPad,CuDef*
%ADD33RoundRect,0.150000X-0.825000X-0.150000X0.825000X-0.150000X0.825000X0.150000X-0.825000X0.150000X0*%
G04 #@! TD*
G04 #@! TA.AperFunction,ComponentPad*
%ADD34RoundRect,0.375000X-0.375000X-1.125000X0.375000X-1.125000X0.375000X1.125000X-0.375000X1.125000X0*%
G04 #@! TD*
G04 #@! TA.AperFunction,SMDPad,CuDef*
%ADD35RoundRect,0.147500X0.172500X-0.147500X0.172500X0.147500X-0.172500X0.147500X-0.172500X-0.147500X0*%
G04 #@! TD*
G04 #@! TA.AperFunction,ComponentPad*
%ADD36R,1.700000X1.700000*%
G04 #@! TD*
G04 #@! TA.AperFunction,ComponentPad*
%ADD37O,1.700000X1.700000*%
G04 #@! TD*
G04 #@! TA.AperFunction,SMDPad,CuDef*
%ADD38RoundRect,0.135000X0.185000X-0.135000X0.185000X0.135000X-0.185000X0.135000X-0.185000X-0.135000X0*%
G04 #@! TD*
G04 #@! TA.AperFunction,SMDPad,CuDef*
%ADD39RoundRect,0.225000X0.225000X0.250000X-0.225000X0.250000X-0.225000X-0.250000X0.225000X-0.250000X0*%
G04 #@! TD*
G04 #@! TA.AperFunction,SMDPad,CuDef*
%ADD40R,1.300000X1.700000*%
G04 #@! TD*
G04 #@! TA.AperFunction,SMDPad,CuDef*
%ADD41RoundRect,0.147500X-0.147500X-0.172500X0.147500X-0.172500X0.147500X0.172500X-0.147500X0.172500X0*%
G04 #@! TD*
G04 #@! TA.AperFunction,SMDPad,CuDef*
%ADD42RoundRect,0.237500X-0.250000X-0.237500X0.250000X-0.237500X0.250000X0.237500X-0.250000X0.237500X0*%
G04 #@! TD*
G04 #@! TA.AperFunction,SMDPad,CuDef*
%ADD43FreePoly0,0.000000*%
G04 #@! TD*
G04 #@! TA.AperFunction,SMDPad,CuDef*
%ADD44FreePoly1,0.000000*%
G04 #@! TD*
G04 #@! TA.AperFunction,SMDPad,CuDef*
%ADD45RoundRect,0.237500X0.237500X-0.287500X0.237500X0.287500X-0.237500X0.287500X-0.237500X-0.287500X0*%
G04 #@! TD*
G04 #@! TA.AperFunction,SMDPad,CuDef*
%ADD46RoundRect,0.147500X0.147500X0.172500X-0.147500X0.172500X-0.147500X-0.172500X0.147500X-0.172500X0*%
G04 #@! TD*
G04 #@! TA.AperFunction,SMDPad,CuDef*
%ADD47RoundRect,0.075000X0.700000X0.075000X-0.700000X0.075000X-0.700000X-0.075000X0.700000X-0.075000X0*%
G04 #@! TD*
G04 #@! TA.AperFunction,SMDPad,CuDef*
%ADD48RoundRect,0.075000X0.075000X0.700000X-0.075000X0.700000X-0.075000X-0.700000X0.075000X-0.700000X0*%
G04 #@! TD*
G04 #@! TA.AperFunction,SMDPad,CuDef*
%ADD49R,0.400000X0.650000*%
G04 #@! TD*
G04 #@! TA.AperFunction,SMDPad,CuDef*
%ADD50RoundRect,0.225000X0.017678X-0.335876X0.335876X-0.017678X-0.017678X0.335876X-0.335876X0.017678X0*%
G04 #@! TD*
G04 #@! TA.AperFunction,ViaPad*
%ADD51C,0.609600*%
G04 #@! TD*
G04 #@! TA.AperFunction,Conductor*
%ADD52C,0.250000*%
G04 #@! TD*
G04 #@! TA.AperFunction,Conductor*
%ADD53C,0.304800*%
G04 #@! TD*
G04 #@! TA.AperFunction,Conductor*
%ADD54C,0.406400*%
G04 #@! TD*
G04 #@! TA.AperFunction,Conductor*
%ADD55C,0.203200*%
G04 #@! TD*
G04 APERTURE END LIST*
D10*
X18412500Y-22900000D03*
X19962500Y-22900000D03*
D11*
X-2300000Y-25135000D03*
X-2300000Y-23585000D03*
D12*
X2100000Y-23585000D03*
X2100000Y-25135000D03*
D11*
X-3662500Y-22222500D03*
X-3662500Y-20672500D03*
D12*
X2100000Y-20785000D03*
X2100000Y-22335000D03*
D13*
X-8400000Y-24080000D03*
X-8400000Y-23120000D03*
X-13500000Y-24180000D03*
X-13500000Y-23220000D03*
D14*
X-14489500Y-22320000D03*
X-14489500Y-23280000D03*
X-15500000Y-22320000D03*
X-15500000Y-23280000D03*
X-16500000Y-22320000D03*
X-16500000Y-23280000D03*
D13*
X-18900000Y-17130000D03*
X-18900000Y-16170000D03*
X-19900000Y-17120000D03*
X-19900000Y-16160000D03*
D15*
X4306500Y-24356000D03*
X4306500Y-21556000D03*
D16*
X-8400000Y-3850000D03*
X-8400000Y-5750000D03*
X-6400000Y-4800000D03*
X-8400000Y-7550000D03*
X-8400000Y-9450000D03*
X-6400000Y-8500000D03*
D17*
X20212500Y-24300000D03*
X18387500Y-24300000D03*
X17062500Y-24300000D03*
X15237500Y-24300000D03*
X9512500Y-7800000D03*
X7687500Y-7800000D03*
X9512500Y-5400000D03*
X7687500Y-5400000D03*
D18*
X-5000000Y-3887500D03*
X-5000000Y-5712500D03*
X-5000000Y-7587500D03*
X-5000000Y-9412500D03*
D17*
X812500Y-20760000D03*
X-1012500Y-20760000D03*
D18*
X-2300000Y-20547500D03*
X-2300000Y-22372500D03*
D17*
X-7087500Y-20900000D03*
X-8912500Y-20900000D03*
D19*
X850000Y-22350000D03*
X-100000Y-22350000D03*
X-1050000Y-22350000D03*
X-1050000Y-24970000D03*
X-100000Y-24970000D03*
X850000Y-24970000D03*
D20*
X-1732412Y-35518198D03*
X-1378858Y-35871751D03*
X-1025305Y-36225305D03*
X-671751Y-36578858D03*
X-318198Y-36932412D03*
D21*
X671751Y-36578858D03*
X1025305Y-36225305D03*
X1378858Y-35871751D03*
D20*
X1732412Y-34881802D03*
X1378858Y-34528249D03*
X1025305Y-34174695D03*
X671751Y-33821142D03*
X318198Y-33467588D03*
D21*
X-671751Y-33821142D03*
X-1025305Y-34174695D03*
X-1378858Y-34528249D03*
D22*
X-16300000Y-20750000D03*
X-15650000Y-20750000D03*
X-15000000Y-20750000D03*
X-14350000Y-20750000D03*
X-13700000Y-20750000D03*
X-13050000Y-20750000D03*
X-12400000Y-20750000D03*
D23*
X-11250000Y-19600000D03*
X-11250000Y-18950000D03*
X-11250000Y-18300000D03*
X-11250000Y-17650000D03*
X-11250000Y-17000000D03*
X-11250000Y-16350000D03*
X-11250000Y-15700000D03*
D22*
X-12400000Y-14550000D03*
X-13050000Y-14550000D03*
X-13700000Y-14550000D03*
X-14350000Y-14550000D03*
X-15000000Y-14550000D03*
X-15650000Y-14550000D03*
X-16300000Y-14550000D03*
D23*
X-17450000Y-15700000D03*
X-17450000Y-16350000D03*
X-17450000Y-17000000D03*
X-17450000Y-17650000D03*
X-17450000Y-18300000D03*
X-17450000Y-18950000D03*
X-17450000Y-19600000D03*
D24*
X-14350000Y-17650000D03*
D25*
X-9850000Y-22650000D03*
X-12050000Y-22650000D03*
X-12050000Y-24350000D03*
X-9850000Y-24350000D03*
D26*
X2514000Y-3014000D03*
X-2566000Y-3014000D03*
X-2566000Y-8094000D03*
X2514000Y-8094000D03*
D14*
X-17300000Y-9620000D03*
X-17300000Y-10580000D03*
D27*
X24314266Y-19686957D03*
X23485734Y-21313043D03*
D12*
X-9000000Y-15925000D03*
X-9000000Y-17475000D03*
D28*
X28800000Y-8550000D03*
X28800000Y-5250000D03*
X26800000Y-5250000D03*
X26800000Y-8550000D03*
D29*
X-22820000Y-18900000D03*
X-23780000Y-18900000D03*
D13*
X-16300000Y-10580000D03*
X-16300000Y-9620000D03*
D12*
X30500000Y-6125000D03*
X30500000Y-7675000D03*
D18*
X-10900000Y-3718750D03*
X-10900000Y-5543750D03*
D30*
X17700000Y-28350000D03*
X17700000Y-31650000D03*
D12*
X28100000Y-10775000D03*
X28100000Y-12325000D03*
D11*
X25200000Y-6475000D03*
X25200000Y-4925000D03*
D31*
X-22100000Y-4700000D03*
D13*
X-25800000Y-10880000D03*
X-25800000Y-9920000D03*
D32*
X15300000Y-36300000D03*
X10170000Y-36300000D03*
X15340000Y-27000000D03*
X9640000Y-27000000D03*
X10390000Y-30200000D03*
X15340000Y-30200000D03*
X9350000Y-33250000D03*
D33*
X-2200000Y-12320000D03*
X-2200000Y-13590000D03*
X-2200000Y-14860000D03*
X-2200000Y-16130000D03*
X2750000Y-16130000D03*
X2750000Y-14860000D03*
X2750000Y-13590000D03*
X2750000Y-12320000D03*
D29*
X-22820000Y-17900000D03*
X-23780000Y-17900000D03*
D34*
X-1100000Y-28250000D03*
D35*
X-23800000Y-16885000D03*
X-23800000Y-15915000D03*
D12*
X-4700000Y-14450000D03*
X-4700000Y-16000000D03*
D36*
X7100000Y-1200000D03*
D37*
X9640000Y-1200000D03*
X12180000Y-1200000D03*
X14720000Y-1200000D03*
X17260000Y-1200000D03*
X19800000Y-1200000D03*
D30*
X-17800000Y-28350000D03*
X-17800000Y-31650000D03*
D29*
X-23820000Y-13000000D03*
X-24780000Y-13000000D03*
D38*
X-20100000Y-9510000D03*
X-20100000Y-8490000D03*
D35*
X-23800000Y-14985000D03*
X-23800000Y-14015000D03*
D39*
X23925000Y-3700000D03*
X22375000Y-3700000D03*
D17*
X9512500Y-6600000D03*
X7687500Y-6600000D03*
D40*
X16850000Y-22500000D03*
X13350000Y-22500000D03*
D41*
X-21905000Y-17900000D03*
X-20935000Y-17900000D03*
D42*
X7687500Y-14850000D03*
X9512500Y-14850000D03*
D43*
X8550000Y-12050000D03*
D44*
X9750000Y-12050000D03*
D34*
X-3300000Y-28250000D03*
D29*
X-24820000Y-15900000D03*
X-25780000Y-15900000D03*
D12*
X26800000Y-12325000D03*
X26800000Y-13875000D03*
D18*
X-12300000Y-3718750D03*
X-12300000Y-5543750D03*
D34*
X3300000Y-28250000D03*
D17*
X9537500Y-16175000D03*
X7712500Y-16175000D03*
D31*
X-17300000Y-7100000D03*
D45*
X-10900000Y-8606250D03*
X-10900000Y-6856250D03*
D43*
X8550000Y-13450000D03*
D44*
X9750000Y-13450000D03*
D45*
X-12300000Y-8606250D03*
X-12300000Y-6856250D03*
D39*
X9600000Y-17500000D03*
X8050000Y-17500000D03*
D17*
X9512500Y-9000000D03*
X7687500Y-9000000D03*
D13*
X-24800000Y-14980000D03*
X-24800000Y-14020000D03*
X-23200000Y-8580000D03*
X-23200000Y-7620000D03*
D34*
X1100000Y-28250000D03*
D46*
X-20915000Y-18950000D03*
X-21885000Y-18950000D03*
D29*
X-20920000Y-16850000D03*
X-21880000Y-16850000D03*
D10*
X20825000Y-5000000D03*
X22375000Y-5000000D03*
D29*
X-20920000Y-15800000D03*
X-21880000Y-15800000D03*
D32*
X-9900000Y-36300000D03*
X-15030000Y-36300000D03*
X-9860000Y-27000000D03*
X-15560000Y-27000000D03*
X-14810000Y-30200000D03*
X-9860000Y-30200000D03*
X-15850000Y-33250000D03*
D47*
X23775000Y-16850000D03*
X23775000Y-16350000D03*
X23775000Y-15850000D03*
X23775000Y-15350000D03*
X23775000Y-14850000D03*
X23775000Y-14350000D03*
X23775000Y-13850000D03*
X23775000Y-13350000D03*
X23775000Y-12850000D03*
X23775000Y-12350000D03*
X23775000Y-11850000D03*
X23775000Y-11350000D03*
X23775000Y-10850000D03*
X23775000Y-10350000D03*
X23775000Y-9850000D03*
X23775000Y-9350000D03*
D48*
X21850000Y-7425000D03*
X21350000Y-7425000D03*
X20850000Y-7425000D03*
X20350000Y-7425000D03*
X19850000Y-7425000D03*
X19350000Y-7425000D03*
X18850000Y-7425000D03*
X18350000Y-7425000D03*
X17850000Y-7425000D03*
X17350000Y-7425000D03*
X16850000Y-7425000D03*
X16350000Y-7425000D03*
X15850000Y-7425000D03*
X15350000Y-7425000D03*
X14850000Y-7425000D03*
X14350000Y-7425000D03*
D47*
X12425000Y-9350000D03*
X12425000Y-9850000D03*
X12425000Y-10350000D03*
X12425000Y-10850000D03*
X12425000Y-11350000D03*
X12425000Y-11850000D03*
X12425000Y-12350000D03*
X12425000Y-12850000D03*
X12425000Y-13350000D03*
X12425000Y-13850000D03*
X12425000Y-14350000D03*
X12425000Y-14850000D03*
X12425000Y-15350000D03*
X12425000Y-15850000D03*
X12425000Y-16350000D03*
X12425000Y-16850000D03*
D48*
X14350000Y-18775000D03*
X14850000Y-18775000D03*
X15350000Y-18775000D03*
X15850000Y-18775000D03*
X16350000Y-18775000D03*
X16850000Y-18775000D03*
X17350000Y-18775000D03*
X17850000Y-18775000D03*
X18350000Y-18775000D03*
X18850000Y-18775000D03*
X19350000Y-18775000D03*
X19850000Y-18775000D03*
X20350000Y-18775000D03*
X20850000Y-18775000D03*
X21350000Y-18775000D03*
X21850000Y-18775000D03*
D39*
X14575000Y-5100000D03*
X13025000Y-5100000D03*
D49*
X-23850000Y-11450000D03*
X-23200000Y-11450000D03*
X-22550000Y-11450000D03*
X-22550000Y-9550000D03*
X-23200000Y-9550000D03*
X-23850000Y-9550000D03*
D50*
X-2973008Y-32898008D03*
X-1876992Y-31801992D03*
D14*
X-21100000Y-8520000D03*
X-21100000Y-9480000D03*
D12*
X-7700000Y-15925000D03*
X-7700000Y-17475000D03*
D35*
X-16300000Y-12485000D03*
X-16300000Y-11515000D03*
D51*
X-27350000Y-14850000D03*
X-22100000Y-7450000D03*
X-10100000Y-17500000D03*
X-25050000Y-4350000D03*
X-11606250Y-8606250D03*
X-14426000Y-15828000D03*
X-29950000Y-9800000D03*
X-28900000Y-11850000D03*
X-26350000Y-7900000D03*
X-6000000Y-37300000D03*
X28600000Y-5600000D03*
X-3700000Y-16090000D03*
X-24600000Y-8500000D03*
X26200000Y-12100000D03*
X-19800000Y-14200000D03*
X-23000000Y-1400000D03*
X-12521000Y-19511000D03*
X-17600000Y-14400000D03*
X-27400000Y-3600000D03*
X-30800000Y-8150000D03*
X-17600000Y-11800000D03*
X20600000Y-22900000D03*
X-10800000Y-23700000D03*
X-14426000Y-17733000D03*
X-14426000Y-19511000D03*
X12350000Y-5100000D03*
X-15500000Y-23750000D03*
X-28550000Y-8100000D03*
X-16204000Y-19511000D03*
X-21400000Y-19800000D03*
X-16204000Y-15828000D03*
X-29650000Y-4650000D03*
X-100000Y-23660000D03*
X22400000Y-4350000D03*
X-20000000Y-12400000D03*
X22500000Y-19900000D03*
X-21880000Y-16330000D03*
X-25950000Y-14250000D03*
X-27400000Y-6000000D03*
X14150000Y-22550000D03*
X-27100000Y-10100000D03*
X-16204000Y-17733000D03*
X-19400000Y-16180000D03*
X-24550000Y-6200000D03*
X-22600000Y-12800000D03*
X-16100000Y-4550000D03*
X-25600000Y-17800000D03*
X-25000000Y-2400000D03*
X7425000Y-17525000D03*
X-22200000Y-14200000D03*
X-23500000Y-3050000D03*
X-2350000Y-31350000D03*
X-20200000Y-3500000D03*
X-14800000Y-3600000D03*
X-14700000Y-10650000D03*
X26600000Y-8200000D03*
X3362500Y-22935000D03*
X-17800000Y-3600000D03*
X-21150000Y-6350000D03*
X-24600000Y-19800000D03*
X-12521000Y-15828000D03*
X-12521000Y-17733000D03*
X-19600000Y-4600000D03*
X-16400000Y-8600000D03*
X-18800000Y-19800000D03*
X-3637500Y-22835000D03*
X8900000Y-9000000D03*
X-24750000Y-9750000D03*
X-15250000Y-21700000D03*
X-7750000Y-20900000D03*
X-10900000Y-4431250D03*
X11200000Y-17750000D03*
X4287500Y-21550000D03*
X-3425000Y-32425000D03*
X-3700000Y-14825000D03*
X20800000Y-4300000D03*
X-10100000Y-15700000D03*
X5100000Y-21550000D03*
X4200000Y-13590000D03*
X-19400000Y-17130000D03*
X13900000Y-6100000D03*
X24000000Y-3000000D03*
X8900000Y-6600000D03*
X3500000Y-21550000D03*
X-7700000Y-5800000D03*
X4200000Y-12290000D03*
X-7700000Y-9500000D03*
X28600000Y-8900000D03*
X25550000Y-15550000D03*
X27000000Y-5600000D03*
X25550000Y-14500000D03*
X8300000Y-7800000D03*
X-7700000Y-3800000D03*
X-7700000Y-7500000D03*
X8300000Y-5400000D03*
X-3700000Y-13575000D03*
X6000000Y-35300000D03*
X-11800000Y-12000000D03*
X19350000Y-15000000D03*
X4200000Y-16140000D03*
X18700000Y-15600000D03*
X-12700000Y-11800000D03*
X5000000Y-36300000D03*
X4200000Y-14840000D03*
X-10900000Y-12200000D03*
X20000000Y-14400000D03*
X-5000000Y-36300000D03*
X10400000Y-18800000D03*
X9100000Y-18800000D03*
X25400000Y-9900000D03*
X18400000Y-21800000D03*
X7450000Y-20250000D03*
X7450000Y-21650000D03*
X-3700000Y-12340000D03*
X17350000Y-9025000D03*
X16850000Y-6050000D03*
X8000000Y-33300000D03*
X-13600000Y-11600000D03*
X16350000Y-9000000D03*
X-12300000Y-4431250D03*
X8900000Y-10150000D03*
X6500000Y-16850000D03*
X8175000Y-13450000D03*
X5400000Y-16840000D03*
X7675000Y-12075000D03*
D52*
X-23200000Y-8580000D02*
X-23200000Y-9550000D01*
X-23200000Y-6470000D02*
X-23200000Y-7620000D01*
D53*
X-23200000Y-6470000D02*
X-23200000Y-5000000D01*
D54*
X3362500Y-22935000D02*
X2962500Y-22935000D01*
D55*
X-12094000Y-22406000D02*
X-12094000Y-22402000D01*
X20600000Y-22900000D02*
X19962500Y-22900000D01*
X318198Y-33467588D02*
X332412Y-33467588D01*
X-8400000Y-24080000D02*
X-9580000Y-24080000D01*
D54*
X2962500Y-22935000D02*
X2362500Y-22335000D01*
D53*
X-17337500Y-18300000D02*
X-15000000Y-18300000D01*
X-12400000Y-14550000D02*
X-12400000Y-15707000D01*
D55*
X-13668000Y-24032000D02*
X-14489500Y-23210500D01*
X22375000Y-3700000D02*
X22375000Y-5000000D01*
D54*
X-100000Y-23660000D02*
X-100000Y-22350000D01*
D55*
X28825000Y-5275000D02*
X28800000Y-5250000D01*
D54*
X2362500Y-22335000D02*
X2100000Y-22335000D01*
D55*
X23775000Y-11350000D02*
X25825000Y-11350000D01*
X1075000Y-32225000D02*
X1500000Y-32650000D01*
X24101223Y-19900000D02*
X24314266Y-19686957D01*
X-9000000Y-17475000D02*
X-7700000Y-17475000D01*
X26800000Y-8550000D02*
X26800000Y-8500000D01*
D54*
X-12400000Y-15700000D02*
X-14350000Y-17650000D01*
D53*
X-12400000Y-15707000D02*
X-12521000Y-15828000D01*
D55*
X-11606250Y-8606250D02*
X-10900000Y-8606250D01*
X-10100000Y-17500000D02*
X-9025000Y-17500000D01*
X30500000Y-6125000D02*
X30175000Y-5800000D01*
X21600000Y-19900000D02*
X22500000Y-19900000D01*
D54*
X-2300000Y-23585000D02*
X-2300000Y-22372500D01*
D55*
X22375000Y-5025000D02*
X22375000Y-5000000D01*
X1500000Y-32650000D02*
X1500000Y-32992893D01*
X1150000Y-32650000D02*
X1150000Y-32300000D01*
D53*
X15375000Y-24387500D02*
X15237500Y-24250000D01*
D55*
X12400000Y-5100000D02*
X12350000Y-5050000D01*
X21350000Y-7425000D02*
X21350000Y-6050000D01*
X-1371751Y-34528249D02*
X-700000Y-35200000D01*
D53*
X-16726000Y-16350000D02*
X-16775000Y-16350000D01*
D55*
X22500000Y-19900000D02*
X24101223Y-19900000D01*
X-9025000Y-17500000D02*
X-9000000Y-17475000D01*
X-10398000Y-24102000D02*
X-12094000Y-22406000D01*
D53*
X-19600000Y-16170000D02*
X-18900000Y-16170000D01*
D55*
X-318198Y-36932412D02*
X-985786Y-37600000D01*
X-9894000Y-24102000D02*
X-10398000Y-24102000D01*
X-14489500Y-23280000D02*
X-16500000Y-23280000D01*
X27425000Y-12325000D02*
X26800000Y-12325000D01*
X-2200000Y-16130000D02*
X-4570000Y-16130000D01*
X15150000Y-24300000D02*
X13350000Y-22500000D01*
X-5700000Y-37600000D02*
X-6000000Y-37300000D01*
D53*
X-18720000Y-16350000D02*
X-17450000Y-16350000D01*
D55*
X30175000Y-5800000D02*
X29700000Y-5800000D01*
D53*
X-18900000Y-16170000D02*
X-18720000Y-16350000D01*
D55*
X1500000Y-32650000D02*
X2250000Y-33400000D01*
X29700000Y-5800000D02*
X29350000Y-5800000D01*
X551992Y-31701992D02*
X-1801992Y-31701992D01*
D54*
X-2300000Y-23585000D02*
X-175000Y-23585000D01*
X-175000Y-23585000D02*
X-100000Y-23660000D01*
D55*
X-1378858Y-34528249D02*
X-1371751Y-34528249D01*
X29350000Y-5800000D02*
X28825000Y-5275000D01*
X1150000Y-32300000D02*
X1075000Y-32225000D01*
X1075000Y-32225000D02*
X551992Y-31701992D01*
X-15650000Y-16350000D02*
X-14350000Y-17650000D01*
X26800000Y-8250000D02*
X25200000Y-6650000D01*
X671751Y-33821142D02*
X678858Y-33821142D01*
X332412Y-33467588D02*
X1150000Y-32650000D01*
X21350000Y-19650000D02*
X21600000Y-19900000D01*
X707107Y-35200000D02*
X1378858Y-34528249D01*
X13025000Y-5100000D02*
X12400000Y-5100000D01*
D54*
X-100000Y-22350000D02*
X-100000Y-22374722D01*
D55*
X1500000Y-32992893D02*
X671751Y-33821142D01*
X21350000Y-18775000D02*
X21350000Y-19650000D01*
D53*
X-15000000Y-18300000D02*
X-14350000Y-17650000D01*
D55*
X21350000Y-6050000D02*
X22375000Y-5025000D01*
X-12300000Y-8606250D02*
X-11606250Y-8606250D01*
X-985786Y-37600000D02*
X-5700000Y-37600000D01*
D53*
X-16775000Y-16350000D02*
X-17450000Y-16350000D01*
D55*
X-318198Y-36932412D02*
X-332412Y-36932412D01*
X-9580000Y-24080000D02*
X-9850000Y-24350000D01*
X2250000Y-33400000D02*
X2250000Y-33657107D01*
X28100000Y-12325000D02*
X27425000Y-12325000D01*
X-13494000Y-24032000D02*
X-13668000Y-24032000D01*
X15237500Y-24300000D02*
X15150000Y-24300000D01*
X25825000Y-11350000D02*
X26800000Y-12325000D01*
X-16206750Y-18300000D02*
X-17393250Y-18300000D01*
X26800000Y-8500000D02*
X26800000Y-8250000D01*
X25200000Y-6650000D02*
X25200000Y-6475000D01*
X-700000Y-35200000D02*
X707107Y-35200000D01*
X-4570000Y-16130000D02*
X-4700000Y-16000000D01*
D53*
X-21880000Y-16850000D02*
X-21880000Y-16330000D01*
D55*
X2250000Y-33657107D02*
X1378858Y-34528249D01*
D53*
X-21880000Y-16330000D02*
X-21880000Y-15800000D01*
X-16204000Y-15828000D02*
X-16726000Y-16350000D01*
D54*
X2100000Y-20785000D02*
X2100000Y-20785000D01*
D55*
X-8350000Y-5800000D02*
X-8400000Y-5750000D01*
D53*
X-15000000Y-21450000D02*
X-15000000Y-20750000D01*
D55*
X20825000Y-4325000D02*
X20800000Y-4300000D01*
D54*
X2100000Y-20785000D02*
X2281250Y-20785000D01*
X1487500Y-20760000D02*
X2075000Y-20760000D01*
D55*
X-1025305Y-34174695D02*
X-2100000Y-33100000D01*
X-2464214Y-36250000D02*
X-1732412Y-35518198D01*
X28100000Y-10775000D02*
X28025000Y-10850000D01*
X-10900000Y-4431250D02*
X-10900000Y-3718750D01*
X-8350000Y-9500000D02*
X-8400000Y-9450000D01*
D53*
X-18770000Y-17000000D02*
X-18900000Y-17130000D01*
D55*
X14100000Y-6100000D02*
X13800000Y-6100000D01*
X-10100000Y-15700000D02*
X-9000000Y-15700000D01*
X28025000Y-10850000D02*
X23775000Y-10850000D01*
X11450000Y-16850000D02*
X12425000Y-16850000D01*
X22968086Y-10850000D02*
X23775000Y-10850000D01*
X-2596016Y-33100000D02*
X-2898008Y-32798008D01*
D53*
X-3637500Y-22247500D02*
X-3662500Y-22222500D01*
D55*
X-2800000Y-36100000D02*
X-2650000Y-36250000D01*
X20850000Y-14731914D02*
X21009043Y-14890957D01*
D53*
X-15500000Y-22320000D02*
X-15500000Y-21950000D01*
D54*
X2281250Y-20785000D02*
X2765625Y-21269375D01*
D53*
X-24920000Y-9920000D02*
X-24750000Y-9750000D01*
D55*
X20850000Y-7425000D02*
X20850000Y-8550000D01*
D54*
X2075000Y-20760000D02*
X2100000Y-20785000D01*
D55*
X-2100000Y-33100000D02*
X-2200000Y-33100000D01*
X-2200000Y-33100000D02*
X-2596016Y-33100000D01*
X20850000Y-14700000D02*
X20850000Y-9250000D01*
D53*
X-15500000Y-21950000D02*
X-15000000Y-21450000D01*
D55*
X-9000000Y-15700000D02*
X-7925000Y-15700000D01*
X2750000Y-12320000D02*
X4170000Y-12320000D01*
X-9000000Y-15925000D02*
X-9000000Y-15700000D01*
X-671751Y-33821142D02*
X-1392893Y-33100000D01*
X21850000Y-15731914D02*
X21009043Y-14890957D01*
D53*
X-3637500Y-22835000D02*
X-3637500Y-22247500D01*
D55*
X22968086Y-16850000D02*
X23775000Y-16850000D01*
D54*
X3052250Y-21556000D02*
X4306500Y-21556000D01*
D53*
X-17450000Y-17000000D02*
X-18770000Y-17000000D01*
D54*
X675000Y-20622500D02*
X812500Y-20760000D01*
D55*
X20850000Y-8731914D02*
X22968086Y-10850000D01*
X20850000Y-7425000D02*
X20850000Y-5025000D01*
X21850000Y-18775000D02*
X21850000Y-15731914D01*
X20850000Y-8550000D02*
X20850000Y-8731914D01*
D54*
X2765625Y-21269375D02*
X3052250Y-21556000D01*
D53*
X-24750000Y-9750000D02*
X-24550000Y-9550000D01*
D54*
X4287500Y-21537000D02*
X4306500Y-21556000D01*
D55*
X20825000Y-5000000D02*
X20825000Y-4325000D01*
X-3630000Y-14860000D02*
X-3700000Y-14790000D01*
D53*
X-25800000Y-9920000D02*
X-24920000Y-9920000D01*
D55*
X14350000Y-7425000D02*
X14350000Y-6350000D01*
X-4360000Y-14790000D02*
X-4700000Y-14450000D01*
X20850000Y-8550000D02*
X20850000Y-14731914D01*
X-7700000Y-5800000D02*
X-8350000Y-5800000D01*
D53*
X-15000000Y-20637500D02*
X-15000000Y-21325000D01*
D55*
X11200000Y-17750000D02*
X11200000Y-17100000D01*
X-11250000Y-15700000D02*
X-10100000Y-15700000D01*
X-7700000Y-9500000D02*
X-8350000Y-9500000D01*
X4200000Y-13590000D02*
X2750000Y-13590000D01*
D53*
X-24550000Y-9550000D02*
X-23850000Y-9550000D01*
D55*
X20850000Y-5025000D02*
X20825000Y-5000000D01*
X-2800000Y-32775000D02*
X-2800000Y-36100000D01*
X4170000Y-12320000D02*
X4200000Y-12290000D01*
X-7925000Y-15700000D02*
X-7700000Y-15925000D01*
D54*
X812500Y-20760000D02*
X1487500Y-20760000D01*
D55*
X-1392893Y-33100000D02*
X-2200000Y-33100000D01*
X24000000Y-3625000D02*
X23925000Y-3700000D01*
X-3700000Y-14790000D02*
X-4360000Y-14790000D01*
X24000000Y-3000000D02*
X24000000Y-3625000D01*
X14350000Y-6350000D02*
X14100000Y-6100000D01*
X21009043Y-14890957D02*
X22968086Y-16850000D01*
D53*
X-18900000Y-17130000D02*
X-19600000Y-17130000D01*
D55*
X11200000Y-17100000D02*
X11450000Y-16850000D01*
X-2650000Y-36250000D02*
X-2464214Y-36250000D01*
X-2200000Y-14860000D02*
X-3630000Y-14860000D01*
X23775000Y-13850000D02*
X26775000Y-13850000D01*
X26775000Y-13850000D02*
X26800000Y-13875000D01*
X30500000Y-7675000D02*
X30225000Y-7950000D01*
X28950000Y-8400000D02*
X28800000Y-8550000D01*
X30225000Y-7950000D02*
X29400000Y-7950000D01*
X24850000Y-14850000D02*
X25550000Y-15550000D01*
X23775000Y-14850000D02*
X24850000Y-14850000D01*
X29400000Y-7950000D02*
X28950000Y-8400000D01*
X25400000Y-14350000D02*
X25550000Y-14500000D01*
X25200000Y-4925000D02*
X26475000Y-4925000D01*
X26775000Y-5225000D02*
X26800000Y-5250000D01*
X26475000Y-4925000D02*
X26775000Y-5225000D01*
X23775000Y-14350000D02*
X25400000Y-14350000D01*
D53*
X-2815000Y-25650000D02*
X-11100000Y-25650000D01*
X8500000Y-26050000D02*
X850000Y-26050000D01*
X450000Y-26050000D02*
X-100000Y-25500000D01*
X17700000Y-28350000D02*
X17700000Y-26100000D01*
D54*
X-1215000Y-25150000D02*
X-1050000Y-24985000D01*
D53*
X-13800000Y-28350000D02*
X-17800000Y-28350000D01*
X850000Y-26050000D02*
X450000Y-26050000D01*
X9051921Y-25498079D02*
X8500000Y-26050000D01*
X20200000Y-24300000D02*
X20212500Y-24300000D01*
X-2300000Y-25135000D02*
X-2815000Y-25650000D01*
X1050000Y-29050000D02*
X1050000Y-26250000D01*
D54*
X-2300000Y-25150000D02*
X-1215000Y-25150000D01*
X-1050000Y-24985000D02*
X-100000Y-24985000D01*
D53*
X19000000Y-25500000D02*
X20200000Y-24300000D01*
X18300000Y-25500000D02*
X19000000Y-25500000D01*
D54*
X-1012500Y-25007500D02*
X-1050000Y-24970000D01*
D53*
X17700000Y-26100000D02*
X17098079Y-25498079D01*
X1050000Y-26250000D02*
X850000Y-26050000D01*
X-11100000Y-25650000D02*
X-13800000Y-28350000D01*
X17098079Y-25498079D02*
X9051921Y-25498079D01*
X17700000Y-26100000D02*
X18300000Y-25500000D01*
X-790000Y-24970000D02*
X-1050000Y-24970000D01*
X-100000Y-25500000D02*
X-100000Y-24970000D01*
D54*
X2719000Y-24734000D02*
X3928500Y-24734000D01*
X1015000Y-25150000D02*
X850000Y-24985000D01*
X2175000Y-25075000D02*
X2100000Y-25150000D01*
X2100000Y-25150000D02*
X2318000Y-25150000D01*
X2318000Y-25135000D02*
X2719000Y-24734000D01*
X3928500Y-24734000D02*
X4306500Y-24356000D01*
X2100000Y-25150000D02*
X1015000Y-25150000D01*
X1625000Y-23585000D02*
X850000Y-22810000D01*
X2100000Y-23585000D02*
X1625000Y-23585000D01*
X850000Y-22810000D02*
X850000Y-22350000D01*
X-1050000Y-22350000D02*
X-1050000Y-20797500D01*
X-2300000Y-20547500D02*
X-1225000Y-20547500D01*
D53*
X-2425000Y-20672500D02*
X-2300000Y-20547500D01*
D54*
X-1050000Y-20797500D02*
X-1012500Y-20760000D01*
X-3662500Y-20672500D02*
X-2425000Y-20672500D01*
X-1225000Y-20547500D02*
X-1012500Y-20760000D01*
D53*
X-22400000Y-4700000D02*
X-21350000Y-4700000D01*
D55*
X14850000Y-5375000D02*
X14575000Y-5100000D01*
X14850000Y-7425000D02*
X14850000Y-5375000D01*
X-6056250Y-4800000D02*
X-5143750Y-3887500D01*
X-5143750Y-3887500D02*
X-5000000Y-3887500D01*
X-6400000Y-4800000D02*
X-6056250Y-4800000D01*
X7637500Y-7800000D02*
X7637500Y-7812500D01*
X7637500Y-7812500D02*
X7637500Y-9050000D01*
X-8350000Y-3800000D02*
X-8400000Y-3850000D01*
X-7700000Y-3800000D02*
X-8350000Y-3800000D01*
X-6400000Y-8500000D02*
X-5912500Y-8500000D01*
X-5912500Y-8500000D02*
X-5000000Y-7587500D01*
X7637500Y-6550000D02*
X7637500Y-5300000D01*
X-8350000Y-7500000D02*
X-8400000Y-7550000D01*
X-7700000Y-7500000D02*
X-8350000Y-7500000D01*
X23485734Y-21313043D02*
X21213043Y-21313043D01*
X19850000Y-19950000D02*
X19850000Y-18775000D01*
X21213043Y-21313043D02*
X19850000Y-19950000D01*
X-11800000Y-12000000D02*
X-13700000Y-13900000D01*
X19350000Y-3290000D02*
X17260000Y-1200000D01*
X3245831Y-37197280D02*
X5143111Y-35300000D01*
X5143111Y-35300000D02*
X6000000Y-35300000D01*
X1997280Y-37197280D02*
X3245831Y-37197280D01*
X-2200000Y-13590000D02*
X-3685000Y-13590000D01*
X19350000Y-7425000D02*
X19350000Y-3290000D01*
X19350000Y-7425000D02*
X19350000Y-15000000D01*
X1025305Y-36225305D02*
X1997280Y-37197280D01*
X-13700000Y-13900000D02*
X-13700000Y-14550000D01*
X-3685000Y-13590000D02*
X-3700000Y-13575000D01*
X3700000Y-37600000D02*
X5000000Y-36300000D01*
X18850000Y-3359532D02*
X17841579Y-2351111D01*
X4200000Y-16140000D02*
X2760000Y-16140000D01*
X18850000Y-7425000D02*
X18850000Y-3359532D01*
X671751Y-36578858D02*
X1692893Y-37600000D01*
X18850000Y-8250000D02*
X18850000Y-7425000D01*
X15871111Y-2351111D02*
X14720000Y-1200000D01*
X-14350000Y-14550000D02*
X-14350000Y-13450000D01*
X1692893Y-37600000D02*
X3700000Y-37600000D01*
X18650000Y-15500000D02*
X18700000Y-15450000D01*
X18700000Y-8400000D02*
X18850000Y-8250000D01*
X2760000Y-16140000D02*
X2750000Y-16130000D01*
X18700000Y-15450000D02*
X18700000Y-8400000D01*
X17841579Y-2351111D02*
X15871111Y-2351111D01*
X-14350000Y-13450000D02*
X-12700000Y-11800000D01*
X-8912500Y-20900000D02*
X-9012500Y-20800000D01*
X-12350000Y-20800000D02*
X-12400000Y-20750000D01*
X-9012500Y-20800000D02*
X-12350000Y-20800000D01*
X-4102720Y-37197280D02*
X-1290173Y-37197280D01*
X-13050000Y-14100000D02*
X-11555911Y-12605911D01*
X20000000Y-14600000D02*
X20000000Y-8400000D01*
X-11150000Y-12200000D02*
X-10900000Y-12200000D01*
X-11549022Y-12605911D02*
X-11194089Y-12250978D01*
X-5000000Y-36300000D02*
X-4102720Y-37197280D01*
X20000000Y-8400000D02*
X19850000Y-8250000D01*
X-11194089Y-12250978D02*
X-11194089Y-12244089D01*
X2770000Y-14840000D02*
X2750000Y-14860000D01*
X19850000Y-2700000D02*
X19850000Y-1250000D01*
X19850000Y-7425000D02*
X19850000Y-2700000D01*
X19850000Y-8250000D02*
X19850000Y-7425000D01*
X19850000Y-1250000D02*
X19800000Y-1200000D01*
X-1290173Y-37197280D02*
X-671751Y-36578858D01*
X4200000Y-14840000D02*
X2770000Y-14840000D01*
X-13050000Y-14550000D02*
X-13050000Y-14100000D01*
X-11555911Y-12605911D02*
X-11549022Y-12605911D01*
X-11194089Y-12244089D02*
X-11150000Y-12200000D01*
X10575000Y-16350000D02*
X9575000Y-17350000D01*
X12425000Y-16350000D02*
X10575000Y-16350000D01*
D53*
X-21905000Y-17900000D02*
X-22800000Y-17900000D01*
X-22800000Y-18880000D02*
X-22820000Y-18900000D01*
X-22300000Y-15100000D02*
X-18632160Y-15100000D01*
X-22820000Y-17900000D02*
X-22820000Y-15620000D01*
X-21885000Y-18950000D02*
X-21885000Y-17920000D01*
X-18632160Y-15100000D02*
X-18032160Y-15700000D01*
X-18032160Y-15700000D02*
X-17450000Y-15700000D01*
X-21885000Y-17920000D02*
X-21905000Y-17900000D01*
X-22800000Y-17900000D02*
X-22800000Y-18880000D01*
X-22820000Y-15620000D02*
X-22300000Y-15100000D01*
X-23820000Y-11480000D02*
X-23850000Y-11450000D01*
X-23805000Y-14020000D02*
X-23800000Y-14015000D01*
X-24800000Y-14020000D02*
X-23805000Y-14020000D01*
X-23820000Y-13000000D02*
X-23820000Y-11480000D01*
X-23800000Y-14015000D02*
X-23800000Y-13020000D01*
X-23800000Y-13020000D02*
X-23820000Y-13000000D01*
X-17300000Y-7850000D02*
X-16550000Y-7100000D01*
X-17300000Y-9620000D02*
X-17470000Y-9620000D01*
X-17300000Y-9620000D02*
X-17300000Y-7850000D01*
X-17470000Y-9620000D02*
X-19300000Y-11450000D01*
X-19300000Y-11450000D02*
X-22550000Y-11450000D01*
X-18350000Y-17900000D02*
X-20935000Y-17900000D01*
X-20920000Y-17885000D02*
X-20935000Y-17900000D01*
X-20920000Y-15800000D02*
X-20920000Y-16850000D01*
X-20920000Y-16850000D02*
X-20920000Y-17885000D01*
X-17337500Y-17650000D02*
X-18100000Y-17650000D01*
X-18100000Y-17650000D02*
X-18350000Y-17900000D01*
D55*
X13550000Y-16100000D02*
X13300000Y-15850000D01*
X11850000Y-18800000D02*
X13550000Y-17100000D01*
X13300000Y-15850000D02*
X12425000Y-15850000D01*
X10400000Y-18800000D02*
X11850000Y-18800000D01*
X13550000Y-17100000D02*
X13550000Y-16100000D01*
X14350000Y-18775000D02*
X14350000Y-19000000D01*
X13944089Y-19405911D02*
X9705911Y-19405911D01*
X14350000Y-19000000D02*
X13944089Y-19405911D01*
X9705911Y-19405911D02*
X9100000Y-18800000D01*
X18275000Y-22862500D02*
X18275000Y-22862500D01*
D53*
X18400000Y-22850000D02*
X18387500Y-22862500D01*
D55*
X18412500Y-23000000D02*
X18275000Y-22862500D01*
D53*
X18387500Y-22862500D02*
X17112500Y-22862500D01*
X18412500Y-24262500D02*
X18412500Y-22887500D01*
X18400000Y-24250000D02*
X18412500Y-24262500D01*
X17062500Y-24250000D02*
X18400000Y-24250000D01*
X24950000Y-10350000D02*
X25400000Y-9900000D01*
D54*
X18275000Y-24400000D02*
X18412500Y-24262500D01*
D53*
X23775000Y-10350000D02*
X24950000Y-10350000D01*
D55*
X16925000Y-24387500D02*
X17062500Y-24250000D01*
D53*
X17112500Y-22862500D02*
X16850000Y-22600000D01*
D54*
X18275000Y-24125000D02*
X18412500Y-24262500D01*
D53*
X18412500Y-22887500D02*
X18387500Y-22862500D01*
X18400000Y-21800000D02*
X18400000Y-22850000D01*
D55*
X-4947500Y-5712500D02*
X-2566000Y-8094000D01*
X-5000000Y-5712500D02*
X-4947500Y-5712500D01*
X1195500Y-9412500D02*
X2514000Y-8094000D01*
X-5000000Y-9412500D02*
X1195500Y-9412500D01*
D53*
X2484500Y-7984500D02*
X2580000Y-8080000D01*
D55*
X-10900000Y-5543750D02*
X-10900000Y-6856250D01*
X7700000Y-20450000D02*
X7500000Y-20250000D01*
X18850000Y-18775000D02*
X18850000Y-19700000D01*
X18850000Y-19700000D02*
X18100000Y-20450000D01*
X18100000Y-20450000D02*
X7700000Y-20450000D01*
X18300480Y-20999520D02*
X19350000Y-19950000D01*
X19350000Y-19950000D02*
X19350000Y-18775000D01*
X7500000Y-21600000D02*
X8100480Y-20999520D01*
X8100480Y-20999520D02*
X18300480Y-20999520D01*
X8850000Y-19950000D02*
X17150000Y-19950000D01*
X-6448879Y-17548879D02*
X6448879Y-17548879D01*
X-11324500Y-19638000D02*
X-11362500Y-19600000D01*
X6448879Y-17548879D02*
X8850000Y-19950000D01*
X-8500000Y-19600000D02*
X-6448879Y-17548879D01*
X17150000Y-19950000D02*
X17350000Y-19750000D01*
X17350000Y-19750000D02*
X17350000Y-18775000D01*
X-11250000Y-19600000D02*
X-8500000Y-19600000D01*
X17350000Y-9025000D02*
X17350000Y-7425000D01*
X-3680000Y-12320000D02*
X-3700000Y-12340000D01*
X-2200000Y-12320000D02*
X-3680000Y-12320000D01*
X1378858Y-35871751D02*
X2301667Y-36794560D01*
X6300000Y-33300000D02*
X8000000Y-33300000D01*
X1378858Y-35871751D02*
X1378858Y-35878858D01*
X2805440Y-36794560D02*
X6300000Y-33300000D01*
X2301667Y-36794560D02*
X2805440Y-36794560D01*
X16850000Y-6050000D02*
X16850000Y-7425000D01*
X-13600000Y-11600000D02*
X-13600000Y-11650000D01*
X-15000000Y-13050000D02*
X-15000000Y-14550000D01*
X-13600000Y-11650000D02*
X-15000000Y-13050000D01*
X16350000Y-7425000D02*
X16350000Y-9000000D01*
X10650000Y-14350000D02*
X9750000Y-13450000D01*
X12425000Y-14350000D02*
X10650000Y-14350000D01*
X9818086Y-12050000D02*
X9750000Y-12050000D01*
X12425000Y-13850000D02*
X11618086Y-13850000D01*
X11618086Y-13850000D02*
X9818086Y-12050000D01*
D53*
X-20915000Y-18950000D02*
X-17337500Y-18950000D01*
X-16300000Y-14550000D02*
X-16300000Y-12485000D01*
D55*
X10261723Y-15350000D02*
X9561723Y-16050000D01*
X9561723Y-16050000D02*
X9512500Y-16050000D01*
X12425000Y-15350000D02*
X10261723Y-15350000D01*
X12425000Y-14850000D02*
X9512500Y-14850000D01*
X9512500Y-7800000D02*
X12778246Y-7800000D01*
X15265692Y-8903840D02*
X15850000Y-8319532D01*
X13882086Y-8903840D02*
X15265692Y-8903840D01*
X15850000Y-8319532D02*
X15850000Y-7425000D01*
X12778246Y-7800000D02*
X13882086Y-8903840D01*
X10947778Y-5400000D02*
X14048898Y-8501120D01*
X15350000Y-8250000D02*
X15350000Y-7425000D01*
X14048898Y-8501120D02*
X15098880Y-8501120D01*
X9512500Y-5400000D02*
X10947778Y-5400000D01*
X15098880Y-8501120D02*
X15350000Y-8250000D01*
D53*
X-20100000Y-6600000D02*
X-18900000Y-5400000D01*
X-18900000Y-5400000D02*
X-15800000Y-5400000D01*
X-15628080Y-14528080D02*
X-15650000Y-14550000D01*
X-20100000Y-8490000D02*
X-20100000Y-6600000D01*
X-14900000Y-8400000D02*
X-15628080Y-9128080D01*
X-14900000Y-6300000D02*
X-14900000Y-8400000D01*
X-15800000Y-5400000D02*
X-14900000Y-6300000D01*
X-15628080Y-9128080D02*
X-15628080Y-14528080D01*
X-17800000Y-31650000D02*
X-14550000Y-31650000D01*
X-14550000Y-31650000D02*
X-9900000Y-36300000D01*
D55*
X-12300000Y-6856250D02*
X-12300000Y-5543750D01*
X9100000Y-10350000D02*
X10050000Y-10350000D01*
X-12300000Y-4431250D02*
X-12300000Y-3750000D01*
X8900000Y-10150000D02*
X9100000Y-10350000D01*
X10050000Y-10350000D02*
X11050000Y-9350000D01*
X11050000Y-9350000D02*
X12425000Y-9350000D01*
X-12300000Y-3750000D02*
X-12300000Y-3718750D01*
X13733831Y-2753831D02*
X12180000Y-1200000D01*
X18350000Y-7425000D02*
X18350000Y-3429064D01*
X17674767Y-2753831D02*
X14696169Y-2753831D01*
X18350000Y-3429064D02*
X17674767Y-2753831D01*
X14696169Y-2753831D02*
X13733831Y-2753831D01*
X-13050000Y-20750000D02*
X-13050000Y-21350000D01*
X-8400000Y-23120000D02*
X-9380000Y-23120000D01*
X-12700000Y-21700000D02*
X-10596000Y-21700000D01*
X-13050000Y-21350000D02*
X-12700000Y-21700000D01*
X-9380000Y-23120000D02*
X-9850000Y-22650000D01*
X-13050000Y-21019414D02*
X-13050000Y-20637500D01*
X-10596000Y-21700000D02*
X-9894000Y-22402000D01*
X-12618000Y-24102000D02*
X-12094000Y-24102000D01*
X-13700000Y-20637500D02*
X-13700000Y-23020000D01*
X-13700000Y-23020000D02*
X-12618000Y-24102000D01*
X-14350000Y-20637500D02*
X-14350000Y-22180500D01*
X-14350000Y-22180500D02*
X-14489500Y-22320000D01*
X-15650000Y-20750000D02*
X-15650000Y-21243111D01*
X-16500000Y-22093111D02*
X-16500000Y-22320000D01*
X-15650000Y-20637500D02*
X-15650000Y-20989000D01*
X-15650000Y-21243111D02*
X-16500000Y-22093111D01*
D53*
X-22550000Y-9550000D02*
X-20140000Y-9550000D01*
X-20140000Y-9550000D02*
X-20100000Y-9510000D01*
X-23780000Y-17900000D02*
X-23780000Y-16905000D01*
X-23780000Y-16905000D02*
X-23800000Y-16885000D01*
X-23805000Y-14980000D02*
X-23800000Y-14985000D01*
X-23800000Y-15915000D02*
X-23800000Y-14985000D01*
X-24800000Y-14980000D02*
X-23805000Y-14980000D01*
X-24820000Y-15000000D02*
X-24800000Y-14980000D01*
X-24820000Y-15900000D02*
X-24820000Y-15000000D01*
X-16300000Y-10580000D02*
X-16300000Y-11515000D01*
X-17300000Y-10580000D02*
X-16300000Y-10580000D01*
X15300000Y-36300000D02*
X15300000Y-34050000D01*
X15300000Y-34050000D02*
X17700000Y-31650000D01*
D55*
X8600000Y-15450000D02*
X8600000Y-13500000D01*
X8600000Y-13500000D02*
X8550000Y-13450000D01*
X7687500Y-16050000D02*
X8000000Y-16050000D01*
X8000000Y-16050000D02*
X8600000Y-15450000D01*
X6500000Y-16850000D02*
X7175000Y-16175000D01*
X7175000Y-16175000D02*
X7712500Y-16175000D01*
X5410000Y-16840000D02*
X7400000Y-14850000D01*
X7569089Y-14731589D02*
X7569089Y-12180911D01*
X7569089Y-12180911D02*
X7700000Y-12050000D01*
X7400000Y-14850000D02*
X7687500Y-14850000D01*
X7700000Y-12050000D02*
X8550000Y-12050000D01*
X5400000Y-16840000D02*
X5410000Y-16840000D01*
X7687500Y-14850000D02*
X7569089Y-14731589D01*
G04 #@! TA.AperFunction,Conductor*
G36*
X-22546895Y-639780D02*
G01*
X-22506430Y-698116D01*
X-22500000Y-737853D01*
X-22500000Y-3100000D01*
X-14326000Y-3100000D01*
X-14257879Y-3120002D01*
X-14211386Y-3173658D01*
X-14200000Y-3226000D01*
X-14200000Y-11694209D01*
X-14220002Y-11762330D01*
X-14236900Y-11783298D01*
X-15006087Y-12552485D01*
X-15068397Y-12586509D01*
X-15139213Y-12581444D01*
X-15196048Y-12538897D01*
X-15220859Y-12472377D01*
X-15221180Y-12463388D01*
X-15221180Y-9348813D01*
X-15201178Y-9280692D01*
X-15184275Y-9259718D01*
X-14566708Y-8642151D01*
X-14556490Y-8622096D01*
X-14546160Y-8605241D01*
X-14538761Y-8595057D01*
X-14532930Y-8587032D01*
X-14529864Y-8577597D01*
X-14525972Y-8565620D01*
X-14518408Y-8547358D01*
X-14512692Y-8536140D01*
X-14512692Y-8536139D01*
X-14508191Y-8527306D01*
X-14504670Y-8505074D01*
X-14500054Y-8485848D01*
X-14496165Y-8473879D01*
X-14493100Y-8464446D01*
X-14493100Y-6235553D01*
X-14500054Y-6214150D01*
X-14504668Y-6194930D01*
X-14506639Y-6182490D01*
X-14506640Y-6182487D01*
X-14508191Y-6172694D01*
X-14518410Y-6152638D01*
X-14525975Y-6134375D01*
X-14527685Y-6129112D01*
X-14532930Y-6112968D01*
X-14546167Y-6094748D01*
X-14556489Y-6077905D01*
X-14566708Y-6057849D01*
X-14589621Y-6034936D01*
X-14589634Y-6034922D01*
X-15534923Y-5089634D01*
X-15557849Y-5066708D01*
X-15577904Y-5056490D01*
X-15594759Y-5046160D01*
X-15604943Y-5038761D01*
X-15612968Y-5032930D01*
X-15622401Y-5029865D01*
X-15622403Y-5029864D01*
X-15634380Y-5025972D01*
X-15652642Y-5018408D01*
X-15663860Y-5012692D01*
X-15663861Y-5012692D01*
X-15672694Y-5008191D01*
X-15694926Y-5004670D01*
X-15714152Y-5000054D01*
X-15726121Y-4996165D01*
X-15735554Y-4993100D01*
X-18932024Y-4993100D01*
X-18932028Y-4993101D01*
X-18964447Y-4993101D01*
X-18985851Y-5000055D01*
X-19005070Y-5004669D01*
X-19027306Y-5008191D01*
X-19047360Y-5018409D01*
X-19065623Y-5025974D01*
X-19087032Y-5032930D01*
X-19105252Y-5046167D01*
X-19122095Y-5056489D01*
X-19142151Y-5066708D01*
X-19165074Y-5089631D01*
X-19165078Y-5089634D01*
X-20342151Y-6266708D01*
X-20433292Y-6357849D01*
X-20437795Y-6366687D01*
X-20443508Y-6377900D01*
X-20453840Y-6394759D01*
X-20467070Y-6412968D01*
X-20470135Y-6422401D01*
X-20470136Y-6422403D01*
X-20474028Y-6434380D01*
X-20481592Y-6452641D01*
X-20491809Y-6472694D01*
X-20493360Y-6482487D01*
X-20495330Y-6494926D01*
X-20499946Y-6514152D01*
X-20506900Y-6535554D01*
X-20506900Y-7660675D01*
X-20526902Y-7728796D01*
X-20580558Y-7775289D01*
X-20650832Y-7785393D01*
X-20670397Y-7779861D01*
X-20670603Y-7780569D01*
X-20821641Y-7736688D01*
X-20829609Y-7735232D01*
X-20843031Y-7738052D01*
X-20846000Y-7749513D01*
X-20846000Y-8648000D01*
X-20866002Y-8716121D01*
X-20919658Y-8762614D01*
X-20972000Y-8774000D01*
X-21893558Y-8774000D01*
X-21907089Y-8777973D01*
X-21908224Y-8785871D01*
X-21871643Y-8911784D01*
X-21865395Y-8926222D01*
X-21849582Y-8952960D01*
X-21832122Y-9021776D01*
X-21854638Y-9089108D01*
X-21909982Y-9133577D01*
X-21958035Y-9143100D01*
X-22031291Y-9143100D01*
X-22099412Y-9123098D01*
X-22136056Y-9087102D01*
X-22159623Y-9051832D01*
X-22166516Y-9041516D01*
X-22250699Y-8985266D01*
X-22324933Y-8970500D01*
X-22522731Y-8970500D01*
X-22590852Y-8950498D01*
X-22637345Y-8896842D01*
X-22647180Y-8824789D01*
X-22639136Y-8774000D01*
X-22635500Y-8751045D01*
X-22635501Y-8408956D01*
X-22650132Y-8316573D01*
X-22684764Y-8248605D01*
X-21906619Y-8248605D01*
X-21906579Y-8262705D01*
X-21899309Y-8266000D01*
X-21372115Y-8266000D01*
X-21356876Y-8261525D01*
X-21355671Y-8260135D01*
X-21354000Y-8252452D01*
X-21354000Y-7751576D01*
X-21358344Y-7736781D01*
X-21368775Y-7734937D01*
X-21378359Y-7736688D01*
X-21521784Y-7778357D01*
X-21536220Y-7784604D01*
X-21663499Y-7859876D01*
X-21675926Y-7869516D01*
X-21780484Y-7974074D01*
X-21790124Y-7986501D01*
X-21865396Y-8113780D01*
X-21871643Y-8128216D01*
X-21906619Y-8248605D01*
X-22684764Y-8248605D01*
X-22706865Y-8205229D01*
X-22722999Y-8189095D01*
X-22757025Y-8126783D01*
X-22751960Y-8055968D01*
X-22722999Y-8010905D01*
X-22706865Y-7994771D01*
X-22650132Y-7883427D01*
X-22647928Y-7869516D01*
X-22636275Y-7795935D01*
X-22635500Y-7791045D01*
X-22635501Y-7448956D01*
X-22650132Y-7356573D01*
X-22655327Y-7346376D01*
X-22666335Y-7324773D01*
X-22706865Y-7245229D01*
X-22783595Y-7168499D01*
X-22817621Y-7106187D01*
X-22820500Y-7079404D01*
X-22820500Y-6650126D01*
X-22814333Y-6611189D01*
X-22812693Y-6606142D01*
X-22808191Y-6597306D01*
X-22793100Y-6502024D01*
X-22793100Y-5830500D01*
X-22773098Y-5762379D01*
X-22719442Y-5715886D01*
X-22667100Y-5704500D01*
X-20947655Y-5704499D01*
X-20911434Y-5704499D01*
X-20888865Y-5702723D01*
X-20882160Y-5702196D01*
X-20882159Y-5702196D01*
X-20875742Y-5701691D01*
X-20869562Y-5699896D01*
X-20869559Y-5699895D01*
X-20730621Y-5659530D01*
X-20730619Y-5659529D01*
X-20723008Y-5657318D01*
X-20652835Y-5615818D01*
X-20592936Y-5580394D01*
X-20592933Y-5580392D01*
X-20586109Y-5576356D01*
X-20473644Y-5463891D01*
X-20469608Y-5457067D01*
X-20469606Y-5457064D01*
X-20396719Y-5333818D01*
X-20392682Y-5326992D01*
X-20348309Y-5174258D01*
X-20347805Y-5167853D01*
X-20347804Y-5167848D01*
X-20345693Y-5141023D01*
X-20345693Y-5141016D01*
X-20345500Y-5138567D01*
X-20345501Y-4261434D01*
X-20348309Y-4225742D01*
X-20392682Y-4073008D01*
X-20409247Y-4044998D01*
X-20469606Y-3942936D01*
X-20469608Y-3942933D01*
X-20473644Y-3936109D01*
X-20586109Y-3823644D01*
X-20592933Y-3819608D01*
X-20592936Y-3819606D01*
X-20716182Y-3746719D01*
X-20716181Y-3746719D01*
X-20723008Y-3742682D01*
X-20730619Y-3740471D01*
X-20730621Y-3740470D01*
X-20779861Y-3726165D01*
X-20875742Y-3698309D01*
X-20882147Y-3697805D01*
X-20882152Y-3697804D01*
X-20908977Y-3695693D01*
X-20908984Y-3695693D01*
X-20911433Y-3695500D01*
X-22099037Y-3695500D01*
X-23288566Y-3695501D01*
X-23311135Y-3697277D01*
X-23317840Y-3697804D01*
X-23317841Y-3697804D01*
X-23324258Y-3698309D01*
X-23330438Y-3700104D01*
X-23330441Y-3700105D01*
X-23469379Y-3740470D01*
X-23469381Y-3740471D01*
X-23476992Y-3742682D01*
X-23483819Y-3746719D01*
X-23483818Y-3746719D01*
X-23607064Y-3819606D01*
X-23607067Y-3819608D01*
X-23613891Y-3823644D01*
X-23726356Y-3936109D01*
X-23730392Y-3942933D01*
X-23730394Y-3942936D01*
X-23790753Y-4044998D01*
X-23807318Y-4073008D01*
X-23851691Y-4225742D01*
X-23852195Y-4232147D01*
X-23852196Y-4232152D01*
X-23854307Y-4258977D01*
X-23854500Y-4261433D01*
X-23854499Y-5138566D01*
X-23851691Y-5174258D01*
X-23849896Y-5180435D01*
X-23849895Y-5180441D01*
X-23820313Y-5282264D01*
X-23807318Y-5326992D01*
X-23803281Y-5333818D01*
X-23730394Y-5457064D01*
X-23730392Y-5457067D01*
X-23726356Y-5463891D01*
X-23643805Y-5546442D01*
X-23609779Y-5608754D01*
X-23606900Y-5635537D01*
X-23606900Y-6502024D01*
X-23591809Y-6597306D01*
X-23587307Y-6606142D01*
X-23585667Y-6611189D01*
X-23579500Y-6650126D01*
X-23579500Y-7079404D01*
X-23599502Y-7147525D01*
X-23616405Y-7168499D01*
X-23693135Y-7245229D01*
X-23749868Y-7356573D01*
X-23764500Y-7448955D01*
X-23764499Y-7791044D01*
X-23749868Y-7883427D01*
X-23693135Y-7994771D01*
X-23677001Y-8010905D01*
X-23642975Y-8073217D01*
X-23648040Y-8144032D01*
X-23677001Y-8189095D01*
X-23693135Y-8205229D01*
X-23749868Y-8316573D01*
X-23764500Y-8408955D01*
X-23764499Y-8751044D01*
X-23752819Y-8824789D01*
X-23752819Y-8824791D01*
X-23761919Y-8895202D01*
X-23807641Y-8949516D01*
X-23877266Y-8970501D01*
X-24075066Y-8970501D01*
X-24110818Y-8977612D01*
X-24137126Y-8982844D01*
X-24137128Y-8982845D01*
X-24149301Y-8985266D01*
X-24159621Y-8992161D01*
X-24159622Y-8992162D01*
X-24211435Y-9026783D01*
X-24233484Y-9041516D01*
X-24240377Y-9051832D01*
X-24263944Y-9087102D01*
X-24318422Y-9132630D01*
X-24368709Y-9143100D01*
X-24614446Y-9143100D01*
X-24623879Y-9146165D01*
X-24635848Y-9150054D01*
X-24655074Y-9154670D01*
X-24677306Y-9158191D01*
X-24686139Y-9162692D01*
X-24686140Y-9162692D01*
X-24697358Y-9168408D01*
X-24715616Y-9175971D01*
X-24723418Y-9178507D01*
X-24732419Y-9181431D01*
X-24754906Y-9186520D01*
X-24826148Y-9195899D01*
X-24887821Y-9204018D01*
X-24887823Y-9204019D01*
X-24896007Y-9205096D01*
X-25032063Y-9261453D01*
X-25148897Y-9351103D01*
X-25153923Y-9357653D01*
X-25215399Y-9437770D01*
X-25272737Y-9479637D01*
X-25343607Y-9483859D01*
X-25388817Y-9463277D01*
X-25395229Y-9456865D01*
X-25506573Y-9400132D01*
X-25516363Y-9398581D01*
X-25516364Y-9398581D01*
X-25542101Y-9394505D01*
X-25598955Y-9385500D01*
X-25799959Y-9385500D01*
X-26001044Y-9385501D01*
X-26024208Y-9389170D01*
X-26083629Y-9398580D01*
X-26083631Y-9398581D01*
X-26093427Y-9400132D01*
X-26204771Y-9456865D01*
X-26293135Y-9545229D01*
X-26349868Y-9656573D01*
X-26364500Y-9748955D01*
X-26364499Y-10091044D01*
X-26357171Y-10137312D01*
X-26366271Y-10207720D01*
X-26392525Y-10246115D01*
X-26480484Y-10334074D01*
X-26490124Y-10346501D01*
X-26565396Y-10473780D01*
X-26571643Y-10488216D01*
X-26606619Y-10608605D01*
X-26606579Y-10622705D01*
X-26599309Y-10626000D01*
X-25006442Y-10626000D01*
X-24992911Y-10622027D01*
X-24991776Y-10614129D01*
X-25028405Y-10488053D01*
X-25028202Y-10417057D01*
X-24989649Y-10357441D01*
X-24924984Y-10328132D01*
X-24907408Y-10326900D01*
X-24855554Y-10326900D01*
X-24834152Y-10319946D01*
X-24814927Y-10315330D01*
X-24800517Y-10313048D01*
X-24799342Y-10312862D01*
X-24763196Y-10312389D01*
X-24758189Y-10313048D01*
X-24750000Y-10314126D01*
X-24741812Y-10313048D01*
X-24732400Y-10311809D01*
X-24712461Y-10309184D01*
X-24612179Y-10295982D01*
X-24612177Y-10295981D01*
X-24603993Y-10294904D01*
X-24467937Y-10238547D01*
X-24351103Y-10148897D01*
X-24337217Y-10130800D01*
X-24279881Y-10088933D01*
X-24209010Y-10084711D01*
X-24167254Y-10102738D01*
X-24149301Y-10114734D01*
X-24075067Y-10129500D01*
X-23850037Y-10129500D01*
X-23624934Y-10129499D01*
X-23550699Y-10114734D01*
X-23549864Y-10118934D01*
X-23502676Y-10113843D01*
X-23499320Y-10114828D01*
X-23499301Y-10114734D01*
X-23425067Y-10129500D01*
X-23200037Y-10129500D01*
X-22974934Y-10129499D01*
X-22900699Y-10114734D01*
X-22899864Y-10118934D01*
X-22852676Y-10113843D01*
X-22849320Y-10114828D01*
X-22849301Y-10114734D01*
X-22775067Y-10129500D01*
X-22550037Y-10129500D01*
X-22324934Y-10129499D01*
X-22289182Y-10122388D01*
X-22262874Y-10117156D01*
X-22262872Y-10117155D01*
X-22250699Y-10114734D01*
X-22240379Y-10107839D01*
X-22240378Y-10107838D01*
X-22176832Y-10065377D01*
X-22166516Y-10058484D01*
X-22136056Y-10012898D01*
X-22081578Y-9967370D01*
X-22031291Y-9956900D01*
X-21508007Y-9956900D01*
X-21450803Y-9970633D01*
X-21393427Y-9999868D01*
X-21383637Y-10001419D01*
X-21383636Y-10001419D01*
X-21357899Y-10005495D01*
X-21301045Y-10014500D01*
X-21100041Y-10014500D01*
X-20898956Y-10014499D01*
X-20875792Y-10010830D01*
X-20816371Y-10001420D01*
X-20816369Y-10001419D01*
X-20806573Y-9999868D01*
X-20796569Y-9994771D01*
X-20749196Y-9970633D01*
X-20691993Y-9956900D01*
X-20561059Y-9956900D01*
X-20503857Y-9970633D01*
X-20406862Y-10020054D01*
X-20397073Y-10021604D01*
X-20397071Y-10021605D01*
X-20370579Y-10025801D01*
X-20315653Y-10034500D01*
X-20100044Y-10034500D01*
X-19884348Y-10034499D01*
X-19868966Y-10032063D01*
X-19802936Y-10021606D01*
X-19802934Y-10021605D01*
X-19793138Y-10020054D01*
X-19782237Y-10014500D01*
X-19728991Y-9987369D01*
X-19683204Y-9964040D01*
X-19595960Y-9876796D01*
X-19539946Y-9766862D01*
X-19536958Y-9748000D01*
X-19534199Y-9730579D01*
X-19525500Y-9675653D01*
X-19525501Y-9344348D01*
X-19539946Y-9253138D01*
X-19564424Y-9205096D01*
X-19591460Y-9152036D01*
X-19595960Y-9143204D01*
X-19650069Y-9089095D01*
X-19684095Y-9026783D01*
X-19679030Y-8955968D01*
X-19650069Y-8910905D01*
X-19595960Y-8856796D01*
X-19539946Y-8746862D01*
X-19525500Y-8655653D01*
X-19525501Y-8324348D01*
X-19528132Y-8307735D01*
X-19538394Y-8242936D01*
X-19538395Y-8242934D01*
X-19539946Y-8233138D01*
X-19557738Y-8198218D01*
X-19591460Y-8132036D01*
X-19595960Y-8123204D01*
X-19656195Y-8062969D01*
X-19690221Y-8000657D01*
X-19693100Y-7973874D01*
X-19693100Y-6820734D01*
X-19673098Y-6752613D01*
X-19656195Y-6731638D01*
X-19147747Y-6223191D01*
X-19085435Y-6189166D01*
X-19014619Y-6194231D01*
X-18957784Y-6236778D01*
X-18932973Y-6303298D01*
X-18950198Y-6376424D01*
X-19007318Y-6473008D01*
X-19051691Y-6625742D01*
X-19052195Y-6632147D01*
X-19052196Y-6632152D01*
X-19052772Y-6639476D01*
X-19054500Y-6661433D01*
X-19054499Y-7538566D01*
X-19051691Y-7574258D01*
X-19049896Y-7580438D01*
X-19049895Y-7580441D01*
X-19028709Y-7653364D01*
X-19007318Y-7726992D01*
X-19003281Y-7733818D01*
X-18930394Y-7857064D01*
X-18930392Y-7857067D01*
X-18926356Y-7863891D01*
X-18813891Y-7976356D01*
X-18807067Y-7980392D01*
X-18807064Y-7980394D01*
X-18755472Y-8010905D01*
X-18676992Y-8057318D01*
X-18669381Y-8059529D01*
X-18669379Y-8059530D01*
X-18622267Y-8073217D01*
X-18524258Y-8101691D01*
X-18517853Y-8102195D01*
X-18517848Y-8102196D01*
X-18491023Y-8104307D01*
X-18491016Y-8104307D01*
X-18488567Y-8104500D01*
X-17832900Y-8104500D01*
X-17764779Y-8124502D01*
X-17718286Y-8178158D01*
X-17706900Y-8230500D01*
X-17706900Y-9106804D01*
X-17726902Y-9174925D01*
X-17743805Y-9195899D01*
X-17793135Y-9245229D01*
X-17849868Y-9356573D01*
X-17851418Y-9366362D01*
X-17851419Y-9366364D01*
X-17856233Y-9396760D01*
X-17891587Y-9466144D01*
X-19431638Y-11006195D01*
X-19493950Y-11040221D01*
X-19520733Y-11043100D01*
X-22031291Y-11043100D01*
X-22099412Y-11023098D01*
X-22136056Y-10987102D01*
X-22159623Y-10951832D01*
X-22166516Y-10941516D01*
X-22250699Y-10885266D01*
X-22324933Y-10870500D01*
X-22492825Y-10870500D01*
X-22560944Y-10850499D01*
X-22593651Y-10820066D01*
X-22631718Y-10769273D01*
X-22644276Y-10756715D01*
X-22746351Y-10680214D01*
X-22761946Y-10671676D01*
X-22882394Y-10626522D01*
X-22897649Y-10622895D01*
X-22948514Y-10617369D01*
X-22955328Y-10617000D01*
X-22981885Y-10617000D01*
X-22997124Y-10621475D01*
X-22998329Y-10622865D01*
X-23000000Y-10630548D01*
X-23000000Y-11064900D01*
X-23002421Y-11089481D01*
X-23004500Y-11099933D01*
X-23004499Y-11800066D01*
X-23002852Y-11808347D01*
X-23002421Y-11810514D01*
X-23000000Y-11835093D01*
X-23000000Y-12264884D01*
X-22995525Y-12280123D01*
X-22994135Y-12281328D01*
X-22986452Y-12282999D01*
X-22955331Y-12282999D01*
X-22948510Y-12282629D01*
X-22897648Y-12277105D01*
X-22882396Y-12273479D01*
X-22761946Y-12228324D01*
X-22746351Y-12219786D01*
X-22644276Y-12143285D01*
X-22631719Y-12130728D01*
X-22593652Y-12079935D01*
X-22536792Y-12037420D01*
X-22492826Y-12029500D01*
X-22334593Y-12029499D01*
X-22324934Y-12029499D01*
X-22296105Y-12023765D01*
X-22262874Y-12017156D01*
X-22262872Y-12017155D01*
X-22250699Y-12014734D01*
X-22240379Y-12007839D01*
X-22240378Y-12007838D01*
X-22176832Y-11965377D01*
X-22166516Y-11958484D01*
X-22136056Y-11912898D01*
X-22081578Y-11867370D01*
X-22031291Y-11856900D01*
X-19235554Y-11856900D01*
X-19214152Y-11849946D01*
X-19194926Y-11845330D01*
X-19194414Y-11845249D01*
X-19172694Y-11841809D01*
X-19152641Y-11831592D01*
X-19134380Y-11824028D01*
X-19122403Y-11820136D01*
X-19122401Y-11820135D01*
X-19112968Y-11817070D01*
X-19094759Y-11803840D01*
X-19077904Y-11793510D01*
X-19057849Y-11783292D01*
X-18059779Y-10785222D01*
X-17997467Y-10751196D01*
X-17926652Y-10756261D01*
X-17869816Y-10798808D01*
X-17851270Y-10834572D01*
X-17849868Y-10843427D01*
X-17793135Y-10954771D01*
X-17704771Y-11043135D01*
X-17593427Y-11099868D01*
X-17583637Y-11101419D01*
X-17583636Y-11101419D01*
X-17557899Y-11105495D01*
X-17501045Y-11114500D01*
X-17300041Y-11114500D01*
X-17098956Y-11114499D01*
X-17006573Y-11099868D01*
X-17006053Y-11103152D01*
X-16952245Y-11101612D01*
X-16891445Y-11138271D01*
X-16860117Y-11201981D01*
X-16859821Y-11243185D01*
X-16874500Y-11335863D01*
X-16874499Y-11694136D01*
X-16859590Y-11788273D01*
X-16801779Y-11901735D01*
X-16792609Y-11910905D01*
X-16790828Y-11914167D01*
X-16788938Y-11916768D01*
X-16789274Y-11917012D01*
X-16758583Y-11973217D01*
X-16763648Y-12044032D01*
X-16792609Y-12089095D01*
X-16801779Y-12098265D01*
X-16831417Y-12156434D01*
X-16855088Y-12202890D01*
X-16855089Y-12202893D01*
X-16859590Y-12211727D01*
X-16874500Y-12305863D01*
X-16874499Y-12664136D01*
X-16859590Y-12758273D01*
X-16801779Y-12871735D01*
X-16743805Y-12929709D01*
X-16709779Y-12992021D01*
X-16706900Y-13018804D01*
X-16706900Y-14582024D01*
X-16706126Y-14586910D01*
X-16706126Y-14586912D01*
X-16706051Y-14587383D01*
X-16704500Y-14607095D01*
X-16704500Y-14618781D01*
X-16724502Y-14686902D01*
X-16778158Y-14733395D01*
X-16816895Y-14744044D01*
X-16852352Y-14747895D01*
X-16867604Y-14751521D01*
X-16988054Y-14796676D01*
X-17003649Y-14805214D01*
X-17105724Y-14881715D01*
X-17118285Y-14894276D01*
X-17194786Y-14996351D01*
X-17203324Y-15011946D01*
X-17248478Y-15132394D01*
X-17252106Y-15147650D01*
X-17255957Y-15183106D01*
X-17283198Y-15248669D01*
X-17341561Y-15289096D01*
X-17381220Y-15295500D01*
X-17392905Y-15295500D01*
X-17412614Y-15293949D01*
X-17412873Y-15293908D01*
X-17413088Y-15293874D01*
X-17413090Y-15293874D01*
X-17417976Y-15293100D01*
X-17811427Y-15293100D01*
X-17879548Y-15273098D01*
X-17900522Y-15256195D01*
X-18390009Y-14766708D01*
X-18410064Y-14756490D01*
X-18426919Y-14746160D01*
X-18437103Y-14738761D01*
X-18445128Y-14732930D01*
X-18454561Y-14729865D01*
X-18454563Y-14729864D01*
X-18466540Y-14725972D01*
X-18484802Y-14718408D01*
X-18496020Y-14712692D01*
X-18496021Y-14712692D01*
X-18504854Y-14708191D01*
X-18527086Y-14704670D01*
X-18546312Y-14700054D01*
X-18558281Y-14696165D01*
X-18567714Y-14693100D01*
X-22364446Y-14693100D01*
X-22373879Y-14696165D01*
X-22385848Y-14700054D01*
X-22405074Y-14704670D01*
X-22427306Y-14708191D01*
X-22436139Y-14712692D01*
X-22436140Y-14712692D01*
X-22447358Y-14718408D01*
X-22465620Y-14725972D01*
X-22477597Y-14729864D01*
X-22477599Y-14729865D01*
X-22487032Y-14732930D01*
X-22495057Y-14738761D01*
X-22505241Y-14746160D01*
X-22522096Y-14756490D01*
X-22542151Y-14766708D01*
X-23010405Y-15234962D01*
X-23072717Y-15268988D01*
X-23143532Y-15263923D01*
X-23200368Y-15221376D01*
X-23225179Y-15154856D01*
X-23225500Y-15145867D01*
X-23225501Y-14810819D01*
X-23225501Y-14805864D01*
X-23240410Y-14711727D01*
X-23298221Y-14598265D01*
X-23307391Y-14589095D01*
X-23309172Y-14585833D01*
X-23311062Y-14583232D01*
X-23310726Y-14582988D01*
X-23341417Y-14526783D01*
X-23336352Y-14455968D01*
X-23307391Y-14410905D01*
X-23298221Y-14401735D01*
X-23268583Y-14343566D01*
X-23244912Y-14297110D01*
X-23244911Y-14297107D01*
X-23240410Y-14288273D01*
X-23225500Y-14194137D01*
X-23225501Y-13835864D01*
X-23240410Y-13741727D01*
X-23298221Y-13628265D01*
X-23351251Y-13575235D01*
X-23385277Y-13512923D01*
X-23380212Y-13442108D01*
X-23364091Y-13412078D01*
X-23363876Y-13411782D01*
X-23356865Y-13404771D01*
X-23334785Y-13361438D01*
X-23304633Y-13302260D01*
X-23300132Y-13293427D01*
X-23285500Y-13201045D01*
X-23285501Y-12798956D01*
X-23294358Y-12743031D01*
X-23298580Y-12716371D01*
X-23298581Y-12716369D01*
X-23300132Y-12706573D01*
X-23356865Y-12595229D01*
X-23376195Y-12575899D01*
X-23410221Y-12513587D01*
X-23413100Y-12486804D01*
X-23413100Y-12337320D01*
X-23404886Y-12309347D01*
X-23408507Y-12308559D01*
X-23400000Y-12269452D01*
X-23400000Y-11835100D01*
X-23397579Y-11810519D01*
X-23396707Y-11806135D01*
X-23395500Y-11800067D01*
X-23395501Y-11099934D01*
X-23397579Y-11089486D01*
X-23400000Y-11064907D01*
X-23400000Y-10635116D01*
X-23404475Y-10619877D01*
X-23405865Y-10618672D01*
X-23413548Y-10617001D01*
X-23444669Y-10617001D01*
X-23451490Y-10617371D01*
X-23502352Y-10622895D01*
X-23517604Y-10626521D01*
X-23638054Y-10671676D01*
X-23653649Y-10680214D01*
X-23755724Y-10756715D01*
X-23768281Y-10769272D01*
X-23806348Y-10820065D01*
X-23863208Y-10862580D01*
X-23907174Y-10870500D01*
X-24065407Y-10870501D01*
X-24075066Y-10870501D01*
X-24103895Y-10876235D01*
X-24137126Y-10882844D01*
X-24137128Y-10882845D01*
X-24149301Y-10885266D01*
X-24159621Y-10892161D01*
X-24159622Y-10892162D01*
X-24220015Y-10932516D01*
X-24233484Y-10941516D01*
X-24289734Y-11025699D01*
X-24304500Y-11099933D01*
X-24304499Y-11800066D01*
X-24289734Y-11874301D01*
X-24282839Y-11884621D01*
X-24282838Y-11884622D01*
X-24248135Y-11936558D01*
X-24226900Y-12006560D01*
X-24226900Y-12107408D01*
X-24246902Y-12175529D01*
X-24300558Y-12222022D01*
X-24370832Y-12232126D01*
X-24388053Y-12228405D01*
X-24508605Y-12193381D01*
X-24522705Y-12193421D01*
X-24526000Y-12200691D01*
X-24526000Y-13128000D01*
X-24546002Y-13196121D01*
X-24599658Y-13242614D01*
X-24652000Y-13254000D01*
X-25548424Y-13254000D01*
X-25563219Y-13258344D01*
X-25565063Y-13268775D01*
X-25563312Y-13278359D01*
X-25521643Y-13421784D01*
X-25515396Y-13436220D01*
X-25440124Y-13563499D01*
X-25430484Y-13575926D01*
X-25378704Y-13627706D01*
X-25344678Y-13690018D01*
X-25347805Y-13752525D01*
X-25349868Y-13756573D01*
X-25364500Y-13848955D01*
X-25364499Y-14191044D01*
X-25349868Y-14283427D01*
X-25293135Y-14394771D01*
X-25277001Y-14410905D01*
X-25242975Y-14473217D01*
X-25248040Y-14544032D01*
X-25277001Y-14589095D01*
X-25293135Y-14605229D01*
X-25349868Y-14716573D01*
X-25351419Y-14726363D01*
X-25351419Y-14726364D01*
X-25353382Y-14738761D01*
X-25364500Y-14808955D01*
X-25364500Y-14967431D01*
X-25384502Y-15035552D01*
X-25438158Y-15082045D01*
X-25490498Y-15089570D01*
X-25490487Y-15093329D01*
X-25522705Y-15093421D01*
X-25526000Y-15100691D01*
X-25526000Y-16693558D01*
X-25522027Y-16707089D01*
X-25514129Y-16708224D01*
X-25388216Y-16671643D01*
X-25373780Y-16665396D01*
X-25246501Y-16590124D01*
X-25234074Y-16580484D01*
X-25146116Y-16492526D01*
X-25083804Y-16458500D01*
X-25037311Y-16457172D01*
X-25008452Y-16461743D01*
X-24995933Y-16463726D01*
X-24995931Y-16463726D01*
X-24991045Y-16464500D01*
X-24820035Y-16464500D01*
X-24648956Y-16464499D01*
X-24611077Y-16458500D01*
X-24566371Y-16451420D01*
X-24566369Y-16451419D01*
X-24556573Y-16449868D01*
X-24547468Y-16445229D01*
X-24524651Y-16433603D01*
X-24454874Y-16420498D01*
X-24389089Y-16447197D01*
X-24348183Y-16505224D01*
X-24345141Y-16576156D01*
X-24354922Y-16602379D01*
X-24355089Y-16602893D01*
X-24359590Y-16611727D01*
X-24374500Y-16705863D01*
X-24374499Y-17064136D01*
X-24359590Y-17158273D01*
X-24301779Y-17271735D01*
X-24248749Y-17324765D01*
X-24214723Y-17387077D01*
X-24219788Y-17457892D01*
X-24235909Y-17487922D01*
X-24236124Y-17488218D01*
X-24243135Y-17495229D01*
X-24299868Y-17606573D01*
X-24314500Y-17698955D01*
X-24314499Y-18101044D01*
X-24313724Y-18105937D01*
X-24313724Y-18105938D01*
X-24309906Y-18130046D01*
X-24319006Y-18200457D01*
X-24345260Y-18238850D01*
X-24430484Y-18324074D01*
X-24440124Y-18336501D01*
X-24515396Y-18463780D01*
X-24521643Y-18478216D01*
X-24563312Y-18621641D01*
X-24564768Y-18629609D01*
X-24561948Y-18643031D01*
X-24550487Y-18646000D01*
X-23652000Y-18646000D01*
X-23583879Y-18666002D01*
X-23537386Y-18719658D01*
X-23526000Y-18772000D01*
X-23526000Y-19693558D01*
X-23522027Y-19707089D01*
X-23514129Y-19708224D01*
X-23388216Y-19671643D01*
X-23373780Y-19665396D01*
X-23246501Y-19590124D01*
X-23234074Y-19580484D01*
X-23146116Y-19492526D01*
X-23083804Y-19458500D01*
X-23037311Y-19457172D01*
X-23008452Y-19461743D01*
X-22995933Y-19463726D01*
X-22995931Y-19463726D01*
X-22991045Y-19464500D01*
X-22820035Y-19464500D01*
X-22648956Y-19464499D01*
X-22611077Y-19458500D01*
X-22566371Y-19451420D01*
X-22566369Y-19451419D01*
X-22556573Y-19449868D01*
X-22542326Y-19442609D01*
X-22475547Y-19408583D01*
X-22450712Y-19395929D01*
X-22380936Y-19382824D01*
X-22315151Y-19409524D01*
X-22304414Y-19419100D01*
X-22271735Y-19451779D01*
X-22224343Y-19475926D01*
X-22167110Y-19505088D01*
X-22167107Y-19505089D01*
X-22158273Y-19509590D01*
X-22064137Y-19524500D01*
X-21885019Y-19524500D01*
X-21705864Y-19524499D01*
X-21611727Y-19509590D01*
X-21498265Y-19451779D01*
X-21489095Y-19442609D01*
X-21485833Y-19440828D01*
X-21483232Y-19438938D01*
X-21482988Y-19439274D01*
X-21426783Y-19408583D01*
X-21355968Y-19413648D01*
X-21310905Y-19442609D01*
X-21301735Y-19451779D01*
X-21254343Y-19475926D01*
X-21197110Y-19505088D01*
X-21197107Y-19505089D01*
X-21188273Y-19509590D01*
X-21094137Y-19524500D01*
X-20915019Y-19524500D01*
X-20735864Y-19524499D01*
X-20641727Y-19509590D01*
X-20528265Y-19451779D01*
X-20470291Y-19393805D01*
X-20407979Y-19359779D01*
X-20381196Y-19356900D01*
X-18330271Y-19356900D01*
X-18262150Y-19376902D01*
X-18215657Y-19430558D01*
X-18205413Y-19486392D01*
X-18204500Y-19486392D01*
X-18204500Y-19713608D01*
X-18198182Y-19761596D01*
X-18149074Y-19866909D01*
X-18066909Y-19949074D01*
X-18056917Y-19953733D01*
X-18056916Y-19953734D01*
X-17970329Y-19994110D01*
X-17970328Y-19994110D01*
X-17961596Y-19998182D01*
X-17952043Y-19999440D01*
X-17952042Y-19999440D01*
X-17933979Y-20001818D01*
X-17913608Y-20004500D01*
X-17381219Y-20004500D01*
X-17313098Y-20024502D01*
X-17266605Y-20078158D01*
X-17255956Y-20116895D01*
X-17251252Y-20160207D01*
X-17254738Y-20160586D01*
X-17257526Y-20215574D01*
X-17298885Y-20273280D01*
X-17364877Y-20299466D01*
X-17376470Y-20300000D01*
X-24895522Y-20300000D01*
X-24963643Y-20279998D01*
X-25007170Y-20232401D01*
X-25563528Y-19168775D01*
X-24565063Y-19168775D01*
X-24563312Y-19178359D01*
X-24521643Y-19321784D01*
X-24515396Y-19336220D01*
X-24440124Y-19463499D01*
X-24430484Y-19475926D01*
X-24325926Y-19580484D01*
X-24313499Y-19590124D01*
X-24186220Y-19665396D01*
X-24171784Y-19671643D01*
X-24051395Y-19706619D01*
X-24037295Y-19706579D01*
X-24034000Y-19699309D01*
X-24034000Y-19172115D01*
X-24038475Y-19156876D01*
X-24039865Y-19155671D01*
X-24047548Y-19154000D01*
X-24548424Y-19154000D01*
X-24563219Y-19158344D01*
X-24565063Y-19168775D01*
X-25563528Y-19168775D01*
X-27132759Y-16168775D01*
X-26565063Y-16168775D01*
X-26563312Y-16178359D01*
X-26521643Y-16321784D01*
X-26515396Y-16336220D01*
X-26440124Y-16463499D01*
X-26430484Y-16475926D01*
X-26325926Y-16580484D01*
X-26313499Y-16590124D01*
X-26186220Y-16665396D01*
X-26171784Y-16671643D01*
X-26051395Y-16706619D01*
X-26037295Y-16706579D01*
X-26034000Y-16699309D01*
X-26034000Y-16172115D01*
X-26038475Y-16156876D01*
X-26039865Y-16155671D01*
X-26047548Y-16154000D01*
X-26548424Y-16154000D01*
X-26563219Y-16158344D01*
X-26565063Y-16168775D01*
X-27132759Y-16168775D01*
X-27414784Y-15629609D01*
X-26564768Y-15629609D01*
X-26561948Y-15643031D01*
X-26550487Y-15646000D01*
X-26052115Y-15646000D01*
X-26036876Y-15641525D01*
X-26035671Y-15640135D01*
X-26034000Y-15632452D01*
X-26034000Y-15106442D01*
X-26037973Y-15092911D01*
X-26045871Y-15091776D01*
X-26171784Y-15128357D01*
X-26186220Y-15134604D01*
X-26313499Y-15209876D01*
X-26325926Y-15219516D01*
X-26430484Y-15324074D01*
X-26440124Y-15336501D01*
X-26515396Y-15463780D01*
X-26521643Y-15478216D01*
X-26563312Y-15621641D01*
X-26564768Y-15629609D01*
X-27414784Y-15629609D01*
X-28174098Y-14177980D01*
X-28187948Y-14108347D01*
X-28161954Y-14042281D01*
X-28104367Y-14000756D01*
X-28033472Y-13996956D01*
X-28000118Y-14010077D01*
X-27992643Y-14014332D01*
X-27982704Y-14020622D01*
X-27982340Y-14020877D01*
X-27982333Y-14020881D01*
X-27977829Y-14024035D01*
X-27972845Y-14026359D01*
X-27972840Y-14026362D01*
X-27970125Y-14027628D01*
X-27961048Y-14032318D01*
X-27943545Y-14042281D01*
X-27870202Y-14084030D01*
X-27780502Y-14116590D01*
X-27770247Y-14120833D01*
X-27768652Y-14121577D01*
X-27768650Y-14121578D01*
X-27763663Y-14123903D01*
X-27758347Y-14125327D01*
X-27758345Y-14125328D01*
X-27757281Y-14125613D01*
X-27756298Y-14125876D01*
X-27745919Y-14129143D01*
X-27654129Y-14162461D01*
X-27553557Y-14180648D01*
X-27543384Y-14182926D01*
X-27535408Y-14185063D01*
X-27529010Y-14185623D01*
X-27517588Y-14187152D01*
X-27427931Y-14203364D01*
X-27423792Y-14203559D01*
X-27423785Y-14203560D01*
X-27405330Y-14204430D01*
X-27405323Y-14204430D01*
X-27403842Y-14204500D01*
X-27242288Y-14204500D01*
X-27162556Y-14197735D01*
X-27076267Y-14190413D01*
X-27076263Y-14190412D01*
X-27070956Y-14189962D01*
X-27065801Y-14188624D01*
X-27065795Y-14188623D01*
X-26853632Y-14133556D01*
X-26853633Y-14133556D01*
X-26848461Y-14132214D01*
X-26701588Y-14066052D01*
X-26643738Y-14039993D01*
X-26643735Y-14039992D01*
X-26638877Y-14037803D01*
X-26448197Y-13909430D01*
X-26281872Y-13750764D01*
X-26144658Y-13566342D01*
X-26139839Y-13556865D01*
X-26042898Y-13366194D01*
X-26042898Y-13366193D01*
X-26040480Y-13361438D01*
X-25972315Y-13141911D01*
X-25952448Y-12992021D01*
X-25942812Y-12919319D01*
X-25942812Y-12919316D01*
X-25942112Y-12914036D01*
X-25944464Y-12851401D01*
X-25943705Y-12851372D01*
X-25944034Y-12849984D01*
X-25944340Y-12850011D01*
X-25944374Y-12849623D01*
X-25944465Y-12848162D01*
X-25944523Y-12847915D01*
X-25944648Y-12846493D01*
X-25949036Y-12729609D01*
X-25564768Y-12729609D01*
X-25561948Y-12743031D01*
X-25550487Y-12746000D01*
X-25052115Y-12746000D01*
X-25036876Y-12741525D01*
X-25035671Y-12740135D01*
X-25034000Y-12732452D01*
X-25034000Y-12206442D01*
X-25037973Y-12192911D01*
X-25045871Y-12191776D01*
X-25171784Y-12228357D01*
X-25186220Y-12234604D01*
X-25313499Y-12309876D01*
X-25325926Y-12319516D01*
X-25430484Y-12424074D01*
X-25440124Y-12436501D01*
X-25515396Y-12563780D01*
X-25521643Y-12578216D01*
X-25563312Y-12721641D01*
X-25564768Y-12729609D01*
X-25949036Y-12729609D01*
X-25950736Y-12684331D01*
X-25964628Y-12618121D01*
X-25963861Y-12617960D01*
X-25964841Y-12615684D01*
X-25964937Y-12614592D01*
X-25966361Y-12609278D01*
X-25966464Y-12608693D01*
X-25967638Y-12603778D01*
X-25969431Y-12595229D01*
X-25997939Y-12459363D01*
X-26023975Y-12393434D01*
X-26024724Y-12391459D01*
X-26026097Y-12386337D01*
X-26028947Y-12380225D01*
X-26031934Y-12373283D01*
X-26082372Y-12245564D01*
X-26119273Y-12184754D01*
X-26120811Y-12181874D01*
X-26120890Y-12181920D01*
X-26123639Y-12177159D01*
X-26125965Y-12172171D01*
X-26129124Y-12167659D01*
X-26130674Y-12165445D01*
X-26135181Y-12158538D01*
X-26198853Y-12053609D01*
X-26198855Y-12053606D01*
X-26201621Y-12049048D01*
X-26205117Y-12045019D01*
X-26251993Y-11991000D01*
X-26255555Y-11986437D01*
X-26258347Y-11983110D01*
X-26261505Y-11978599D01*
X-26267791Y-11972313D01*
X-26273861Y-11965799D01*
X-26348776Y-11879467D01*
X-26348778Y-11879465D01*
X-26352276Y-11875434D01*
X-26416308Y-11822930D01*
X-26423574Y-11816348D01*
X-26424706Y-11815398D01*
X-26428599Y-11811505D01*
X-26433103Y-11808351D01*
X-26433108Y-11808347D01*
X-26435936Y-11806367D01*
X-26443554Y-11800590D01*
X-26525896Y-11733074D01*
X-26530029Y-11729685D01*
X-26534669Y-11727044D01*
X-26534673Y-11727041D01*
X-26607355Y-11685669D01*
X-26617296Y-11679378D01*
X-26617660Y-11679123D01*
X-26617667Y-11679119D01*
X-26622171Y-11675965D01*
X-26627155Y-11673641D01*
X-26627160Y-11673638D01*
X-26629875Y-11672372D01*
X-26638952Y-11667682D01*
X-26719832Y-11621643D01*
X-26729798Y-11615970D01*
X-26819498Y-11583410D01*
X-26829753Y-11579167D01*
X-26831348Y-11578423D01*
X-26831350Y-11578422D01*
X-26836337Y-11576097D01*
X-26841653Y-11574673D01*
X-26841655Y-11574672D01*
X-26842719Y-11574387D01*
X-26843702Y-11574124D01*
X-26854081Y-11570857D01*
X-26945871Y-11537539D01*
X-27046443Y-11519352D01*
X-27056616Y-11517074D01*
X-27064592Y-11514937D01*
X-27070990Y-11514377D01*
X-27082412Y-11512848D01*
X-27172069Y-11496636D01*
X-27176208Y-11496441D01*
X-27176215Y-11496440D01*
X-27194670Y-11495570D01*
X-27194677Y-11495570D01*
X-27196158Y-11495500D01*
X-27357712Y-11495500D01*
X-27437444Y-11502265D01*
X-27523733Y-11509587D01*
X-27523737Y-11509588D01*
X-27529044Y-11510038D01*
X-27534199Y-11511376D01*
X-27534205Y-11511377D01*
X-27706942Y-11556211D01*
X-27751539Y-11567786D01*
X-27898412Y-11633948D01*
X-27956262Y-11660007D01*
X-27956265Y-11660008D01*
X-27961123Y-11662197D01*
X-28151803Y-11790570D01*
X-28155660Y-11794249D01*
X-28155662Y-11794251D01*
X-28179582Y-11817070D01*
X-28318128Y-11949236D01*
X-28455342Y-12133658D01*
X-28457758Y-12138409D01*
X-28457760Y-12138413D01*
X-28544935Y-12309876D01*
X-28559520Y-12338562D01*
X-28627685Y-12558089D01*
X-28631452Y-12586509D01*
X-28655037Y-12764453D01*
X-28683817Y-12829356D01*
X-28743116Y-12868395D01*
X-28814108Y-12869178D01*
X-28874254Y-12831455D01*
X-28891593Y-12806299D01*
X-29760125Y-11145871D01*
X-26608224Y-11145871D01*
X-26571643Y-11271784D01*
X-26565396Y-11286220D01*
X-26490124Y-11413499D01*
X-26480484Y-11425926D01*
X-26375926Y-11530484D01*
X-26374383Y-11531681D01*
X-26373484Y-11532926D01*
X-26373196Y-11533214D01*
X-26369960Y-11535112D01*
X-26363499Y-11540124D01*
X-26236220Y-11615396D01*
X-26221784Y-11621643D01*
X-26078359Y-11663312D01*
X-26070391Y-11664768D01*
X-26056969Y-11661948D01*
X-26054000Y-11650487D01*
X-26054000Y-11648424D01*
X-25546000Y-11648424D01*
X-25541656Y-11663219D01*
X-25531225Y-11665063D01*
X-25521641Y-11663312D01*
X-25378216Y-11621643D01*
X-25363780Y-11615396D01*
X-25236501Y-11540124D01*
X-25224074Y-11530484D01*
X-25119516Y-11425926D01*
X-25109876Y-11413499D01*
X-25034604Y-11286220D01*
X-25028357Y-11271784D01*
X-24993381Y-11151395D01*
X-24993421Y-11137295D01*
X-25000691Y-11134000D01*
X-25527885Y-11134000D01*
X-25543124Y-11138475D01*
X-25544329Y-11139865D01*
X-25546000Y-11147548D01*
X-25546000Y-11648424D01*
X-26054000Y-11648424D01*
X-26054000Y-11152115D01*
X-26058475Y-11136876D01*
X-26059865Y-11135671D01*
X-26067548Y-11134000D01*
X-26593558Y-11134000D01*
X-26607089Y-11137973D01*
X-26608224Y-11145871D01*
X-29760125Y-11145871D01*
X-31721741Y-7395722D01*
X-31735591Y-7326089D01*
X-31709597Y-7260023D01*
X-31652010Y-7218498D01*
X-31581115Y-7214698D01*
X-31514928Y-7254741D01*
X-31497724Y-7274566D01*
X-31493593Y-7277953D01*
X-31433691Y-7327070D01*
X-31426426Y-7333652D01*
X-31425294Y-7334602D01*
X-31421401Y-7338495D01*
X-31416897Y-7341649D01*
X-31416892Y-7341653D01*
X-31414064Y-7343633D01*
X-31406446Y-7349410D01*
X-31324099Y-7416931D01*
X-31324093Y-7416935D01*
X-31319971Y-7420315D01*
X-31315332Y-7422955D01*
X-31315333Y-7422955D01*
X-31242645Y-7464331D01*
X-31232704Y-7470622D01*
X-31232340Y-7470877D01*
X-31232333Y-7470881D01*
X-31227829Y-7474035D01*
X-31222845Y-7476359D01*
X-31222840Y-7476362D01*
X-31220125Y-7477628D01*
X-31211048Y-7482318D01*
X-31172994Y-7503979D01*
X-31120202Y-7534030D01*
X-31048045Y-7560222D01*
X-31030502Y-7566590D01*
X-31020247Y-7570833D01*
X-31018652Y-7571577D01*
X-31018650Y-7571578D01*
X-31013663Y-7573903D01*
X-31008347Y-7575327D01*
X-31008345Y-7575328D01*
X-31007281Y-7575613D01*
X-31006298Y-7575876D01*
X-30995919Y-7579143D01*
X-30904129Y-7612461D01*
X-30803557Y-7630648D01*
X-30793384Y-7632926D01*
X-30785408Y-7635063D01*
X-30779010Y-7635623D01*
X-30767588Y-7637152D01*
X-30677931Y-7653364D01*
X-30673792Y-7653559D01*
X-30673785Y-7653560D01*
X-30655330Y-7654430D01*
X-30655323Y-7654430D01*
X-30653842Y-7654500D01*
X-30492288Y-7654500D01*
X-30412556Y-7647735D01*
X-30326267Y-7640413D01*
X-30326263Y-7640412D01*
X-30320956Y-7639962D01*
X-30315801Y-7638624D01*
X-30315795Y-7638623D01*
X-30103632Y-7583556D01*
X-30103633Y-7583556D01*
X-30098461Y-7582214D01*
X-29924786Y-7503979D01*
X-29893738Y-7489993D01*
X-29893735Y-7489992D01*
X-29888877Y-7487803D01*
X-29698197Y-7359430D01*
X-29685942Y-7347740D01*
X-29587743Y-7254062D01*
X-29531872Y-7200764D01*
X-29394658Y-7016342D01*
X-29371664Y-6971117D01*
X-29292898Y-6816194D01*
X-29292898Y-6816193D01*
X-29290480Y-6811438D01*
X-29222315Y-6591911D01*
X-29202685Y-6443806D01*
X-29192812Y-6369319D01*
X-29192812Y-6369316D01*
X-29192112Y-6364036D01*
X-29194464Y-6301401D01*
X-29193705Y-6301372D01*
X-29194034Y-6299984D01*
X-29194340Y-6300011D01*
X-29194374Y-6299623D01*
X-29194465Y-6298162D01*
X-29194523Y-6297915D01*
X-29194648Y-6296493D01*
X-29200736Y-6134331D01*
X-29214628Y-6068121D01*
X-29213861Y-6067960D01*
X-29214841Y-6065684D01*
X-29214937Y-6064592D01*
X-29216361Y-6059278D01*
X-29216464Y-6058693D01*
X-29217638Y-6053778D01*
X-29218255Y-6050834D01*
X-29247939Y-5909363D01*
X-29273365Y-5844979D01*
X-29273975Y-5843434D01*
X-29274724Y-5841459D01*
X-29276097Y-5836337D01*
X-29278947Y-5830225D01*
X-29281934Y-5823283D01*
X-29332372Y-5695564D01*
X-29369273Y-5634754D01*
X-29370811Y-5631874D01*
X-29370890Y-5631920D01*
X-29373639Y-5627159D01*
X-29375965Y-5622171D01*
X-29379124Y-5617659D01*
X-29380674Y-5615445D01*
X-29385181Y-5608538D01*
X-29448853Y-5503609D01*
X-29448855Y-5503606D01*
X-29451621Y-5499048D01*
X-29501993Y-5441000D01*
X-29505555Y-5436437D01*
X-29508347Y-5433110D01*
X-29511505Y-5428599D01*
X-29517791Y-5422313D01*
X-29523861Y-5415799D01*
X-29598776Y-5329467D01*
X-29598778Y-5329465D01*
X-29602276Y-5325434D01*
X-29666308Y-5272930D01*
X-29673574Y-5266348D01*
X-29674706Y-5265398D01*
X-29678599Y-5261505D01*
X-29683103Y-5258351D01*
X-29683108Y-5258347D01*
X-29685936Y-5256367D01*
X-29693554Y-5250590D01*
X-29775901Y-5183069D01*
X-29775907Y-5183065D01*
X-29780029Y-5179685D01*
X-29857355Y-5135669D01*
X-29867296Y-5129378D01*
X-29867660Y-5129123D01*
X-29867667Y-5129119D01*
X-29872171Y-5125965D01*
X-29877155Y-5123641D01*
X-29877160Y-5123638D01*
X-29879875Y-5122372D01*
X-29888952Y-5117682D01*
X-29966178Y-5073723D01*
X-29979798Y-5065970D01*
X-30069498Y-5033410D01*
X-30079753Y-5029167D01*
X-30081348Y-5028423D01*
X-30081350Y-5028422D01*
X-30086337Y-5026097D01*
X-30091653Y-5024673D01*
X-30091655Y-5024672D01*
X-30092719Y-5024387D01*
X-30093702Y-5024124D01*
X-30104081Y-5020857D01*
X-30195871Y-4987539D01*
X-30296443Y-4969352D01*
X-30306616Y-4967074D01*
X-30314592Y-4964937D01*
X-30320990Y-4964377D01*
X-30332412Y-4962848D01*
X-30422069Y-4946636D01*
X-30426208Y-4946441D01*
X-30426215Y-4946440D01*
X-30444670Y-4945570D01*
X-30444677Y-4945570D01*
X-30446158Y-4945500D01*
X-30607712Y-4945500D01*
X-30687444Y-4952265D01*
X-30773733Y-4959587D01*
X-30773737Y-4959588D01*
X-30779044Y-4960038D01*
X-30811805Y-4968541D01*
X-30882766Y-4966292D01*
X-30941246Y-4926037D01*
X-30968680Y-4860555D01*
X-30956356Y-4790636D01*
X-30908187Y-4738479D01*
X-30899818Y-4733890D01*
X-22682348Y-625155D01*
X-22612475Y-612581D01*
X-22546895Y-639780D01*
G37*
G04 #@! TD.AperFunction*
G04 #@! TA.AperFunction,Conductor*
G36*
X-21683879Y-15566002D02*
G01*
X-21637386Y-15619658D01*
X-21626000Y-15672000D01*
X-21626000Y-16978000D01*
X-21646002Y-17046121D01*
X-21699658Y-17092614D01*
X-21752000Y-17104000D01*
X-22008000Y-17104000D01*
X-22076121Y-17083998D01*
X-22122614Y-17030342D01*
X-22134000Y-16978000D01*
X-22134000Y-15672000D01*
X-22113998Y-15603879D01*
X-22060342Y-15557386D01*
X-22008000Y-15546000D01*
X-21752000Y-15546000D01*
X-21683879Y-15566002D01*
G37*
G04 #@! TD.AperFunction*
G04 #@! TA.AperFunction,Conductor*
G36*
X-17357879Y-16220002D02*
G01*
X-17311386Y-16273658D01*
X-17300000Y-16326000D01*
X-17300000Y-16374000D01*
X-17320002Y-16442121D01*
X-17373658Y-16488614D01*
X-17426000Y-16500000D01*
X-18372000Y-16500000D01*
X-18440121Y-16479998D01*
X-18486614Y-16426342D01*
X-18498000Y-16374000D01*
X-18498000Y-16326000D01*
X-18477998Y-16257879D01*
X-18424342Y-16211386D01*
X-18372000Y-16200000D01*
X-17426000Y-16200000D01*
X-17357879Y-16220002D01*
G37*
G04 #@! TD.AperFunction*
G04 #@! TA.AperFunction,Conductor*
G36*
X-19061187Y-15908879D02*
G01*
X-19028452Y-15916000D01*
X-18772000Y-15916000D01*
X-18703879Y-15936002D01*
X-18657386Y-15989658D01*
X-18646000Y-16042000D01*
X-18646000Y-16298000D01*
X-18666002Y-16366121D01*
X-18719658Y-16412614D01*
X-18772000Y-16424000D01*
X-19712030Y-16424000D01*
X-19738813Y-16421121D01*
X-19771548Y-16414000D01*
X-20028000Y-16414000D01*
X-20096121Y-16393998D01*
X-20142614Y-16340342D01*
X-20154000Y-16288000D01*
X-20154000Y-16032000D01*
X-20133998Y-15963879D01*
X-20080342Y-15917386D01*
X-20028000Y-15906000D01*
X-19087970Y-15906000D01*
X-19061187Y-15908879D01*
G37*
G04 #@! TD.AperFunction*
G04 #@! TA.AperFunction,Conductor*
G36*
X-15380886Y-7513882D02*
G01*
X-15327097Y-7560222D01*
X-15306900Y-7628645D01*
X-15306900Y-8179267D01*
X-15326902Y-8247388D01*
X-15343805Y-8268362D01*
X-15884093Y-8808650D01*
X-15946405Y-8842676D01*
X-16008343Y-8840551D01*
X-16021638Y-8836688D01*
X-16029609Y-8835232D01*
X-16043031Y-8838052D01*
X-16046000Y-8849513D01*
X-16046000Y-9748000D01*
X-16066002Y-9816121D01*
X-16119658Y-9862614D01*
X-16172000Y-9874000D01*
X-16428000Y-9874000D01*
X-16496121Y-9853998D01*
X-16542614Y-9800342D01*
X-16554000Y-9748000D01*
X-16554000Y-8851576D01*
X-16558344Y-8836781D01*
X-16568775Y-8834937D01*
X-16578359Y-8836688D01*
X-16729397Y-8880569D01*
X-16730163Y-8877933D01*
X-16787541Y-8885006D01*
X-16851515Y-8854217D01*
X-16888687Y-8793730D01*
X-16893100Y-8760675D01*
X-16893100Y-8230499D01*
X-16873098Y-8162378D01*
X-16819442Y-8115885D01*
X-16767100Y-8104499D01*
X-16111434Y-8104499D01*
X-16088865Y-8102723D01*
X-16082160Y-8102196D01*
X-16082159Y-8102196D01*
X-16075742Y-8101691D01*
X-16069562Y-8099896D01*
X-16069559Y-8099895D01*
X-15930621Y-8059530D01*
X-15930619Y-8059529D01*
X-15923008Y-8057318D01*
X-15844528Y-8010905D01*
X-15792936Y-7980394D01*
X-15792933Y-7980392D01*
X-15786109Y-7976356D01*
X-15673644Y-7863891D01*
X-15669608Y-7857067D01*
X-15669606Y-7857064D01*
X-15596719Y-7733818D01*
X-15592682Y-7726992D01*
X-15571076Y-7652625D01*
X-15553897Y-7593492D01*
X-15515684Y-7533657D01*
X-15451188Y-7503979D01*
X-15380886Y-7513882D01*
G37*
G04 #@! TD.AperFunction*
M02*
