G04 #@! TF.GenerationSoftware,KiCad,Pcbnew,(6.0.0)*
G04 #@! TF.CreationDate,2022-01-15T05:03:17-05:00*
G04 #@! TF.ProjectId,spin-tgd-control,7370696e-2d74-4676-942d-636f6e74726f,rev?*
G04 #@! TF.SameCoordinates,Original*
G04 #@! TF.FileFunction,Soldermask,Top*
G04 #@! TF.FilePolarity,Negative*
%FSLAX46Y46*%
G04 Gerber Fmt 4.6, Leading zero omitted, Abs format (unit mm)*
G04 Created by KiCad (PCBNEW (6.0.0)) date 2022-01-15 05:03:17*
%MOMM*%
%LPD*%
G01*
G04 APERTURE LIST*
G04 Aperture macros list*
%AMRoundRect*
0 Rectangle with rounded corners*
0 $1 Rounding radius*
0 $2 $3 $4 $5 $6 $7 $8 $9 X,Y pos of 4 corners*
0 Add a 4 corners polygon primitive as box body*
4,1,4,$2,$3,$4,$5,$6,$7,$8,$9,$2,$3,0*
0 Add four circle primitives for the rounded corners*
1,1,$1+$1,$2,$3*
1,1,$1+$1,$4,$5*
1,1,$1+$1,$6,$7*
1,1,$1+$1,$8,$9*
0 Add four rect primitives between the rounded corners*
20,1,$1+$1,$2,$3,$4,$5,0*
20,1,$1+$1,$4,$5,$6,$7,0*
20,1,$1+$1,$6,$7,$8,$9,0*
20,1,$1+$1,$8,$9,$2,$3,0*%
%AMRotRect*
0 Rectangle, with rotation*
0 The origin of the aperture is its center*
0 $1 length*
0 $2 width*
0 $3 Rotation angle, in degrees counterclockwise*
0 Add horizontal line*
21,1,$1,$2,0,0,$3*%
%AMFreePoly0*
4,1,13,0.500000,-0.500000,0.000000,-0.500000,-0.095671,-0.480970,-0.176777,-0.426777,-0.230970,-0.345671,-0.250000,-0.250000,-0.250000,0.250000,-0.230970,0.345671,-0.176777,0.426777,-0.095671,0.480970,0.000000,0.500000,0.500000,0.500000,0.500000,-0.500000,0.500000,-0.500000,$1*%
%AMFreePoly1*
4,1,13,0.095671,0.480970,0.176777,0.426777,0.230970,0.345671,0.250000,0.250000,0.250000,-0.250000,0.230970,-0.345671,0.176777,-0.426777,0.095671,-0.480970,0.000000,-0.500000,-0.500000,-0.500000,-0.500000,0.500000,0.000000,0.500000,0.095671,0.480970,0.095671,0.480970,$1*%
G04 Aperture macros list end*
%ADD10RoundRect,0.225000X-0.225000X-0.250000X0.225000X-0.250000X0.225000X0.250000X-0.225000X0.250000X0*%
%ADD11RoundRect,0.225000X0.250000X-0.225000X0.250000X0.225000X-0.250000X0.225000X-0.250000X-0.225000X0*%
%ADD12RoundRect,0.225000X-0.250000X0.225000X-0.250000X-0.225000X0.250000X-0.225000X0.250000X0.225000X0*%
%ADD13RoundRect,0.140000X0.170000X-0.140000X0.170000X0.140000X-0.170000X0.140000X-0.170000X-0.140000X0*%
%ADD14RoundRect,0.140000X-0.170000X0.140000X-0.170000X-0.140000X0.170000X-0.140000X0.170000X0.140000X0*%
%ADD15RoundRect,0.250000X1.075000X-0.375000X1.075000X0.375000X-1.075000X0.375000X-1.075000X-0.375000X0*%
%ADD16R,0.900000X0.800000*%
%ADD17RoundRect,0.237500X0.250000X0.237500X-0.250000X0.237500X-0.250000X-0.237500X0.250000X-0.237500X0*%
%ADD18RoundRect,0.237500X-0.237500X0.250000X-0.237500X-0.250000X0.237500X-0.250000X0.237500X0.250000X0*%
%ADD19R,0.650000X1.220000*%
%ADD20RotRect,1.000000X0.300000X45.000000*%
%ADD21RotRect,0.300000X1.000000X45.000000*%
%ADD22RoundRect,0.075000X0.075000X-0.425000X0.075000X0.425000X-0.075000X0.425000X-0.075000X-0.425000X0*%
%ADD23RoundRect,0.075000X0.425000X-0.075000X0.425000X0.075000X-0.425000X0.075000X-0.425000X-0.075000X0*%
%ADD24R,4.800000X4.800000*%
%ADD25R,1.400000X1.200000*%
%ADD26C,1.778000*%
%ADD27RoundRect,0.237500X-0.098116X0.330574X-0.325112X-0.114929X0.098116X-0.330574X0.325112X0.114929X0*%
%ADD28C,2.200000*%
%ADD29R,1.300000X1.600000*%
%ADD30RoundRect,0.140000X0.140000X0.170000X-0.140000X0.170000X-0.140000X-0.170000X0.140000X-0.170000X0*%
%ADD31R,1.200000X0.900000*%
%ADD32RoundRect,0.375000X1.125000X-0.375000X1.125000X0.375000X-1.125000X0.375000X-1.125000X-0.375000X0*%
%ADD33C,1.500000*%
%ADD34O,0.900000X1.700000*%
%ADD35RoundRect,0.150000X-0.825000X-0.150000X0.825000X-0.150000X0.825000X0.150000X-0.825000X0.150000X0*%
%ADD36RoundRect,0.375000X-0.375000X-1.125000X0.375000X-1.125000X0.375000X1.125000X-0.375000X1.125000X0*%
%ADD37RoundRect,0.147500X0.172500X-0.147500X0.172500X0.147500X-0.172500X0.147500X-0.172500X-0.147500X0*%
%ADD38R,1.700000X1.700000*%
%ADD39O,1.700000X1.700000*%
%ADD40RoundRect,0.135000X0.185000X-0.135000X0.185000X0.135000X-0.185000X0.135000X-0.185000X-0.135000X0*%
%ADD41RoundRect,0.225000X0.225000X0.250000X-0.225000X0.250000X-0.225000X-0.250000X0.225000X-0.250000X0*%
%ADD42R,1.300000X1.700000*%
%ADD43RoundRect,0.147500X-0.147500X-0.172500X0.147500X-0.172500X0.147500X0.172500X-0.147500X0.172500X0*%
%ADD44RoundRect,0.237500X-0.250000X-0.237500X0.250000X-0.237500X0.250000X0.237500X-0.250000X0.237500X0*%
%ADD45FreePoly0,0.000000*%
%ADD46FreePoly1,0.000000*%
%ADD47RoundRect,0.237500X0.237500X-0.287500X0.237500X0.287500X-0.237500X0.287500X-0.237500X-0.287500X0*%
%ADD48RoundRect,0.147500X0.147500X0.172500X-0.147500X0.172500X-0.147500X-0.172500X0.147500X-0.172500X0*%
%ADD49RoundRect,0.075000X0.700000X0.075000X-0.700000X0.075000X-0.700000X-0.075000X0.700000X-0.075000X0*%
%ADD50RoundRect,0.075000X0.075000X0.700000X-0.075000X0.700000X-0.075000X-0.700000X0.075000X-0.700000X0*%
%ADD51R,0.400000X0.650000*%
%ADD52RoundRect,0.225000X0.017678X-0.335876X0.335876X-0.017678X-0.017678X0.335876X-0.335876X0.017678X0*%
G04 APERTURE END LIST*
D10*
X18412500Y-22900000D03*
X19962500Y-22900000D03*
D11*
X-2300000Y-25135000D03*
X-2300000Y-23585000D03*
D12*
X2100000Y-23585000D03*
X2100000Y-25135000D03*
D11*
X-3662500Y-22222500D03*
X-3662500Y-20672500D03*
D12*
X2100000Y-20785000D03*
X2100000Y-22335000D03*
D13*
X-8400000Y-24080000D03*
X-8400000Y-23120000D03*
X-13500000Y-24180000D03*
X-13500000Y-23220000D03*
D14*
X-14489500Y-22320000D03*
X-14489500Y-23280000D03*
X-15500000Y-22320000D03*
X-15500000Y-23280000D03*
X-16500000Y-22320000D03*
X-16500000Y-23280000D03*
D13*
X-18900000Y-17130000D03*
X-18900000Y-16170000D03*
X-19900000Y-17120000D03*
X-19900000Y-16160000D03*
D15*
X4306500Y-24356000D03*
X4306500Y-21556000D03*
D16*
X-8400000Y-3850000D03*
X-8400000Y-5750000D03*
X-6400000Y-4800000D03*
X-8400000Y-7550000D03*
X-8400000Y-9450000D03*
X-6400000Y-8500000D03*
D17*
X20212500Y-24300000D03*
X18387500Y-24300000D03*
X17062500Y-24300000D03*
X15237500Y-24300000D03*
X9512500Y-7800000D03*
X7687500Y-7800000D03*
X9512500Y-5400000D03*
X7687500Y-5400000D03*
D18*
X-5000000Y-3887500D03*
X-5000000Y-5712500D03*
X-5000000Y-7587500D03*
X-5000000Y-9412500D03*
D17*
X812500Y-20760000D03*
X-1012500Y-20760000D03*
D18*
X-2300000Y-20547500D03*
X-2300000Y-22372500D03*
D17*
X-7087500Y-20900000D03*
X-8912500Y-20900000D03*
D19*
X850000Y-22350000D03*
X-100000Y-22350000D03*
X-1050000Y-22350000D03*
X-1050000Y-24970000D03*
X-100000Y-24970000D03*
X850000Y-24970000D03*
D20*
X-1732412Y-35518198D03*
X-1378858Y-35871751D03*
X-1025305Y-36225305D03*
X-671751Y-36578858D03*
X-318198Y-36932412D03*
D21*
X671751Y-36578858D03*
X1025305Y-36225305D03*
X1378858Y-35871751D03*
D20*
X1732412Y-34881802D03*
X1378858Y-34528249D03*
X1025305Y-34174695D03*
X671751Y-33821142D03*
X318198Y-33467588D03*
D21*
X-671751Y-33821142D03*
X-1025305Y-34174695D03*
X-1378858Y-34528249D03*
D22*
X-16300000Y-20750000D03*
X-15650000Y-20750000D03*
X-15000000Y-20750000D03*
X-14350000Y-20750000D03*
X-13700000Y-20750000D03*
X-13050000Y-20750000D03*
X-12400000Y-20750000D03*
D23*
X-11250000Y-19600000D03*
X-11250000Y-18950000D03*
X-11250000Y-18300000D03*
X-11250000Y-17650000D03*
X-11250000Y-17000000D03*
X-11250000Y-16350000D03*
X-11250000Y-15700000D03*
D22*
X-12400000Y-14550000D03*
X-13050000Y-14550000D03*
X-13700000Y-14550000D03*
X-14350000Y-14550000D03*
X-15000000Y-14550000D03*
X-15650000Y-14550000D03*
X-16300000Y-14550000D03*
D23*
X-17450000Y-15700000D03*
X-17450000Y-16350000D03*
X-17450000Y-17000000D03*
X-17450000Y-17650000D03*
X-17450000Y-18300000D03*
X-17450000Y-18950000D03*
X-17450000Y-19600000D03*
D24*
X-14350000Y-17650000D03*
D25*
X-9850000Y-22650000D03*
X-12050000Y-22650000D03*
X-12050000Y-24350000D03*
X-9850000Y-24350000D03*
D26*
X2514000Y-3014000D03*
X-2566000Y-3014000D03*
X-2566000Y-8094000D03*
X2514000Y-8094000D03*
D14*
X-17300000Y-9620000D03*
X-17300000Y-10580000D03*
D27*
X24314266Y-19686957D03*
X23485734Y-21313043D03*
D28*
X5500000Y-19000000D03*
D12*
X-9000000Y-15925000D03*
X-9000000Y-17475000D03*
D29*
X28800000Y-8550000D03*
X28800000Y-5250000D03*
X26800000Y-5250000D03*
X26800000Y-8550000D03*
D30*
X-22820000Y-18900000D03*
X-23780000Y-18900000D03*
D13*
X-16300000Y-10580000D03*
X-16300000Y-9620000D03*
D12*
X30500000Y-6125000D03*
X30500000Y-7675000D03*
D18*
X-10900000Y-3718750D03*
X-10900000Y-5543750D03*
D31*
X17700000Y-28350000D03*
X17700000Y-31650000D03*
D12*
X28100000Y-10775000D03*
X28100000Y-12325000D03*
D11*
X25200000Y-6475000D03*
X25200000Y-4925000D03*
D32*
X-22100000Y-4700000D03*
D13*
X-25800000Y-10880000D03*
X-25800000Y-9920000D03*
D33*
X12600000Y-36000000D03*
X12600000Y-29000000D03*
D34*
X15300000Y-36300000D03*
X10170000Y-36300000D03*
X15340000Y-27000000D03*
X9640000Y-27000000D03*
X10390000Y-30200000D03*
X15340000Y-30200000D03*
X9350000Y-33250000D03*
D35*
X-2200000Y-12320000D03*
X-2200000Y-13590000D03*
X-2200000Y-14860000D03*
X-2200000Y-16130000D03*
X2750000Y-16130000D03*
X2750000Y-14860000D03*
X2750000Y-13590000D03*
X2750000Y-12320000D03*
D30*
X-22820000Y-17900000D03*
X-23780000Y-17900000D03*
D36*
X-1100000Y-28250000D03*
D37*
X-23800000Y-16885000D03*
X-23800000Y-15915000D03*
D12*
X-4700000Y-14450000D03*
X-4700000Y-16000000D03*
D38*
X7100000Y-1200000D03*
D39*
X9640000Y-1200000D03*
X12180000Y-1200000D03*
X14720000Y-1200000D03*
X17260000Y-1200000D03*
X19800000Y-1200000D03*
D31*
X-17800000Y-28350000D03*
X-17800000Y-31650000D03*
D30*
X-23820000Y-13000000D03*
X-24780000Y-13000000D03*
D40*
X-20100000Y-9510000D03*
X-20100000Y-8490000D03*
D37*
X-23800000Y-14985000D03*
X-23800000Y-14015000D03*
D28*
X-30550000Y-6300000D03*
D41*
X23925000Y-3700000D03*
X22375000Y-3700000D03*
D17*
X9512500Y-6600000D03*
X7687500Y-6600000D03*
D42*
X16850000Y-22500000D03*
X13350000Y-22500000D03*
D43*
X-21905000Y-17900000D03*
X-20935000Y-17900000D03*
D44*
X7687500Y-14850000D03*
X9512500Y-14850000D03*
D45*
X8550000Y-12050000D03*
D46*
X9750000Y-12050000D03*
D36*
X-3300000Y-28250000D03*
D28*
X-27300000Y-12850000D03*
D30*
X-24820000Y-15900000D03*
X-25780000Y-15900000D03*
D12*
X26800000Y-12325000D03*
X26800000Y-13875000D03*
D18*
X-12300000Y-3718750D03*
X-12300000Y-5543750D03*
D36*
X3300000Y-28250000D03*
D17*
X9537500Y-16175000D03*
X7712500Y-16175000D03*
D32*
X-17300000Y-7100000D03*
D47*
X-10900000Y-8606250D03*
X-10900000Y-6856250D03*
D45*
X8550000Y-13450000D03*
D46*
X9750000Y-13450000D03*
D47*
X-12300000Y-8606250D03*
X-12300000Y-6856250D03*
D41*
X9600000Y-17500000D03*
X8050000Y-17500000D03*
D17*
X9512500Y-9000000D03*
X7687500Y-9000000D03*
D13*
X-24800000Y-14980000D03*
X-24800000Y-14020000D03*
X-23200000Y-8580000D03*
X-23200000Y-7620000D03*
D36*
X1100000Y-28250000D03*
D48*
X-20915000Y-18950000D03*
X-21885000Y-18950000D03*
D30*
X-20920000Y-16850000D03*
X-21880000Y-16850000D03*
D10*
X20825000Y-5000000D03*
X22375000Y-5000000D03*
D30*
X-20920000Y-15800000D03*
X-21880000Y-15800000D03*
D33*
X-12600000Y-29000000D03*
X-12600000Y-36000000D03*
D34*
X-9900000Y-36300000D03*
X-15030000Y-36300000D03*
X-9860000Y-27000000D03*
X-15560000Y-27000000D03*
X-14810000Y-30200000D03*
X-9860000Y-30200000D03*
X-15850000Y-33250000D03*
D49*
X23775000Y-16850000D03*
X23775000Y-16350000D03*
X23775000Y-15850000D03*
X23775000Y-15350000D03*
X23775000Y-14850000D03*
X23775000Y-14350000D03*
X23775000Y-13850000D03*
X23775000Y-13350000D03*
X23775000Y-12850000D03*
X23775000Y-12350000D03*
X23775000Y-11850000D03*
X23775000Y-11350000D03*
X23775000Y-10850000D03*
X23775000Y-10350000D03*
X23775000Y-9850000D03*
X23775000Y-9350000D03*
D50*
X21850000Y-7425000D03*
X21350000Y-7425000D03*
X20850000Y-7425000D03*
X20350000Y-7425000D03*
X19850000Y-7425000D03*
X19350000Y-7425000D03*
X18850000Y-7425000D03*
X18350000Y-7425000D03*
X17850000Y-7425000D03*
X17350000Y-7425000D03*
X16850000Y-7425000D03*
X16350000Y-7425000D03*
X15850000Y-7425000D03*
X15350000Y-7425000D03*
X14850000Y-7425000D03*
X14350000Y-7425000D03*
D49*
X12425000Y-9350000D03*
X12425000Y-9850000D03*
X12425000Y-10350000D03*
X12425000Y-10850000D03*
X12425000Y-11350000D03*
X12425000Y-11850000D03*
X12425000Y-12350000D03*
X12425000Y-12850000D03*
X12425000Y-13350000D03*
X12425000Y-13850000D03*
X12425000Y-14350000D03*
X12425000Y-14850000D03*
X12425000Y-15350000D03*
X12425000Y-15850000D03*
X12425000Y-16350000D03*
X12425000Y-16850000D03*
D50*
X14350000Y-18775000D03*
X14850000Y-18775000D03*
X15350000Y-18775000D03*
X15850000Y-18775000D03*
X16350000Y-18775000D03*
X16850000Y-18775000D03*
X17350000Y-18775000D03*
X17850000Y-18775000D03*
X18350000Y-18775000D03*
X18850000Y-18775000D03*
X19350000Y-18775000D03*
X19850000Y-18775000D03*
X20350000Y-18775000D03*
X20850000Y-18775000D03*
X21350000Y-18775000D03*
X21850000Y-18775000D03*
D41*
X14575000Y-5100000D03*
X13025000Y-5100000D03*
D51*
X-23850000Y-11450000D03*
X-23200000Y-11450000D03*
X-22550000Y-11450000D03*
X-22550000Y-9550000D03*
X-23200000Y-9550000D03*
X-23850000Y-9550000D03*
D52*
X-2973008Y-32898008D03*
X-1876992Y-31801992D03*
D28*
X-5500000Y-19000000D03*
D14*
X-21100000Y-8520000D03*
X-21100000Y-9480000D03*
D12*
X-7700000Y-15925000D03*
X-7700000Y-17475000D03*
D37*
X-16300000Y-12485000D03*
X-16300000Y-11515000D03*
M02*
