G04 #@! TF.GenerationSoftware,KiCad,Pcbnew,(6.0.0)*
G04 #@! TF.CreationDate,2022-01-15T05:03:17-05:00*
G04 #@! TF.ProjectId,spin-tgd-control,7370696e-2d74-4676-942d-636f6e74726f,rev?*
G04 #@! TF.SameCoordinates,Original*
G04 #@! TF.FileFunction,Legend,Bot*
G04 #@! TF.FilePolarity,Positive*
%FSLAX46Y46*%
G04 Gerber Fmt 4.6, Leading zero omitted, Abs format (unit mm)*
G04 Created by KiCad (PCBNEW (6.0.0)) date 2022-01-15 05:03:17*
%MOMM*%
%LPD*%
G01*
G04 APERTURE LIST*
G04 Aperture macros list*
%AMRoundRect*
0 Rectangle with rounded corners*
0 $1 Rounding radius*
0 $2 $3 $4 $5 $6 $7 $8 $9 X,Y pos of 4 corners*
0 Add a 4 corners polygon primitive as box body*
4,1,4,$2,$3,$4,$5,$6,$7,$8,$9,$2,$3,0*
0 Add four circle primitives for the rounded corners*
1,1,$1+$1,$2,$3*
1,1,$1+$1,$4,$5*
1,1,$1+$1,$6,$7*
1,1,$1+$1,$8,$9*
0 Add four rect primitives between the rounded corners*
20,1,$1+$1,$2,$3,$4,$5,0*
20,1,$1+$1,$4,$5,$6,$7,0*
20,1,$1+$1,$6,$7,$8,$9,0*
20,1,$1+$1,$8,$9,$2,$3,0*%
G04 Aperture macros list end*
%ADD10C,0.200000*%
%ADD11C,1.778000*%
%ADD12C,2.200000*%
%ADD13RoundRect,0.375000X1.125000X-0.375000X1.125000X0.375000X-1.125000X0.375000X-1.125000X-0.375000X0*%
%ADD14C,1.500000*%
%ADD15O,0.900000X1.700000*%
%ADD16RoundRect,0.375000X-0.375000X-1.125000X0.375000X-1.125000X0.375000X1.125000X-0.375000X1.125000X0*%
%ADD17R,1.700000X1.700000*%
%ADD18O,1.700000X1.700000*%
G04 APERTURE END LIST*
D10*
X-738095Y-29935714D02*
X-1538095Y-29935714D01*
X-1538095Y-30240476D01*
X-1500000Y-30316666D01*
X-1461904Y-30354761D01*
X-1385714Y-30392857D01*
X-1271428Y-30392857D01*
X-1195238Y-30354761D01*
X-1157142Y-30316666D01*
X-1119047Y-30240476D01*
X-1119047Y-29935714D01*
X-661904Y-30545238D02*
X-661904Y-31154761D01*
X-1157142Y-31611904D02*
X-1119047Y-31726190D01*
X-1080952Y-31764285D01*
X-1004761Y-31802380D01*
X-890476Y-31802380D01*
X-814285Y-31764285D01*
X-776190Y-31726190D01*
X-738095Y-31650000D01*
X-738095Y-31345238D01*
X-1538095Y-31345238D01*
X-1538095Y-31611904D01*
X-1500000Y-31688095D01*
X-1461904Y-31726190D01*
X-1385714Y-31764285D01*
X-1309523Y-31764285D01*
X-1233333Y-31726190D01*
X-1195238Y-31688095D01*
X-1157142Y-31611904D01*
X-1157142Y-31345238D01*
X686904Y-29933333D02*
X1486904Y-30200000D01*
X686904Y-30466666D01*
X1486904Y-30733333D02*
X686904Y-30733333D01*
X686904Y-30923809D01*
X725000Y-31038095D01*
X801190Y-31114285D01*
X877380Y-31152380D01*
X1029761Y-31190476D01*
X1144047Y-31190476D01*
X1296428Y-31152380D01*
X1372619Y-31114285D01*
X1448809Y-31038095D01*
X1486904Y-30923809D01*
X1486904Y-30733333D01*
X1486904Y-31533333D02*
X686904Y-31533333D01*
X686904Y-31723809D01*
X725000Y-31838095D01*
X801190Y-31914285D01*
X877380Y-31952380D01*
X1029761Y-31990476D01*
X1144047Y-31990476D01*
X1296428Y-31952380D01*
X1372619Y-31914285D01*
X1448809Y-31838095D01*
X1486904Y-31723809D01*
X1486904Y-31533333D01*
X2900000Y-30390476D02*
X2861904Y-30314285D01*
X2861904Y-30200000D01*
X2900000Y-30085714D01*
X2976190Y-30009523D01*
X3052380Y-29971428D01*
X3204761Y-29933333D01*
X3319047Y-29933333D01*
X3471428Y-29971428D01*
X3547619Y-30009523D01*
X3623809Y-30085714D01*
X3661904Y-30200000D01*
X3661904Y-30276190D01*
X3623809Y-30390476D01*
X3585714Y-30428571D01*
X3319047Y-30428571D01*
X3319047Y-30276190D01*
X3661904Y-30771428D02*
X2861904Y-30771428D01*
X3661904Y-31228571D01*
X2861904Y-31228571D01*
X3661904Y-31609523D02*
X2861904Y-31609523D01*
X2861904Y-31800000D01*
X2900000Y-31914285D01*
X2976190Y-31990476D01*
X3052380Y-32028571D01*
X3204761Y-32066666D01*
X3319047Y-32066666D01*
X3471428Y-32028571D01*
X3547619Y-31990476D01*
X3623809Y-31914285D01*
X3661904Y-31800000D01*
X3661904Y-31609523D01*
X-2988095Y-29942857D02*
X-3788095Y-29942857D01*
X-3788095Y-30247619D01*
X-3750000Y-30323809D01*
X-3711904Y-30361904D01*
X-3635714Y-30400000D01*
X-3521428Y-30400000D01*
X-3445238Y-30361904D01*
X-3407142Y-30323809D01*
X-3369047Y-30247619D01*
X-3369047Y-29942857D01*
X-2911904Y-30552380D02*
X-2911904Y-31161904D01*
X-3407142Y-31619047D02*
X-3407142Y-31352380D01*
X-2988095Y-31352380D02*
X-3788095Y-31352380D01*
X-3788095Y-31733333D01*
%LPC*%
D11*
X2514000Y-3014000D03*
X-2566000Y-3014000D03*
X-2566000Y-8094000D03*
X2514000Y-8094000D03*
D12*
X5500000Y-19000000D03*
D13*
X-22100000Y-4700000D03*
D14*
X12600000Y-36000000D03*
X12600000Y-29000000D03*
D15*
X15300000Y-36300000D03*
X10170000Y-36300000D03*
X15340000Y-27000000D03*
X9640000Y-27000000D03*
X10390000Y-30200000D03*
X15340000Y-30200000D03*
X9350000Y-33250000D03*
D16*
X-1100000Y-28250000D03*
D17*
X7100000Y-1200000D03*
D18*
X9640000Y-1200000D03*
X12180000Y-1200000D03*
X14720000Y-1200000D03*
X17260000Y-1200000D03*
X19800000Y-1200000D03*
D12*
X-30550000Y-6300000D03*
D16*
X-3300000Y-28250000D03*
D12*
X-27300000Y-12850000D03*
D16*
X3300000Y-28250000D03*
D13*
X-17300000Y-7100000D03*
D16*
X1100000Y-28250000D03*
D14*
X-12600000Y-29000000D03*
X-12600000Y-36000000D03*
D15*
X-9900000Y-36300000D03*
X-15030000Y-36300000D03*
X-9860000Y-27000000D03*
X-15560000Y-27000000D03*
X-14810000Y-30200000D03*
X-9860000Y-30200000D03*
X-15850000Y-33250000D03*
D12*
X-5500000Y-19000000D03*
M02*
