G04 #@! TF.GenerationSoftware,KiCad,Pcbnew,(6.0.0)*
G04 #@! TF.CreationDate,2022-01-15T04:49:46-05:00*
G04 #@! TF.ProjectId,spin-tgd-power,7370696e-2d74-4676-942d-706f7765722e,rev?*
G04 #@! TF.SameCoordinates,Original*
G04 #@! TF.FileFunction,Legend,Bot*
G04 #@! TF.FilePolarity,Positive*
%FSLAX46Y46*%
G04 Gerber Fmt 4.6, Leading zero omitted, Abs format (unit mm)*
G04 Created by KiCad (PCBNEW (6.0.0)) date 2022-01-15 04:49:46*
%MOMM*%
%LPD*%
G01*
G04 APERTURE LIST*
G04 Aperture macros list*
%AMRoundRect*
0 Rectangle with rounded corners*
0 $1 Rounding radius*
0 $2 $3 $4 $5 $6 $7 $8 $9 X,Y pos of 4 corners*
0 Add a 4 corners polygon primitive as box body*
4,1,4,$2,$3,$4,$5,$6,$7,$8,$9,$2,$3,0*
0 Add four circle primitives for the rounded corners*
1,1,$1+$1,$2,$3*
1,1,$1+$1,$4,$5*
1,1,$1+$1,$6,$7*
1,1,$1+$1,$8,$9*
0 Add four rect primitives between the rounded corners*
20,1,$1+$1,$2,$3,$4,$5,0*
20,1,$1+$1,$4,$5,$6,$7,0*
20,1,$1+$1,$6,$7,$8,$9,0*
20,1,$1+$1,$8,$9,$2,$3,0*%
G04 Aperture macros list end*
%ADD10C,0.200000*%
%ADD11C,0.700000*%
%ADD12C,4.000000*%
%ADD13C,1.400000*%
%ADD14C,2.200000*%
%ADD15RoundRect,0.375000X-0.375000X-0.375000X0.375000X-0.375000X0.375000X0.375000X-0.375000X0.375000X0*%
%ADD16C,3.000000*%
%ADD17RoundRect,0.200000X0.500981X1.221277X-1.044501X0.807167X-0.500981X-1.221277X1.044501X-0.807167X0*%
%ADD18RoundRect,0.200000X-0.500981X-1.221277X1.044501X-0.807167X0.500981X1.221277X-1.044501X0.807167X0*%
%ADD19RoundRect,0.200000X1.044501X0.807167X-0.500981X1.221277X-1.044501X-0.807167X0.500981X-1.221277X0*%
%ADD20RoundRect,0.200000X-1.044501X-0.807167X0.500981X-1.221277X1.044501X0.807167X-0.500981X1.221277X0*%
%ADD21RoundRect,1.500000X-1.250000X0.000000X-1.250000X0.000000X1.250000X0.000000X1.250000X0.000000X0*%
G04 APERTURE END LIST*
D10*
X-8604761Y-17552380D02*
X-8528571Y-17514285D01*
X-8376190Y-17514285D01*
X-8300000Y-17552380D01*
X-8223809Y-17628571D01*
X-8185714Y-17704761D01*
X-8185714Y-17857142D01*
X-8223809Y-17933333D01*
X-8300000Y-18009523D01*
X-8376190Y-18047619D01*
X-8528571Y-18047619D01*
X-8604761Y-18009523D01*
X-8452380Y-17247619D02*
X-8261904Y-17285714D01*
X-8071428Y-17400000D01*
X-7957142Y-17590476D01*
X-7919047Y-17780952D01*
X-7957142Y-17971428D01*
X-8071428Y-18161904D01*
X-8261904Y-18276190D01*
X-8452380Y-18314285D01*
X-8642857Y-18276190D01*
X-8833333Y-18161904D01*
X-8947619Y-17971428D01*
X-8985714Y-17780952D01*
X-8947619Y-17590476D01*
X-8833333Y-17400000D01*
X-8642857Y-17285714D01*
X-8452380Y-17247619D01*
X-10166666Y-17361904D02*
X-10166666Y-17933333D01*
X-10128571Y-18047619D01*
X-10052380Y-18123809D01*
X-9938095Y-18161904D01*
X-9861904Y-18161904D01*
X-10890476Y-18161904D02*
X-10890476Y-17742857D01*
X-10852380Y-17666666D01*
X-10776190Y-17628571D01*
X-10623809Y-17628571D01*
X-10547619Y-17666666D01*
X-10890476Y-18123809D02*
X-10814285Y-18161904D01*
X-10623809Y-18161904D01*
X-10547619Y-18123809D01*
X-10509523Y-18047619D01*
X-10509523Y-17971428D01*
X-10547619Y-17895238D01*
X-10623809Y-17857142D01*
X-10814285Y-17857142D01*
X-10890476Y-17819047D01*
X-11614285Y-18123809D02*
X-11538095Y-18161904D01*
X-11385714Y-18161904D01*
X-11309523Y-18123809D01*
X-11271428Y-18085714D01*
X-11233333Y-18009523D01*
X-11233333Y-17780952D01*
X-11271428Y-17704761D01*
X-11309523Y-17666666D01*
X-11385714Y-17628571D01*
X-11538095Y-17628571D01*
X-11614285Y-17666666D01*
X-12071428Y-18161904D02*
X-11995238Y-18123809D01*
X-11957142Y-18085714D01*
X-11919047Y-18009523D01*
X-11919047Y-17780952D01*
X-11957142Y-17704761D01*
X-11995238Y-17666666D01*
X-12071428Y-17628571D01*
X-12185714Y-17628571D01*
X-12261904Y-17666666D01*
X-12300000Y-17704761D01*
X-12338095Y-17780952D01*
X-12338095Y-18009523D01*
X-12300000Y-18085714D01*
X-12261904Y-18123809D01*
X-12185714Y-18161904D01*
X-12071428Y-18161904D01*
X-12680952Y-18161904D02*
X-12680952Y-17361904D01*
X-12680952Y-17666666D02*
X-12757142Y-17628571D01*
X-12909523Y-17628571D01*
X-12985714Y-17666666D01*
X-13023809Y-17704761D01*
X-13061904Y-17780952D01*
X-13061904Y-18009523D01*
X-13023809Y-18085714D01*
X-12985714Y-18123809D01*
X-12909523Y-18161904D01*
X-12757142Y-18161904D01*
X-12680952Y-18123809D01*
X-13938095Y-17361904D02*
X-14128571Y-18161904D01*
X-14280952Y-17590476D01*
X-14433333Y-18161904D01*
X-14623809Y-17361904D01*
X-14928571Y-18161904D02*
X-14928571Y-17628571D01*
X-14928571Y-17361904D02*
X-14890476Y-17400000D01*
X-14928571Y-17438095D01*
X-14966666Y-17400000D01*
X-14928571Y-17361904D01*
X-14928571Y-17438095D01*
X-15423809Y-18161904D02*
X-15347619Y-18123809D01*
X-15309523Y-18047619D01*
X-15309523Y-17361904D01*
X-15842857Y-18161904D02*
X-15766666Y-18123809D01*
X-15728571Y-18047619D01*
X-15728571Y-17361904D01*
X-16147619Y-18161904D02*
X-16147619Y-17628571D01*
X-16147619Y-17361904D02*
X-16109523Y-17400000D01*
X-16147619Y-17438095D01*
X-16185714Y-17400000D01*
X-16147619Y-17361904D01*
X-16147619Y-17438095D01*
X-16871428Y-18161904D02*
X-16871428Y-17742857D01*
X-16833333Y-17666666D01*
X-16757142Y-17628571D01*
X-16604761Y-17628571D01*
X-16528571Y-17666666D01*
X-16871428Y-18123809D02*
X-16795238Y-18161904D01*
X-16604761Y-18161904D01*
X-16528571Y-18123809D01*
X-16490476Y-18047619D01*
X-16490476Y-17971428D01*
X-16528571Y-17895238D01*
X-16604761Y-17857142D01*
X-16795238Y-17857142D01*
X-16871428Y-17819047D01*
X-17252380Y-18161904D02*
X-17252380Y-17628571D01*
X-17252380Y-17704761D02*
X-17290476Y-17666666D01*
X-17366666Y-17628571D01*
X-17480952Y-17628571D01*
X-17557142Y-17666666D01*
X-17595238Y-17742857D01*
X-17595238Y-18161904D01*
X-17595238Y-17742857D02*
X-17633333Y-17666666D01*
X-17709523Y-17628571D01*
X-17823809Y-17628571D01*
X-17900000Y-17666666D01*
X-17938095Y-17742857D01*
X-17938095Y-18161904D01*
X-18280952Y-18123809D02*
X-18357142Y-18161904D01*
X-18509523Y-18161904D01*
X-18585714Y-18123809D01*
X-18623809Y-18047619D01*
X-18623809Y-18009523D01*
X-18585714Y-17933333D01*
X-18509523Y-17895238D01*
X-18395238Y-17895238D01*
X-18319047Y-17857142D01*
X-18280952Y-17780952D01*
X-18280952Y-17742857D01*
X-18319047Y-17666666D01*
X-18395238Y-17628571D01*
X-18509523Y-17628571D01*
X-18585714Y-17666666D01*
X-19538095Y-17438095D02*
X-19576190Y-17400000D01*
X-19652380Y-17361904D01*
X-19842857Y-17361904D01*
X-19919047Y-17400000D01*
X-19957142Y-17438095D01*
X-19995238Y-17514285D01*
X-19995238Y-17590476D01*
X-19957142Y-17704761D01*
X-19500000Y-18161904D01*
X-19995238Y-18161904D01*
X-20490476Y-17361904D02*
X-20566666Y-17361904D01*
X-20642857Y-17400000D01*
X-20680952Y-17438095D01*
X-20719047Y-17514285D01*
X-20757142Y-17666666D01*
X-20757142Y-17857142D01*
X-20719047Y-18009523D01*
X-20680952Y-18085714D01*
X-20642857Y-18123809D01*
X-20566666Y-18161904D01*
X-20490476Y-18161904D01*
X-20414285Y-18123809D01*
X-20376190Y-18085714D01*
X-20338095Y-18009523D01*
X-20300000Y-17857142D01*
X-20300000Y-17666666D01*
X-20338095Y-17514285D01*
X-20376190Y-17438095D01*
X-20414285Y-17400000D01*
X-20490476Y-17361904D01*
X-21061904Y-17438095D02*
X-21100000Y-17400000D01*
X-21176190Y-17361904D01*
X-21366666Y-17361904D01*
X-21442857Y-17400000D01*
X-21480952Y-17438095D01*
X-21519047Y-17514285D01*
X-21519047Y-17590476D01*
X-21480952Y-17704761D01*
X-21023809Y-18161904D01*
X-21519047Y-18161904D01*
X-21823809Y-17438095D02*
X-21861904Y-17400000D01*
X-21938095Y-17361904D01*
X-22128571Y-17361904D01*
X-22204761Y-17400000D01*
X-22242857Y-17438095D01*
X-22280952Y-17514285D01*
X-22280952Y-17590476D01*
X-22242857Y-17704761D01*
X-21785714Y-18161904D01*
X-22280952Y-18161904D01*
X22242857Y-18123809D02*
X22128571Y-18161904D01*
X21938095Y-18161904D01*
X21861904Y-18123809D01*
X21823809Y-18085714D01*
X21785714Y-18009523D01*
X21785714Y-17933333D01*
X21823809Y-17857142D01*
X21861904Y-17819047D01*
X21938095Y-17780952D01*
X22090476Y-17742857D01*
X22166666Y-17704761D01*
X22204761Y-17666666D01*
X22242857Y-17590476D01*
X22242857Y-17514285D01*
X22204761Y-17438095D01*
X22166666Y-17400000D01*
X22090476Y-17361904D01*
X21900000Y-17361904D01*
X21785714Y-17400000D01*
X21442857Y-18161904D02*
X21442857Y-17361904D01*
X21138095Y-17361904D01*
X21061904Y-17400000D01*
X21023809Y-17438095D01*
X20985714Y-17514285D01*
X20985714Y-17628571D01*
X21023809Y-17704761D01*
X21061904Y-17742857D01*
X21138095Y-17780952D01*
X21442857Y-17780952D01*
X20642857Y-18161904D02*
X20642857Y-17361904D01*
X20261904Y-18161904D02*
X20261904Y-17361904D01*
X19804761Y-18161904D01*
X19804761Y-17361904D01*
X19423809Y-17857142D02*
X18814285Y-17857142D01*
X18547619Y-17361904D02*
X18090476Y-17361904D01*
X18319047Y-18161904D02*
X18319047Y-17361904D01*
X17404761Y-17400000D02*
X17480952Y-17361904D01*
X17595238Y-17361904D01*
X17709523Y-17400000D01*
X17785714Y-17476190D01*
X17823809Y-17552380D01*
X17861904Y-17704761D01*
X17861904Y-17819047D01*
X17823809Y-17971428D01*
X17785714Y-18047619D01*
X17709523Y-18123809D01*
X17595238Y-18161904D01*
X17519047Y-18161904D01*
X17404761Y-18123809D01*
X17366666Y-18085714D01*
X17366666Y-17819047D01*
X17519047Y-17819047D01*
X17023809Y-18161904D02*
X17023809Y-17361904D01*
X16833333Y-17361904D01*
X16719047Y-17400000D01*
X16642857Y-17476190D01*
X16604761Y-17552380D01*
X16566666Y-17704761D01*
X16566666Y-17819047D01*
X16604761Y-17971428D01*
X16642857Y-18047619D01*
X16719047Y-18123809D01*
X16833333Y-18161904D01*
X17023809Y-18161904D01*
X16223809Y-17857142D02*
X15614285Y-17857142D01*
X15233333Y-17742857D02*
X14966666Y-17742857D01*
X14852380Y-18161904D02*
X15233333Y-18161904D01*
X15233333Y-17361904D01*
X14852380Y-17361904D01*
X14090476Y-17400000D02*
X14166666Y-17361904D01*
X14280952Y-17361904D01*
X14395238Y-17400000D01*
X14471428Y-17476190D01*
X14509523Y-17552380D01*
X14547619Y-17704761D01*
X14547619Y-17819047D01*
X14509523Y-17971428D01*
X14471428Y-18047619D01*
X14395238Y-18123809D01*
X14280952Y-18161904D01*
X14204761Y-18161904D01*
X14090476Y-18123809D01*
X14052380Y-18085714D01*
X14052380Y-17819047D01*
X14204761Y-17819047D01*
X13290476Y-17400000D02*
X13366666Y-17361904D01*
X13480952Y-17361904D01*
X13595238Y-17400000D01*
X13671428Y-17476190D01*
X13709523Y-17552380D01*
X13747619Y-17704761D01*
X13747619Y-17819047D01*
X13709523Y-17971428D01*
X13671428Y-18047619D01*
X13595238Y-18123809D01*
X13480952Y-18161904D01*
X13404761Y-18161904D01*
X13290476Y-18123809D01*
X13252380Y-18085714D01*
X13252380Y-17819047D01*
X13404761Y-17819047D01*
X12909523Y-18161904D02*
X12909523Y-17361904D01*
X12642857Y-17933333D01*
X12376190Y-17361904D01*
X12376190Y-18161904D01*
X12033333Y-17933333D02*
X11652380Y-17933333D01*
X12109523Y-18161904D02*
X11842857Y-17361904D01*
X11576190Y-18161904D01*
X11309523Y-18161904D02*
X11309523Y-17361904D01*
X10852380Y-18161904D01*
X10852380Y-17361904D01*
X9976190Y-17361904D02*
X9709523Y-18161904D01*
X9442857Y-17361904D01*
X9214285Y-17438095D02*
X9176190Y-17400000D01*
X9100000Y-17361904D01*
X8909523Y-17361904D01*
X8833333Y-17400000D01*
X8795238Y-17438095D01*
X8757142Y-17514285D01*
X8757142Y-17590476D01*
X8795238Y-17704761D01*
X9252380Y-18161904D01*
X8757142Y-18161904D01*
D11*
X13000000Y-1700000D02*
X-12900000Y-1700000D01*
X2750000Y-8000000D02*
X13000000Y-8000000D01*
X1300000Y-9500000D02*
X2750000Y-8000000D01*
X-13000000Y-14000000D02*
X-13000000Y-7900000D01*
%LPC*%
D12*
X-13000000Y-3000000D03*
X-13000000Y-8000000D03*
X13000000Y-8000000D03*
X13000000Y-3000000D03*
D13*
X7600000Y-16250000D03*
X7600000Y-12950000D03*
X-7600000Y-16250000D03*
X-7600000Y-12950000D03*
D14*
X3000000Y-3600000D03*
D15*
X-24000000Y-17000000D03*
X24000000Y-17000000D03*
D16*
X-13000000Y-14000000D03*
D15*
X-7000000Y-9450000D03*
X-5000000Y-9450000D03*
X5000000Y-9450000D03*
X7000000Y-9450000D03*
D14*
X-3000000Y-3600000D03*
D17*
X-17356997Y-13836216D03*
D18*
X-17745225Y-12387327D03*
X-20643003Y-13163784D03*
D17*
X-20254775Y-14612673D03*
D19*
X17356997Y-13836216D03*
D20*
X17745225Y-12387327D03*
X20643003Y-13163784D03*
D19*
X20254775Y-14612673D03*
D14*
X24000000Y-7300000D03*
X18000000Y-6000000D03*
X-18000000Y-6000000D03*
X-24000000Y-7300000D03*
D21*
X0Y-15500000D03*
X0Y-9500000D03*
M02*
