M48
; DRILL file {KiCad (6.0.0)} date Sat Jan 15 04:49:48 2022
; FORMAT={-:-/ absolute / inch / decimal}
; #@! TF.CreationDate,2022-01-15T04:49:48-05:00
; #@! TF.GenerationSoftware,Kicad,Pcbnew,(6.0.0)
; #@! TF.FileFunction,Plated,1,2,PTH
FMAT,2
INCH
; #@! TA.AperFunction,Plated,PTH,ComponentDrill
T1C0.0315
; #@! TA.AperFunction,Plated,PTH,ComponentDrill
T2C0.0394
; #@! TA.AperFunction,Plated,PTH,ComponentDrill
T3C0.0591
; #@! TA.AperFunction,Plated,PTH,ComponentDrill
T4C0.1063
%
G90
G05
T1
X-0.9449Y-0.6693
X-0.2992Y-0.5098
X-0.2992Y-0.6398
X-0.2756Y-0.372
X-0.1969Y-0.372
X0.1969Y-0.372
X0.2756Y-0.372
X0.2992Y-0.5098
X0.2992Y-0.6398
X0.9449Y-0.6693
T2
X-0.8153Y-0.5088
X-0.7949Y-0.5848
X-0.7012Y-0.4782
X-0.6808Y-0.5542
X0.6808Y-0.5542
X0.7012Y-0.4782
X0.7949Y-0.5848
X0.8153Y-0.5088
T3
X-0.5118Y-0.5512
T4
X-0.5118Y-0.1181
X-0.5118Y-0.315
X0.5118Y-0.1181
X0.5118Y-0.315
T3
G00X0.0492Y-0.374
M15
G01X-0.0492Y-0.374
M16
G05
G00X0.0492Y-0.6102
M15
G01X-0.0492Y-0.6102
M16
G05
T0
M30
