G04 #@! TF.GenerationSoftware,KiCad,Pcbnew,(6.0.5)*
G04 #@! TF.CreationDate,2022-05-28T17:46:07-04:00*
G04 #@! TF.ProjectId,spin-tgd-power,7370696e-2d74-4676-942d-706f7765722e,rev?*
G04 #@! TF.SameCoordinates,Original*
G04 #@! TF.FileFunction,Legend,Top*
G04 #@! TF.FilePolarity,Positive*
%FSLAX46Y46*%
G04 Gerber Fmt 4.6, Leading zero omitted, Abs format (unit mm)*
G04 Created by KiCad (PCBNEW (6.0.5)) date 2022-05-28 17:46:07*
%MOMM*%
%LPD*%
G01*
G04 APERTURE LIST*
G04 Aperture macros list*
%AMRoundRect*
0 Rectangle with rounded corners*
0 $1 Rounding radius*
0 $2 $3 $4 $5 $6 $7 $8 $9 X,Y pos of 4 corners*
0 Add a 4 corners polygon primitive as box body*
4,1,4,$2,$3,$4,$5,$6,$7,$8,$9,$2,$3,0*
0 Add four circle primitives for the rounded corners*
1,1,$1+$1,$2,$3*
1,1,$1+$1,$4,$5*
1,1,$1+$1,$6,$7*
1,1,$1+$1,$8,$9*
0 Add four rect primitives between the rounded corners*
20,1,$1+$1,$2,$3,$4,$5,0*
20,1,$1+$1,$4,$5,$6,$7,0*
20,1,$1+$1,$6,$7,$8,$9,0*
20,1,$1+$1,$8,$9,$2,$3,0*%
G04 Aperture macros list end*
%ADD10C,0.200000*%
%ADD11C,0.120000*%
%ADD12C,1.800000*%
%ADD13C,3.000000*%
%ADD14RoundRect,0.250000X-0.600000X-0.725000X0.600000X-0.725000X0.600000X0.725000X-0.600000X0.725000X0*%
%ADD15O,1.700000X1.950000*%
%ADD16RoundRect,0.375000X-0.375000X-1.125000X0.375000X-1.125000X0.375000X1.125000X-0.375000X1.125000X0*%
%ADD17RoundRect,0.375000X-0.375000X-0.375000X0.375000X-0.375000X0.375000X0.375000X-0.375000X0.375000X0*%
%ADD18R,1.700000X1.300000*%
%ADD19RoundRect,0.200000X0.200000X0.275000X-0.200000X0.275000X-0.200000X-0.275000X0.200000X-0.275000X0*%
%ADD20C,2.200000*%
%ADD21C,2.700000*%
%ADD22RoundRect,0.225000X-0.225000X-0.250000X0.225000X-0.250000X0.225000X0.250000X-0.225000X0.250000X0*%
%ADD23RoundRect,1.500000X-1.250000X0.000000X-1.250000X0.000000X1.250000X0.000000X1.250000X0.000000X0*%
%ADD24C,2.500000*%
%ADD25RoundRect,0.200000X1.044501X0.807167X-0.500981X1.221277X-1.044501X-0.807167X0.500981X-1.221277X0*%
%ADD26RoundRect,0.200000X-1.044501X-0.807167X0.500981X-1.221277X1.044501X0.807167X-0.500981X1.221277X0*%
%ADD27R,0.700000X0.340000*%
%ADD28RoundRect,0.200000X0.500981X1.221277X-1.044501X0.807167X-0.500981X-1.221277X1.044501X-0.807167X0*%
%ADD29RoundRect,0.200000X-0.500981X-1.221277X1.044501X-0.807167X0.500981X1.221277X-1.044501X0.807167X0*%
%ADD30RoundRect,0.200000X-0.275000X0.200000X-0.275000X-0.200000X0.275000X-0.200000X0.275000X0.200000X0*%
G04 APERTURE END LIST*
D10*
X18469047Y-16711904D02*
X18735714Y-17511904D01*
X19002380Y-16711904D01*
X19269047Y-17511904D02*
X19269047Y-16711904D01*
X19459523Y-16711904D01*
X19573809Y-16750000D01*
X19649999Y-16826190D01*
X19688094Y-16902380D01*
X19726190Y-17054761D01*
X19726190Y-17169047D01*
X19688094Y-17321428D01*
X19649999Y-17397619D01*
X19573809Y-17473809D01*
X19459523Y-17511904D01*
X19269047Y-17511904D01*
X20069047Y-17511904D02*
X20069047Y-16711904D01*
X20259523Y-16711904D01*
X20373809Y-16750000D01*
X20449999Y-16826190D01*
X20488094Y-16902380D01*
X20526190Y-17054761D01*
X20526190Y-17169047D01*
X20488094Y-17321428D01*
X20449999Y-17397619D01*
X20373809Y-17473809D01*
X20259523Y-17511904D01*
X20069047Y-17511904D01*
X-20623809Y-16711904D02*
X-20357143Y-17511904D01*
X-20090476Y-16711904D01*
X-19823809Y-17511904D02*
X-19823809Y-16711904D01*
X-19633333Y-16711904D01*
X-19519047Y-16750000D01*
X-19442857Y-16826190D01*
X-19404762Y-16902380D01*
X-19366666Y-17054761D01*
X-19366666Y-17169047D01*
X-19404762Y-17321428D01*
X-19442857Y-17397619D01*
X-19519047Y-17473809D01*
X-19633333Y-17511904D01*
X-19823809Y-17511904D01*
X-19023809Y-17511904D02*
X-19023809Y-16711904D01*
X-18833333Y-16711904D01*
X-18719047Y-16750000D01*
X-18642857Y-16826190D01*
X-18604762Y-16902380D01*
X-18566666Y-17054761D01*
X-18566666Y-17169047D01*
X-18604762Y-17321428D01*
X-18642857Y-17397619D01*
X-18719047Y-17473809D01*
X-18833333Y-17511904D01*
X-19023809Y-17511904D01*
X-17409523Y-15700000D02*
X-17485714Y-15661904D01*
X-17600000Y-15661904D01*
X-17714285Y-15700000D01*
X-17790476Y-15776190D01*
X-17828571Y-15852380D01*
X-17866666Y-16004761D01*
X-17866666Y-16119047D01*
X-17828571Y-16271428D01*
X-17790476Y-16347619D01*
X-17714285Y-16423809D01*
X-17600000Y-16461904D01*
X-17523809Y-16461904D01*
X-17409523Y-16423809D01*
X-17371428Y-16385714D01*
X-17371428Y-16119047D01*
X-17523809Y-16119047D01*
X-17028571Y-16461904D02*
X-17028571Y-15661904D01*
X-16571428Y-16461904D01*
X-16571428Y-15661904D01*
X-16190476Y-16461904D02*
X-16190476Y-15661904D01*
X-16000000Y-15661904D01*
X-15885714Y-15700000D01*
X-15809523Y-15776190D01*
X-15771428Y-15852380D01*
X-15733333Y-16004761D01*
X-15733333Y-16119047D01*
X-15771428Y-16271428D01*
X-15809523Y-16347619D01*
X-15885714Y-16423809D01*
X-16000000Y-16461904D01*
X-16190476Y-16461904D01*
X-23114285Y-18561904D02*
X-23114285Y-17761904D01*
X-22809523Y-17761904D01*
X-22733333Y-17800000D01*
X-22695238Y-17838095D01*
X-22657142Y-17914285D01*
X-22657142Y-18028571D01*
X-22695238Y-18104761D01*
X-22733333Y-18142857D01*
X-22809523Y-18180952D01*
X-23114285Y-18180952D01*
X-22504761Y-18638095D02*
X-21895238Y-18638095D01*
X-21438095Y-18142857D02*
X-21323809Y-18180952D01*
X-21285714Y-18219047D01*
X-21247619Y-18295238D01*
X-21247619Y-18409523D01*
X-21285714Y-18485714D01*
X-21323809Y-18523809D01*
X-21400000Y-18561904D01*
X-21704761Y-18561904D01*
X-21704761Y-17761904D01*
X-21438095Y-17761904D01*
X-21361904Y-17800000D01*
X-21323809Y-17838095D01*
X-21285714Y-17914285D01*
X-21285714Y-17990476D01*
X-21323809Y-18066666D01*
X-21361904Y-18104761D01*
X-21438095Y-18142857D01*
X-21704761Y-18142857D01*
X21242857Y-18561904D02*
X21242857Y-17761904D01*
X21547619Y-17761904D01*
X21623809Y-17800000D01*
X21661904Y-17838095D01*
X21700000Y-17914285D01*
X21700000Y-18028571D01*
X21661904Y-18104761D01*
X21623809Y-18142857D01*
X21547619Y-18180952D01*
X21242857Y-18180952D01*
X21852380Y-18638095D02*
X22461904Y-18638095D01*
X22919047Y-18142857D02*
X22652380Y-18142857D01*
X22652380Y-18561904D02*
X22652380Y-17761904D01*
X23033333Y-17761904D01*
X16190476Y-15700000D02*
X16114285Y-15661904D01*
X16000000Y-15661904D01*
X15885714Y-15700000D01*
X15809523Y-15776190D01*
X15771428Y-15852380D01*
X15733333Y-16004761D01*
X15733333Y-16119047D01*
X15771428Y-16271428D01*
X15809523Y-16347619D01*
X15885714Y-16423809D01*
X16000000Y-16461904D01*
X16076190Y-16461904D01*
X16190476Y-16423809D01*
X16228571Y-16385714D01*
X16228571Y-16119047D01*
X16076190Y-16119047D01*
X16571428Y-16461904D02*
X16571428Y-15661904D01*
X17028571Y-16461904D01*
X17028571Y-15661904D01*
X17409523Y-16461904D02*
X17409523Y-15661904D01*
X17600000Y-15661904D01*
X17714285Y-15700000D01*
X17790476Y-15776190D01*
X17828571Y-15852380D01*
X17866666Y-16004761D01*
X17866666Y-16119047D01*
X17828571Y-16271428D01*
X17790476Y-16347619D01*
X17714285Y-16423809D01*
X17600000Y-16461904D01*
X17409523Y-16461904D01*
D11*
X-5050000Y-18250000D02*
X-5050000Y-17250000D01*
X-5550000Y-17750000D02*
X-4550000Y-17750000D01*
X200000Y-15000000D02*
G75*
G03*
X200000Y-15000000I-4000000J0D01*
G01*
X-7910000Y-2610000D02*
X-7910000Y-5110000D01*
X7110000Y-2500000D02*
X7610000Y-2500000D01*
X-7610000Y-790000D02*
X-7610000Y-4810000D01*
X-7110000Y-1290000D02*
X7110000Y-1290000D01*
X-7910000Y-5110000D02*
X-5410000Y-5110000D01*
X-7110000Y-2500000D02*
X-7110000Y-1290000D01*
X-6610000Y-3310000D02*
X-6610000Y-4810000D01*
X6610000Y-3310000D02*
X6610000Y-4810000D01*
X7610000Y-3310000D02*
X6610000Y-3310000D01*
X-7610000Y-3310000D02*
X-6610000Y-3310000D01*
X7610000Y-4810000D02*
X7610000Y-790000D01*
X-7610000Y-4810000D02*
X7610000Y-4810000D01*
X7610000Y-790000D02*
X-7610000Y-790000D01*
X-7610000Y-2500000D02*
X-7110000Y-2500000D01*
X7110000Y-1290000D02*
X7110000Y-2500000D01*
X8400000Y-10550000D02*
X8400000Y-6250000D01*
X6400000Y-10550000D02*
X8400000Y-10550000D01*
X6400000Y-6250000D02*
X6400000Y-10550000D01*
X-5562742Y-8422500D02*
X-6037258Y-8422500D01*
X-5562742Y-7377500D02*
X-6037258Y-7377500D01*
X2050000Y-17750000D02*
X3050000Y-17750000D01*
X2550000Y-18250000D02*
X2550000Y-17250000D01*
X7800000Y-15000000D02*
G75*
G03*
X7800000Y-15000000I-4000000J0D01*
G01*
X-5940580Y-5740000D02*
X-5659420Y-5740000D01*
X-5940580Y-6760000D02*
X-5659420Y-6760000D01*
X-3250000Y-18900000D02*
X-3250000Y-6100000D01*
X-3250000Y-6100000D02*
X3250000Y-6100000D01*
X3250000Y-18900000D02*
X-3250000Y-18900000D01*
X3250000Y-6100000D02*
X3250000Y-18900000D01*
X-8300000Y-9000000D02*
X-6750000Y-9000000D01*
X-6750000Y-10800000D02*
X-8050000Y-10800000D01*
X5622500Y-7862742D02*
X5622500Y-8337258D01*
X4577500Y-7862742D02*
X4577500Y-8337258D01*
%LPC*%
D12*
X-3800000Y-16650000D03*
X-3800000Y-13350000D03*
D13*
X-13000000Y-15000000D03*
D14*
X-5000000Y-2500000D03*
D15*
X-2500000Y-2500000D03*
X0Y-2500000D03*
X2500000Y-2500000D03*
X5000000Y-2500000D03*
D16*
X24000000Y-16250000D03*
D17*
X24000000Y-17000000D03*
D18*
X7400000Y-9750000D03*
X7400000Y-6250000D03*
D19*
X-4975000Y-7900000D03*
X-6625000Y-7900000D03*
D20*
X24000000Y-7300000D03*
D21*
X13000000Y-5500000D03*
X13000000Y-2000000D03*
D12*
X3800000Y-16650000D03*
X3800000Y-13350000D03*
D22*
X-6575000Y-6250000D03*
X-5025000Y-6250000D03*
D23*
X0Y-9500000D03*
X0Y-15500000D03*
D24*
X-18000000Y-6000000D03*
D21*
X-13000000Y-2000000D03*
X-13000000Y-5500000D03*
D25*
X17356997Y-13836216D03*
D26*
X17745225Y-12387327D03*
X20643003Y-13163784D03*
D25*
X20254775Y-14612673D03*
D20*
X18000000Y-6000000D03*
D27*
X-8150000Y-9400000D03*
X-8150000Y-9900000D03*
X-8150000Y-10400000D03*
X-6650000Y-10400000D03*
X-6650000Y-9900000D03*
X-6650000Y-9400000D03*
D28*
X-20254775Y-14612673D03*
D29*
X-20643003Y-13163784D03*
D28*
X-17356997Y-13836216D03*
D29*
X-17745225Y-12387327D03*
D16*
X-24000000Y-16250000D03*
D17*
X-24000000Y-17000000D03*
D30*
X5100000Y-7275000D03*
X5100000Y-8925000D03*
D20*
X-24000000Y-7300000D03*
M02*
