M48
; DRILL file {KiCad (6.0.5)} date Sat May 28 17:46:10 2022
; FORMAT={-:-/ absolute / metric / decimal}
; #@! TF.CreationDate,2022-05-28T17:46:10-04:00
; #@! TF.GenerationSoftware,Kicad,Pcbnew,(6.0.5)
; #@! TF.FileFunction,Plated,1,2,PTH
FMAT,2
METRIC
; #@! TA.AperFunction,Plated,PTH,ComponentDrill
T1C0.800
; #@! TA.AperFunction,Plated,PTH,ComponentDrill
T2C0.950
; #@! TA.AperFunction,Plated,PTH,ComponentDrill
T3C1.000
; #@! TA.AperFunction,Plated,PTH,ComponentDrill
T4C1.500
; #@! TA.AperFunction,Plated,PTH,ComponentDrill
T5C1.700
%
G90
G05
T1
X-24.0Y-17.0
X-3.8Y-13.35
X-3.8Y-16.65
X3.8Y-13.35
X3.8Y-16.65
X24.0Y-17.0
T2
X-5.0Y-2.5
X-2.5Y-2.5
X0.0Y-2.5
X2.5Y-2.5
X5.0Y-2.5
T3
X-20.708Y-12.922
X-20.19Y-14.854
X-17.81Y-12.146
X-17.292Y-14.078
X17.292Y-14.078
X17.81Y-12.146
X20.19Y-14.854
X20.708Y-12.922
T5
X-13.0Y-2.0
X-13.0Y-5.5
X-13.0Y-15.0
X13.0Y-2.0
X13.0Y-5.5
T4
X1.25Y-9.5G85X-1.25Y-9.5
G05
X1.25Y-15.5G85X-1.25Y-15.5
G05
T0
M30
