G04 #@! TF.GenerationSoftware,KiCad,Pcbnew,(6.0.0)*
G04 #@! TF.CreationDate,2022-01-15T04:49:46-05:00*
G04 #@! TF.ProjectId,spin-tgd-power,7370696e-2d74-4676-942d-706f7765722e,rev?*
G04 #@! TF.SameCoordinates,Original*
G04 #@! TF.FileFunction,Legend,Top*
G04 #@! TF.FilePolarity,Positive*
%FSLAX46Y46*%
G04 Gerber Fmt 4.6, Leading zero omitted, Abs format (unit mm)*
G04 Created by KiCad (PCBNEW (6.0.0)) date 2022-01-15 04:49:46*
%MOMM*%
%LPD*%
G01*
G04 APERTURE LIST*
G04 Aperture macros list*
%AMRoundRect*
0 Rectangle with rounded corners*
0 $1 Rounding radius*
0 $2 $3 $4 $5 $6 $7 $8 $9 X,Y pos of 4 corners*
0 Add a 4 corners polygon primitive as box body*
4,1,4,$2,$3,$4,$5,$6,$7,$8,$9,$2,$3,0*
0 Add four circle primitives for the rounded corners*
1,1,$1+$1,$2,$3*
1,1,$1+$1,$4,$5*
1,1,$1+$1,$6,$7*
1,1,$1+$1,$8,$9*
0 Add four rect primitives between the rounded corners*
20,1,$1+$1,$2,$3,$4,$5,0*
20,1,$1+$1,$4,$5,$6,$7,0*
20,1,$1+$1,$6,$7,$8,$9,0*
20,1,$1+$1,$8,$9,$2,$3,0*%
G04 Aperture macros list end*
%ADD10C,0.700000*%
%ADD11C,0.200000*%
%ADD12C,0.120000*%
%ADD13C,2.000000*%
%ADD14C,4.000000*%
%ADD15C,1.400000*%
%ADD16C,2.200000*%
%ADD17RoundRect,0.375000X-0.375000X-0.375000X0.375000X-0.375000X0.375000X0.375000X-0.375000X0.375000X0*%
%ADD18RoundRect,0.375000X-0.375000X-1.125000X0.375000X-1.125000X0.375000X1.125000X-0.375000X1.125000X0*%
%ADD19C,3.000000*%
%ADD20RoundRect,0.200000X0.500981X1.221277X-1.044501X0.807167X-0.500981X-1.221277X1.044501X-0.807167X0*%
%ADD21RoundRect,0.200000X-0.500981X-1.221277X1.044501X-0.807167X0.500981X1.221277X-1.044501X0.807167X0*%
%ADD22RoundRect,0.200000X1.044501X0.807167X-0.500981X1.221277X-1.044501X-0.807167X0.500981X-1.221277X0*%
%ADD23RoundRect,0.200000X-1.044501X-0.807167X0.500981X-1.221277X1.044501X0.807167X-0.500981X1.221277X0*%
%ADD24RoundRect,1.500000X-1.250000X0.000000X-1.250000X0.000000X1.250000X0.000000X1.250000X0.000000X0*%
G04 APERTURE END LIST*
D10*
X0Y-18000000D02*
X0Y-15700000D01*
X16300000Y-18000000D02*
X17800000Y-12100000D01*
X0Y-18000000D02*
X16300000Y-18000000D01*
X-19300000Y-18000000D02*
X-20700000Y-12900000D01*
X0Y-18000000D02*
X-19300000Y-18000000D01*
D11*
X-9609523Y-9300000D02*
X-9685714Y-9261904D01*
X-9800000Y-9261904D01*
X-9914285Y-9300000D01*
X-9990476Y-9376190D01*
X-10028571Y-9452380D01*
X-10066666Y-9604761D01*
X-10066666Y-9719047D01*
X-10028571Y-9871428D01*
X-9990476Y-9947619D01*
X-9914285Y-10023809D01*
X-9800000Y-10061904D01*
X-9723809Y-10061904D01*
X-9609523Y-10023809D01*
X-9571428Y-9985714D01*
X-9571428Y-9719047D01*
X-9723809Y-9719047D01*
X-9228571Y-10061904D02*
X-9228571Y-9261904D01*
X-8771428Y-10061904D01*
X-8771428Y-9261904D01*
X-8390476Y-10061904D02*
X-8390476Y-9261904D01*
X-8200000Y-9261904D01*
X-8085714Y-9300000D01*
X-8009523Y-9376190D01*
X-7971428Y-9452380D01*
X-7933333Y-9604761D01*
X-7933333Y-9719047D01*
X-7971428Y-9871428D01*
X-8009523Y-9947619D01*
X-8085714Y-10023809D01*
X-8200000Y-10061904D01*
X-8390476Y-10061904D01*
X-5466666Y-10361904D02*
X-5200000Y-11161904D01*
X-4933333Y-10361904D01*
X-4666666Y-11161904D02*
X-4666666Y-10361904D01*
X-4476190Y-10361904D01*
X-4361904Y-10400000D01*
X-4285714Y-10476190D01*
X-4247619Y-10552380D01*
X-4209523Y-10704761D01*
X-4209523Y-10819047D01*
X-4247619Y-10971428D01*
X-4285714Y-11047619D01*
X-4361904Y-11123809D01*
X-4476190Y-11161904D01*
X-4666666Y-11161904D01*
X-3866666Y-11161904D02*
X-3866666Y-10361904D01*
X-3676190Y-10361904D01*
X-3561904Y-10400000D01*
X-3485714Y-10476190D01*
X-3447619Y-10552380D01*
X-3409523Y-10704761D01*
X-3409523Y-10819047D01*
X-3447619Y-10971428D01*
X-3485714Y-11047619D01*
X-3561904Y-11123809D01*
X-3676190Y-11161904D01*
X-3866666Y-11161904D01*
X3485714Y-11161904D02*
X3485714Y-10361904D01*
X3790476Y-10361904D01*
X3866666Y-10400000D01*
X3904761Y-10438095D01*
X3942857Y-10514285D01*
X3942857Y-10628571D01*
X3904761Y-10704761D01*
X3866666Y-10742857D01*
X3790476Y-10780952D01*
X3485714Y-10780952D01*
X4095238Y-11238095D02*
X4704761Y-11238095D01*
X5161904Y-10742857D02*
X5276190Y-10780952D01*
X5314285Y-10819047D01*
X5352380Y-10895238D01*
X5352380Y-11009523D01*
X5314285Y-11085714D01*
X5276190Y-11123809D01*
X5200000Y-11161904D01*
X4895238Y-11161904D01*
X4895238Y-10361904D01*
X5161904Y-10361904D01*
X5238095Y-10400000D01*
X5276190Y-10438095D01*
X5314285Y-10514285D01*
X5314285Y-10590476D01*
X5276190Y-10666666D01*
X5238095Y-10704761D01*
X5161904Y-10742857D01*
X4895238Y-10742857D01*
X7942857Y-9961904D02*
X7942857Y-9161904D01*
X8247619Y-9161904D01*
X8323809Y-9200000D01*
X8361904Y-9238095D01*
X8400000Y-9314285D01*
X8400000Y-9428571D01*
X8361904Y-9504761D01*
X8323809Y-9542857D01*
X8247619Y-9580952D01*
X7942857Y-9580952D01*
X8552380Y-10038095D02*
X9161904Y-10038095D01*
X9619047Y-9542857D02*
X9352380Y-9542857D01*
X9352380Y-9961904D02*
X9352380Y-9161904D01*
X9733333Y-9161904D01*
X21242857Y-17561904D02*
X21242857Y-16761904D01*
X21547619Y-16761904D01*
X21623809Y-16800000D01*
X21661904Y-16838095D01*
X21700000Y-16914285D01*
X21700000Y-17028571D01*
X21661904Y-17104761D01*
X21623809Y-17142857D01*
X21547619Y-17180952D01*
X21242857Y-17180952D01*
X21852380Y-17638095D02*
X22461904Y-17638095D01*
X22919047Y-17142857D02*
X22652380Y-17142857D01*
X22652380Y-17561904D02*
X22652380Y-16761904D01*
X23033333Y-16761904D01*
X14633333Y-11161904D02*
X14900000Y-11961904D01*
X15166666Y-11161904D01*
X15433333Y-11961904D02*
X15433333Y-11161904D01*
X15623809Y-11161904D01*
X15738095Y-11200000D01*
X15814285Y-11276190D01*
X15852380Y-11352380D01*
X15890476Y-11504761D01*
X15890476Y-11619047D01*
X15852380Y-11771428D01*
X15814285Y-11847619D01*
X15738095Y-11923809D01*
X15623809Y-11961904D01*
X15433333Y-11961904D01*
X16233333Y-11961904D02*
X16233333Y-11161904D01*
X16423809Y-11161904D01*
X16538095Y-11200000D01*
X16614285Y-11276190D01*
X16652380Y-11352380D01*
X16690476Y-11504761D01*
X16690476Y-11619047D01*
X16652380Y-11771428D01*
X16614285Y-11847619D01*
X16538095Y-11923809D01*
X16423809Y-11961904D01*
X16233333Y-11961904D01*
X22490476Y-12400000D02*
X22414285Y-12361904D01*
X22300000Y-12361904D01*
X22185714Y-12400000D01*
X22109523Y-12476190D01*
X22071428Y-12552380D01*
X22033333Y-12704761D01*
X22033333Y-12819047D01*
X22071428Y-12971428D01*
X22109523Y-13047619D01*
X22185714Y-13123809D01*
X22300000Y-13161904D01*
X22376190Y-13161904D01*
X22490476Y-13123809D01*
X22528571Y-13085714D01*
X22528571Y-12819047D01*
X22376190Y-12819047D01*
X22871428Y-13161904D02*
X22871428Y-12361904D01*
X23328571Y-13161904D01*
X23328571Y-12361904D01*
X23709523Y-13161904D02*
X23709523Y-12361904D01*
X23900000Y-12361904D01*
X24014285Y-12400000D01*
X24090476Y-12476190D01*
X24128571Y-12552380D01*
X24166666Y-12704761D01*
X24166666Y-12819047D01*
X24128571Y-12971428D01*
X24090476Y-13047619D01*
X24014285Y-13123809D01*
X23900000Y-13161904D01*
X23709523Y-13161904D01*
X-22914285Y-17561904D02*
X-22914285Y-16761904D01*
X-22609523Y-16761904D01*
X-22533333Y-16800000D01*
X-22495238Y-16838095D01*
X-22457142Y-16914285D01*
X-22457142Y-17028571D01*
X-22495238Y-17104761D01*
X-22533333Y-17142857D01*
X-22609523Y-17180952D01*
X-22914285Y-17180952D01*
X-22304761Y-17638095D02*
X-21695238Y-17638095D01*
X-21238095Y-17142857D02*
X-21123809Y-17180952D01*
X-21085714Y-17219047D01*
X-21047619Y-17295238D01*
X-21047619Y-17409523D01*
X-21085714Y-17485714D01*
X-21123809Y-17523809D01*
X-21200000Y-17561904D01*
X-21504761Y-17561904D01*
X-21504761Y-16761904D01*
X-21238095Y-16761904D01*
X-21161904Y-16800000D01*
X-21123809Y-16838095D01*
X-21085714Y-16914285D01*
X-21085714Y-16990476D01*
X-21123809Y-17066666D01*
X-21161904Y-17104761D01*
X-21238095Y-17142857D01*
X-21504761Y-17142857D01*
X-16209523Y-11100000D02*
X-16285714Y-11061904D01*
X-16400000Y-11061904D01*
X-16514285Y-11100000D01*
X-16590476Y-11176190D01*
X-16628571Y-11252380D01*
X-16666666Y-11404761D01*
X-16666666Y-11519047D01*
X-16628571Y-11671428D01*
X-16590476Y-11747619D01*
X-16514285Y-11823809D01*
X-16400000Y-11861904D01*
X-16323809Y-11861904D01*
X-16209523Y-11823809D01*
X-16171428Y-11785714D01*
X-16171428Y-11519047D01*
X-16323809Y-11519047D01*
X-15828571Y-11861904D02*
X-15828571Y-11061904D01*
X-15371428Y-11861904D01*
X-15371428Y-11061904D01*
X-14990476Y-11861904D02*
X-14990476Y-11061904D01*
X-14800000Y-11061904D01*
X-14685714Y-11100000D01*
X-14609523Y-11176190D01*
X-14571428Y-11252380D01*
X-14533333Y-11404761D01*
X-14533333Y-11519047D01*
X-14571428Y-11671428D01*
X-14609523Y-11747619D01*
X-14685714Y-11823809D01*
X-14800000Y-11861904D01*
X-14990476Y-11861904D01*
X-24166666Y-12261904D02*
X-23900000Y-13061904D01*
X-23633333Y-12261904D01*
X-23366666Y-13061904D02*
X-23366666Y-12261904D01*
X-23176190Y-12261904D01*
X-23061904Y-12300000D01*
X-22985714Y-12376190D01*
X-22947619Y-12452380D01*
X-22909523Y-12604761D01*
X-22909523Y-12719047D01*
X-22947619Y-12871428D01*
X-22985714Y-12947619D01*
X-23061904Y-13023809D01*
X-23176190Y-13061904D01*
X-23366666Y-13061904D01*
X-22566666Y-13061904D02*
X-22566666Y-12261904D01*
X-22376190Y-12261904D01*
X-22261904Y-12300000D01*
X-22185714Y-12376190D01*
X-22147619Y-12452380D01*
X-22109523Y-12604761D01*
X-22109523Y-12719047D01*
X-22147619Y-12871428D01*
X-22185714Y-12947619D01*
X-22261904Y-13023809D01*
X-22376190Y-13061904D01*
X-22566666Y-13061904D01*
D12*
X-14410000Y-290000D02*
X-15710000Y-1990000D01*
X-11590000Y-290000D02*
X-14410000Y-290000D01*
X-11590000Y-290000D02*
X-10290000Y-1990000D01*
X-10290000Y-10710000D02*
X-15710000Y-10710000D01*
X-10290000Y-1990000D02*
X-10290000Y-10710000D01*
X-15710000Y-1990000D02*
X-15710000Y-10710000D01*
X14410000Y-10710000D02*
X15710000Y-9010000D01*
X11590000Y-10710000D02*
X14410000Y-10710000D01*
X11590000Y-10710000D02*
X10290000Y-9010000D01*
X10290000Y-290000D02*
X15710000Y-290000D01*
X10290000Y-9010000D02*
X10290000Y-290000D01*
X15710000Y-9010000D02*
X15710000Y-290000D01*
X6350000Y-17850000D02*
X6350000Y-16850000D01*
X5850000Y-17350000D02*
X6850000Y-17350000D01*
X11600000Y-14600000D02*
G75*
G03*
X11600000Y-14600000I-4000000J0D01*
G01*
X-8850000Y-17850000D02*
X-8850000Y-16850000D01*
X-9350000Y-17350000D02*
X-8350000Y-17350000D01*
X-3600000Y-14600000D02*
G75*
G03*
X-3600000Y-14600000I-4000000J0D01*
G01*
X-3250000Y-6100000D02*
X3250000Y-6100000D01*
X-3250000Y-18900000D02*
X-3250000Y-6100000D01*
X3250000Y-18900000D02*
X-3250000Y-18900000D01*
X3250000Y-6100000D02*
X3250000Y-18900000D01*
%LPC*%
D13*
X-13000000Y-14500000D02*
X-16900000Y-14500000D01*
D14*
X-13000000Y-3000000D03*
X-13000000Y-8000000D03*
X13000000Y-8000000D03*
X13000000Y-3000000D03*
D15*
X7600000Y-16250000D03*
X7600000Y-12950000D03*
X-7600000Y-16250000D03*
X-7600000Y-12950000D03*
D16*
X3000000Y-3600000D03*
D17*
X-24000000Y-17000000D03*
D18*
X-24000000Y-16250000D03*
D17*
X24000000Y-17000000D03*
D18*
X24000000Y-16250000D03*
D19*
X-13000000Y-14000000D03*
D17*
X-7000000Y-9450000D03*
D18*
X-7000000Y-8700000D03*
D17*
X-5000000Y-9450000D03*
D18*
X-5000000Y-8700000D03*
D17*
X5000000Y-9450000D03*
D18*
X5000000Y-8700000D03*
D17*
X7000000Y-9450000D03*
D18*
X7000000Y-8700000D03*
D16*
X-3000000Y-3600000D03*
D20*
X-17356997Y-13836216D03*
D21*
X-17745225Y-12387327D03*
X-20643003Y-13163784D03*
D20*
X-20254775Y-14612673D03*
D22*
X17356997Y-13836216D03*
D23*
X17745225Y-12387327D03*
X20643003Y-13163784D03*
D22*
X20254775Y-14612673D03*
D16*
X24000000Y-7300000D03*
X18000000Y-6000000D03*
X-18000000Y-6000000D03*
X-24000000Y-7300000D03*
D24*
X0Y-15500000D03*
X0Y-9500000D03*
M02*
