G04 #@! TF.GenerationSoftware,KiCad,Pcbnew,(6.0.5)*
G04 #@! TF.CreationDate,2022-05-28T17:46:07-04:00*
G04 #@! TF.ProjectId,spin-tgd-power,7370696e-2d74-4676-942d-706f7765722e,rev?*
G04 #@! TF.SameCoordinates,Original*
G04 #@! TF.FileFunction,Soldermask,Top*
G04 #@! TF.FilePolarity,Negative*
%FSLAX46Y46*%
G04 Gerber Fmt 4.6, Leading zero omitted, Abs format (unit mm)*
G04 Created by KiCad (PCBNEW (6.0.5)) date 2022-05-28 17:46:07*
%MOMM*%
%LPD*%
G01*
G04 APERTURE LIST*
G04 Aperture macros list*
%AMRoundRect*
0 Rectangle with rounded corners*
0 $1 Rounding radius*
0 $2 $3 $4 $5 $6 $7 $8 $9 X,Y pos of 4 corners*
0 Add a 4 corners polygon primitive as box body*
4,1,4,$2,$3,$4,$5,$6,$7,$8,$9,$2,$3,0*
0 Add four circle primitives for the rounded corners*
1,1,$1+$1,$2,$3*
1,1,$1+$1,$4,$5*
1,1,$1+$1,$6,$7*
1,1,$1+$1,$8,$9*
0 Add four rect primitives between the rounded corners*
20,1,$1+$1,$2,$3,$4,$5,0*
20,1,$1+$1,$4,$5,$6,$7,0*
20,1,$1+$1,$6,$7,$8,$9,0*
20,1,$1+$1,$8,$9,$2,$3,0*%
G04 Aperture macros list end*
%ADD10C,1.800000*%
%ADD11C,3.000000*%
%ADD12RoundRect,0.250000X-0.600000X-0.725000X0.600000X-0.725000X0.600000X0.725000X-0.600000X0.725000X0*%
%ADD13O,1.700000X1.950000*%
%ADD14RoundRect,0.375000X-0.375000X-1.125000X0.375000X-1.125000X0.375000X1.125000X-0.375000X1.125000X0*%
%ADD15RoundRect,0.375000X-0.375000X-0.375000X0.375000X-0.375000X0.375000X0.375000X-0.375000X0.375000X0*%
%ADD16R,1.700000X1.300000*%
%ADD17RoundRect,0.200000X0.200000X0.275000X-0.200000X0.275000X-0.200000X-0.275000X0.200000X-0.275000X0*%
%ADD18C,2.200000*%
%ADD19C,2.700000*%
%ADD20RoundRect,0.225000X-0.225000X-0.250000X0.225000X-0.250000X0.225000X0.250000X-0.225000X0.250000X0*%
%ADD21RoundRect,1.500000X-1.250000X0.000000X-1.250000X0.000000X1.250000X0.000000X1.250000X0.000000X0*%
%ADD22C,2.500000*%
%ADD23RoundRect,0.200000X1.044501X0.807167X-0.500981X1.221277X-1.044501X-0.807167X0.500981X-1.221277X0*%
%ADD24RoundRect,0.200000X-1.044501X-0.807167X0.500981X-1.221277X1.044501X0.807167X-0.500981X1.221277X0*%
%ADD25R,0.700000X0.340000*%
%ADD26RoundRect,0.200000X0.500981X1.221277X-1.044501X0.807167X-0.500981X-1.221277X1.044501X-0.807167X0*%
%ADD27RoundRect,0.200000X-0.500981X-1.221277X1.044501X-0.807167X0.500981X1.221277X-1.044501X0.807167X0*%
%ADD28RoundRect,0.200000X-0.275000X0.200000X-0.275000X-0.200000X0.275000X-0.200000X0.275000X0.200000X0*%
G04 APERTURE END LIST*
D10*
X-3800000Y-16650000D03*
X-3800000Y-13350000D03*
D11*
X-13000000Y-15000000D03*
D12*
X-5000000Y-2500000D03*
D13*
X-2500000Y-2500000D03*
X0Y-2500000D03*
X2500000Y-2500000D03*
X5000000Y-2500000D03*
D14*
X24000000Y-16250000D03*
D15*
X24000000Y-17000000D03*
D16*
X7400000Y-9750000D03*
X7400000Y-6250000D03*
D17*
X-4975000Y-7900000D03*
X-6625000Y-7900000D03*
D18*
X24000000Y-7300000D03*
D19*
X13000000Y-5500000D03*
X13000000Y-2000000D03*
D10*
X3800000Y-16650000D03*
X3800000Y-13350000D03*
D20*
X-6575000Y-6250000D03*
X-5025000Y-6250000D03*
D21*
X0Y-9500000D03*
X0Y-15500000D03*
D22*
X-18000000Y-6000000D03*
D19*
X-13000000Y-2000000D03*
X-13000000Y-5500000D03*
D23*
X17356997Y-13836216D03*
D24*
X17745225Y-12387327D03*
X20643003Y-13163784D03*
D23*
X20254775Y-14612673D03*
D18*
X18000000Y-6000000D03*
D25*
X-8150000Y-9400000D03*
X-8150000Y-9900000D03*
X-8150000Y-10400000D03*
X-6650000Y-10400000D03*
X-6650000Y-9900000D03*
X-6650000Y-9400000D03*
D26*
X-20254775Y-14612673D03*
D27*
X-20643003Y-13163784D03*
D26*
X-17356997Y-13836216D03*
D27*
X-17745225Y-12387327D03*
D14*
X-24000000Y-16250000D03*
D15*
X-24000000Y-17000000D03*
D28*
X5100000Y-7275000D03*
X5100000Y-8925000D03*
D18*
X-24000000Y-7300000D03*
M02*
