%FSLAX45Y45*%
G04 Gerber Fmt 4.5, Leading zero omitted, Abs format (unit mm)*
G04 Created by KiCad (PCBNEW (6.0.0)) date 2022-01-12 03:25:53*
%MOMM*%
%LPD*%
G01*
G04 APERTURE LIST*
%TA.AperFunction,Profile*%
%ADD10C,0.200000*%
%TD*%
%ADD11C,0.200000*%
%ADD12C,0.030480*%
%ADD13C,0.050000*%
%ADD14C,0.100000*%
%ADD15C,0.101600*%
%ADD16C,0.150000*%
%ADD17C,0.190000*%
G04 APERTURE END LIST*
D10*
X-8300000Y-3305000D02*
G75*
G03*
X-8530000Y-3990000I277519J-474295D01*
G01*
X-7834381Y-5381580D02*
G75*
G03*
X-7155000Y-5611580I472151J276265D01*
G01*
X7155000Y-5611580D02*
G75*
G03*
X7834381Y-5381580I207165J506459D01*
G01*
X3840000Y-3830000D02*
X7155000Y-5611580D01*
X7834381Y-5381580D02*
X8530000Y-3990000D01*
X8530000Y-3990000D02*
G75*
G03*
X8300000Y-3305000I-507519J210705D01*
G01*
X8300000Y-3305000D02*
X2200000Y0D01*
X0Y0D02*
X-2200000Y0D01*
X-3840000Y-3830000D02*
X0Y-3830000D01*
X-8530000Y-3990000D02*
X-7834381Y-5381580D01*
X-2200000Y0D02*
X-8300000Y-3305000D01*
X2200000Y0D02*
X0Y0D01*
X0Y-3830000D02*
X3840000Y-3830000D01*
X-7155000Y-5611580D02*
X-3840000Y-3830000D01*
D11*
D12*
X-6980240Y-5149760D02*
X-6949760Y-5180240D01*
X-6949760Y-5149760D02*
X-6980240Y-5180240D01*
X-6895240Y-5284760D02*
X-6864760Y-5315240D01*
X-6864760Y-5284760D02*
X-6895240Y-5315240D01*
X-6640240Y-4969760D02*
X-6609760Y-5000240D01*
X-6609760Y-4969760D02*
X-6640240Y-5000240D01*
X-6555240Y-4849760D02*
X-6524760Y-4880240D01*
X-6524760Y-4849760D02*
X-6555240Y-4880240D01*
X-5679061Y-4188581D02*
X-5648581Y-4219061D01*
X-5648581Y-4188581D02*
X-5679061Y-4219061D01*
X-4905240Y-3659760D02*
X-4874760Y-3690240D01*
X-4874760Y-3659760D02*
X-4905240Y-3690240D01*
X-4775240Y-3889760D02*
X-4744760Y-3920240D01*
X-4744760Y-3889760D02*
X-4775240Y-3920240D01*
X-4725240Y-3489760D02*
X-4694760Y-3520240D01*
X-4694760Y-3489760D02*
X-4725240Y-3520240D01*
X-4560240Y-3934760D02*
X-4529760Y-3965240D01*
X-4529760Y-3934760D02*
X-4560240Y-3965240D01*
X-4510240Y-3349760D02*
X-4479760Y-3380240D01*
X-4479760Y-3349760D02*
X-4510240Y-3380240D01*
X-4485240Y-3639760D02*
X-4454760Y-3670240D01*
X-4454760Y-3639760D02*
X-4485240Y-3670240D01*
X-4420240Y-3749760D02*
X-4389760Y-3780240D01*
X-4389760Y-3749760D02*
X-4420240Y-3780240D01*
X-4300240Y-3134760D02*
X-4269760Y-3165240D01*
X-4269760Y-3134760D02*
X-4300240Y-3165240D01*
X-4265240Y-3834760D02*
X-4234760Y-3865240D01*
X-4234760Y-3834760D02*
X-4265240Y-3865240D01*
X-4175240Y-3634760D02*
X-4144760Y-3665240D01*
X-4144760Y-3634760D02*
X-4175240Y-3665240D01*
X-4155240Y-2954760D02*
X-4124760Y-2985240D01*
X-4124760Y-2954760D02*
X-4155240Y-2985240D01*
X-4120240Y-3204760D02*
X-4089760Y-3235240D01*
X-4089760Y-3204760D02*
X-4120240Y-3235240D01*
X-4100240Y-3384760D02*
X-4069760Y-3415240D01*
X-4069760Y-3384760D02*
X-4100240Y-3415240D01*
X-4015240Y-3684760D02*
X-3984760Y-3715240D01*
X-3984760Y-3684760D02*
X-4015240Y-3715240D01*
X-4000240Y-2794760D02*
X-3969760Y-2825240D01*
X-3969760Y-2794760D02*
X-4000240Y-2825240D01*
X-3935240Y-3479760D02*
X-3904760Y-3510240D01*
X-3904760Y-3479760D02*
X-3935240Y-3510240D01*
X-3895240Y-2949760D02*
X-3864760Y-2980240D01*
X-3864760Y-2949760D02*
X-3895240Y-2980240D01*
X-3835240Y-2634760D02*
X-3804760Y-2665240D01*
X-3804760Y-2634760D02*
X-3835240Y-2665240D01*
X-3800240Y-3304760D02*
X-3769760Y-3335240D01*
X-3769760Y-3304760D02*
X-3800240Y-3335240D01*
X-3655240Y-2509760D02*
X-3624760Y-2540240D01*
X-3624760Y-2509760D02*
X-3655240Y-2540240D01*
X-3620240Y-2949760D02*
X-3589760Y-2980240D01*
X-3589760Y-2949760D02*
X-3620240Y-2980240D01*
X-3605240Y-2714760D02*
X-3574760Y-2745240D01*
X-3574760Y-2714760D02*
X-3605240Y-2745240D01*
X-3565240Y-3294760D02*
X-3534760Y-3325240D01*
X-3534760Y-3294760D02*
X-3565240Y-3325240D01*
X-3440240Y-2514760D02*
X-3409760Y-2545240D01*
X-3409760Y-2514760D02*
X-3440240Y-2545240D01*
X-3428240Y-2917760D02*
X-3397760Y-2948240D01*
X-3397760Y-2917760D02*
X-3428240Y-2948240D01*
X-3325240Y-3284760D02*
X-3294760Y-3315240D01*
X-3294760Y-3284760D02*
X-3325240Y-3315240D01*
X-3245240Y-2514760D02*
X-3214760Y-2545240D01*
X-3214760Y-2514760D02*
X-3245240Y-2545240D01*
X-3230240Y-2704760D02*
X-3199760Y-2735240D01*
X-3199760Y-2704760D02*
X-3230240Y-2735240D01*
X-3158240Y-2902760D02*
X-3127760Y-2933240D01*
X-3127760Y-2902760D02*
X-3158240Y-2933240D01*
X-3156240Y-2997760D02*
X-3125760Y-3028240D01*
X-3125760Y-2997760D02*
X-3156240Y-3028240D01*
X-3135240Y-3294760D02*
X-3104760Y-3325240D01*
X-3104760Y-3294760D02*
X-3135240Y-3325240D01*
X-3070240Y-2499760D02*
X-3039760Y-2530240D01*
X-3039760Y-2499760D02*
X-3070240Y-2530240D01*
X-3005240Y-2729760D02*
X-2974760Y-2760240D01*
X-2974760Y-2729760D02*
X-3005240Y-2760240D01*
X-2860640Y-2867560D02*
X-2830160Y-2898040D01*
X-2830160Y-2867560D02*
X-2860640Y-2898040D01*
X-2860640Y-3058060D02*
X-2830160Y-3088540D01*
X-2830160Y-3058060D02*
X-2860640Y-3088540D01*
X-2860640Y-3235860D02*
X-2830160Y-3266340D01*
X-2830160Y-3235860D02*
X-2860640Y-3266340D01*
X-2790240Y-3644760D02*
X-2759760Y-3675240D01*
X-2759760Y-3644760D02*
X-2790240Y-3675240D01*
X-2780240Y-2634760D02*
X-2749760Y-2665240D01*
X-2749760Y-2634760D02*
X-2780240Y-2665240D01*
X-2765240Y-2434760D02*
X-2734760Y-2465240D01*
X-2734760Y-2434760D02*
X-2765240Y-2465240D01*
X-2765240Y-3449760D02*
X-2734760Y-3480240D01*
X-2734760Y-3449760D02*
X-2765240Y-3480240D01*
X-2715240Y-2534760D02*
X-2684760Y-2565240D01*
X-2684760Y-2534760D02*
X-2715240Y-2565240D01*
X-2682840Y-2867560D02*
X-2652360Y-2898040D01*
X-2652360Y-2867560D02*
X-2682840Y-2898040D01*
X-2682840Y-3058060D02*
X-2652360Y-3088540D01*
X-2652360Y-3058060D02*
X-2682840Y-3088540D01*
X-2682840Y-3235860D02*
X-2652360Y-3266340D01*
X-2652360Y-3235860D02*
X-2682840Y-3266340D01*
X-2615240Y-2534760D02*
X-2584760Y-2565240D01*
X-2584760Y-2534760D02*
X-2615240Y-2565240D01*
X-2515240Y-2534760D02*
X-2484760Y-2565240D01*
X-2484760Y-2534760D02*
X-2515240Y-2565240D01*
X-2492340Y-2867560D02*
X-2461860Y-2898040D01*
X-2461860Y-2867560D02*
X-2492340Y-2898040D01*
X-2492340Y-3058060D02*
X-2461860Y-3088540D01*
X-2461860Y-3058060D02*
X-2492340Y-3088540D01*
X-2492340Y-3235860D02*
X-2461860Y-3266340D01*
X-2461860Y-3235860D02*
X-2492340Y-3266340D01*
X-2415240Y-2534760D02*
X-2384760Y-2565240D01*
X-2384760Y-2534760D02*
X-2415240Y-2565240D01*
X-2350240Y-3599760D02*
X-2319760Y-3630240D01*
X-2319760Y-3599760D02*
X-2350240Y-3630240D01*
X-2272740Y-2854760D02*
X-2242260Y-2885240D01*
X-2242260Y-2854760D02*
X-2272740Y-2885240D01*
X-2162140Y-3331110D02*
X-2131660Y-3361590D01*
X-2131660Y-3331110D02*
X-2162140Y-3361590D01*
X-2125240Y-2757260D02*
X-2094760Y-2787740D01*
X-2094760Y-2757260D02*
X-2125240Y-2787740D01*
X-1995240Y-3664760D02*
X-1964760Y-3695240D01*
X-1964760Y-3664760D02*
X-1995240Y-3695240D01*
X-1895240Y-3514760D02*
X-1864760Y-3545240D01*
X-1864760Y-3514760D02*
X-1895240Y-3545240D01*
X-1670240Y-369760D02*
X-1639760Y-400240D01*
X-1639760Y-369760D02*
X-1670240Y-400240D01*
X-1661490Y-3108510D02*
X-1631010Y-3138990D01*
X-1631010Y-3108510D02*
X-1661490Y-3138990D01*
X-1365240Y-3104760D02*
X-1334760Y-3135240D01*
X-1334760Y-3104760D02*
X-1365240Y-3135240D01*
X-1316490Y-452260D02*
X-1286010Y-482740D01*
X-1286010Y-452260D02*
X-1316490Y-482740D01*
X-1157740Y-162260D02*
X-1127260Y-192740D01*
X-1127260Y-162260D02*
X-1157740Y-192740D01*
X-1050240Y-3669760D02*
X-1019760Y-3700240D01*
X-1019760Y-3669760D02*
X-1050240Y-3700240D01*
X-1035240Y-3429760D02*
X-1004760Y-3460240D01*
X-1004760Y-3429760D02*
X-1035240Y-3460240D01*
X-1035240Y-3529760D02*
X-1004760Y-3560240D01*
X-1004760Y-3529760D02*
X-1035240Y-3560240D01*
X-970240Y-379760D02*
X-939760Y-410240D01*
X-939760Y-379760D02*
X-970240Y-410240D01*
X874760Y-119760D02*
X905240Y-150240D01*
X905240Y-119760D02*
X874760Y-150240D01*
X874760Y-309760D02*
X905240Y-340240D01*
X905240Y-309760D02*
X874760Y-340240D01*
X874760Y-459760D02*
X905240Y-490240D01*
X905240Y-459760D02*
X874760Y-490240D01*
X874760Y-649760D02*
X905240Y-680240D01*
X905240Y-649760D02*
X874760Y-680240D01*
X1299760Y-2464760D02*
X1330240Y-2495240D01*
X1330240Y-2464760D02*
X1299760Y-2495240D01*
X1304760Y-2714760D02*
X1335240Y-2745240D01*
X1335240Y-2714760D02*
X1304760Y-2745240D01*
X1413510Y-389760D02*
X1443990Y-420240D01*
X1443990Y-389760D02*
X1413510Y-420240D01*
X1449760Y-3164760D02*
X1480240Y-3195240D01*
X1480240Y-3164760D02*
X1449760Y-3195240D01*
X1539760Y-3334760D02*
X1570240Y-3365240D01*
X1570240Y-3334760D02*
X1539760Y-3365240D01*
X1546010Y-2653510D02*
X1576490Y-2683990D01*
X1576490Y-2653510D02*
X1546010Y-2683990D01*
X1588510Y-529760D02*
X1618990Y-560240D01*
X1618990Y-529760D02*
X1588510Y-560240D01*
X1664760Y-3649760D02*
X1695240Y-3680240D01*
X1695240Y-3649760D02*
X1664760Y-3680240D01*
X1749760Y-2774760D02*
X1780240Y-2805240D01*
X1780240Y-2774760D02*
X1749760Y-2805240D01*
X2094760Y-3324760D02*
X2125240Y-3355240D01*
X2125240Y-3324760D02*
X2094760Y-3355240D01*
X2159760Y-3459760D02*
X2190240Y-3490240D01*
X2190240Y-3459760D02*
X2159760Y-3490240D01*
X2199760Y-2714760D02*
X2230240Y-2745240D01*
X2230240Y-2714760D02*
X2199760Y-2745240D01*
X2344760Y-2219760D02*
X2375240Y-2250240D01*
X2375240Y-2219760D02*
X2344760Y-2250240D01*
X2389760Y-2639760D02*
X2420240Y-2670240D01*
X2420240Y-2639760D02*
X2389760Y-2670240D01*
X2449760Y-2719760D02*
X2480240Y-2750240D01*
X2480240Y-2719760D02*
X2449760Y-2750240D01*
X2579760Y-2859760D02*
X2610240Y-2890240D01*
X2610240Y-2859760D02*
X2579760Y-2890240D01*
X2639760Y-2639760D02*
X2670240Y-2670240D01*
X2670240Y-2639760D02*
X2639760Y-2670240D01*
X2639760Y-3459760D02*
X2670240Y-3490240D01*
X2670240Y-3459760D02*
X2639760Y-3490240D01*
X2682260Y-2212260D02*
X2712740Y-2242740D01*
X2712740Y-2212260D02*
X2682260Y-2242740D01*
X2689760Y-2739760D02*
X2720240Y-2770240D01*
X2720240Y-2739760D02*
X2689760Y-2770240D01*
X2739760Y-3459760D02*
X2770240Y-3490240D01*
X2770240Y-3459760D02*
X2739760Y-3490240D01*
X2789760Y-3754760D02*
X2820240Y-3785240D01*
X2820240Y-3754760D02*
X2789760Y-3785240D01*
X2837260Y-2209760D02*
X2867740Y-2240240D01*
X2867740Y-2209760D02*
X2837260Y-2240240D01*
X2974760Y-2364760D02*
X3005240Y-2395240D01*
X3005240Y-2364760D02*
X2974760Y-2395240D01*
X3274760Y-2484760D02*
X3305240Y-2515240D01*
X3305240Y-2484760D02*
X3274760Y-2515240D01*
X3274760Y-2919760D02*
X3305240Y-2950240D01*
X3305240Y-2919760D02*
X3274760Y-2950240D01*
X3274760Y-3477260D02*
X3305240Y-3507740D01*
X3305240Y-3477260D02*
X3274760Y-3507740D01*
X3900041Y-3654479D02*
X3930521Y-3684959D01*
X3930521Y-3654479D02*
X3900041Y-3684959D01*
X3947905Y-3546614D02*
X3978385Y-3577094D01*
X3978385Y-3546614D02*
X3947905Y-3577094D01*
X4224760Y-3554760D02*
X4255240Y-3585240D01*
X4255240Y-3554760D02*
X4224760Y-3585240D01*
X4284760Y-3439760D02*
X4315240Y-3470240D01*
X4315240Y-3439760D02*
X4284760Y-3470240D01*
X4539760Y-4009760D02*
X4570240Y-4040240D01*
X4570240Y-4009760D02*
X4539760Y-4040240D01*
X4599760Y-3899760D02*
X4630240Y-3930240D01*
X4630240Y-3899760D02*
X4599760Y-3930240D01*
X4664760Y-3784760D02*
X4695240Y-3815240D01*
X4695240Y-3784760D02*
X4664760Y-3815240D01*
X4724760Y-3674760D02*
X4755240Y-3705240D01*
X4755240Y-3674760D02*
X4724760Y-3705240D01*
X5663863Y-4188863D02*
X5694343Y-4219343D01*
X5694343Y-4188863D02*
X5663863Y-4219343D01*
D13*
X-799000Y-2730000D02*
G75*
G03*
X-799000Y-2730000I-25000J0D01*
G01*
D11*
X-839000Y-2690000D02*
X-839000Y-2770000D01*
X-809000Y-2690000D02*
X-809000Y-2770000D01*
X-839000Y-2770000D02*
G75*
G03*
X-809000Y-2770000I15000J0D01*
G01*
X-809000Y-2690000D02*
G75*
G03*
X-839000Y-2690000I-15000J0D01*
G01*
D13*
X-799000Y-3050000D02*
G75*
G03*
X-799000Y-3050000I-25000J0D01*
G01*
D11*
X-839000Y-3010000D02*
X-839000Y-3090000D01*
X-809000Y-3010000D02*
X-809000Y-3090000D01*
X-839000Y-3090000D02*
G75*
G03*
X-809000Y-3090000I15000J0D01*
G01*
X-809000Y-3010000D02*
G75*
G03*
X-839000Y-3010000I-15000J0D01*
G01*
D13*
X-795000Y-3660000D02*
G75*
G03*
X-795000Y-3660000I-25000J0D01*
G01*
D11*
X-835000Y-3620000D02*
X-835000Y-3700000D01*
X-805000Y-3620000D02*
X-805000Y-3700000D01*
X-835000Y-3700000D02*
G75*
G03*
X-805000Y-3700000I15000J0D01*
G01*
X-805000Y-3620000D02*
G75*
G03*
X-835000Y-3620000I-15000J0D01*
G01*
D13*
X-304000Y-3050000D02*
G75*
G03*
X-304000Y-3050000I-25000J0D01*
G01*
D11*
X-344000Y-3010000D02*
X-344000Y-3090000D01*
X-314000Y-3010000D02*
X-314000Y-3090000D01*
X-344000Y-3090000D02*
G75*
G03*
X-314000Y-3090000I15000J0D01*
G01*
X-314000Y-3010000D02*
G75*
G03*
X-344000Y-3010000I-15000J0D01*
G01*
D13*
X-282000Y-3660000D02*
G75*
G03*
X-282000Y-3660000I-25000J0D01*
G01*
D11*
X-322000Y-3620000D02*
X-322000Y-3700000D01*
X-292000Y-3620000D02*
X-292000Y-3700000D01*
X-322000Y-3700000D02*
G75*
G03*
X-292000Y-3700000I15000J0D01*
G01*
X-292000Y-3620000D02*
G75*
G03*
X-322000Y-3620000I-15000J0D01*
G01*
D13*
X-229000Y-2730000D02*
G75*
G03*
X-229000Y-2730000I-25000J0D01*
G01*
D11*
X-269000Y-2690000D02*
X-269000Y-2770000D01*
X-239000Y-2690000D02*
X-239000Y-2770000D01*
X-269000Y-2770000D02*
G75*
G03*
X-239000Y-2770000I15000J0D01*
G01*
X-239000Y-2690000D02*
G75*
G03*
X-269000Y-2690000I-15000J0D01*
G01*
D13*
X-200000Y-3355000D02*
G75*
G03*
X-200000Y-3355000I-25000J0D01*
G01*
D11*
X-240000Y-3315000D02*
X-240000Y-3395000D01*
X-210000Y-3315000D02*
X-210000Y-3395000D01*
X-240000Y-3395000D02*
G75*
G03*
X-210000Y-3395000I15000J0D01*
G01*
X-210000Y-3315000D02*
G75*
G03*
X-240000Y-3315000I-15000J0D01*
G01*
D13*
X301000Y-2730000D02*
G75*
G03*
X301000Y-2730000I-25000J0D01*
G01*
D11*
X261000Y-2690000D02*
X261000Y-2770000D01*
X291000Y-2690000D02*
X291000Y-2770000D01*
X261000Y-2770000D02*
G75*
G03*
X291000Y-2770000I15000J0D01*
G01*
X291000Y-2690000D02*
G75*
G03*
X261000Y-2690000I-15000J0D01*
G01*
D13*
X301000Y-3050000D02*
G75*
G03*
X301000Y-3050000I-25000J0D01*
G01*
D11*
X261000Y-3010000D02*
X261000Y-3090000D01*
X291000Y-3010000D02*
X291000Y-3090000D01*
X261000Y-3090000D02*
G75*
G03*
X291000Y-3090000I15000J0D01*
G01*
X291000Y-3010000D02*
G75*
G03*
X261000Y-3010000I-15000J0D01*
G01*
D13*
X305000Y-3660000D02*
G75*
G03*
X305000Y-3660000I-25000J0D01*
G01*
D11*
X265000Y-3620000D02*
X265000Y-3700000D01*
X295000Y-3620000D02*
X295000Y-3700000D01*
X265000Y-3700000D02*
G75*
G03*
X295000Y-3700000I15000J0D01*
G01*
X295000Y-3620000D02*
G75*
G03*
X265000Y-3620000I-15000J0D01*
G01*
D13*
X796000Y-3050000D02*
G75*
G03*
X796000Y-3050000I-25000J0D01*
G01*
D11*
X756000Y-3010000D02*
X756000Y-3090000D01*
X786000Y-3010000D02*
X786000Y-3090000D01*
X756000Y-3090000D02*
G75*
G03*
X786000Y-3090000I15000J0D01*
G01*
X786000Y-3010000D02*
G75*
G03*
X756000Y-3010000I-15000J0D01*
G01*
D13*
X818000Y-3660000D02*
G75*
G03*
X818000Y-3660000I-25000J0D01*
G01*
D11*
X778000Y-3620000D02*
X778000Y-3700000D01*
X808000Y-3620000D02*
X808000Y-3700000D01*
X778000Y-3700000D02*
G75*
G03*
X808000Y-3700000I15000J0D01*
G01*
X808000Y-3620000D02*
G75*
G03*
X778000Y-3620000I-15000J0D01*
G01*
D13*
X871000Y-2730000D02*
G75*
G03*
X871000Y-2730000I-25000J0D01*
G01*
D11*
X831000Y-2690000D02*
X831000Y-2770000D01*
X861000Y-2690000D02*
X861000Y-2770000D01*
X831000Y-2770000D02*
G75*
G03*
X861000Y-2770000I15000J0D01*
G01*
X861000Y-2690000D02*
G75*
G03*
X831000Y-2690000I-15000J0D01*
G01*
D13*
X900000Y-3355000D02*
G75*
G03*
X900000Y-3355000I-25000J0D01*
G01*
D11*
X860000Y-3315000D02*
X860000Y-3395000D01*
X890000Y-3315000D02*
X890000Y-3395000D01*
X860000Y-3395000D02*
G75*
G03*
X890000Y-3395000I15000J0D01*
G01*
X890000Y-3315000D02*
G75*
G03*
X860000Y-3315000I-15000J0D01*
G01*
D14*
X-6200000Y-4250000D02*
X-6200000Y-4350000D01*
X-6250000Y-4300000D02*
X-6150000Y-4300000D01*
X-6021003Y-4153821D02*
X-6021003Y-4253821D01*
X-6071003Y-4203821D02*
X-5971003Y-4203821D01*
X-4710000Y-3670000D02*
X-4710000Y-3770000D01*
X-4760000Y-3720000D02*
X-4660000Y-3720000D01*
X-4263050Y-1260389D02*
X-4263050Y-1360389D01*
X-4313050Y-1310389D02*
X-4213050Y-1310389D01*
X-4086872Y-1165725D02*
X-4086872Y-1265725D01*
X-4136872Y-1215725D02*
X-4036872Y-1215725D01*
X-3910694Y-1071061D02*
X-3910694Y-1171061D01*
X-3960694Y-1121061D02*
X-3860694Y-1121061D01*
X-3775000Y-2770000D02*
X-3775000Y-2870000D01*
X-3825000Y-2820000D02*
X-3725000Y-2820000D01*
X-3751865Y-2211751D02*
X-3751865Y-2311751D01*
X-3801865Y-2261751D02*
X-3701865Y-2261751D01*
X-3575686Y-2117087D02*
X-3575686Y-2217087D01*
X-3625686Y-2167087D02*
X-3525686Y-2167087D01*
X-3399508Y-2022423D02*
X-3399508Y-2122423D01*
X-3449508Y-2072423D02*
X-3349508Y-2072423D01*
X-1540000Y-815000D02*
X-1540000Y-915000D01*
X-1590000Y-865000D02*
X-1490000Y-865000D01*
X-1540000Y-1915000D02*
X-1540000Y-2015000D01*
X-1590000Y-1965000D02*
X-1490000Y-1965000D01*
X548400Y-1998400D02*
X548400Y-2098400D01*
X498400Y-2048400D02*
X598400Y-2048400D01*
X548400Y-2201600D02*
X548400Y-2301600D01*
X498400Y-2251600D02*
X598400Y-2251600D01*
X751600Y-1998400D02*
X751600Y-2098400D01*
X701600Y-2048400D02*
X801600Y-2048400D01*
X751600Y-2201600D02*
X751600Y-2301600D01*
X701600Y-2251600D02*
X801600Y-2251600D01*
X1540000Y-815000D02*
X1540000Y-915000D01*
X1490000Y-865000D02*
X1590000Y-865000D01*
X1540000Y-1915000D02*
X1540000Y-2015000D01*
X1490000Y-1965000D02*
X1590000Y-1965000D01*
X3399508Y-2022423D02*
X3399508Y-2122423D01*
X3349508Y-2072423D02*
X3449508Y-2072423D01*
X3575686Y-2117087D02*
X3575686Y-2217087D01*
X3525686Y-2167087D02*
X3625686Y-2167087D01*
X3751865Y-2211751D02*
X3751865Y-2311751D01*
X3701865Y-2261751D02*
X3801865Y-2261751D01*
X3910694Y-1071061D02*
X3910694Y-1171061D01*
X3860694Y-1121061D02*
X3960694Y-1121061D01*
X4086872Y-1165725D02*
X4086872Y-1265725D01*
X4036872Y-1215725D02*
X4136872Y-1215725D01*
X4263050Y-1260389D02*
X4263050Y-1360389D01*
X4213050Y-1310389D02*
X4313050Y-1310389D01*
X6021003Y-4153821D02*
X6021003Y-4253821D01*
X5971003Y-4203821D02*
X6071003Y-4203821D01*
X6200000Y-4250000D02*
X6200000Y-4350000D01*
X6150000Y-4300000D02*
X6250000Y-4300000D01*
X6278321Y-4854094D02*
X6278321Y-4954094D01*
X6228321Y-4904094D02*
X6328321Y-4904094D01*
X6502067Y-4974317D02*
X6502067Y-5074317D01*
X6452067Y-5024317D02*
X6552067Y-5024317D01*
X6725813Y-5094540D02*
X6725813Y-5194540D01*
X6675813Y-5144540D02*
X6775813Y-5144540D01*
X6949560Y-5214763D02*
X6949560Y-5314763D01*
X6899560Y-5264763D02*
X6999560Y-5264763D01*
X7173306Y-5334987D02*
X7173306Y-5434987D01*
X7123306Y-5384987D02*
X7223306Y-5384987D01*
X7397052Y-5455210D02*
X7397052Y-5555210D01*
X7347052Y-5505210D02*
X7447052Y-5505210D01*
D15*
X-220679Y-193721D02*
X-220679Y-121879D01*
X-292521Y-121879D01*
X-292521Y-193721D01*
X-220679Y-193721D01*
X-220679Y-701721D02*
X-220679Y-629879D01*
X-292521Y-629879D01*
X-292521Y-701721D01*
X-220679Y-701721D01*
X287321Y-193721D02*
X287321Y-121879D01*
X215479Y-121879D01*
X215479Y-193721D01*
X287321Y-193721D01*
X287321Y-701721D02*
X287321Y-629879D01*
X215479Y-629879D01*
X215479Y-701721D01*
X287321Y-701721D01*
D16*
X0Y-1490000D02*
X75000Y-1415000D01*
X0Y-1340000D01*
X-75000Y-1415000D01*
X0Y-1490000D01*
D11*
X125000Y-1350000D02*
X-125000Y-1350000D01*
X125000Y-1480000D02*
X-125000Y-1480000D01*
X-125000Y-1350000D02*
G75*
G03*
X-125000Y-1480000I0J-65000D01*
G01*
X125000Y-1480000D02*
G75*
G03*
X125000Y-1350000I0J65000D01*
G01*
D16*
X0Y-2090000D02*
X75000Y-2015000D01*
X0Y-1940000D01*
X-75000Y-2015000D01*
X0Y-2090000D01*
D11*
X125000Y-1950000D02*
X-125000Y-1950000D01*
X125000Y-2080000D02*
X-125000Y-2080000D01*
X-125000Y-1950000D02*
G75*
G03*
X-125000Y-2080000I0J-65000D01*
G01*
X125000Y-2080000D02*
G75*
G03*
X125000Y-1950000I0J65000D01*
G01*
D17*
X-635000Y-1070000D02*
X-445000Y-1260000D01*
X-445000Y-1070000D02*
X-635000Y-1260000D01*
X-445000Y-1165000D02*
G75*
G03*
X-445000Y-1165000I-95000J0D01*
G01*
X-635000Y-1570000D02*
X-445000Y-1760000D01*
X-445000Y-1570000D02*
X-635000Y-1760000D01*
X-445000Y-1665000D02*
G75*
G03*
X-445000Y-1665000I-95000J0D01*
G01*
X445000Y-1070000D02*
X635000Y-1260000D01*
X635000Y-1070000D02*
X445000Y-1260000D01*
X635000Y-1165000D02*
G75*
G03*
X635000Y-1165000I-95000J0D01*
G01*
X445000Y-1570000D02*
X635000Y-1760000D01*
X635000Y-1570000D02*
X445000Y-1760000D01*
X635000Y-1665000D02*
G75*
G03*
X635000Y-1665000I-95000J0D01*
G01*
D11*
X-8324382Y-5972827D02*
X-8324382Y-5772827D01*
X-8276763Y-5772827D01*
X-8248191Y-5782351D01*
X-8229144Y-5801399D01*
X-8219620Y-5820446D01*
X-8210096Y-5858542D01*
X-8210096Y-5887113D01*
X-8219620Y-5925208D01*
X-8229144Y-5944256D01*
X-8248191Y-5963304D01*
X-8276763Y-5972827D01*
X-8324382Y-5972827D01*
X-8124382Y-5972827D02*
X-8124382Y-5839494D01*
X-8124382Y-5877589D02*
X-8114858Y-5858542D01*
X-8105334Y-5849018D01*
X-8086287Y-5839494D01*
X-8067239Y-5839494D01*
X-8000572Y-5972827D02*
X-8000572Y-5839494D01*
X-8000572Y-5772827D02*
X-8010096Y-5782351D01*
X-8000572Y-5791875D01*
X-7991049Y-5782351D01*
X-8000572Y-5772827D01*
X-8000572Y-5791875D01*
X-7876763Y-5972827D02*
X-7895811Y-5963304D01*
X-7905334Y-5944256D01*
X-7905334Y-5772827D01*
X-7772001Y-5972827D02*
X-7791049Y-5963304D01*
X-7800572Y-5944256D01*
X-7800572Y-5772827D01*
X-7543430Y-5972827D02*
X-7543430Y-5772827D01*
X-7476763Y-5915685D01*
X-7410096Y-5772827D01*
X-7410096Y-5972827D01*
X-7229144Y-5972827D02*
X-7229144Y-5868065D01*
X-7238668Y-5849018D01*
X-7257715Y-5839494D01*
X-7295811Y-5839494D01*
X-7314858Y-5849018D01*
X-7229144Y-5963304D02*
X-7248191Y-5972827D01*
X-7295811Y-5972827D01*
X-7314858Y-5963304D01*
X-7324382Y-5944256D01*
X-7324382Y-5925208D01*
X-7314858Y-5906161D01*
X-7295811Y-5896637D01*
X-7248191Y-5896637D01*
X-7229144Y-5887113D01*
X-7133906Y-5839494D02*
X-7133906Y-6039494D01*
X-7133906Y-5849018D02*
X-7114858Y-5839494D01*
X-7076763Y-5839494D01*
X-7057715Y-5849018D01*
X-7048191Y-5858542D01*
X-7038668Y-5877589D01*
X-7038668Y-5934732D01*
X-7048191Y-5953780D01*
X-7057715Y-5963304D01*
X-7076763Y-5972827D01*
X-7114858Y-5972827D01*
X-7133906Y-5963304D01*
X-6952953Y-5953780D02*
X-6943430Y-5963304D01*
X-6952953Y-5972827D01*
X-6962477Y-5963304D01*
X-6952953Y-5953780D01*
X-6952953Y-5972827D01*
X-6952953Y-5849018D02*
X-6943430Y-5858542D01*
X-6952953Y-5868065D01*
X-6962477Y-5858542D01*
X-6952953Y-5849018D01*
X-6952953Y-5868065D01*
D12*
X-8612481Y-6287111D02*
X-8582001Y-6317591D01*
X-8582001Y-6287111D02*
X-8612481Y-6317591D01*
D11*
X-8286287Y-6192827D02*
X-8267239Y-6192827D01*
X-8248191Y-6202351D01*
X-8238668Y-6211875D01*
X-8229144Y-6230923D01*
X-8219620Y-6269018D01*
X-8219620Y-6316637D01*
X-8229144Y-6354732D01*
X-8238668Y-6373780D01*
X-8248191Y-6383304D01*
X-8267239Y-6392827D01*
X-8286287Y-6392827D01*
X-8305334Y-6383304D01*
X-8314858Y-6373780D01*
X-8324382Y-6354732D01*
X-8333906Y-6316637D01*
X-8333906Y-6269018D01*
X-8324382Y-6230923D01*
X-8314858Y-6211875D01*
X-8305334Y-6202351D01*
X-8286287Y-6192827D01*
X-8133906Y-6373780D02*
X-8124382Y-6383304D01*
X-8133906Y-6392827D01*
X-8143430Y-6383304D01*
X-8133906Y-6373780D01*
X-8133906Y-6392827D01*
X-8057715Y-6192827D02*
X-7933906Y-6192827D01*
X-8000572Y-6269018D01*
X-7972001Y-6269018D01*
X-7952953Y-6278542D01*
X-7943430Y-6288065D01*
X-7933906Y-6307113D01*
X-7933906Y-6354732D01*
X-7943430Y-6373780D01*
X-7952953Y-6383304D01*
X-7972001Y-6392827D01*
X-8029144Y-6392827D01*
X-8048191Y-6383304D01*
X-8057715Y-6373780D01*
X-7810096Y-6192827D02*
X-7791049Y-6192827D01*
X-7772001Y-6202351D01*
X-7762477Y-6211875D01*
X-7752953Y-6230923D01*
X-7743430Y-6269018D01*
X-7743430Y-6316637D01*
X-7752953Y-6354732D01*
X-7762477Y-6373780D01*
X-7772001Y-6383304D01*
X-7791049Y-6392827D01*
X-7810096Y-6392827D01*
X-7829144Y-6383304D01*
X-7838668Y-6373780D01*
X-7848191Y-6354732D01*
X-7857715Y-6316637D01*
X-7857715Y-6269018D01*
X-7848191Y-6230923D01*
X-7838668Y-6211875D01*
X-7829144Y-6202351D01*
X-7810096Y-6192827D01*
X-7562477Y-6192827D02*
X-7657715Y-6192827D01*
X-7667239Y-6288065D01*
X-7657715Y-6278542D01*
X-7638668Y-6269018D01*
X-7591049Y-6269018D01*
X-7572001Y-6278542D01*
X-7562477Y-6288065D01*
X-7552953Y-6307113D01*
X-7552953Y-6354732D01*
X-7562477Y-6373780D01*
X-7572001Y-6383304D01*
X-7591049Y-6392827D01*
X-7638668Y-6392827D01*
X-7657715Y-6383304D01*
X-7667239Y-6373780D01*
X-7467239Y-6392827D02*
X-7467239Y-6259494D01*
X-7467239Y-6278542D02*
X-7457715Y-6269018D01*
X-7438668Y-6259494D01*
X-7410096Y-6259494D01*
X-7391049Y-6269018D01*
X-7381525Y-6288065D01*
X-7381525Y-6392827D01*
X-7381525Y-6288065D02*
X-7372001Y-6269018D01*
X-7352953Y-6259494D01*
X-7324382Y-6259494D01*
X-7305334Y-6269018D01*
X-7295811Y-6288065D01*
X-7295811Y-6392827D01*
X-7200572Y-6392827D02*
X-7200572Y-6259494D01*
X-7200572Y-6278542D02*
X-7191049Y-6269018D01*
X-7172001Y-6259494D01*
X-7143430Y-6259494D01*
X-7124382Y-6269018D01*
X-7114858Y-6288065D01*
X-7114858Y-6392827D01*
X-7114858Y-6288065D02*
X-7105334Y-6269018D01*
X-7086287Y-6259494D01*
X-7057715Y-6259494D01*
X-7038668Y-6269018D01*
X-7029144Y-6288065D01*
X-7029144Y-6392827D01*
X-6638668Y-6183304D02*
X-6810096Y-6440446D01*
X-6381525Y-6192827D02*
X-6362477Y-6192827D01*
X-6343430Y-6202351D01*
X-6333906Y-6211875D01*
X-6324382Y-6230923D01*
X-6314858Y-6269018D01*
X-6314858Y-6316637D01*
X-6324382Y-6354732D01*
X-6333906Y-6373780D01*
X-6343430Y-6383304D01*
X-6362477Y-6392827D01*
X-6381525Y-6392827D01*
X-6400572Y-6383304D01*
X-6410096Y-6373780D01*
X-6419620Y-6354732D01*
X-6429144Y-6316637D01*
X-6429144Y-6269018D01*
X-6419620Y-6230923D01*
X-6410096Y-6211875D01*
X-6400572Y-6202351D01*
X-6381525Y-6192827D01*
X-6229144Y-6373780D02*
X-6219620Y-6383304D01*
X-6229144Y-6392827D01*
X-6238668Y-6383304D01*
X-6229144Y-6373780D01*
X-6229144Y-6392827D01*
X-6095811Y-6192827D02*
X-6076763Y-6192827D01*
X-6057715Y-6202351D01*
X-6048191Y-6211875D01*
X-6038668Y-6230923D01*
X-6029144Y-6269018D01*
X-6029144Y-6316637D01*
X-6038668Y-6354732D01*
X-6048191Y-6373780D01*
X-6057715Y-6383304D01*
X-6076763Y-6392827D01*
X-6095811Y-6392827D01*
X-6114858Y-6383304D01*
X-6124382Y-6373780D01*
X-6133906Y-6354732D01*
X-6143430Y-6316637D01*
X-6143430Y-6269018D01*
X-6133906Y-6230923D01*
X-6124382Y-6211875D01*
X-6114858Y-6202351D01*
X-6095811Y-6192827D01*
X-5838668Y-6392827D02*
X-5952953Y-6392827D01*
X-5895811Y-6392827D02*
X-5895811Y-6192827D01*
X-5914858Y-6221399D01*
X-5933906Y-6240446D01*
X-5952953Y-6249970D01*
X-5762477Y-6211875D02*
X-5752953Y-6202351D01*
X-5733906Y-6192827D01*
X-5686287Y-6192827D01*
X-5667239Y-6202351D01*
X-5657715Y-6211875D01*
X-5648191Y-6230923D01*
X-5648191Y-6249970D01*
X-5657715Y-6278542D01*
X-5772001Y-6392827D01*
X-5648191Y-6392827D01*
X-5524382Y-6192827D02*
X-5505334Y-6192827D01*
X-5486287Y-6202351D01*
X-5476763Y-6211875D01*
X-5467239Y-6230923D01*
X-5457715Y-6269018D01*
X-5457715Y-6316637D01*
X-5467239Y-6354732D01*
X-5476763Y-6373780D01*
X-5486287Y-6383304D01*
X-5505334Y-6392827D01*
X-5524382Y-6392827D01*
X-5543430Y-6383304D01*
X-5552953Y-6373780D01*
X-5562477Y-6354732D01*
X-5572001Y-6316637D01*
X-5572001Y-6269018D01*
X-5562477Y-6230923D01*
X-5552953Y-6211875D01*
X-5543430Y-6202351D01*
X-5524382Y-6192827D01*
X-5381525Y-6192827D02*
X-5381525Y-6230923D01*
X-5305334Y-6192827D02*
X-5305334Y-6230923D01*
X-5010096Y-6469018D02*
X-5019620Y-6459494D01*
X-5038668Y-6430923D01*
X-5048192Y-6411875D01*
X-5057715Y-6383304D01*
X-5067239Y-6335685D01*
X-5067239Y-6297589D01*
X-5057715Y-6249970D01*
X-5048192Y-6221399D01*
X-5038668Y-6202351D01*
X-5019620Y-6173780D01*
X-5010096Y-6164256D01*
X-4829144Y-6392827D02*
X-4943430Y-6392827D01*
X-4886287Y-6392827D02*
X-4886287Y-6192827D01*
X-4905334Y-6221399D01*
X-4924382Y-6240446D01*
X-4943430Y-6249970D01*
X-4638668Y-6392827D02*
X-4752953Y-6392827D01*
X-4695811Y-6392827D02*
X-4695811Y-6192827D01*
X-4714858Y-6221399D01*
X-4733906Y-6240446D01*
X-4752953Y-6249970D01*
X-4514858Y-6192827D02*
X-4495811Y-6192827D01*
X-4476763Y-6202351D01*
X-4467239Y-6211875D01*
X-4457715Y-6230923D01*
X-4448192Y-6269018D01*
X-4448192Y-6316637D01*
X-4457715Y-6354732D01*
X-4467239Y-6373780D01*
X-4476763Y-6383304D01*
X-4495811Y-6392827D01*
X-4514858Y-6392827D01*
X-4533906Y-6383304D01*
X-4543430Y-6373780D01*
X-4552953Y-6354732D01*
X-4562477Y-6316637D01*
X-4562477Y-6269018D01*
X-4552953Y-6230923D01*
X-4543430Y-6211875D01*
X-4533906Y-6202351D01*
X-4514858Y-6192827D01*
X-4210096Y-6392827D02*
X-4210096Y-6192827D01*
X-4124382Y-6392827D02*
X-4124382Y-6288065D01*
X-4133906Y-6269018D01*
X-4152953Y-6259494D01*
X-4181525Y-6259494D01*
X-4200573Y-6269018D01*
X-4210096Y-6278542D01*
X-4000572Y-6392827D02*
X-4019620Y-6383304D01*
X-4029144Y-6373780D01*
X-4038668Y-6354732D01*
X-4038668Y-6297589D01*
X-4029144Y-6278542D01*
X-4019620Y-6269018D01*
X-4000572Y-6259494D01*
X-3972001Y-6259494D01*
X-3952953Y-6269018D01*
X-3943430Y-6278542D01*
X-3933906Y-6297589D01*
X-3933906Y-6354732D01*
X-3943430Y-6373780D01*
X-3952953Y-6383304D01*
X-3972001Y-6392827D01*
X-4000572Y-6392827D01*
X-3819620Y-6392827D02*
X-3838668Y-6383304D01*
X-3848191Y-6364256D01*
X-3848191Y-6192827D01*
X-3667239Y-6383304D02*
X-3686287Y-6392827D01*
X-3724382Y-6392827D01*
X-3743430Y-6383304D01*
X-3752953Y-6364256D01*
X-3752953Y-6288065D01*
X-3743430Y-6269018D01*
X-3724382Y-6259494D01*
X-3686287Y-6259494D01*
X-3667239Y-6269018D01*
X-3657715Y-6288065D01*
X-3657715Y-6307113D01*
X-3752953Y-6326161D01*
X-3581525Y-6383304D02*
X-3562477Y-6392827D01*
X-3524382Y-6392827D01*
X-3505334Y-6383304D01*
X-3495811Y-6364256D01*
X-3495811Y-6354732D01*
X-3505334Y-6335685D01*
X-3524382Y-6326161D01*
X-3552953Y-6326161D01*
X-3572001Y-6316637D01*
X-3581525Y-6297589D01*
X-3581525Y-6288065D01*
X-3572001Y-6269018D01*
X-3552953Y-6259494D01*
X-3524382Y-6259494D01*
X-3505334Y-6269018D01*
X-3429144Y-6469018D02*
X-3419620Y-6459494D01*
X-3400572Y-6430923D01*
X-3391049Y-6411875D01*
X-3381525Y-6383304D01*
X-3372001Y-6335685D01*
X-3372001Y-6297589D01*
X-3381525Y-6249970D01*
X-3391049Y-6221399D01*
X-3400572Y-6202351D01*
X-3419620Y-6173780D01*
X-3429144Y-6164256D01*
D13*
X-8582001Y-6566351D02*
G75*
G03*
X-8582001Y-6566351I-25000J0D01*
G01*
D11*
X-8286287Y-6456827D02*
X-8267239Y-6456827D01*
X-8248191Y-6466351D01*
X-8238668Y-6475875D01*
X-8229144Y-6494923D01*
X-8219620Y-6533018D01*
X-8219620Y-6580637D01*
X-8229144Y-6618732D01*
X-8238668Y-6637780D01*
X-8248191Y-6647304D01*
X-8267239Y-6656827D01*
X-8286287Y-6656827D01*
X-8305334Y-6647304D01*
X-8314858Y-6637780D01*
X-8324382Y-6618732D01*
X-8333906Y-6580637D01*
X-8333906Y-6533018D01*
X-8324382Y-6494923D01*
X-8314858Y-6475875D01*
X-8305334Y-6466351D01*
X-8286287Y-6456827D01*
X-8133906Y-6637780D02*
X-8124382Y-6647304D01*
X-8133906Y-6656827D01*
X-8143430Y-6647304D01*
X-8133906Y-6637780D01*
X-8133906Y-6656827D01*
X-7943430Y-6456827D02*
X-8038668Y-6456827D01*
X-8048191Y-6552065D01*
X-8038668Y-6542542D01*
X-8019620Y-6533018D01*
X-7972001Y-6533018D01*
X-7952953Y-6542542D01*
X-7943430Y-6552065D01*
X-7933906Y-6571113D01*
X-7933906Y-6618732D01*
X-7943430Y-6637780D01*
X-7952953Y-6647304D01*
X-7972001Y-6656827D01*
X-8019620Y-6656827D01*
X-8038668Y-6647304D01*
X-8048191Y-6637780D01*
X-7810096Y-6456827D02*
X-7791049Y-6456827D01*
X-7772001Y-6466351D01*
X-7762477Y-6475875D01*
X-7752953Y-6494923D01*
X-7743430Y-6533018D01*
X-7743430Y-6580637D01*
X-7752953Y-6618732D01*
X-7762477Y-6637780D01*
X-7772001Y-6647304D01*
X-7791049Y-6656827D01*
X-7810096Y-6656827D01*
X-7829144Y-6647304D01*
X-7838668Y-6637780D01*
X-7848191Y-6618732D01*
X-7857715Y-6580637D01*
X-7857715Y-6533018D01*
X-7848191Y-6494923D01*
X-7838668Y-6475875D01*
X-7829144Y-6466351D01*
X-7810096Y-6456827D01*
X-7619620Y-6456827D02*
X-7600572Y-6456827D01*
X-7581525Y-6466351D01*
X-7572001Y-6475875D01*
X-7562477Y-6494923D01*
X-7552953Y-6533018D01*
X-7552953Y-6580637D01*
X-7562477Y-6618732D01*
X-7572001Y-6637780D01*
X-7581525Y-6647304D01*
X-7600572Y-6656827D01*
X-7619620Y-6656827D01*
X-7638668Y-6647304D01*
X-7648191Y-6637780D01*
X-7657715Y-6618732D01*
X-7667239Y-6580637D01*
X-7667239Y-6533018D01*
X-7657715Y-6494923D01*
X-7648191Y-6475875D01*
X-7638668Y-6466351D01*
X-7619620Y-6456827D01*
X-7467239Y-6656827D02*
X-7467239Y-6523494D01*
X-7467239Y-6542542D02*
X-7457715Y-6533018D01*
X-7438668Y-6523494D01*
X-7410096Y-6523494D01*
X-7391049Y-6533018D01*
X-7381525Y-6552065D01*
X-7381525Y-6656827D01*
X-7381525Y-6552065D02*
X-7372001Y-6533018D01*
X-7352953Y-6523494D01*
X-7324382Y-6523494D01*
X-7305334Y-6533018D01*
X-7295811Y-6552065D01*
X-7295811Y-6656827D01*
X-7200572Y-6656827D02*
X-7200572Y-6523494D01*
X-7200572Y-6542542D02*
X-7191049Y-6533018D01*
X-7172001Y-6523494D01*
X-7143430Y-6523494D01*
X-7124382Y-6533018D01*
X-7114858Y-6552065D01*
X-7114858Y-6656827D01*
X-7114858Y-6552065D02*
X-7105334Y-6533018D01*
X-7086287Y-6523494D01*
X-7057715Y-6523494D01*
X-7038668Y-6533018D01*
X-7029144Y-6552065D01*
X-7029144Y-6656827D01*
X-6638668Y-6447304D02*
X-6810096Y-6704446D01*
X-6381525Y-6456827D02*
X-6362477Y-6456827D01*
X-6343430Y-6466351D01*
X-6333906Y-6475875D01*
X-6324382Y-6494923D01*
X-6314858Y-6533018D01*
X-6314858Y-6580637D01*
X-6324382Y-6618732D01*
X-6333906Y-6637780D01*
X-6343430Y-6647304D01*
X-6362477Y-6656827D01*
X-6381525Y-6656827D01*
X-6400572Y-6647304D01*
X-6410096Y-6637780D01*
X-6419620Y-6618732D01*
X-6429144Y-6580637D01*
X-6429144Y-6533018D01*
X-6419620Y-6494923D01*
X-6410096Y-6475875D01*
X-6400572Y-6466351D01*
X-6381525Y-6456827D01*
X-6229144Y-6637780D02*
X-6219620Y-6647304D01*
X-6229144Y-6656827D01*
X-6238668Y-6647304D01*
X-6229144Y-6637780D01*
X-6229144Y-6656827D01*
X-6095811Y-6456827D02*
X-6076763Y-6456827D01*
X-6057715Y-6466351D01*
X-6048191Y-6475875D01*
X-6038668Y-6494923D01*
X-6029144Y-6533018D01*
X-6029144Y-6580637D01*
X-6038668Y-6618732D01*
X-6048191Y-6637780D01*
X-6057715Y-6647304D01*
X-6076763Y-6656827D01*
X-6095811Y-6656827D01*
X-6114858Y-6647304D01*
X-6124382Y-6637780D01*
X-6133906Y-6618732D01*
X-6143430Y-6580637D01*
X-6143430Y-6533018D01*
X-6133906Y-6494923D01*
X-6124382Y-6475875D01*
X-6114858Y-6466351D01*
X-6095811Y-6456827D01*
X-5838668Y-6656827D02*
X-5952953Y-6656827D01*
X-5895811Y-6656827D02*
X-5895811Y-6456827D01*
X-5914858Y-6485399D01*
X-5933906Y-6504446D01*
X-5952953Y-6513970D01*
X-5743430Y-6656827D02*
X-5705334Y-6656827D01*
X-5686287Y-6647304D01*
X-5676763Y-6637780D01*
X-5657715Y-6609208D01*
X-5648191Y-6571113D01*
X-5648191Y-6494923D01*
X-5657715Y-6475875D01*
X-5667239Y-6466351D01*
X-5686287Y-6456827D01*
X-5724382Y-6456827D01*
X-5743430Y-6466351D01*
X-5752953Y-6475875D01*
X-5762477Y-6494923D01*
X-5762477Y-6542542D01*
X-5752953Y-6561589D01*
X-5743430Y-6571113D01*
X-5724382Y-6580637D01*
X-5686287Y-6580637D01*
X-5667239Y-6571113D01*
X-5657715Y-6561589D01*
X-5648191Y-6542542D01*
X-5581525Y-6456827D02*
X-5448192Y-6456827D01*
X-5533906Y-6656827D01*
X-5381525Y-6456827D02*
X-5381525Y-6494923D01*
X-5305334Y-6456827D02*
X-5305334Y-6494923D01*
X-5010096Y-6733018D02*
X-5019620Y-6723494D01*
X-5038668Y-6694923D01*
X-5048192Y-6675875D01*
X-5057715Y-6647304D01*
X-5067239Y-6599685D01*
X-5067239Y-6561589D01*
X-5057715Y-6513970D01*
X-5048192Y-6485399D01*
X-5038668Y-6466351D01*
X-5019620Y-6437780D01*
X-5010096Y-6428256D01*
X-4895811Y-6456827D02*
X-4876763Y-6456827D01*
X-4857715Y-6466351D01*
X-4848192Y-6475875D01*
X-4838668Y-6494923D01*
X-4829144Y-6533018D01*
X-4829144Y-6580637D01*
X-4838668Y-6618732D01*
X-4848192Y-6637780D01*
X-4857715Y-6647304D01*
X-4876763Y-6656827D01*
X-4895811Y-6656827D01*
X-4914858Y-6647304D01*
X-4924382Y-6637780D01*
X-4933906Y-6618732D01*
X-4943430Y-6580637D01*
X-4943430Y-6533018D01*
X-4933906Y-6494923D01*
X-4924382Y-6475875D01*
X-4914858Y-6466351D01*
X-4895811Y-6456827D01*
X-4591049Y-6656827D02*
X-4591049Y-6456827D01*
X-4505334Y-6656827D02*
X-4505334Y-6552065D01*
X-4514858Y-6533018D01*
X-4533906Y-6523494D01*
X-4562477Y-6523494D01*
X-4581525Y-6533018D01*
X-4591049Y-6542542D01*
X-4381525Y-6656827D02*
X-4400573Y-6647304D01*
X-4410096Y-6637780D01*
X-4419620Y-6618732D01*
X-4419620Y-6561589D01*
X-4410096Y-6542542D01*
X-4400573Y-6533018D01*
X-4381525Y-6523494D01*
X-4352953Y-6523494D01*
X-4333906Y-6533018D01*
X-4324382Y-6542542D01*
X-4314858Y-6561589D01*
X-4314858Y-6618732D01*
X-4324382Y-6637780D01*
X-4333906Y-6647304D01*
X-4352953Y-6656827D01*
X-4381525Y-6656827D01*
X-4200573Y-6656827D02*
X-4219620Y-6647304D01*
X-4229144Y-6628256D01*
X-4229144Y-6456827D01*
X-4048191Y-6647304D02*
X-4067239Y-6656827D01*
X-4105334Y-6656827D01*
X-4124382Y-6647304D01*
X-4133906Y-6628256D01*
X-4133906Y-6552065D01*
X-4124382Y-6533018D01*
X-4105334Y-6523494D01*
X-4067239Y-6523494D01*
X-4048191Y-6533018D01*
X-4038668Y-6552065D01*
X-4038668Y-6571113D01*
X-4133906Y-6590161D01*
X-3962477Y-6647304D02*
X-3943430Y-6656827D01*
X-3905334Y-6656827D01*
X-3886287Y-6647304D01*
X-3876763Y-6628256D01*
X-3876763Y-6618732D01*
X-3886287Y-6599685D01*
X-3905334Y-6590161D01*
X-3933906Y-6590161D01*
X-3952953Y-6580637D01*
X-3962477Y-6561589D01*
X-3962477Y-6552065D01*
X-3952953Y-6533018D01*
X-3933906Y-6523494D01*
X-3905334Y-6523494D01*
X-3886287Y-6533018D01*
X-3638668Y-6580637D02*
X-3486287Y-6580637D01*
X-3562477Y-6656827D02*
X-3562477Y-6504446D01*
X-3133906Y-6656827D02*
X-3248191Y-6656827D01*
X-3191049Y-6656827D02*
X-3191049Y-6456827D01*
X-3210096Y-6485399D01*
X-3229144Y-6504446D01*
X-3248191Y-6513970D01*
X-2962477Y-6523494D02*
X-2962477Y-6656827D01*
X-3010096Y-6447304D02*
X-3057715Y-6590161D01*
X-2933906Y-6590161D01*
X-2714858Y-6647304D02*
X-2695811Y-6656827D01*
X-2657715Y-6656827D01*
X-2638668Y-6647304D01*
X-2629144Y-6628256D01*
X-2629144Y-6618732D01*
X-2638668Y-6599685D01*
X-2657715Y-6590161D01*
X-2686287Y-6590161D01*
X-2705334Y-6580637D01*
X-2714858Y-6561589D01*
X-2714858Y-6552065D01*
X-2705334Y-6533018D01*
X-2686287Y-6523494D01*
X-2657715Y-6523494D01*
X-2638668Y-6533018D01*
X-2514858Y-6656827D02*
X-2533906Y-6647304D01*
X-2543430Y-6628256D01*
X-2543430Y-6456827D01*
X-2410096Y-6656827D02*
X-2429144Y-6647304D01*
X-2438668Y-6637780D01*
X-2448192Y-6618732D01*
X-2448192Y-6561589D01*
X-2438668Y-6542542D01*
X-2429144Y-6533018D01*
X-2410096Y-6523494D01*
X-2381525Y-6523494D01*
X-2362477Y-6533018D01*
X-2352953Y-6542542D01*
X-2343430Y-6561589D01*
X-2343430Y-6618732D01*
X-2352953Y-6637780D01*
X-2362477Y-6647304D01*
X-2381525Y-6656827D01*
X-2410096Y-6656827D01*
X-2286287Y-6523494D02*
X-2210096Y-6523494D01*
X-2257715Y-6456827D02*
X-2257715Y-6628256D01*
X-2248192Y-6647304D01*
X-2229144Y-6656827D01*
X-2210096Y-6656827D01*
X-2152953Y-6647304D02*
X-2133906Y-6656827D01*
X-2095811Y-6656827D01*
X-2076763Y-6647304D01*
X-2067239Y-6628256D01*
X-2067239Y-6618732D01*
X-2076763Y-6599685D01*
X-2095811Y-6590161D01*
X-2124382Y-6590161D01*
X-2143430Y-6580637D01*
X-2152953Y-6561589D01*
X-2152953Y-6552065D01*
X-2143430Y-6533018D01*
X-2124382Y-6523494D01*
X-2095811Y-6523494D01*
X-2076763Y-6533018D01*
X-2000572Y-6733018D02*
X-1991049Y-6723494D01*
X-1972001Y-6694923D01*
X-1962477Y-6675875D01*
X-1952953Y-6647304D01*
X-1943430Y-6599685D01*
X-1943430Y-6561589D01*
X-1952953Y-6513970D01*
X-1962477Y-6485399D01*
X-1972001Y-6466351D01*
X-1991049Y-6437780D01*
X-2000572Y-6428256D01*
D14*
X-8632001Y-6780351D02*
X-8632001Y-6880351D01*
X-8682001Y-6830351D02*
X-8582001Y-6830351D01*
D11*
X-8219620Y-6920827D02*
X-8333906Y-6920827D01*
X-8276763Y-6920827D02*
X-8276763Y-6720827D01*
X-8295811Y-6749399D01*
X-8314858Y-6768446D01*
X-8333906Y-6777970D01*
X-8133906Y-6901780D02*
X-8124382Y-6911304D01*
X-8133906Y-6920827D01*
X-8143430Y-6911304D01*
X-8133906Y-6901780D01*
X-8133906Y-6920827D01*
X-8000572Y-6720827D02*
X-7981525Y-6720827D01*
X-7962477Y-6730351D01*
X-7952953Y-6739875D01*
X-7943430Y-6758923D01*
X-7933906Y-6797018D01*
X-7933906Y-6844637D01*
X-7943430Y-6882732D01*
X-7952953Y-6901780D01*
X-7962477Y-6911304D01*
X-7981525Y-6920827D01*
X-8000572Y-6920827D01*
X-8019620Y-6911304D01*
X-8029144Y-6901780D01*
X-8038668Y-6882732D01*
X-8048191Y-6844637D01*
X-8048191Y-6797018D01*
X-8038668Y-6758923D01*
X-8029144Y-6739875D01*
X-8019620Y-6730351D01*
X-8000572Y-6720827D01*
X-7810096Y-6720827D02*
X-7791049Y-6720827D01*
X-7772001Y-6730351D01*
X-7762477Y-6739875D01*
X-7752953Y-6758923D01*
X-7743430Y-6797018D01*
X-7743430Y-6844637D01*
X-7752953Y-6882732D01*
X-7762477Y-6901780D01*
X-7772001Y-6911304D01*
X-7791049Y-6920827D01*
X-7810096Y-6920827D01*
X-7829144Y-6911304D01*
X-7838668Y-6901780D01*
X-7848191Y-6882732D01*
X-7857715Y-6844637D01*
X-7857715Y-6797018D01*
X-7848191Y-6758923D01*
X-7838668Y-6739875D01*
X-7829144Y-6730351D01*
X-7810096Y-6720827D01*
X-7619620Y-6720827D02*
X-7600572Y-6720827D01*
X-7581525Y-6730351D01*
X-7572001Y-6739875D01*
X-7562477Y-6758923D01*
X-7552953Y-6797018D01*
X-7552953Y-6844637D01*
X-7562477Y-6882732D01*
X-7572001Y-6901780D01*
X-7581525Y-6911304D01*
X-7600572Y-6920827D01*
X-7619620Y-6920827D01*
X-7638668Y-6911304D01*
X-7648191Y-6901780D01*
X-7657715Y-6882732D01*
X-7667239Y-6844637D01*
X-7667239Y-6797018D01*
X-7657715Y-6758923D01*
X-7648191Y-6739875D01*
X-7638668Y-6730351D01*
X-7619620Y-6720827D01*
X-7467239Y-6920827D02*
X-7467239Y-6787494D01*
X-7467239Y-6806542D02*
X-7457715Y-6797018D01*
X-7438668Y-6787494D01*
X-7410096Y-6787494D01*
X-7391049Y-6797018D01*
X-7381525Y-6816065D01*
X-7381525Y-6920827D01*
X-7381525Y-6816065D02*
X-7372001Y-6797018D01*
X-7352953Y-6787494D01*
X-7324382Y-6787494D01*
X-7305334Y-6797018D01*
X-7295811Y-6816065D01*
X-7295811Y-6920827D01*
X-7200572Y-6920827D02*
X-7200572Y-6787494D01*
X-7200572Y-6806542D02*
X-7191049Y-6797018D01*
X-7172001Y-6787494D01*
X-7143430Y-6787494D01*
X-7124382Y-6797018D01*
X-7114858Y-6816065D01*
X-7114858Y-6920827D01*
X-7114858Y-6816065D02*
X-7105334Y-6797018D01*
X-7086287Y-6787494D01*
X-7057715Y-6787494D01*
X-7038668Y-6797018D01*
X-7029144Y-6816065D01*
X-7029144Y-6920827D01*
X-6638668Y-6711304D02*
X-6810096Y-6968446D01*
X-6381525Y-6720827D02*
X-6362477Y-6720827D01*
X-6343430Y-6730351D01*
X-6333906Y-6739875D01*
X-6324382Y-6758923D01*
X-6314858Y-6797018D01*
X-6314858Y-6844637D01*
X-6324382Y-6882732D01*
X-6333906Y-6901780D01*
X-6343430Y-6911304D01*
X-6362477Y-6920827D01*
X-6381525Y-6920827D01*
X-6400572Y-6911304D01*
X-6410096Y-6901780D01*
X-6419620Y-6882732D01*
X-6429144Y-6844637D01*
X-6429144Y-6797018D01*
X-6419620Y-6758923D01*
X-6410096Y-6739875D01*
X-6400572Y-6730351D01*
X-6381525Y-6720827D01*
X-6229144Y-6901780D02*
X-6219620Y-6911304D01*
X-6229144Y-6920827D01*
X-6238668Y-6911304D01*
X-6229144Y-6901780D01*
X-6229144Y-6920827D01*
X-6095811Y-6720827D02*
X-6076763Y-6720827D01*
X-6057715Y-6730351D01*
X-6048191Y-6739875D01*
X-6038668Y-6758923D01*
X-6029144Y-6797018D01*
X-6029144Y-6844637D01*
X-6038668Y-6882732D01*
X-6048191Y-6901780D01*
X-6057715Y-6911304D01*
X-6076763Y-6920827D01*
X-6095811Y-6920827D01*
X-6114858Y-6911304D01*
X-6124382Y-6901780D01*
X-6133906Y-6882732D01*
X-6143430Y-6844637D01*
X-6143430Y-6797018D01*
X-6133906Y-6758923D01*
X-6124382Y-6739875D01*
X-6114858Y-6730351D01*
X-6095811Y-6720827D01*
X-5962477Y-6720827D02*
X-5838668Y-6720827D01*
X-5905334Y-6797018D01*
X-5876763Y-6797018D01*
X-5857715Y-6806542D01*
X-5848191Y-6816065D01*
X-5838668Y-6835113D01*
X-5838668Y-6882732D01*
X-5848191Y-6901780D01*
X-5857715Y-6911304D01*
X-5876763Y-6920827D01*
X-5933906Y-6920827D01*
X-5952953Y-6911304D01*
X-5962477Y-6901780D01*
X-5743430Y-6920827D02*
X-5705334Y-6920827D01*
X-5686287Y-6911304D01*
X-5676763Y-6901780D01*
X-5657715Y-6873208D01*
X-5648191Y-6835113D01*
X-5648191Y-6758923D01*
X-5657715Y-6739875D01*
X-5667239Y-6730351D01*
X-5686287Y-6720827D01*
X-5724382Y-6720827D01*
X-5743430Y-6730351D01*
X-5752953Y-6739875D01*
X-5762477Y-6758923D01*
X-5762477Y-6806542D01*
X-5752953Y-6825589D01*
X-5743430Y-6835113D01*
X-5724382Y-6844637D01*
X-5686287Y-6844637D01*
X-5667239Y-6835113D01*
X-5657715Y-6825589D01*
X-5648191Y-6806542D01*
X-5476763Y-6787494D02*
X-5476763Y-6920827D01*
X-5524382Y-6711304D02*
X-5572001Y-6854161D01*
X-5448192Y-6854161D01*
X-5381525Y-6720827D02*
X-5381525Y-6758923D01*
X-5305334Y-6720827D02*
X-5305334Y-6758923D01*
X-5010096Y-6997018D02*
X-5019620Y-6987494D01*
X-5038668Y-6958923D01*
X-5048192Y-6939875D01*
X-5057715Y-6911304D01*
X-5067239Y-6863685D01*
X-5067239Y-6825589D01*
X-5057715Y-6777970D01*
X-5048192Y-6749399D01*
X-5038668Y-6730351D01*
X-5019620Y-6701780D01*
X-5010096Y-6692256D01*
X-4952953Y-6720827D02*
X-4829144Y-6720827D01*
X-4895811Y-6797018D01*
X-4867239Y-6797018D01*
X-4848192Y-6806542D01*
X-4838668Y-6816065D01*
X-4829144Y-6835113D01*
X-4829144Y-6882732D01*
X-4838668Y-6901780D01*
X-4848192Y-6911304D01*
X-4867239Y-6920827D01*
X-4924382Y-6920827D01*
X-4943430Y-6911304D01*
X-4952953Y-6901780D01*
X-4752953Y-6739875D02*
X-4743430Y-6730351D01*
X-4724382Y-6720827D01*
X-4676763Y-6720827D01*
X-4657715Y-6730351D01*
X-4648192Y-6739875D01*
X-4638668Y-6758923D01*
X-4638668Y-6777970D01*
X-4648192Y-6806542D01*
X-4762477Y-6920827D01*
X-4638668Y-6920827D01*
X-4400573Y-6920827D02*
X-4400573Y-6720827D01*
X-4314858Y-6920827D02*
X-4314858Y-6816065D01*
X-4324382Y-6797018D01*
X-4343430Y-6787494D01*
X-4372001Y-6787494D01*
X-4391049Y-6797018D01*
X-4400573Y-6806542D01*
X-4191049Y-6920827D02*
X-4210096Y-6911304D01*
X-4219620Y-6901780D01*
X-4229144Y-6882732D01*
X-4229144Y-6825589D01*
X-4219620Y-6806542D01*
X-4210096Y-6797018D01*
X-4191049Y-6787494D01*
X-4162477Y-6787494D01*
X-4143430Y-6797018D01*
X-4133906Y-6806542D01*
X-4124382Y-6825589D01*
X-4124382Y-6882732D01*
X-4133906Y-6901780D01*
X-4143430Y-6911304D01*
X-4162477Y-6920827D01*
X-4191049Y-6920827D01*
X-4010096Y-6920827D02*
X-4029144Y-6911304D01*
X-4038668Y-6892256D01*
X-4038668Y-6720827D01*
X-3857715Y-6911304D02*
X-3876763Y-6920827D01*
X-3914858Y-6920827D01*
X-3933906Y-6911304D01*
X-3943430Y-6892256D01*
X-3943430Y-6816065D01*
X-3933906Y-6797018D01*
X-3914858Y-6787494D01*
X-3876763Y-6787494D01*
X-3857715Y-6797018D01*
X-3848191Y-6816065D01*
X-3848191Y-6835113D01*
X-3943430Y-6854161D01*
X-3772001Y-6911304D02*
X-3752953Y-6920827D01*
X-3714858Y-6920827D01*
X-3695811Y-6911304D01*
X-3686287Y-6892256D01*
X-3686287Y-6882732D01*
X-3695811Y-6863685D01*
X-3714858Y-6854161D01*
X-3743430Y-6854161D01*
X-3762477Y-6844637D01*
X-3772001Y-6825589D01*
X-3772001Y-6816065D01*
X-3762477Y-6797018D01*
X-3743430Y-6787494D01*
X-3714858Y-6787494D01*
X-3695811Y-6797018D01*
X-3619620Y-6997018D02*
X-3610096Y-6987494D01*
X-3591049Y-6958923D01*
X-3581525Y-6939875D01*
X-3572001Y-6911304D01*
X-3562477Y-6863685D01*
X-3562477Y-6825589D01*
X-3572001Y-6777970D01*
X-3581525Y-6749399D01*
X-3591049Y-6730351D01*
X-3610096Y-6701780D01*
X-3619620Y-6692256D01*
D15*
X-8596880Y-7130273D02*
X-8596880Y-7058430D01*
X-8668723Y-7058430D01*
X-8668723Y-7130273D01*
X-8596880Y-7130273D01*
D11*
X-8219620Y-7184827D02*
X-8333906Y-7184827D01*
X-8276763Y-7184827D02*
X-8276763Y-6984827D01*
X-8295811Y-7013399D01*
X-8314858Y-7032446D01*
X-8333906Y-7041970D01*
X-8133906Y-7165780D02*
X-8124382Y-7175304D01*
X-8133906Y-7184827D01*
X-8143430Y-7175304D01*
X-8133906Y-7165780D01*
X-8133906Y-7184827D01*
X-8000572Y-6984827D02*
X-7981525Y-6984827D01*
X-7962477Y-6994351D01*
X-7952953Y-7003875D01*
X-7943430Y-7022923D01*
X-7933906Y-7061018D01*
X-7933906Y-7108637D01*
X-7943430Y-7146732D01*
X-7952953Y-7165780D01*
X-7962477Y-7175304D01*
X-7981525Y-7184827D01*
X-8000572Y-7184827D01*
X-8019620Y-7175304D01*
X-8029144Y-7165780D01*
X-8038668Y-7146732D01*
X-8048191Y-7108637D01*
X-8048191Y-7061018D01*
X-8038668Y-7022923D01*
X-8029144Y-7003875D01*
X-8019620Y-6994351D01*
X-8000572Y-6984827D01*
X-7743430Y-7184827D02*
X-7857715Y-7184827D01*
X-7800572Y-7184827D02*
X-7800572Y-6984827D01*
X-7819620Y-7013399D01*
X-7838668Y-7032446D01*
X-7857715Y-7041970D01*
X-7572001Y-6984827D02*
X-7610096Y-6984827D01*
X-7629144Y-6994351D01*
X-7638668Y-7003875D01*
X-7657715Y-7032446D01*
X-7667239Y-7070542D01*
X-7667239Y-7146732D01*
X-7657715Y-7165780D01*
X-7648191Y-7175304D01*
X-7629144Y-7184827D01*
X-7591049Y-7184827D01*
X-7572001Y-7175304D01*
X-7562477Y-7165780D01*
X-7552953Y-7146732D01*
X-7552953Y-7099113D01*
X-7562477Y-7080065D01*
X-7572001Y-7070542D01*
X-7591049Y-7061018D01*
X-7629144Y-7061018D01*
X-7648191Y-7070542D01*
X-7657715Y-7080065D01*
X-7667239Y-7099113D01*
X-7467239Y-7184827D02*
X-7467239Y-7051494D01*
X-7467239Y-7070542D02*
X-7457715Y-7061018D01*
X-7438668Y-7051494D01*
X-7410096Y-7051494D01*
X-7391049Y-7061018D01*
X-7381525Y-7080065D01*
X-7381525Y-7184827D01*
X-7381525Y-7080065D02*
X-7372001Y-7061018D01*
X-7352953Y-7051494D01*
X-7324382Y-7051494D01*
X-7305334Y-7061018D01*
X-7295811Y-7080065D01*
X-7295811Y-7184827D01*
X-7200572Y-7184827D02*
X-7200572Y-7051494D01*
X-7200572Y-7070542D02*
X-7191049Y-7061018D01*
X-7172001Y-7051494D01*
X-7143430Y-7051494D01*
X-7124382Y-7061018D01*
X-7114858Y-7080065D01*
X-7114858Y-7184827D01*
X-7114858Y-7080065D02*
X-7105334Y-7061018D01*
X-7086287Y-7051494D01*
X-7057715Y-7051494D01*
X-7038668Y-7061018D01*
X-7029144Y-7080065D01*
X-7029144Y-7184827D01*
X-6638668Y-6975304D02*
X-6810096Y-7232446D01*
X-6381525Y-6984827D02*
X-6362477Y-6984827D01*
X-6343430Y-6994351D01*
X-6333906Y-7003875D01*
X-6324382Y-7022923D01*
X-6314858Y-7061018D01*
X-6314858Y-7108637D01*
X-6324382Y-7146732D01*
X-6333906Y-7165780D01*
X-6343430Y-7175304D01*
X-6362477Y-7184827D01*
X-6381525Y-7184827D01*
X-6400572Y-7175304D01*
X-6410096Y-7165780D01*
X-6419620Y-7146732D01*
X-6429144Y-7108637D01*
X-6429144Y-7061018D01*
X-6419620Y-7022923D01*
X-6410096Y-7003875D01*
X-6400572Y-6994351D01*
X-6381525Y-6984827D01*
X-6229144Y-7165780D02*
X-6219620Y-7175304D01*
X-6229144Y-7184827D01*
X-6238668Y-7175304D01*
X-6229144Y-7165780D01*
X-6229144Y-7184827D01*
X-6095811Y-6984827D02*
X-6076763Y-6984827D01*
X-6057715Y-6994351D01*
X-6048191Y-7003875D01*
X-6038668Y-7022923D01*
X-6029144Y-7061018D01*
X-6029144Y-7108637D01*
X-6038668Y-7146732D01*
X-6048191Y-7165780D01*
X-6057715Y-7175304D01*
X-6076763Y-7184827D01*
X-6095811Y-7184827D01*
X-6114858Y-7175304D01*
X-6124382Y-7165780D01*
X-6133906Y-7146732D01*
X-6143430Y-7108637D01*
X-6143430Y-7061018D01*
X-6133906Y-7022923D01*
X-6124382Y-7003875D01*
X-6114858Y-6994351D01*
X-6095811Y-6984827D01*
X-5857715Y-7051494D02*
X-5857715Y-7184827D01*
X-5905334Y-6975304D02*
X-5952953Y-7118161D01*
X-5829144Y-7118161D01*
X-5714858Y-6984827D02*
X-5695811Y-6984827D01*
X-5676763Y-6994351D01*
X-5667239Y-7003875D01*
X-5657715Y-7022923D01*
X-5648191Y-7061018D01*
X-5648191Y-7108637D01*
X-5657715Y-7146732D01*
X-5667239Y-7165780D01*
X-5676763Y-7175304D01*
X-5695811Y-7184827D01*
X-5714858Y-7184827D01*
X-5733906Y-7175304D01*
X-5743430Y-7165780D01*
X-5752953Y-7146732D01*
X-5762477Y-7108637D01*
X-5762477Y-7061018D01*
X-5752953Y-7022923D01*
X-5743430Y-7003875D01*
X-5733906Y-6994351D01*
X-5714858Y-6984827D01*
X-5524382Y-6984827D02*
X-5505334Y-6984827D01*
X-5486287Y-6994351D01*
X-5476763Y-7003875D01*
X-5467239Y-7022923D01*
X-5457715Y-7061018D01*
X-5457715Y-7108637D01*
X-5467239Y-7146732D01*
X-5476763Y-7165780D01*
X-5486287Y-7175304D01*
X-5505334Y-7184827D01*
X-5524382Y-7184827D01*
X-5543430Y-7175304D01*
X-5552953Y-7165780D01*
X-5562477Y-7146732D01*
X-5572001Y-7108637D01*
X-5572001Y-7061018D01*
X-5562477Y-7022923D01*
X-5552953Y-7003875D01*
X-5543430Y-6994351D01*
X-5524382Y-6984827D01*
X-5381525Y-6984827D02*
X-5381525Y-7022923D01*
X-5305334Y-6984827D02*
X-5305334Y-7022923D01*
X-5010096Y-7261018D02*
X-5019620Y-7251494D01*
X-5038668Y-7222923D01*
X-5048192Y-7203875D01*
X-5057715Y-7175304D01*
X-5067239Y-7127685D01*
X-5067239Y-7089589D01*
X-5057715Y-7041970D01*
X-5048192Y-7013399D01*
X-5038668Y-6994351D01*
X-5019620Y-6965780D01*
X-5010096Y-6956256D01*
X-4848192Y-7051494D02*
X-4848192Y-7184827D01*
X-4895811Y-6975304D02*
X-4943430Y-7118161D01*
X-4819620Y-7118161D01*
X-4591049Y-7184827D02*
X-4591049Y-6984827D01*
X-4505334Y-7184827D02*
X-4505334Y-7080065D01*
X-4514858Y-7061018D01*
X-4533906Y-7051494D01*
X-4562477Y-7051494D01*
X-4581525Y-7061018D01*
X-4591049Y-7070542D01*
X-4381525Y-7184827D02*
X-4400573Y-7175304D01*
X-4410096Y-7165780D01*
X-4419620Y-7146732D01*
X-4419620Y-7089589D01*
X-4410096Y-7070542D01*
X-4400573Y-7061018D01*
X-4381525Y-7051494D01*
X-4352953Y-7051494D01*
X-4333906Y-7061018D01*
X-4324382Y-7070542D01*
X-4314858Y-7089589D01*
X-4314858Y-7146732D01*
X-4324382Y-7165780D01*
X-4333906Y-7175304D01*
X-4352953Y-7184827D01*
X-4381525Y-7184827D01*
X-4200573Y-7184827D02*
X-4219620Y-7175304D01*
X-4229144Y-7156256D01*
X-4229144Y-6984827D01*
X-4048191Y-7175304D02*
X-4067239Y-7184827D01*
X-4105334Y-7184827D01*
X-4124382Y-7175304D01*
X-4133906Y-7156256D01*
X-4133906Y-7080065D01*
X-4124382Y-7061018D01*
X-4105334Y-7051494D01*
X-4067239Y-7051494D01*
X-4048191Y-7061018D01*
X-4038668Y-7080065D01*
X-4038668Y-7099113D01*
X-4133906Y-7118161D01*
X-3962477Y-7175304D02*
X-3943430Y-7184827D01*
X-3905334Y-7184827D01*
X-3886287Y-7175304D01*
X-3876763Y-7156256D01*
X-3876763Y-7146732D01*
X-3886287Y-7127685D01*
X-3905334Y-7118161D01*
X-3933906Y-7118161D01*
X-3952953Y-7108637D01*
X-3962477Y-7089589D01*
X-3962477Y-7080065D01*
X-3952953Y-7061018D01*
X-3933906Y-7051494D01*
X-3905334Y-7051494D01*
X-3886287Y-7061018D01*
X-3810096Y-7261018D02*
X-3800572Y-7251494D01*
X-3781525Y-7222923D01*
X-3772001Y-7203875D01*
X-3762477Y-7175304D01*
X-3752953Y-7127685D01*
X-3752953Y-7089589D01*
X-3762477Y-7041970D01*
X-3772001Y-7013399D01*
X-3781525Y-6994351D01*
X-3800572Y-6965780D01*
X-3810096Y-6956256D01*
D16*
X-8657001Y-7433351D02*
X-8582001Y-7358351D01*
X-8657001Y-7283351D01*
X-8732001Y-7358351D01*
X-8657001Y-7433351D01*
D11*
X-8219620Y-7448827D02*
X-8333906Y-7448827D01*
X-8276763Y-7448827D02*
X-8276763Y-7248827D01*
X-8295811Y-7277399D01*
X-8314858Y-7296446D01*
X-8333906Y-7305970D01*
X-8133906Y-7429780D02*
X-8124382Y-7439304D01*
X-8133906Y-7448827D01*
X-8143430Y-7439304D01*
X-8133906Y-7429780D01*
X-8133906Y-7448827D01*
X-7943430Y-7248827D02*
X-8038668Y-7248827D01*
X-8048191Y-7344065D01*
X-8038668Y-7334542D01*
X-8019620Y-7325018D01*
X-7972001Y-7325018D01*
X-7952953Y-7334542D01*
X-7943430Y-7344065D01*
X-7933906Y-7363113D01*
X-7933906Y-7410732D01*
X-7943430Y-7429780D01*
X-7952953Y-7439304D01*
X-7972001Y-7448827D01*
X-8019620Y-7448827D01*
X-8038668Y-7439304D01*
X-8048191Y-7429780D01*
X-7810096Y-7248827D02*
X-7791049Y-7248827D01*
X-7772001Y-7258351D01*
X-7762477Y-7267875D01*
X-7752953Y-7286923D01*
X-7743430Y-7325018D01*
X-7743430Y-7372637D01*
X-7752953Y-7410732D01*
X-7762477Y-7429780D01*
X-7772001Y-7439304D01*
X-7791049Y-7448827D01*
X-7810096Y-7448827D01*
X-7829144Y-7439304D01*
X-7838668Y-7429780D01*
X-7848191Y-7410732D01*
X-7857715Y-7372637D01*
X-7857715Y-7325018D01*
X-7848191Y-7286923D01*
X-7838668Y-7267875D01*
X-7829144Y-7258351D01*
X-7810096Y-7248827D01*
X-7619620Y-7248827D02*
X-7600572Y-7248827D01*
X-7581525Y-7258351D01*
X-7572001Y-7267875D01*
X-7562477Y-7286923D01*
X-7552953Y-7325018D01*
X-7552953Y-7372637D01*
X-7562477Y-7410732D01*
X-7572001Y-7429780D01*
X-7581525Y-7439304D01*
X-7600572Y-7448827D01*
X-7619620Y-7448827D01*
X-7638668Y-7439304D01*
X-7648191Y-7429780D01*
X-7657715Y-7410732D01*
X-7667239Y-7372637D01*
X-7667239Y-7325018D01*
X-7657715Y-7286923D01*
X-7648191Y-7267875D01*
X-7638668Y-7258351D01*
X-7619620Y-7248827D01*
X-7467239Y-7448827D02*
X-7467239Y-7315494D01*
X-7467239Y-7334542D02*
X-7457715Y-7325018D01*
X-7438668Y-7315494D01*
X-7410096Y-7315494D01*
X-7391049Y-7325018D01*
X-7381525Y-7344065D01*
X-7381525Y-7448827D01*
X-7381525Y-7344065D02*
X-7372001Y-7325018D01*
X-7352953Y-7315494D01*
X-7324382Y-7315494D01*
X-7305334Y-7325018D01*
X-7295811Y-7344065D01*
X-7295811Y-7448827D01*
X-7200572Y-7448827D02*
X-7200572Y-7315494D01*
X-7200572Y-7334542D02*
X-7191049Y-7325018D01*
X-7172001Y-7315494D01*
X-7143430Y-7315494D01*
X-7124382Y-7325018D01*
X-7114858Y-7344065D01*
X-7114858Y-7448827D01*
X-7114858Y-7344065D02*
X-7105334Y-7325018D01*
X-7086287Y-7315494D01*
X-7057715Y-7315494D01*
X-7038668Y-7325018D01*
X-7029144Y-7344065D01*
X-7029144Y-7448827D01*
X-6638668Y-7239304D02*
X-6810096Y-7496446D01*
X-6381525Y-7248827D02*
X-6362477Y-7248827D01*
X-6343430Y-7258351D01*
X-6333906Y-7267875D01*
X-6324382Y-7286923D01*
X-6314858Y-7325018D01*
X-6314858Y-7372637D01*
X-6324382Y-7410732D01*
X-6333906Y-7429780D01*
X-6343430Y-7439304D01*
X-6362477Y-7448827D01*
X-6381525Y-7448827D01*
X-6400572Y-7439304D01*
X-6410096Y-7429780D01*
X-6419620Y-7410732D01*
X-6429144Y-7372637D01*
X-6429144Y-7325018D01*
X-6419620Y-7286923D01*
X-6410096Y-7267875D01*
X-6400572Y-7258351D01*
X-6381525Y-7248827D01*
X-6229144Y-7429780D02*
X-6219620Y-7439304D01*
X-6229144Y-7448827D01*
X-6238668Y-7439304D01*
X-6229144Y-7429780D01*
X-6229144Y-7448827D01*
X-6095811Y-7248827D02*
X-6076763Y-7248827D01*
X-6057715Y-7258351D01*
X-6048191Y-7267875D01*
X-6038668Y-7286923D01*
X-6029144Y-7325018D01*
X-6029144Y-7372637D01*
X-6038668Y-7410732D01*
X-6048191Y-7429780D01*
X-6057715Y-7439304D01*
X-6076763Y-7448827D01*
X-6095811Y-7448827D01*
X-6114858Y-7439304D01*
X-6124382Y-7429780D01*
X-6133906Y-7410732D01*
X-6143430Y-7372637D01*
X-6143430Y-7325018D01*
X-6133906Y-7286923D01*
X-6124382Y-7267875D01*
X-6114858Y-7258351D01*
X-6095811Y-7248827D01*
X-5848191Y-7248827D02*
X-5943430Y-7248827D01*
X-5952953Y-7344065D01*
X-5943430Y-7334542D01*
X-5924382Y-7325018D01*
X-5876763Y-7325018D01*
X-5857715Y-7334542D01*
X-5848191Y-7344065D01*
X-5838668Y-7363113D01*
X-5838668Y-7410732D01*
X-5848191Y-7429780D01*
X-5857715Y-7439304D01*
X-5876763Y-7448827D01*
X-5924382Y-7448827D01*
X-5943430Y-7439304D01*
X-5952953Y-7429780D01*
X-5743430Y-7448827D02*
X-5705334Y-7448827D01*
X-5686287Y-7439304D01*
X-5676763Y-7429780D01*
X-5657715Y-7401208D01*
X-5648191Y-7363113D01*
X-5648191Y-7286923D01*
X-5657715Y-7267875D01*
X-5667239Y-7258351D01*
X-5686287Y-7248827D01*
X-5724382Y-7248827D01*
X-5743430Y-7258351D01*
X-5752953Y-7267875D01*
X-5762477Y-7286923D01*
X-5762477Y-7334542D01*
X-5752953Y-7353589D01*
X-5743430Y-7363113D01*
X-5724382Y-7372637D01*
X-5686287Y-7372637D01*
X-5667239Y-7363113D01*
X-5657715Y-7353589D01*
X-5648191Y-7334542D01*
X-5457715Y-7448827D02*
X-5572001Y-7448827D01*
X-5514858Y-7448827D02*
X-5514858Y-7248827D01*
X-5533906Y-7277399D01*
X-5552953Y-7296446D01*
X-5572001Y-7305970D01*
X-5381525Y-7248827D02*
X-5381525Y-7286923D01*
X-5305334Y-7248827D02*
X-5305334Y-7286923D01*
X-5010096Y-7525018D02*
X-5019620Y-7515494D01*
X-5038668Y-7486923D01*
X-5048192Y-7467875D01*
X-5057715Y-7439304D01*
X-5067239Y-7391685D01*
X-5067239Y-7353589D01*
X-5057715Y-7305970D01*
X-5048192Y-7277399D01*
X-5038668Y-7258351D01*
X-5019620Y-7229780D01*
X-5010096Y-7220256D01*
X-4895811Y-7248827D02*
X-4876763Y-7248827D01*
X-4857715Y-7258351D01*
X-4848192Y-7267875D01*
X-4838668Y-7286923D01*
X-4829144Y-7325018D01*
X-4829144Y-7372637D01*
X-4838668Y-7410732D01*
X-4848192Y-7429780D01*
X-4857715Y-7439304D01*
X-4876763Y-7448827D01*
X-4895811Y-7448827D01*
X-4914858Y-7439304D01*
X-4924382Y-7429780D01*
X-4933906Y-7410732D01*
X-4943430Y-7372637D01*
X-4943430Y-7325018D01*
X-4933906Y-7286923D01*
X-4924382Y-7267875D01*
X-4914858Y-7258351D01*
X-4895811Y-7248827D01*
X-4591049Y-7448827D02*
X-4591049Y-7248827D01*
X-4505334Y-7448827D02*
X-4505334Y-7344065D01*
X-4514858Y-7325018D01*
X-4533906Y-7315494D01*
X-4562477Y-7315494D01*
X-4581525Y-7325018D01*
X-4591049Y-7334542D01*
X-4381525Y-7448827D02*
X-4400573Y-7439304D01*
X-4410096Y-7429780D01*
X-4419620Y-7410732D01*
X-4419620Y-7353589D01*
X-4410096Y-7334542D01*
X-4400573Y-7325018D01*
X-4381525Y-7315494D01*
X-4352953Y-7315494D01*
X-4333906Y-7325018D01*
X-4324382Y-7334542D01*
X-4314858Y-7353589D01*
X-4314858Y-7410732D01*
X-4324382Y-7429780D01*
X-4333906Y-7439304D01*
X-4352953Y-7448827D01*
X-4381525Y-7448827D01*
X-4200573Y-7448827D02*
X-4219620Y-7439304D01*
X-4229144Y-7420256D01*
X-4229144Y-7248827D01*
X-4048191Y-7439304D02*
X-4067239Y-7448827D01*
X-4105334Y-7448827D01*
X-4124382Y-7439304D01*
X-4133906Y-7420256D01*
X-4133906Y-7344065D01*
X-4124382Y-7325018D01*
X-4105334Y-7315494D01*
X-4067239Y-7315494D01*
X-4048191Y-7325018D01*
X-4038668Y-7344065D01*
X-4038668Y-7363113D01*
X-4133906Y-7382161D01*
X-3962477Y-7439304D02*
X-3943430Y-7448827D01*
X-3905334Y-7448827D01*
X-3886287Y-7439304D01*
X-3876763Y-7420256D01*
X-3876763Y-7410732D01*
X-3886287Y-7391685D01*
X-3905334Y-7382161D01*
X-3933906Y-7382161D01*
X-3952953Y-7372637D01*
X-3962477Y-7353589D01*
X-3962477Y-7344065D01*
X-3952953Y-7325018D01*
X-3933906Y-7315494D01*
X-3905334Y-7315494D01*
X-3886287Y-7325018D01*
X-3638668Y-7372637D02*
X-3486287Y-7372637D01*
X-3562477Y-7448827D02*
X-3562477Y-7296446D01*
X-3248191Y-7267875D02*
X-3238668Y-7258351D01*
X-3219620Y-7248827D01*
X-3172001Y-7248827D01*
X-3152953Y-7258351D01*
X-3143430Y-7267875D01*
X-3133906Y-7286923D01*
X-3133906Y-7305970D01*
X-3143430Y-7334542D01*
X-3257715Y-7448827D01*
X-3133906Y-7448827D01*
X-2905334Y-7439304D02*
X-2886287Y-7448827D01*
X-2848191Y-7448827D01*
X-2829144Y-7439304D01*
X-2819620Y-7420256D01*
X-2819620Y-7410732D01*
X-2829144Y-7391685D01*
X-2848191Y-7382161D01*
X-2876763Y-7382161D01*
X-2895811Y-7372637D01*
X-2905334Y-7353589D01*
X-2905334Y-7344065D01*
X-2895811Y-7325018D01*
X-2876763Y-7315494D01*
X-2848191Y-7315494D01*
X-2829144Y-7325018D01*
X-2705334Y-7448827D02*
X-2724382Y-7439304D01*
X-2733906Y-7420256D01*
X-2733906Y-7248827D01*
X-2600573Y-7448827D02*
X-2619620Y-7439304D01*
X-2629144Y-7429780D01*
X-2638668Y-7410732D01*
X-2638668Y-7353589D01*
X-2629144Y-7334542D01*
X-2619620Y-7325018D01*
X-2600573Y-7315494D01*
X-2572001Y-7315494D01*
X-2552953Y-7325018D01*
X-2543430Y-7334542D01*
X-2533906Y-7353589D01*
X-2533906Y-7410732D01*
X-2543430Y-7429780D01*
X-2552953Y-7439304D01*
X-2572001Y-7448827D01*
X-2600573Y-7448827D01*
X-2476763Y-7315494D02*
X-2400573Y-7315494D01*
X-2448192Y-7248827D02*
X-2448192Y-7420256D01*
X-2438668Y-7439304D01*
X-2419620Y-7448827D01*
X-2400573Y-7448827D01*
X-2343430Y-7439304D02*
X-2324382Y-7448827D01*
X-2286287Y-7448827D01*
X-2267239Y-7439304D01*
X-2257715Y-7420256D01*
X-2257715Y-7410732D01*
X-2267239Y-7391685D01*
X-2286287Y-7382161D01*
X-2314858Y-7382161D01*
X-2333906Y-7372637D01*
X-2343430Y-7353589D01*
X-2343430Y-7344065D01*
X-2333906Y-7325018D01*
X-2314858Y-7315494D01*
X-2286287Y-7315494D01*
X-2267239Y-7325018D01*
X-2191049Y-7525018D02*
X-2181525Y-7515494D01*
X-2162477Y-7486923D01*
X-2152953Y-7467875D01*
X-2143430Y-7439304D01*
X-2133906Y-7391685D01*
X-2133906Y-7353589D01*
X-2143430Y-7305970D01*
X-2152953Y-7277399D01*
X-2162477Y-7258351D01*
X-2181525Y-7229780D01*
X-2191049Y-7220256D01*
D17*
X-8772001Y-7533351D02*
X-8582001Y-7723351D01*
X-8582001Y-7533351D02*
X-8772001Y-7723351D01*
X-8582001Y-7628351D02*
G75*
G03*
X-8582001Y-7628351I-95000J0D01*
G01*
D11*
X-8219620Y-7718827D02*
X-8333906Y-7718827D01*
X-8276763Y-7718827D02*
X-8276763Y-7518827D01*
X-8295811Y-7547399D01*
X-8314858Y-7566446D01*
X-8333906Y-7575970D01*
X-8133906Y-7699780D02*
X-8124382Y-7709304D01*
X-8133906Y-7718827D01*
X-8143430Y-7709304D01*
X-8133906Y-7699780D01*
X-8133906Y-7718827D01*
X-8029144Y-7718827D02*
X-7991049Y-7718827D01*
X-7972001Y-7709304D01*
X-7962477Y-7699780D01*
X-7943430Y-7671208D01*
X-7933906Y-7633113D01*
X-7933906Y-7556923D01*
X-7943430Y-7537875D01*
X-7952953Y-7528351D01*
X-7972001Y-7518827D01*
X-8010096Y-7518827D01*
X-8029144Y-7528351D01*
X-8038668Y-7537875D01*
X-8048191Y-7556923D01*
X-8048191Y-7604542D01*
X-8038668Y-7623589D01*
X-8029144Y-7633113D01*
X-8010096Y-7642637D01*
X-7972001Y-7642637D01*
X-7952953Y-7633113D01*
X-7943430Y-7623589D01*
X-7933906Y-7604542D01*
X-7810096Y-7518827D02*
X-7791049Y-7518827D01*
X-7772001Y-7528351D01*
X-7762477Y-7537875D01*
X-7752953Y-7556923D01*
X-7743430Y-7595018D01*
X-7743430Y-7642637D01*
X-7752953Y-7680732D01*
X-7762477Y-7699780D01*
X-7772001Y-7709304D01*
X-7791049Y-7718827D01*
X-7810096Y-7718827D01*
X-7829144Y-7709304D01*
X-7838668Y-7699780D01*
X-7848191Y-7680732D01*
X-7857715Y-7642637D01*
X-7857715Y-7595018D01*
X-7848191Y-7556923D01*
X-7838668Y-7537875D01*
X-7829144Y-7528351D01*
X-7810096Y-7518827D01*
X-7619620Y-7518827D02*
X-7600572Y-7518827D01*
X-7581525Y-7528351D01*
X-7572001Y-7537875D01*
X-7562477Y-7556923D01*
X-7552953Y-7595018D01*
X-7552953Y-7642637D01*
X-7562477Y-7680732D01*
X-7572001Y-7699780D01*
X-7581525Y-7709304D01*
X-7600572Y-7718827D01*
X-7619620Y-7718827D01*
X-7638668Y-7709304D01*
X-7648191Y-7699780D01*
X-7657715Y-7680732D01*
X-7667239Y-7642637D01*
X-7667239Y-7595018D01*
X-7657715Y-7556923D01*
X-7648191Y-7537875D01*
X-7638668Y-7528351D01*
X-7619620Y-7518827D01*
X-7467239Y-7718827D02*
X-7467239Y-7585494D01*
X-7467239Y-7604542D02*
X-7457715Y-7595018D01*
X-7438668Y-7585494D01*
X-7410096Y-7585494D01*
X-7391049Y-7595018D01*
X-7381525Y-7614065D01*
X-7381525Y-7718827D01*
X-7381525Y-7614065D02*
X-7372001Y-7595018D01*
X-7352953Y-7585494D01*
X-7324382Y-7585494D01*
X-7305334Y-7595018D01*
X-7295811Y-7614065D01*
X-7295811Y-7718827D01*
X-7200572Y-7718827D02*
X-7200572Y-7585494D01*
X-7200572Y-7604542D02*
X-7191049Y-7595018D01*
X-7172001Y-7585494D01*
X-7143430Y-7585494D01*
X-7124382Y-7595018D01*
X-7114858Y-7614065D01*
X-7114858Y-7718827D01*
X-7114858Y-7614065D02*
X-7105334Y-7595018D01*
X-7086287Y-7585494D01*
X-7057715Y-7585494D01*
X-7038668Y-7595018D01*
X-7029144Y-7614065D01*
X-7029144Y-7718827D01*
X-6638668Y-7509304D02*
X-6810096Y-7766446D01*
X-6381525Y-7518827D02*
X-6362477Y-7518827D01*
X-6343430Y-7528351D01*
X-6333906Y-7537875D01*
X-6324382Y-7556923D01*
X-6314858Y-7595018D01*
X-6314858Y-7642637D01*
X-6324382Y-7680732D01*
X-6333906Y-7699780D01*
X-6343430Y-7709304D01*
X-6362477Y-7718827D01*
X-6381525Y-7718827D01*
X-6400572Y-7709304D01*
X-6410096Y-7699780D01*
X-6419620Y-7680732D01*
X-6429144Y-7642637D01*
X-6429144Y-7595018D01*
X-6419620Y-7556923D01*
X-6410096Y-7537875D01*
X-6400572Y-7528351D01*
X-6381525Y-7518827D01*
X-6229144Y-7699780D02*
X-6219620Y-7709304D01*
X-6229144Y-7718827D01*
X-6238668Y-7709304D01*
X-6229144Y-7699780D01*
X-6229144Y-7718827D01*
X-6095811Y-7518827D02*
X-6076763Y-7518827D01*
X-6057715Y-7528351D01*
X-6048191Y-7537875D01*
X-6038668Y-7556923D01*
X-6029144Y-7595018D01*
X-6029144Y-7642637D01*
X-6038668Y-7680732D01*
X-6048191Y-7699780D01*
X-6057715Y-7709304D01*
X-6076763Y-7718827D01*
X-6095811Y-7718827D01*
X-6114858Y-7709304D01*
X-6124382Y-7699780D01*
X-6133906Y-7680732D01*
X-6143430Y-7642637D01*
X-6143430Y-7595018D01*
X-6133906Y-7556923D01*
X-6124382Y-7537875D01*
X-6114858Y-7528351D01*
X-6095811Y-7518827D01*
X-5962477Y-7518827D02*
X-5829144Y-7518827D01*
X-5914858Y-7718827D01*
X-5667239Y-7585494D02*
X-5667239Y-7718827D01*
X-5714858Y-7509304D02*
X-5762477Y-7652161D01*
X-5638668Y-7652161D01*
X-5533906Y-7604542D02*
X-5552953Y-7595018D01*
X-5562477Y-7585494D01*
X-5572001Y-7566446D01*
X-5572001Y-7556923D01*
X-5562477Y-7537875D01*
X-5552953Y-7528351D01*
X-5533906Y-7518827D01*
X-5495811Y-7518827D01*
X-5476763Y-7528351D01*
X-5467239Y-7537875D01*
X-5457715Y-7556923D01*
X-5457715Y-7566446D01*
X-5467239Y-7585494D01*
X-5476763Y-7595018D01*
X-5495811Y-7604542D01*
X-5533906Y-7604542D01*
X-5552953Y-7614065D01*
X-5562477Y-7623589D01*
X-5572001Y-7642637D01*
X-5572001Y-7680732D01*
X-5562477Y-7699780D01*
X-5552953Y-7709304D01*
X-5533906Y-7718827D01*
X-5495811Y-7718827D01*
X-5476763Y-7709304D01*
X-5467239Y-7699780D01*
X-5457715Y-7680732D01*
X-5457715Y-7642637D01*
X-5467239Y-7623589D01*
X-5476763Y-7614065D01*
X-5495811Y-7604542D01*
X-5381525Y-7518827D02*
X-5381525Y-7556923D01*
X-5305334Y-7518827D02*
X-5305334Y-7556923D01*
X-5010096Y-7795018D02*
X-5019620Y-7785494D01*
X-5038668Y-7756923D01*
X-5048192Y-7737875D01*
X-5057715Y-7709304D01*
X-5067239Y-7661685D01*
X-5067239Y-7623589D01*
X-5057715Y-7575970D01*
X-5048192Y-7547399D01*
X-5038668Y-7528351D01*
X-5019620Y-7499780D01*
X-5010096Y-7490256D01*
X-4848192Y-7585494D02*
X-4848192Y-7718827D01*
X-4895811Y-7509304D02*
X-4943430Y-7652161D01*
X-4819620Y-7652161D01*
X-4591049Y-7718827D02*
X-4591049Y-7518827D01*
X-4505334Y-7718827D02*
X-4505334Y-7614065D01*
X-4514858Y-7595018D01*
X-4533906Y-7585494D01*
X-4562477Y-7585494D01*
X-4581525Y-7595018D01*
X-4591049Y-7604542D01*
X-4381525Y-7718827D02*
X-4400573Y-7709304D01*
X-4410096Y-7699780D01*
X-4419620Y-7680732D01*
X-4419620Y-7623589D01*
X-4410096Y-7604542D01*
X-4400573Y-7595018D01*
X-4381525Y-7585494D01*
X-4352953Y-7585494D01*
X-4333906Y-7595018D01*
X-4324382Y-7604542D01*
X-4314858Y-7623589D01*
X-4314858Y-7680732D01*
X-4324382Y-7699780D01*
X-4333906Y-7709304D01*
X-4352953Y-7718827D01*
X-4381525Y-7718827D01*
X-4200573Y-7718827D02*
X-4219620Y-7709304D01*
X-4229144Y-7690256D01*
X-4229144Y-7518827D01*
X-4048191Y-7709304D02*
X-4067239Y-7718827D01*
X-4105334Y-7718827D01*
X-4124382Y-7709304D01*
X-4133906Y-7690256D01*
X-4133906Y-7614065D01*
X-4124382Y-7595018D01*
X-4105334Y-7585494D01*
X-4067239Y-7585494D01*
X-4048191Y-7595018D01*
X-4038668Y-7614065D01*
X-4038668Y-7633113D01*
X-4133906Y-7652161D01*
X-3962477Y-7709304D02*
X-3943430Y-7718827D01*
X-3905334Y-7718827D01*
X-3886287Y-7709304D01*
X-3876763Y-7690256D01*
X-3876763Y-7680732D01*
X-3886287Y-7661685D01*
X-3905334Y-7652161D01*
X-3933906Y-7652161D01*
X-3952953Y-7642637D01*
X-3962477Y-7623589D01*
X-3962477Y-7614065D01*
X-3952953Y-7595018D01*
X-3933906Y-7585494D01*
X-3905334Y-7585494D01*
X-3886287Y-7595018D01*
X-3810096Y-7795018D02*
X-3800572Y-7785494D01*
X-3781525Y-7756923D01*
X-3772001Y-7737875D01*
X-3762477Y-7709304D01*
X-3752953Y-7661685D01*
X-3752953Y-7623589D01*
X-3762477Y-7575970D01*
X-3772001Y-7547399D01*
X-3781525Y-7528351D01*
X-3800572Y-7499780D01*
X-3810096Y-7490256D01*
M02*
