G04 #@! TF.GenerationSoftware,KiCad,Pcbnew,(6.0.0)*
G04 #@! TF.CreationDate,2022-01-13T00:17:18-05:00*
G04 #@! TF.ProjectId,TGD,5447442e-6b69-4636-9164-5f7063625858,rev?*
G04 #@! TF.SameCoordinates,Original*
G04 #@! TF.FileFunction,Legend,Top*
G04 #@! TF.FilePolarity,Positive*
%FSLAX46Y46*%
G04 Gerber Fmt 4.6, Leading zero omitted, Abs format (unit mm)*
G04 Created by KiCad (PCBNEW (6.0.0)) date 2022-01-13 00:17:18*
%MOMM*%
%LPD*%
G01*
G04 APERTURE LIST*
G04 Aperture macros list*
%AMRoundRect*
0 Rectangle with rounded corners*
0 $1 Rounding radius*
0 $2 $3 $4 $5 $6 $7 $8 $9 X,Y pos of 4 corners*
0 Add a 4 corners polygon primitive as box body*
4,1,4,$2,$3,$4,$5,$6,$7,$8,$9,$2,$3,0*
0 Add four circle primitives for the rounded corners*
1,1,$1+$1,$2,$3*
1,1,$1+$1,$4,$5*
1,1,$1+$1,$6,$7*
1,1,$1+$1,$8,$9*
0 Add four rect primitives between the rounded corners*
20,1,$1+$1,$2,$3,$4,$5,0*
20,1,$1+$1,$4,$5,$6,$7,0*
20,1,$1+$1,$6,$7,$8,$9,0*
20,1,$1+$1,$8,$9,$2,$3,0*%
%AMHorizOval*
0 Thick line with rounded ends*
0 $1 width*
0 $2 $3 position (X,Y) of the first rounded end (center of the circle)*
0 $4 $5 position (X,Y) of the second rounded end (center of the circle)*
0 Add line between two ends*
20,1,$1,$2,$3,$4,$5,0*
0 Add two circle primitives to create the rounded ends*
1,1,$1,$2,$3*
1,1,$1,$4,$5*%
%AMRotRect*
0 Rectangle, with rotation*
0 The origin of the aperture is its center*
0 $1 length*
0 $2 width*
0 $3 Rotation angle, in degrees counterclockwise*
0 Add horizontal line*
21,1,$1,$2,0,0,$3*%
%AMFreePoly0*
4,1,13,0.500000,-0.500000,0.000000,-0.500000,-0.095671,-0.480970,-0.176777,-0.426777,-0.230970,-0.345671,-0.250000,-0.250000,-0.250000,0.250000,-0.230970,0.345671,-0.176777,0.426777,-0.095671,0.480970,0.000000,0.500000,0.500000,0.500000,0.500000,-0.500000,0.500000,-0.500000,$1*%
%AMFreePoly1*
4,1,13,0.095671,0.480970,0.176777,0.426777,0.230970,0.345671,0.250000,0.250000,0.250000,-0.250000,0.230970,-0.345671,0.176777,-0.426777,0.095671,-0.480970,0.000000,-0.500000,-0.500000,-0.500000,-0.500000,0.500000,0.000000,0.500000,0.095671,0.480970,0.095671,0.480970,$1*%
G04 Aperture macros list end*
%ADD10C,0.200000*%
%ADD11C,0.120000*%
%ADD12C,0.152400*%
%ADD13C,0.150000*%
%ADD14C,0.100000*%
%ADD15RoundRect,0.225000X0.225000X0.250000X-0.225000X0.250000X-0.225000X-0.250000X0.225000X-0.250000X0*%
%ADD16RoundRect,0.225000X0.250000X-0.225000X0.250000X0.225000X-0.250000X0.225000X-0.250000X-0.225000X0*%
%ADD17RoundRect,0.225000X-0.250000X0.225000X-0.250000X-0.225000X0.250000X-0.225000X0.250000X0.225000X0*%
%ADD18RoundRect,0.140000X0.140000X0.170000X-0.140000X0.170000X-0.140000X-0.170000X0.140000X-0.170000X0*%
%ADD19RoundRect,0.140000X0.170000X-0.140000X0.170000X0.140000X-0.170000X0.140000X-0.170000X-0.140000X0*%
%ADD20RoundRect,0.140000X-0.170000X0.140000X-0.170000X-0.140000X0.170000X-0.140000X0.170000X0.140000X0*%
%ADD21RoundRect,0.250000X1.075000X-0.375000X1.075000X0.375000X-1.075000X0.375000X-1.075000X-0.375000X0*%
%ADD22R,0.900000X0.800000*%
%ADD23RoundRect,0.237500X-0.250000X-0.237500X0.250000X-0.237500X0.250000X0.237500X-0.250000X0.237500X0*%
%ADD24RoundRect,0.237500X0.250000X0.237500X-0.250000X0.237500X-0.250000X-0.237500X0.250000X-0.237500X0*%
%ADD25RoundRect,0.237500X-0.237500X0.250000X-0.237500X-0.250000X0.237500X-0.250000X0.237500X0.250000X0*%
%ADD26R,0.650000X1.220000*%
%ADD27RotRect,1.000000X0.300000X45.000000*%
%ADD28RotRect,0.300000X1.000000X45.000000*%
%ADD29RoundRect,0.075000X0.075000X-0.425000X0.075000X0.425000X-0.075000X0.425000X-0.075000X-0.425000X0*%
%ADD30RoundRect,0.075000X0.425000X-0.075000X0.425000X0.075000X-0.425000X0.075000X-0.425000X-0.075000X0*%
%ADD31R,4.800000X4.800000*%
%ADD32R,1.400000X1.200000*%
%ADD33RoundRect,1.500000X-1.250000X0.000000X-1.250000X0.000000X1.250000X0.000000X1.250000X0.000000X0*%
%ADD34C,1.400000*%
%ADD35C,3.500000*%
%ADD36C,1.778000*%
%ADD37C,3.800000*%
%ADD38RoundRect,0.140000X-0.140000X-0.170000X0.140000X-0.170000X0.140000X0.170000X-0.140000X0.170000X0*%
%ADD39R,1.300000X1.600000*%
%ADD40RoundRect,0.200000X1.303591X-0.207727X0.546280X1.201698X-1.303591X0.207727X-0.546280X-1.201698X0*%
%ADD41RoundRect,0.200000X-1.303591X0.207727X-0.546280X-1.201698X1.303591X-0.207727X0.546280X1.201698X0*%
%ADD42RoundRect,0.147500X0.147500X0.172500X-0.147500X0.172500X-0.147500X-0.172500X0.147500X-0.172500X0*%
%ADD43RoundRect,0.237500X0.107809X0.327541X-0.332636X0.090882X-0.107809X-0.327541X0.332636X-0.090882X0*%
%ADD44R,1.200000X0.900000*%
%ADD45C,2.500000*%
%ADD46HorizOval,2.000000X-1.419959X2.642672X1.419959X-2.642672X0*%
%ADD47RoundRect,0.250000X1.354210X-0.407571X0.407571X1.354210X-1.354210X0.407571X-0.407571X-1.354210X0*%
%ADD48RoundRect,0.250000X0.407571X1.354210X-1.354210X0.407571X-0.407571X-1.354210X1.354210X-0.407571X0*%
%ADD49RoundRect,0.250000X-0.407571X-1.354210X1.354210X-0.407571X0.407571X1.354210X-1.354210X0.407571X0*%
%ADD50RoundRect,0.250000X-1.354210X0.407571X-0.407571X-1.354210X1.354210X-0.407571X0.407571X1.354210X0*%
%ADD51RoundRect,0.200000X0.546280X-1.201698X1.303591X0.207727X-0.546280X1.201698X-1.303591X-0.207727X0*%
%ADD52RoundRect,0.200000X-0.546280X1.201698X-1.303591X-0.207727X0.546280X-1.201698X1.303591X0.207727X0*%
%ADD53RoundRect,0.150000X-0.797733X0.258355X0.655737X-0.522622X0.797733X-0.258355X-0.655737X0.522622X0*%
%ADD54R,0.650000X0.400000*%
%ADD55RoundRect,0.225000X-0.113726X0.316530X-0.326720X-0.079870X0.113726X-0.316530X0.326720X0.079870X0*%
%ADD56RotRect,1.700000X1.700000X241.750000*%
%ADD57HorizOval,1.700000X0.000000X0.000000X0.000000X0.000000X0*%
%ADD58RoundRect,0.225000X-0.225000X-0.250000X0.225000X-0.250000X0.225000X0.250000X-0.225000X0.250000X0*%
%ADD59RotRect,1.700000X1.700000X45.000000*%
%ADD60R,1.300000X1.700000*%
%ADD61RoundRect,0.147500X-0.147500X-0.172500X0.147500X-0.172500X0.147500X0.172500X-0.147500X0.172500X0*%
%ADD62RoundRect,0.250000X1.000000X1.000000X-1.000000X1.000000X-1.000000X-1.000000X1.000000X-1.000000X0*%
%ADD63RoundRect,0.250000X-1.000000X-1.000000X1.000000X-1.000000X1.000000X1.000000X-1.000000X1.000000X0*%
%ADD64RoundRect,0.250000X-1.000000X1.000000X-1.000000X-1.000000X1.000000X-1.000000X1.000000X1.000000X0*%
%ADD65RoundRect,0.250000X1.000000X-1.000000X1.000000X1.000000X-1.000000X1.000000X-1.000000X-1.000000X0*%
%ADD66FreePoly0,0.000000*%
%ADD67FreePoly1,0.000000*%
%ADD68HorizOval,2.000000X1.419959X2.642672X-1.419959X-2.642672X0*%
%ADD69RoundRect,0.250000X-1.354210X-0.407571X0.407571X-1.354210X1.354210X0.407571X-0.407571X1.354210X0*%
%ADD70RoundRect,0.250000X-0.407571X1.354210X-1.354210X-0.407571X0.407571X-1.354210X1.354210X0.407571X0*%
%ADD71RoundRect,0.250000X0.407571X-1.354210X1.354210X0.407571X-0.407571X1.354210X-1.354210X-0.407571X0*%
%ADD72RoundRect,0.250000X1.354210X0.407571X-0.407571X1.354210X-1.354210X-0.407571X0.407571X-1.354210X0*%
%ADD73RoundRect,0.237500X0.140843X0.345291X-0.365670X0.073132X-0.140843X-0.345291X0.365670X-0.073132X0*%
%ADD74RoundRect,0.135000X-0.135000X-0.185000X0.135000X-0.185000X0.135000X0.185000X-0.135000X0.185000X0*%
%ADD75RoundRect,0.075000X0.700000X0.075000X-0.700000X0.075000X-0.700000X-0.075000X0.700000X-0.075000X0*%
%ADD76RoundRect,0.075000X0.075000X0.700000X-0.075000X0.700000X-0.075000X-0.700000X0.075000X-0.700000X0*%
%ADD77C,1.500000*%
%ADD78O,0.900000X1.700000*%
G04 APERTURE END LIST*
D10*
X24700000Y-3600000D02*
G75*
G03*
X24700000Y-3600000I-3500000J0D01*
G01*
X-17700000Y-3600000D02*
G75*
G03*
X-17700000Y-3600000I-3500000J0D01*
G01*
D11*
X-3150000Y-8050000D02*
X-3950000Y-7250000D01*
D12*
X-87500003Y-35500005D02*
X-76000000Y-58500010D01*
X76000000Y-58500000D02*
X87500000Y-35500000D01*
D10*
X60068268Y-40480346D02*
X60446924Y-39775633D01*
X60715386Y-39919883D01*
X60764470Y-39989503D01*
X60779996Y-40041092D01*
X60777492Y-40126239D01*
X60723398Y-40226912D01*
X60653778Y-40275997D01*
X60602189Y-40291523D01*
X60517042Y-40289018D01*
X60248580Y-40144769D01*
X60772980Y-40859002D02*
X61151636Y-40154289D01*
X61420098Y-40298539D01*
X61469182Y-40368159D01*
X61484709Y-40419748D01*
X61482204Y-40504895D01*
X61428110Y-40605568D01*
X61358490Y-40654652D01*
X61306901Y-40670179D01*
X61221755Y-40667674D01*
X60953293Y-40523424D01*
X61477693Y-41237658D02*
X61856349Y-40532945D01*
X61820785Y-41162530D01*
X62326157Y-40785382D01*
X61947501Y-41490095D01*
X62079228Y-41647366D02*
X62616152Y-41935866D01*
X63253250Y-41715990D02*
X63335892Y-41803641D01*
X63351419Y-41855230D01*
X63348914Y-41940377D01*
X63294821Y-42041050D01*
X63225200Y-42090135D01*
X63173611Y-42105661D01*
X63088465Y-42103156D01*
X62820003Y-41958907D01*
X63198658Y-41254194D01*
X63433563Y-41380413D01*
X63482647Y-41450033D01*
X63498173Y-41501622D01*
X63495669Y-41586768D01*
X63459606Y-41653884D01*
X63389986Y-41702968D01*
X63338397Y-41718495D01*
X63253250Y-41715990D01*
X63018346Y-41589771D01*
X19073809Y-12980952D02*
X19073809Y-11914285D01*
X20673809Y-12600000D01*
X19073809Y-11533333D02*
X20673809Y-11000000D01*
X19073809Y-10466666D01*
X19607142Y-9247619D02*
X20673809Y-9247619D01*
X18997619Y-9628571D02*
X20140476Y-10009523D01*
X20140476Y-9019047D01*
X-19023809Y-15847619D02*
X-20623809Y-16380952D01*
X-19023809Y-16914285D01*
X-20623809Y-17447619D02*
X-19023809Y-17447619D01*
X-20623809Y-18209523D02*
X-19023809Y-18209523D01*
X-20623809Y-19123809D01*
X-19023809Y-19123809D01*
X-60488798Y-48356198D02*
X-60573944Y-48358703D01*
X-60708175Y-48430828D01*
X-60757259Y-48500448D01*
X-60788313Y-48603626D01*
X-60785808Y-48688773D01*
X-60713683Y-48823004D01*
X-60644063Y-48872088D01*
X-60540885Y-48903141D01*
X-60455738Y-48900636D01*
X-60321507Y-48828511D01*
X-60272423Y-48758891D01*
X-60767278Y-48159861D02*
X-60917036Y-48283575D01*
X-61030731Y-48474404D01*
X-61041248Y-48696287D01*
X-60984650Y-48882107D01*
X-60860936Y-49031864D01*
X-60670106Y-49145559D01*
X-60448224Y-49156076D01*
X-60262404Y-49099478D01*
X-60112647Y-48975764D01*
X-59998951Y-48784935D01*
X-59988434Y-48563052D01*
X-60045033Y-48377232D01*
X-60168747Y-48227475D01*
X-60359576Y-48113780D01*
X-60581458Y-48103263D01*
X-60767278Y-48159861D01*
X-59203086Y-47449129D02*
X-58932618Y-47952495D01*
X-58912082Y-48071200D01*
X-58943135Y-48174378D01*
X-59025777Y-48262029D01*
X-59092892Y-48298092D01*
X-58186833Y-47811248D02*
X-58385177Y-47442113D01*
X-58454797Y-47393029D01*
X-58539944Y-47395534D01*
X-58674175Y-47467659D01*
X-58723259Y-47537279D01*
X-58204865Y-47777691D02*
X-58253949Y-47847311D01*
X-58421738Y-47937467D01*
X-58506884Y-47939972D01*
X-58576504Y-47890887D01*
X-58612567Y-47823772D01*
X-58615072Y-47738625D01*
X-58565987Y-47669005D01*
X-58398199Y-47578849D01*
X-58349114Y-47509229D01*
X-57567268Y-47435097D02*
X-57616352Y-47504718D01*
X-57750583Y-47576843D01*
X-57835729Y-47579347D01*
X-57887318Y-47563821D01*
X-57956939Y-47514736D01*
X-58065126Y-47313390D01*
X-58067631Y-47228243D01*
X-58052104Y-47176654D01*
X-58003020Y-47107034D01*
X-57868789Y-47034909D01*
X-57783642Y-47032405D01*
X-57146543Y-47252280D02*
X-57231690Y-47254785D01*
X-57283279Y-47239259D01*
X-57352899Y-47190174D01*
X-57461087Y-46988828D01*
X-57463591Y-46903681D01*
X-57448065Y-46852092D01*
X-57398981Y-46782472D01*
X-57298307Y-46728378D01*
X-57213161Y-46725874D01*
X-57161572Y-46741400D01*
X-57091951Y-46790484D01*
X-56983764Y-46991831D01*
X-56981259Y-47076978D01*
X-56996786Y-47128567D01*
X-57045870Y-47198187D01*
X-57146543Y-47252280D01*
X-56609620Y-46963781D02*
X-56988275Y-46259068D01*
X-56844025Y-46527530D02*
X-56794941Y-46457910D01*
X-56660710Y-46385785D01*
X-56575563Y-46383280D01*
X-56523975Y-46398807D01*
X-56454354Y-46447891D01*
X-56346167Y-46649238D01*
X-56343662Y-46734384D01*
X-56359189Y-46785973D01*
X-56408273Y-46855594D01*
X-56542504Y-46927718D01*
X-56627651Y-46930223D01*
X-55880870Y-45664038D02*
X-55334425Y-46278594D01*
X-55470663Y-45703103D01*
X-55065963Y-46134344D01*
X-55276830Y-45339476D01*
X-54629713Y-45899939D02*
X-54882150Y-45430130D01*
X-55008368Y-45195226D02*
X-55023895Y-45246815D01*
X-54972306Y-45262341D01*
X-54956779Y-45210752D01*
X-55008368Y-45195226D01*
X-54972306Y-45262341D01*
X-54193462Y-45665533D02*
X-54278609Y-45668037D01*
X-54348229Y-45618953D01*
X-54672791Y-45014914D01*
X-53824327Y-45467189D02*
X-53909474Y-45469694D01*
X-53979094Y-45420610D01*
X-54303656Y-44816570D01*
X-53555865Y-45322939D02*
X-53808302Y-44853131D01*
X-53934521Y-44618227D02*
X-53950047Y-44669816D01*
X-53898458Y-44685342D01*
X-53882932Y-44633753D01*
X-53934521Y-44618227D01*
X-53898458Y-44685342D01*
X-52918268Y-44980346D02*
X-53116611Y-44611211D01*
X-53186232Y-44562127D01*
X-53271378Y-44564631D01*
X-53405609Y-44636756D01*
X-53454693Y-44706376D01*
X-52936299Y-44946788D02*
X-52985383Y-45016409D01*
X-53153172Y-45106565D01*
X-53238319Y-45109069D01*
X-53307939Y-45059985D01*
X-53344001Y-44992870D01*
X-53346506Y-44907723D01*
X-53297422Y-44838103D01*
X-53129633Y-44747947D01*
X-53080549Y-44678326D01*
X-52582690Y-44800034D02*
X-52835128Y-44330225D01*
X-52799065Y-44397341D02*
X-52783539Y-44345752D01*
X-52734454Y-44276132D01*
X-52633781Y-44222038D01*
X-52548634Y-44219533D01*
X-52479014Y-44268618D01*
X-52280671Y-44637753D01*
X-52479014Y-44268618D02*
X-52481519Y-44183471D01*
X-52432435Y-44113851D01*
X-52331761Y-44059757D01*
X-52246615Y-44057252D01*
X-52176995Y-44106337D01*
X-51978651Y-44475472D01*
X-51694663Y-44279633D02*
X-51609516Y-44277128D01*
X-51475285Y-44205003D01*
X-51426201Y-44135383D01*
X-51428705Y-44050236D01*
X-51446737Y-44016679D01*
X-51516357Y-43967594D01*
X-51601503Y-43970099D01*
X-51702177Y-44024193D01*
X-51787323Y-44026698D01*
X-51856944Y-43977613D01*
X-51874975Y-43944056D01*
X-51877480Y-43858909D01*
X-51828395Y-43789289D01*
X-51727722Y-43735195D01*
X-51642575Y-43732690D01*
X-50911819Y-43080563D02*
X-50896293Y-43028974D01*
X-50847208Y-42959354D01*
X-50679420Y-42869198D01*
X-50594273Y-42866693D01*
X-50542684Y-42882220D01*
X-50473064Y-42931304D01*
X-50437001Y-42998419D01*
X-50416465Y-43117124D01*
X-50602784Y-43736192D01*
X-50166533Y-43501786D01*
X-50108938Y-42562667D02*
X-50041823Y-42526605D01*
X-49956676Y-42524100D01*
X-49905087Y-42539626D01*
X-49835467Y-42588711D01*
X-49729784Y-42704910D01*
X-49639628Y-42872699D01*
X-49601061Y-43024961D01*
X-49598556Y-43110108D01*
X-49614083Y-43161697D01*
X-49663167Y-43231317D01*
X-49730282Y-43267380D01*
X-49815429Y-43269884D01*
X-49867018Y-43254358D01*
X-49936638Y-43205274D01*
X-50042321Y-43089074D01*
X-50132477Y-42921285D01*
X-50171044Y-42769023D01*
X-50173549Y-42683876D01*
X-50158022Y-42632287D01*
X-50108938Y-42562667D01*
X-49569509Y-42359314D02*
X-49553983Y-42307725D01*
X-49504899Y-42238105D01*
X-49337110Y-42147949D01*
X-49251963Y-42145444D01*
X-49200374Y-42160971D01*
X-49130754Y-42210055D01*
X-49094692Y-42277170D01*
X-49074156Y-42395875D01*
X-49260474Y-43014943D01*
X-48824223Y-42780537D01*
X-48898355Y-41998690D02*
X-48882828Y-41947101D01*
X-48833744Y-41877481D01*
X-48665955Y-41787324D01*
X-48580808Y-41784820D01*
X-48529219Y-41800346D01*
X-48459599Y-41849430D01*
X-48423537Y-41916546D01*
X-48403001Y-42035250D01*
X-48589319Y-42654318D01*
X-48153068Y-42419912D01*
X69976010Y-51152423D02*
X70354666Y-50447711D01*
X70319101Y-51077295D01*
X70824474Y-50700148D01*
X70445818Y-51404861D01*
X70781396Y-51585173D02*
X71160052Y-50880460D01*
X65324663Y-48694236D02*
X65703319Y-47989523D01*
X65667755Y-48619108D01*
X66173128Y-48241961D01*
X65794472Y-48946673D01*
X66642936Y-48494398D02*
X66777167Y-48566523D01*
X66826251Y-48636143D01*
X66857304Y-48739321D01*
X66818737Y-48891583D01*
X66692519Y-49126487D01*
X66586836Y-49242687D01*
X66483658Y-49273740D01*
X66398511Y-49271235D01*
X66264280Y-49199110D01*
X66215196Y-49129490D01*
X66184143Y-49026312D01*
X66222710Y-48874050D01*
X66348929Y-48639146D01*
X66454611Y-48522946D01*
X66557789Y-48491893D01*
X66642936Y-48494398D01*
X-18973809Y-9119047D02*
X-18973809Y-10185714D01*
X-20573809Y-9500000D01*
X-18973809Y-10566666D02*
X-20573809Y-11100000D01*
X-18973809Y-11633333D01*
X-19507142Y-12852380D02*
X-20573809Y-12852380D01*
X-18897619Y-12471428D02*
X-20040476Y-12090476D01*
X-20040476Y-13080952D01*
X19200000Y-18219047D02*
X19123809Y-18371428D01*
X19123809Y-18600000D01*
X19200000Y-18828571D01*
X19352380Y-18980952D01*
X19504761Y-19057142D01*
X19809523Y-19133333D01*
X20038095Y-19133333D01*
X20342857Y-19057142D01*
X20495238Y-18980952D01*
X20647619Y-18828571D01*
X20723809Y-18600000D01*
X20723809Y-18447619D01*
X20647619Y-18219047D01*
X20571428Y-18142857D01*
X20038095Y-18142857D01*
X20038095Y-18447619D01*
X20723809Y-17457142D02*
X19123809Y-17457142D01*
X20723809Y-16542857D01*
X19123809Y-16542857D01*
X20723809Y-15780952D02*
X19123809Y-15780952D01*
X19123809Y-15400000D01*
X19200000Y-15171428D01*
X19352380Y-15019047D01*
X19504761Y-14942857D01*
X19809523Y-14866666D01*
X20038095Y-14866666D01*
X20342857Y-14942857D01*
X20495238Y-15019047D01*
X20647619Y-15171428D01*
X20723809Y-15400000D01*
X20723809Y-15780952D01*
X-63138801Y-42130203D02*
X-63517457Y-41425491D01*
X-63248995Y-41281241D01*
X-63163848Y-41278736D01*
X-63112259Y-41294263D01*
X-63042639Y-41343347D01*
X-62988546Y-41444020D01*
X-62986041Y-41529167D01*
X-63001567Y-41580756D01*
X-63050652Y-41650376D01*
X-63319114Y-41794626D01*
X-62434089Y-41751547D02*
X-62812744Y-41046835D01*
X-62544282Y-40902585D01*
X-62459136Y-40900080D01*
X-62407547Y-40915607D01*
X-62337927Y-40964691D01*
X-62283833Y-41065364D01*
X-62281328Y-41150511D01*
X-62296855Y-41202100D01*
X-62345939Y-41271720D01*
X-62614401Y-41415970D01*
X-61729376Y-41372892D02*
X-62108032Y-40668179D01*
X-61602659Y-41045327D01*
X-61638223Y-40415742D01*
X-61259568Y-41120455D01*
X-61055717Y-41097414D02*
X-60518793Y-40808914D01*
X-60350506Y-40156289D02*
X-60585410Y-40282508D01*
X-60387066Y-40651643D02*
X-60765722Y-39946930D01*
X-60430145Y-39766618D01*
X-72509081Y-51068742D02*
X-72072830Y-50834336D01*
X-72163485Y-51229017D01*
X-72062811Y-51174923D01*
X-71977665Y-51172419D01*
X-71926076Y-51187945D01*
X-71856456Y-51237029D01*
X-71766299Y-51404818D01*
X-71763795Y-51489965D01*
X-71779321Y-51541554D01*
X-71828405Y-51611174D01*
X-72029752Y-51719361D01*
X-72114899Y-51721866D01*
X-72166488Y-51706339D01*
X-71871484Y-50726149D02*
X-71257924Y-51304643D01*
X-71401675Y-50473712D01*
X-71233887Y-50383556D02*
X-70797636Y-50149150D01*
X-70888290Y-50543830D01*
X-70787617Y-50489737D01*
X-70702470Y-50487232D01*
X-70650882Y-50502758D01*
X-70581261Y-50551843D01*
X-70491105Y-50719631D01*
X-70488600Y-50804778D01*
X-70504127Y-50856367D01*
X-70553211Y-50925987D01*
X-70754558Y-51034175D01*
X-70839704Y-51036679D01*
X-70891293Y-51021153D01*
X72184857Y-51395274D02*
X72621108Y-51629680D01*
X72241954Y-51771923D01*
X72342627Y-51826017D01*
X72391711Y-51895637D01*
X72407238Y-51947226D01*
X72404733Y-52032372D01*
X72314577Y-52200161D01*
X72244957Y-52249245D01*
X72193368Y-52264772D01*
X72108221Y-52262267D01*
X71906875Y-52154080D01*
X71857791Y-52084460D01*
X71842264Y-52032871D01*
X72822454Y-51737867D02*
X72678703Y-52568798D01*
X73292263Y-51990304D01*
X73460052Y-52080460D02*
X73896302Y-52314866D01*
X73517148Y-52457109D01*
X73617821Y-52511203D01*
X73666906Y-52580823D01*
X73682432Y-52632412D01*
X73679927Y-52717559D01*
X73589771Y-52885348D01*
X73520151Y-52934432D01*
X73468562Y-52949958D01*
X73383415Y-52947454D01*
X73182069Y-52839266D01*
X73132985Y-52769646D01*
X73117458Y-52718057D01*
X-61452845Y-47865410D02*
X-61334140Y-47844874D01*
X-61166352Y-47754718D01*
X-61117268Y-47685097D01*
X-61101741Y-47633508D01*
X-61104246Y-47548362D01*
X-61140308Y-47481246D01*
X-61209928Y-47432162D01*
X-61261517Y-47416635D01*
X-61346664Y-47419140D01*
X-61498926Y-47457707D01*
X-61584073Y-47460212D01*
X-61635662Y-47444686D01*
X-61705282Y-47395601D01*
X-61741345Y-47328486D01*
X-61743849Y-47243339D01*
X-61728323Y-47191750D01*
X-61679238Y-47122130D01*
X-61511450Y-47031974D01*
X-61392745Y-47011438D01*
X-60730101Y-47520312D02*
X-61108757Y-46815599D01*
X-60840295Y-46671349D01*
X-60755148Y-46668845D01*
X-60703559Y-46684371D01*
X-60633939Y-46733455D01*
X-60579845Y-46834129D01*
X-60577341Y-46919275D01*
X-60592867Y-46970864D01*
X-60641951Y-47040484D01*
X-60910413Y-47184734D01*
X-60025389Y-47141656D02*
X-60404044Y-46436943D01*
X-59689811Y-46961344D02*
X-60068467Y-46256631D01*
X-59287118Y-46744969D01*
X-59665774Y-46040256D01*
X-59095791Y-46296195D02*
X-58558867Y-46007695D01*
X-58558368Y-45445226D02*
X-58155676Y-45228851D01*
X-57978366Y-46041751D02*
X-58357022Y-45337039D01*
X-57533605Y-44937847D02*
X-57618752Y-44940352D01*
X-57719425Y-44994445D01*
X-57802067Y-45082097D01*
X-57833120Y-45185275D01*
X-57830615Y-45270421D01*
X-57792048Y-45422684D01*
X-57737954Y-45523357D01*
X-57632272Y-45639557D01*
X-57562652Y-45688641D01*
X-57459474Y-45719694D01*
X-57340769Y-45699158D01*
X-57273654Y-45663095D01*
X-57191012Y-45575444D01*
X-57175485Y-45523855D01*
X-57301704Y-45288951D01*
X-57435935Y-45361076D01*
X-56837403Y-45428690D02*
X-57216059Y-44723977D01*
X-57048270Y-44633821D01*
X-56929566Y-44613285D01*
X-56826388Y-44644338D01*
X-56756767Y-44693422D01*
X-56651085Y-44809622D01*
X-56596991Y-44910295D01*
X-56558424Y-45062557D01*
X-56555919Y-45147704D01*
X-56586972Y-45250882D01*
X-56669614Y-45338533D01*
X-56837403Y-45428690D01*
X-56075095Y-44110915D02*
X-55461536Y-44689409D01*
X-55605287Y-43858478D01*
X-55367878Y-43817406D02*
X-55352352Y-43765817D01*
X-55303267Y-43696197D01*
X-55135479Y-43606041D01*
X-55050332Y-43603536D01*
X-54998743Y-43619063D01*
X-54929123Y-43668147D01*
X-54893060Y-43735263D01*
X-54872524Y-43853967D01*
X-55058843Y-44473035D01*
X-54622592Y-44238629D01*
X-68747204Y-49982471D02*
X-69125860Y-49277758D01*
X-68620487Y-49654905D01*
X-68656051Y-49025321D01*
X-68277396Y-49730033D01*
X-68186243Y-48772884D02*
X-68052012Y-48700759D01*
X-67966865Y-48698254D01*
X-67863687Y-48729307D01*
X-67758005Y-48845507D01*
X-67631786Y-49080411D01*
X-67593219Y-49232673D01*
X-67624272Y-49335851D01*
X-67673356Y-49405471D01*
X-67807587Y-49477596D01*
X-67892734Y-49480101D01*
X-67995912Y-49449048D01*
X-68101595Y-49332848D01*
X-68227813Y-49097944D01*
X-68266380Y-48945682D01*
X-68235327Y-48842504D01*
X-68186243Y-48772884D01*
X-66867970Y-48972722D02*
X-67203548Y-49153034D01*
X-67582204Y-48448322D01*
X74802403Y-52909144D02*
X74753319Y-52839523D01*
X74652646Y-52785430D01*
X74533942Y-52764894D01*
X74430764Y-52795947D01*
X74361143Y-52845031D01*
X74255461Y-52961231D01*
X74201367Y-53061904D01*
X74162800Y-53214166D01*
X74160295Y-53299313D01*
X74191348Y-53402491D01*
X74273990Y-53490142D01*
X74341106Y-53526205D01*
X74459810Y-53546741D01*
X74511399Y-53531214D01*
X74637618Y-53296310D01*
X74503387Y-53224185D01*
X74777356Y-53760611D02*
X75156012Y-53055898D01*
X75180049Y-53976985D01*
X75558705Y-53272273D01*
X75515627Y-54157298D02*
X75894282Y-53452585D01*
X76062071Y-53542741D01*
X76144713Y-53630393D01*
X76175766Y-53733571D01*
X76173262Y-53818717D01*
X76134694Y-53970979D01*
X76080601Y-54071653D01*
X75974918Y-54187852D01*
X75905298Y-54236937D01*
X75802120Y-54267990D01*
X75683415Y-54247454D01*
X75515627Y-54157298D01*
X67290675Y-49648397D02*
X67373317Y-49736049D01*
X67541106Y-49826205D01*
X67626252Y-49828709D01*
X67677841Y-49813183D01*
X67747462Y-49764099D01*
X67783524Y-49696983D01*
X67786029Y-49611837D01*
X67770502Y-49560248D01*
X67721418Y-49490627D01*
X67605218Y-49384945D01*
X67556134Y-49315325D01*
X67540607Y-49263736D01*
X67543112Y-49178589D01*
X67579175Y-49111473D01*
X67648795Y-49062389D01*
X67700384Y-49046863D01*
X67785531Y-49049367D01*
X67953319Y-49139523D01*
X68035961Y-49227175D01*
X68416112Y-50209870D02*
X68364523Y-50225396D01*
X68245818Y-50204861D01*
X68178703Y-50168798D01*
X68096061Y-50081147D01*
X68065008Y-49977969D01*
X68067513Y-49892822D01*
X68106080Y-49740560D01*
X68160173Y-49639887D01*
X68265856Y-49523687D01*
X68335476Y-49474603D01*
X68438654Y-49443550D01*
X68557359Y-49464085D01*
X68624474Y-49500148D01*
X68707116Y-49587799D01*
X68722643Y-49639388D01*
X68682069Y-50439266D02*
X69060725Y-49734554D01*
X69084762Y-50655641D02*
X68999117Y-50090667D01*
X69463418Y-49950929D02*
X68844350Y-50137247D01*
X11910714Y-5054464D02*
X11872619Y-5092559D01*
X11758333Y-5130654D01*
X11682142Y-5130654D01*
X11567857Y-5092559D01*
X11491666Y-5016369D01*
X11453571Y-4940178D01*
X11415476Y-4787797D01*
X11415476Y-4673511D01*
X11453571Y-4521130D01*
X11491666Y-4444940D01*
X11567857Y-4368750D01*
X11682142Y-4330654D01*
X11758333Y-4330654D01*
X11872619Y-4368750D01*
X11910714Y-4406845D01*
X12634523Y-4330654D02*
X12253571Y-4330654D01*
X12215476Y-4711607D01*
X12253571Y-4673511D01*
X12329761Y-4635416D01*
X12520238Y-4635416D01*
X12596428Y-4673511D01*
X12634523Y-4711607D01*
X12672619Y-4787797D01*
X12672619Y-4978273D01*
X12634523Y-5054464D01*
X12596428Y-5092559D01*
X12520238Y-5130654D01*
X12329761Y-5130654D01*
X12253571Y-5092559D01*
X12215476Y-5054464D01*
X13167857Y-4330654D02*
X13244047Y-4330654D01*
X13320238Y-4368750D01*
X13358333Y-4406845D01*
X13396428Y-4483035D01*
X13434523Y-4635416D01*
X13434523Y-4825892D01*
X13396428Y-4978273D01*
X13358333Y-5054464D01*
X13320238Y-5092559D01*
X13244047Y-5130654D01*
X13167857Y-5130654D01*
X13091666Y-5092559D01*
X13053571Y-5054464D01*
X13015476Y-4978273D01*
X12977380Y-4825892D01*
X12977380Y-4635416D01*
X13015476Y-4483035D01*
X13053571Y-4406845D01*
X13091666Y-4368750D01*
X13167857Y-4330654D01*
X-16114285Y-5814285D02*
X-16076190Y-5852380D01*
X-16038095Y-5966666D01*
X-16038095Y-6042857D01*
X-16076190Y-6157142D01*
X-16152380Y-6233333D01*
X-16228571Y-6271428D01*
X-16380952Y-6309523D01*
X-16495238Y-6309523D01*
X-16647619Y-6271428D01*
X-16723809Y-6233333D01*
X-16800000Y-6157142D01*
X-16838095Y-6042857D01*
X-16838095Y-5966666D01*
X-16800000Y-5852380D01*
X-16761904Y-5814285D01*
X-16761904Y-5509523D02*
X-16800000Y-5471428D01*
X-16838095Y-5395238D01*
X-16838095Y-5204761D01*
X-16800000Y-5128571D01*
X-16761904Y-5090476D01*
X-16685714Y-5052380D01*
X-16609523Y-5052380D01*
X-16495238Y-5090476D01*
X-16038095Y-5547619D01*
X-16038095Y-5052380D01*
X-16838095Y-4557142D02*
X-16838095Y-4480952D01*
X-16800000Y-4404761D01*
X-16761904Y-4366666D01*
X-16685714Y-4328571D01*
X-16533333Y-4290476D01*
X-16342857Y-4290476D01*
X-16190476Y-4328571D01*
X-16114285Y-4366666D01*
X-16076190Y-4404761D01*
X-16038095Y-4480952D01*
X-16038095Y-4557142D01*
X-16076190Y-4633333D01*
X-16114285Y-4671428D01*
X-16190476Y-4709523D01*
X-16342857Y-4747619D01*
X-16533333Y-4747619D01*
X-16685714Y-4709523D01*
X-16761904Y-4671428D01*
X-16800000Y-4633333D01*
X-16838095Y-4557142D01*
X-9676785Y-7074464D02*
X-9714880Y-7112559D01*
X-9829166Y-7150654D01*
X-9905357Y-7150654D01*
X-10019642Y-7112559D01*
X-10095833Y-7036369D01*
X-10133928Y-6960178D01*
X-10172023Y-6807797D01*
X-10172023Y-6693511D01*
X-10133928Y-6541130D01*
X-10095833Y-6464940D01*
X-10019642Y-6388750D01*
X-9905357Y-6350654D01*
X-9829166Y-6350654D01*
X-9714880Y-6388750D01*
X-9676785Y-6426845D01*
X-9372023Y-6426845D02*
X-9333928Y-6388750D01*
X-9257738Y-6350654D01*
X-9067261Y-6350654D01*
X-8991071Y-6388750D01*
X-8952976Y-6426845D01*
X-8914880Y-6503035D01*
X-8914880Y-6579226D01*
X-8952976Y-6693511D01*
X-9410119Y-7150654D01*
X-8914880Y-7150654D01*
X-8152976Y-7150654D02*
X-8610119Y-7150654D01*
X-8381547Y-7150654D02*
X-8381547Y-6350654D01*
X-8457738Y-6464940D01*
X-8533928Y-6541130D01*
X-8610119Y-6579226D01*
X-18276785Y-874464D02*
X-18314880Y-912559D01*
X-18429166Y-950654D01*
X-18505357Y-950654D01*
X-18619642Y-912559D01*
X-18695833Y-836369D01*
X-18733928Y-760178D01*
X-18772023Y-607797D01*
X-18772023Y-493511D01*
X-18733928Y-341130D01*
X-18695833Y-264940D01*
X-18619642Y-188750D01*
X-18505357Y-150654D01*
X-18429166Y-150654D01*
X-18314880Y-188750D01*
X-18276785Y-226845D01*
X-17972023Y-226845D02*
X-17933928Y-188750D01*
X-17857738Y-150654D01*
X-17667261Y-150654D01*
X-17591071Y-188750D01*
X-17552976Y-226845D01*
X-17514880Y-303035D01*
X-17514880Y-379226D01*
X-17552976Y-493511D01*
X-18010119Y-950654D01*
X-17514880Y-950654D01*
X-17210119Y-226845D02*
X-17172023Y-188750D01*
X-17095833Y-150654D01*
X-16905357Y-150654D01*
X-16829166Y-188750D01*
X-16791071Y-226845D01*
X-16752976Y-303035D01*
X-16752976Y-379226D01*
X-16791071Y-493511D01*
X-17248214Y-950654D01*
X-16752976Y-950654D01*
X-10676785Y-874464D02*
X-10714880Y-912559D01*
X-10829166Y-950654D01*
X-10905357Y-950654D01*
X-11019642Y-912559D01*
X-11095833Y-836369D01*
X-11133928Y-760178D01*
X-11172023Y-607797D01*
X-11172023Y-493511D01*
X-11133928Y-341130D01*
X-11095833Y-264940D01*
X-11019642Y-188750D01*
X-10905357Y-150654D01*
X-10829166Y-150654D01*
X-10714880Y-188750D01*
X-10676785Y-226845D01*
X-10372023Y-226845D02*
X-10333928Y-188750D01*
X-10257738Y-150654D01*
X-10067261Y-150654D01*
X-9991071Y-188750D01*
X-9952976Y-226845D01*
X-9914880Y-303035D01*
X-9914880Y-379226D01*
X-9952976Y-493511D01*
X-10410119Y-950654D01*
X-9914880Y-950654D01*
X-9648214Y-150654D02*
X-9152976Y-150654D01*
X-9419642Y-455416D01*
X-9305357Y-455416D01*
X-9229166Y-493511D01*
X-9191071Y-531607D01*
X-9152976Y-607797D01*
X-9152976Y-798273D01*
X-9191071Y-874464D01*
X-9229166Y-912559D01*
X-9305357Y-950654D01*
X-9533928Y-950654D01*
X-9610119Y-912559D01*
X-9648214Y-874464D01*
X-20214285Y-35895238D02*
X-20176190Y-35933333D01*
X-20138095Y-36047619D01*
X-20138095Y-36123809D01*
X-20176190Y-36238095D01*
X-20252380Y-36314285D01*
X-20328571Y-36352380D01*
X-20480952Y-36390476D01*
X-20595238Y-36390476D01*
X-20747619Y-36352380D01*
X-20823809Y-36314285D01*
X-20900000Y-36238095D01*
X-20938095Y-36123809D01*
X-20938095Y-36047619D01*
X-20900000Y-35933333D01*
X-20861904Y-35895238D01*
X-20138095Y-35133333D02*
X-20138095Y-35590476D01*
X-20138095Y-35361904D02*
X-20938095Y-35361904D01*
X-20823809Y-35438095D01*
X-20747619Y-35514285D01*
X-20709523Y-35590476D01*
X-20938095Y-34638095D02*
X-20938095Y-34561904D01*
X-20900000Y-34485714D01*
X-20861904Y-34447619D01*
X-20785714Y-34409523D01*
X-20633333Y-34371428D01*
X-20442857Y-34371428D01*
X-20290476Y-34409523D01*
X-20214285Y-34447619D01*
X-20176190Y-34485714D01*
X-20138095Y-34561904D01*
X-20138095Y-34638095D01*
X-20176190Y-34714285D01*
X-20214285Y-34752380D01*
X-20290476Y-34790476D01*
X-20442857Y-34828571D01*
X-20633333Y-34828571D01*
X-20785714Y-34790476D01*
X-20861904Y-34752380D01*
X-20900000Y-34714285D01*
X-20938095Y-34638095D01*
X-20138095Y-33609523D02*
X-20138095Y-34066666D01*
X-20138095Y-33838095D02*
X-20938095Y-33838095D01*
X-20823809Y-33914285D01*
X-20747619Y-33990476D01*
X-20709523Y-34066666D01*
X-28395238Y-38035714D02*
X-28433333Y-38073809D01*
X-28547619Y-38111904D01*
X-28623809Y-38111904D01*
X-28738095Y-38073809D01*
X-28814285Y-37997619D01*
X-28852380Y-37921428D01*
X-28890476Y-37769047D01*
X-28890476Y-37654761D01*
X-28852380Y-37502380D01*
X-28814285Y-37426190D01*
X-28738095Y-37350000D01*
X-28623809Y-37311904D01*
X-28547619Y-37311904D01*
X-28433333Y-37350000D01*
X-28395238Y-37388095D01*
X-27633333Y-38111904D02*
X-28090476Y-38111904D01*
X-27861904Y-38111904D02*
X-27861904Y-37311904D01*
X-27938095Y-37426190D01*
X-28014285Y-37502380D01*
X-28090476Y-37540476D01*
X-27138095Y-37311904D02*
X-27061904Y-37311904D01*
X-26985714Y-37350000D01*
X-26947619Y-37388095D01*
X-26909523Y-37464285D01*
X-26871428Y-37616666D01*
X-26871428Y-37807142D01*
X-26909523Y-37959523D01*
X-26947619Y-38035714D01*
X-26985714Y-38073809D01*
X-27061904Y-38111904D01*
X-27138095Y-38111904D01*
X-27214285Y-38073809D01*
X-27252380Y-38035714D01*
X-27290476Y-37959523D01*
X-27328571Y-37807142D01*
X-27328571Y-37616666D01*
X-27290476Y-37464285D01*
X-27252380Y-37388095D01*
X-27214285Y-37350000D01*
X-27138095Y-37311904D01*
X-26566666Y-37388095D02*
X-26528571Y-37350000D01*
X-26452380Y-37311904D01*
X-26261904Y-37311904D01*
X-26185714Y-37350000D01*
X-26147619Y-37388095D01*
X-26109523Y-37464285D01*
X-26109523Y-37540476D01*
X-26147619Y-37654761D01*
X-26604761Y-38111904D01*
X-26109523Y-38111904D01*
X-31645238Y-38035714D02*
X-31683333Y-38073809D01*
X-31797619Y-38111904D01*
X-31873809Y-38111904D01*
X-31988095Y-38073809D01*
X-32064285Y-37997619D01*
X-32102380Y-37921428D01*
X-32140476Y-37769047D01*
X-32140476Y-37654761D01*
X-32102380Y-37502380D01*
X-32064285Y-37426190D01*
X-31988095Y-37350000D01*
X-31873809Y-37311904D01*
X-31797619Y-37311904D01*
X-31683333Y-37350000D01*
X-31645238Y-37388095D01*
X-30883333Y-38111904D02*
X-31340476Y-38111904D01*
X-31111904Y-38111904D02*
X-31111904Y-37311904D01*
X-31188095Y-37426190D01*
X-31264285Y-37502380D01*
X-31340476Y-37540476D01*
X-30388095Y-37311904D02*
X-30311904Y-37311904D01*
X-30235714Y-37350000D01*
X-30197619Y-37388095D01*
X-30159523Y-37464285D01*
X-30121428Y-37616666D01*
X-30121428Y-37807142D01*
X-30159523Y-37959523D01*
X-30197619Y-38035714D01*
X-30235714Y-38073809D01*
X-30311904Y-38111904D01*
X-30388095Y-38111904D01*
X-30464285Y-38073809D01*
X-30502380Y-38035714D01*
X-30540476Y-37959523D01*
X-30578571Y-37807142D01*
X-30578571Y-37616666D01*
X-30540476Y-37464285D01*
X-30502380Y-37388095D01*
X-30464285Y-37350000D01*
X-30388095Y-37311904D01*
X-29854761Y-37311904D02*
X-29359523Y-37311904D01*
X-29626190Y-37616666D01*
X-29511904Y-37616666D01*
X-29435714Y-37654761D01*
X-29397619Y-37692857D01*
X-29359523Y-37769047D01*
X-29359523Y-37959523D01*
X-29397619Y-38035714D01*
X-29435714Y-38073809D01*
X-29511904Y-38111904D01*
X-29740476Y-38111904D01*
X-29816666Y-38073809D01*
X-29854761Y-38035714D01*
X-31645238Y-36785714D02*
X-31683333Y-36823809D01*
X-31797619Y-36861904D01*
X-31873809Y-36861904D01*
X-31988095Y-36823809D01*
X-32064285Y-36747619D01*
X-32102380Y-36671428D01*
X-32140476Y-36519047D01*
X-32140476Y-36404761D01*
X-32102380Y-36252380D01*
X-32064285Y-36176190D01*
X-31988095Y-36100000D01*
X-31873809Y-36061904D01*
X-31797619Y-36061904D01*
X-31683333Y-36100000D01*
X-31645238Y-36138095D01*
X-30883333Y-36861904D02*
X-31340476Y-36861904D01*
X-31111904Y-36861904D02*
X-31111904Y-36061904D01*
X-31188095Y-36176190D01*
X-31264285Y-36252380D01*
X-31340476Y-36290476D01*
X-30388095Y-36061904D02*
X-30311904Y-36061904D01*
X-30235714Y-36100000D01*
X-30197619Y-36138095D01*
X-30159523Y-36214285D01*
X-30121428Y-36366666D01*
X-30121428Y-36557142D01*
X-30159523Y-36709523D01*
X-30197619Y-36785714D01*
X-30235714Y-36823809D01*
X-30311904Y-36861904D01*
X-30388095Y-36861904D01*
X-30464285Y-36823809D01*
X-30502380Y-36785714D01*
X-30540476Y-36709523D01*
X-30578571Y-36557142D01*
X-30578571Y-36366666D01*
X-30540476Y-36214285D01*
X-30502380Y-36138095D01*
X-30464285Y-36100000D01*
X-30388095Y-36061904D01*
X-29435714Y-36328571D02*
X-29435714Y-36861904D01*
X-29626190Y-36023809D02*
X-29816666Y-36595238D01*
X-29321428Y-36595238D01*
X-31645238Y-35535714D02*
X-31683333Y-35573809D01*
X-31797619Y-35611904D01*
X-31873809Y-35611904D01*
X-31988095Y-35573809D01*
X-32064285Y-35497619D01*
X-32102380Y-35421428D01*
X-32140476Y-35269047D01*
X-32140476Y-35154761D01*
X-32102380Y-35002380D01*
X-32064285Y-34926190D01*
X-31988095Y-34850000D01*
X-31873809Y-34811904D01*
X-31797619Y-34811904D01*
X-31683333Y-34850000D01*
X-31645238Y-34888095D01*
X-30883333Y-35611904D02*
X-31340476Y-35611904D01*
X-31111904Y-35611904D02*
X-31111904Y-34811904D01*
X-31188095Y-34926190D01*
X-31264285Y-35002380D01*
X-31340476Y-35040476D01*
X-30388095Y-34811904D02*
X-30311904Y-34811904D01*
X-30235714Y-34850000D01*
X-30197619Y-34888095D01*
X-30159523Y-34964285D01*
X-30121428Y-35116666D01*
X-30121428Y-35307142D01*
X-30159523Y-35459523D01*
X-30197619Y-35535714D01*
X-30235714Y-35573809D01*
X-30311904Y-35611904D01*
X-30388095Y-35611904D01*
X-30464285Y-35573809D01*
X-30502380Y-35535714D01*
X-30540476Y-35459523D01*
X-30578571Y-35307142D01*
X-30578571Y-35116666D01*
X-30540476Y-34964285D01*
X-30502380Y-34888095D01*
X-30464285Y-34850000D01*
X-30388095Y-34811904D01*
X-29397619Y-34811904D02*
X-29778571Y-34811904D01*
X-29816666Y-35192857D01*
X-29778571Y-35154761D01*
X-29702380Y-35116666D01*
X-29511904Y-35116666D01*
X-29435714Y-35154761D01*
X-29397619Y-35192857D01*
X-29359523Y-35269047D01*
X-29359523Y-35459523D01*
X-29397619Y-35535714D01*
X-29435714Y-35573809D01*
X-29511904Y-35611904D01*
X-29702380Y-35611904D01*
X-29778571Y-35573809D01*
X-29816666Y-35535714D01*
X-30514285Y-32895238D02*
X-30476190Y-32933333D01*
X-30438095Y-33047619D01*
X-30438095Y-33123809D01*
X-30476190Y-33238095D01*
X-30552380Y-33314285D01*
X-30628571Y-33352380D01*
X-30780952Y-33390476D01*
X-30895238Y-33390476D01*
X-31047619Y-33352380D01*
X-31123809Y-33314285D01*
X-31200000Y-33238095D01*
X-31238095Y-33123809D01*
X-31238095Y-33047619D01*
X-31200000Y-32933333D01*
X-31161904Y-32895238D01*
X-30438095Y-32133333D02*
X-30438095Y-32590476D01*
X-30438095Y-32361904D02*
X-31238095Y-32361904D01*
X-31123809Y-32438095D01*
X-31047619Y-32514285D01*
X-31009523Y-32590476D01*
X-31238095Y-31638095D02*
X-31238095Y-31561904D01*
X-31200000Y-31485714D01*
X-31161904Y-31447619D01*
X-31085714Y-31409523D01*
X-30933333Y-31371428D01*
X-30742857Y-31371428D01*
X-30590476Y-31409523D01*
X-30514285Y-31447619D01*
X-30476190Y-31485714D01*
X-30438095Y-31561904D01*
X-30438095Y-31638095D01*
X-30476190Y-31714285D01*
X-30514285Y-31752380D01*
X-30590476Y-31790476D01*
X-30742857Y-31828571D01*
X-30933333Y-31828571D01*
X-31085714Y-31790476D01*
X-31161904Y-31752380D01*
X-31200000Y-31714285D01*
X-31238095Y-31638095D01*
X-31238095Y-30685714D02*
X-31238095Y-30838095D01*
X-31200000Y-30914285D01*
X-31161904Y-30952380D01*
X-31047619Y-31028571D01*
X-30895238Y-31066666D01*
X-30590476Y-31066666D01*
X-30514285Y-31028571D01*
X-30476190Y-30990476D01*
X-30438095Y-30914285D01*
X-30438095Y-30761904D01*
X-30476190Y-30685714D01*
X-30514285Y-30647619D01*
X-30590476Y-30609523D01*
X-30780952Y-30609523D01*
X-30857142Y-30647619D01*
X-30895238Y-30685714D01*
X-30933333Y-30761904D01*
X-30933333Y-30914285D01*
X-30895238Y-30990476D01*
X-30857142Y-31028571D01*
X-30780952Y-31066666D01*
X-31654285Y-32885238D02*
X-31616190Y-32923333D01*
X-31578095Y-33037619D01*
X-31578095Y-33113809D01*
X-31616190Y-33228095D01*
X-31692380Y-33304285D01*
X-31768571Y-33342380D01*
X-31920952Y-33380476D01*
X-32035238Y-33380476D01*
X-32187619Y-33342380D01*
X-32263809Y-33304285D01*
X-32340000Y-33228095D01*
X-32378095Y-33113809D01*
X-32378095Y-33037619D01*
X-32340000Y-32923333D01*
X-32301904Y-32885238D01*
X-31578095Y-32123333D02*
X-31578095Y-32580476D01*
X-31578095Y-32351904D02*
X-32378095Y-32351904D01*
X-32263809Y-32428095D01*
X-32187619Y-32504285D01*
X-32149523Y-32580476D01*
X-32378095Y-31628095D02*
X-32378095Y-31551904D01*
X-32340000Y-31475714D01*
X-32301904Y-31437619D01*
X-32225714Y-31399523D01*
X-32073333Y-31361428D01*
X-31882857Y-31361428D01*
X-31730476Y-31399523D01*
X-31654285Y-31437619D01*
X-31616190Y-31475714D01*
X-31578095Y-31551904D01*
X-31578095Y-31628095D01*
X-31616190Y-31704285D01*
X-31654285Y-31742380D01*
X-31730476Y-31780476D01*
X-31882857Y-31818571D01*
X-32073333Y-31818571D01*
X-32225714Y-31780476D01*
X-32301904Y-31742380D01*
X-32340000Y-31704285D01*
X-32378095Y-31628095D01*
X-32378095Y-31094761D02*
X-32378095Y-30561428D01*
X-31578095Y-30904285D01*
X11960714Y-6530654D02*
X11694047Y-6149702D01*
X11503571Y-6530654D02*
X11503571Y-5730654D01*
X11808333Y-5730654D01*
X11884523Y-5768750D01*
X11922619Y-5806845D01*
X11960714Y-5883035D01*
X11960714Y-5997321D01*
X11922619Y-6073511D01*
X11884523Y-6111607D01*
X11808333Y-6149702D01*
X11503571Y-6149702D01*
X12684523Y-5730654D02*
X12303571Y-5730654D01*
X12265476Y-6111607D01*
X12303571Y-6073511D01*
X12379761Y-6035416D01*
X12570238Y-6035416D01*
X12646428Y-6073511D01*
X12684523Y-6111607D01*
X12722619Y-6187797D01*
X12722619Y-6378273D01*
X12684523Y-6454464D01*
X12646428Y-6492559D01*
X12570238Y-6530654D01*
X12379761Y-6530654D01*
X12303571Y-6492559D01*
X12265476Y-6454464D01*
X13217857Y-5730654D02*
X13294047Y-5730654D01*
X13370238Y-5768750D01*
X13408333Y-5806845D01*
X13446428Y-5883035D01*
X13484523Y-6035416D01*
X13484523Y-6225892D01*
X13446428Y-6378273D01*
X13408333Y-6454464D01*
X13370238Y-6492559D01*
X13294047Y-6530654D01*
X13217857Y-6530654D01*
X13141666Y-6492559D01*
X13103571Y-6454464D01*
X13065476Y-6378273D01*
X13027380Y-6225892D01*
X13027380Y-6035416D01*
X13065476Y-5883035D01*
X13103571Y-5806845D01*
X13141666Y-5768750D01*
X13217857Y-5730654D01*
X11960714Y-3730654D02*
X11694047Y-3349702D01*
X11503571Y-3730654D02*
X11503571Y-2930654D01*
X11808333Y-2930654D01*
X11884523Y-2968750D01*
X11922619Y-3006845D01*
X11960714Y-3083035D01*
X11960714Y-3197321D01*
X11922619Y-3273511D01*
X11884523Y-3311607D01*
X11808333Y-3349702D01*
X11503571Y-3349702D01*
X12684523Y-2930654D02*
X12303571Y-2930654D01*
X12265476Y-3311607D01*
X12303571Y-3273511D01*
X12379761Y-3235416D01*
X12570238Y-3235416D01*
X12646428Y-3273511D01*
X12684523Y-3311607D01*
X12722619Y-3387797D01*
X12722619Y-3578273D01*
X12684523Y-3654464D01*
X12646428Y-3692559D01*
X12570238Y-3730654D01*
X12379761Y-3730654D01*
X12303571Y-3692559D01*
X12265476Y-3654464D01*
X13484523Y-3730654D02*
X13027380Y-3730654D01*
X13255952Y-3730654D02*
X13255952Y-2930654D01*
X13179761Y-3044940D01*
X13103571Y-3121130D01*
X13027380Y-3159226D01*
X16785714Y-28961904D02*
X16519047Y-28580952D01*
X16328571Y-28961904D02*
X16328571Y-28161904D01*
X16633333Y-28161904D01*
X16709523Y-28200000D01*
X16747619Y-28238095D01*
X16785714Y-28314285D01*
X16785714Y-28428571D01*
X16747619Y-28504761D01*
X16709523Y-28542857D01*
X16633333Y-28580952D01*
X16328571Y-28580952D01*
X17547619Y-28961904D02*
X17090476Y-28961904D01*
X17319047Y-28961904D02*
X17319047Y-28161904D01*
X17242857Y-28276190D01*
X17166666Y-28352380D01*
X17090476Y-28390476D01*
X18042857Y-28161904D02*
X18119047Y-28161904D01*
X18195238Y-28200000D01*
X18233333Y-28238095D01*
X18271428Y-28314285D01*
X18309523Y-28466666D01*
X18309523Y-28657142D01*
X18271428Y-28809523D01*
X18233333Y-28885714D01*
X18195238Y-28923809D01*
X18119047Y-28961904D01*
X18042857Y-28961904D01*
X17966666Y-28923809D01*
X17928571Y-28885714D01*
X17890476Y-28809523D01*
X17852380Y-28657142D01*
X17852380Y-28466666D01*
X17890476Y-28314285D01*
X17928571Y-28238095D01*
X17966666Y-28200000D01*
X18042857Y-28161904D01*
X16735714Y-25161904D02*
X16469047Y-24780952D01*
X16278571Y-25161904D02*
X16278571Y-24361904D01*
X16583333Y-24361904D01*
X16659523Y-24400000D01*
X16697619Y-24438095D01*
X16735714Y-24514285D01*
X16735714Y-24628571D01*
X16697619Y-24704761D01*
X16659523Y-24742857D01*
X16583333Y-24780952D01*
X16278571Y-24780952D01*
X17497619Y-25161904D02*
X17040476Y-25161904D01*
X17269047Y-25161904D02*
X17269047Y-24361904D01*
X17192857Y-24476190D01*
X17116666Y-24552380D01*
X17040476Y-24590476D01*
X18259523Y-25161904D02*
X17802380Y-25161904D01*
X18030952Y-25161904D02*
X18030952Y-24361904D01*
X17954761Y-24476190D01*
X17878571Y-24552380D01*
X17802380Y-24590476D01*
X-2164285Y-3911904D02*
X-2430952Y-3530952D01*
X-2621428Y-3911904D02*
X-2621428Y-3111904D01*
X-2316666Y-3111904D01*
X-2240476Y-3150000D01*
X-2202380Y-3188095D01*
X-2164285Y-3264285D01*
X-2164285Y-3378571D01*
X-2202380Y-3454761D01*
X-2240476Y-3492857D01*
X-2316666Y-3530952D01*
X-2621428Y-3530952D01*
X-1402380Y-3911904D02*
X-1859523Y-3911904D01*
X-1630952Y-3911904D02*
X-1630952Y-3111904D01*
X-1707142Y-3226190D01*
X-1783333Y-3302380D01*
X-1859523Y-3340476D01*
X-1097619Y-3188095D02*
X-1059523Y-3150000D01*
X-983333Y-3111904D01*
X-792857Y-3111904D01*
X-716666Y-3150000D01*
X-678571Y-3188095D01*
X-640476Y-3264285D01*
X-640476Y-3340476D01*
X-678571Y-3454761D01*
X-1135714Y-3911904D01*
X-640476Y-3911904D01*
X-2214285Y-5111904D02*
X-2480952Y-4730952D01*
X-2671428Y-5111904D02*
X-2671428Y-4311904D01*
X-2366666Y-4311904D01*
X-2290476Y-4350000D01*
X-2252380Y-4388095D01*
X-2214285Y-4464285D01*
X-2214285Y-4578571D01*
X-2252380Y-4654761D01*
X-2290476Y-4692857D01*
X-2366666Y-4730952D01*
X-2671428Y-4730952D01*
X-1452380Y-5111904D02*
X-1909523Y-5111904D01*
X-1680952Y-5111904D02*
X-1680952Y-4311904D01*
X-1757142Y-4426190D01*
X-1833333Y-4502380D01*
X-1909523Y-4540476D01*
X-1185714Y-4311904D02*
X-690476Y-4311904D01*
X-957142Y-4616666D01*
X-842857Y-4616666D01*
X-766666Y-4654761D01*
X-728571Y-4692857D01*
X-690476Y-4769047D01*
X-690476Y-4959523D01*
X-728571Y-5035714D01*
X-766666Y-5073809D01*
X-842857Y-5111904D01*
X-1071428Y-5111904D01*
X-1147619Y-5073809D01*
X-1185714Y-5035714D01*
X-13214285Y-950654D02*
X-13480952Y-569702D01*
X-13671428Y-950654D02*
X-13671428Y-150654D01*
X-13366666Y-150654D01*
X-13290476Y-188750D01*
X-13252380Y-226845D01*
X-13214285Y-303035D01*
X-13214285Y-417321D01*
X-13252380Y-493511D01*
X-13290476Y-531607D01*
X-13366666Y-569702D01*
X-13671428Y-569702D01*
X-12909523Y-226845D02*
X-12871428Y-188750D01*
X-12795238Y-150654D01*
X-12604761Y-150654D01*
X-12528571Y-188750D01*
X-12490476Y-226845D01*
X-12452380Y-303035D01*
X-12452380Y-379226D01*
X-12490476Y-493511D01*
X-12947619Y-950654D01*
X-12452380Y-950654D01*
X-11957142Y-150654D02*
X-11880952Y-150654D01*
X-11804761Y-188750D01*
X-11766666Y-226845D01*
X-11728571Y-303035D01*
X-11690476Y-455416D01*
X-11690476Y-645892D01*
X-11728571Y-798273D01*
X-11766666Y-874464D01*
X-11804761Y-912559D01*
X-11880952Y-950654D01*
X-11957142Y-950654D01*
X-12033333Y-912559D01*
X-12071428Y-874464D01*
X-12109523Y-798273D01*
X-12147619Y-645892D01*
X-12147619Y-455416D01*
X-12109523Y-303035D01*
X-12071428Y-226845D01*
X-12033333Y-188750D01*
X-11957142Y-150654D01*
X-15676785Y-950654D02*
X-15943452Y-569702D01*
X-16133928Y-950654D02*
X-16133928Y-150654D01*
X-15829166Y-150654D01*
X-15752976Y-188750D01*
X-15714880Y-226845D01*
X-15676785Y-303035D01*
X-15676785Y-417321D01*
X-15714880Y-493511D01*
X-15752976Y-531607D01*
X-15829166Y-569702D01*
X-16133928Y-569702D01*
X-15372023Y-226845D02*
X-15333928Y-188750D01*
X-15257738Y-150654D01*
X-15067261Y-150654D01*
X-14991071Y-188750D01*
X-14952976Y-226845D01*
X-14914880Y-303035D01*
X-14914880Y-379226D01*
X-14952976Y-493511D01*
X-15410119Y-950654D01*
X-14914880Y-950654D01*
X-14152976Y-950654D02*
X-14610119Y-950654D01*
X-14381547Y-950654D02*
X-14381547Y-150654D01*
X-14457738Y-264940D01*
X-14533928Y-341130D01*
X-14610119Y-379226D01*
X-20138095Y-32390238D02*
X-20519047Y-32656904D01*
X-20138095Y-32847380D02*
X-20938095Y-32847380D01*
X-20938095Y-32542619D01*
X-20900000Y-32466428D01*
X-20861904Y-32428333D01*
X-20785714Y-32390238D01*
X-20671428Y-32390238D01*
X-20595238Y-32428333D01*
X-20557142Y-32466428D01*
X-20519047Y-32542619D01*
X-20519047Y-32847380D01*
X-20138095Y-31628333D02*
X-20138095Y-32085476D01*
X-20138095Y-31856904D02*
X-20938095Y-31856904D01*
X-20823809Y-31933095D01*
X-20747619Y-32009285D01*
X-20709523Y-32085476D01*
X-20938095Y-31133095D02*
X-20938095Y-31056904D01*
X-20900000Y-30980714D01*
X-20861904Y-30942619D01*
X-20785714Y-30904523D01*
X-20633333Y-30866428D01*
X-20442857Y-30866428D01*
X-20290476Y-30904523D01*
X-20214285Y-30942619D01*
X-20176190Y-30980714D01*
X-20138095Y-31056904D01*
X-20138095Y-31133095D01*
X-20176190Y-31209285D01*
X-20214285Y-31247380D01*
X-20290476Y-31285476D01*
X-20442857Y-31323571D01*
X-20633333Y-31323571D01*
X-20785714Y-31285476D01*
X-20861904Y-31247380D01*
X-20900000Y-31209285D01*
X-20938095Y-31133095D01*
X-20938095Y-30371190D02*
X-20938095Y-30295000D01*
X-20900000Y-30218809D01*
X-20861904Y-30180714D01*
X-20785714Y-30142619D01*
X-20633333Y-30104523D01*
X-20442857Y-30104523D01*
X-20290476Y-30142619D01*
X-20214285Y-30180714D01*
X-20176190Y-30218809D01*
X-20138095Y-30295000D01*
X-20138095Y-30371190D01*
X-20176190Y-30447380D01*
X-20214285Y-30485476D01*
X-20290476Y-30523571D01*
X-20442857Y-30561666D01*
X-20633333Y-30561666D01*
X-20785714Y-30523571D01*
X-20861904Y-30485476D01*
X-20900000Y-30447380D01*
X-20938095Y-30371190D01*
D13*
X-31467619Y-32364285D02*
X-30658095Y-32364285D01*
X-30562857Y-32316666D01*
X-30515238Y-32269047D01*
X-30467619Y-32173809D01*
X-30467619Y-31983333D01*
X-30515238Y-31888095D01*
X-30562857Y-31840476D01*
X-30658095Y-31792857D01*
X-31467619Y-31792857D01*
X-30467619Y-30792857D02*
X-30467619Y-31364285D01*
X-30467619Y-31078571D02*
X-31467619Y-31078571D01*
X-31324761Y-31173809D01*
X-31229523Y-31269047D01*
X-31181904Y-31364285D01*
X-31467619Y-30173809D02*
X-31467619Y-30078571D01*
X-31420000Y-29983333D01*
X-31372380Y-29935714D01*
X-31277142Y-29888095D01*
X-31086666Y-29840476D01*
X-30848571Y-29840476D01*
X-30658095Y-29888095D01*
X-30562857Y-29935714D01*
X-30515238Y-29983333D01*
X-30467619Y-30078571D01*
X-30467619Y-30173809D01*
X-30515238Y-30269047D01*
X-30562857Y-30316666D01*
X-30658095Y-30364285D01*
X-30848571Y-30411904D01*
X-31086666Y-30411904D01*
X-31277142Y-30364285D01*
X-31372380Y-30316666D01*
X-31420000Y-30269047D01*
X-31467619Y-30173809D01*
X-31467619Y-29221428D02*
X-31467619Y-29126190D01*
X-31420000Y-29030952D01*
X-31372380Y-28983333D01*
X-31277142Y-28935714D01*
X-31086666Y-28888095D01*
X-30848571Y-28888095D01*
X-30658095Y-28935714D01*
X-30562857Y-28983333D01*
X-30515238Y-29030952D01*
X-30467619Y-29126190D01*
X-30467619Y-29221428D01*
X-30515238Y-29316666D01*
X-30562857Y-29364285D01*
X-30658095Y-29411904D01*
X-30848571Y-29459523D01*
X-31086666Y-29459523D01*
X-31277142Y-29411904D01*
X-31372380Y-29364285D01*
X-31420000Y-29316666D01*
X-31467619Y-29221428D01*
D10*
X17516666Y-35861904D02*
X17250000Y-35480952D01*
X17059523Y-35861904D02*
X17059523Y-35061904D01*
X17364285Y-35061904D01*
X17440476Y-35100000D01*
X17478571Y-35138095D01*
X17516666Y-35214285D01*
X17516666Y-35328571D01*
X17478571Y-35404761D01*
X17440476Y-35442857D01*
X17364285Y-35480952D01*
X17059523Y-35480952D01*
X18278571Y-35861904D02*
X17821428Y-35861904D01*
X18050000Y-35861904D02*
X18050000Y-35061904D01*
X17973809Y-35176190D01*
X17897619Y-35252380D01*
X17821428Y-35290476D01*
X-21464285Y-26345238D02*
X-21426190Y-26383333D01*
X-21388095Y-26497619D01*
X-21388095Y-26573809D01*
X-21426190Y-26688095D01*
X-21502380Y-26764285D01*
X-21578571Y-26802380D01*
X-21730952Y-26840476D01*
X-21845238Y-26840476D01*
X-21997619Y-26802380D01*
X-22073809Y-26764285D01*
X-22150000Y-26688095D01*
X-22188095Y-26573809D01*
X-22188095Y-26497619D01*
X-22150000Y-26383333D01*
X-22111904Y-26345238D01*
X-21388095Y-25583333D02*
X-21388095Y-26040476D01*
X-21388095Y-25811904D02*
X-22188095Y-25811904D01*
X-22073809Y-25888095D01*
X-21997619Y-25964285D01*
X-21959523Y-26040476D01*
X-22188095Y-25088095D02*
X-22188095Y-25011904D01*
X-22150000Y-24935714D01*
X-22111904Y-24897619D01*
X-22035714Y-24859523D01*
X-21883333Y-24821428D01*
X-21692857Y-24821428D01*
X-21540476Y-24859523D01*
X-21464285Y-24897619D01*
X-21426190Y-24935714D01*
X-21388095Y-25011904D01*
X-21388095Y-25088095D01*
X-21426190Y-25164285D01*
X-21464285Y-25202380D01*
X-21540476Y-25240476D01*
X-21692857Y-25278571D01*
X-21883333Y-25278571D01*
X-22035714Y-25240476D01*
X-22111904Y-25202380D01*
X-22150000Y-25164285D01*
X-22188095Y-25088095D01*
X-21845238Y-24364285D02*
X-21883333Y-24440476D01*
X-21921428Y-24478571D01*
X-21997619Y-24516666D01*
X-22035714Y-24516666D01*
X-22111904Y-24478571D01*
X-22150000Y-24440476D01*
X-22188095Y-24364285D01*
X-22188095Y-24211904D01*
X-22150000Y-24135714D01*
X-22111904Y-24097619D01*
X-22035714Y-24059523D01*
X-21997619Y-24059523D01*
X-21921428Y-24097619D01*
X-21883333Y-24135714D01*
X-21845238Y-24211904D01*
X-21845238Y-24364285D01*
X-21807142Y-24440476D01*
X-21769047Y-24478571D01*
X-21692857Y-24516666D01*
X-21540476Y-24516666D01*
X-21464285Y-24478571D01*
X-21426190Y-24440476D01*
X-21388095Y-24364285D01*
X-21388095Y-24211904D01*
X-21426190Y-24135714D01*
X-21464285Y-24097619D01*
X-21540476Y-24059523D01*
X-21692857Y-24059523D01*
X-21769047Y-24097619D01*
X-21807142Y-24135714D01*
X-21845238Y-24211904D01*
X-37995238Y-33385714D02*
X-38033333Y-33423809D01*
X-38147619Y-33461904D01*
X-38223809Y-33461904D01*
X-38338095Y-33423809D01*
X-38414285Y-33347619D01*
X-38452380Y-33271428D01*
X-38490476Y-33119047D01*
X-38490476Y-33004761D01*
X-38452380Y-32852380D01*
X-38414285Y-32776190D01*
X-38338095Y-32700000D01*
X-38223809Y-32661904D01*
X-38147619Y-32661904D01*
X-38033333Y-32700000D01*
X-37995238Y-32738095D01*
X-37233333Y-33461904D02*
X-37690476Y-33461904D01*
X-37461904Y-33461904D02*
X-37461904Y-32661904D01*
X-37538095Y-32776190D01*
X-37614285Y-32852380D01*
X-37690476Y-32890476D01*
X-36471428Y-33461904D02*
X-36928571Y-33461904D01*
X-36700000Y-33461904D02*
X-36700000Y-32661904D01*
X-36776190Y-32776190D01*
X-36852380Y-32852380D01*
X-36928571Y-32890476D01*
X-35709523Y-33461904D02*
X-36166666Y-33461904D01*
X-35938095Y-33461904D02*
X-35938095Y-32661904D01*
X-36014285Y-32776190D01*
X-36090476Y-32852380D01*
X-36166666Y-32890476D01*
X36040476Y-28411904D02*
X36040476Y-29059523D01*
X36078571Y-29135714D01*
X36116666Y-29173809D01*
X36192857Y-29211904D01*
X36345238Y-29211904D01*
X36421428Y-29173809D01*
X36459523Y-29135714D01*
X36497619Y-29059523D01*
X36497619Y-28411904D01*
X36840476Y-28488095D02*
X36878571Y-28450000D01*
X36954761Y-28411904D01*
X37145238Y-28411904D01*
X37221428Y-28450000D01*
X37259523Y-28488095D01*
X37297619Y-28564285D01*
X37297619Y-28640476D01*
X37259523Y-28754761D01*
X36802380Y-29211904D01*
X37297619Y-29211904D01*
X-35045238Y-33335714D02*
X-35083333Y-33373809D01*
X-35197619Y-33411904D01*
X-35273809Y-33411904D01*
X-35388095Y-33373809D01*
X-35464285Y-33297619D01*
X-35502380Y-33221428D01*
X-35540476Y-33069047D01*
X-35540476Y-32954761D01*
X-35502380Y-32802380D01*
X-35464285Y-32726190D01*
X-35388095Y-32650000D01*
X-35273809Y-32611904D01*
X-35197619Y-32611904D01*
X-35083333Y-32650000D01*
X-35045238Y-32688095D01*
X-34283333Y-33411904D02*
X-34740476Y-33411904D01*
X-34511904Y-33411904D02*
X-34511904Y-32611904D01*
X-34588095Y-32726190D01*
X-34664285Y-32802380D01*
X-34740476Y-32840476D01*
X-33521428Y-33411904D02*
X-33978571Y-33411904D01*
X-33750000Y-33411904D02*
X-33750000Y-32611904D01*
X-33826190Y-32726190D01*
X-33902380Y-32802380D01*
X-33978571Y-32840476D01*
X-33026190Y-32611904D02*
X-32950000Y-32611904D01*
X-32873809Y-32650000D01*
X-32835714Y-32688095D01*
X-32797619Y-32764285D01*
X-32759523Y-32916666D01*
X-32759523Y-33107142D01*
X-32797619Y-33259523D01*
X-32835714Y-33335714D01*
X-32873809Y-33373809D01*
X-32950000Y-33411904D01*
X-33026190Y-33411904D01*
X-33102380Y-33373809D01*
X-33140476Y-33335714D01*
X-33178571Y-33259523D01*
X-33216666Y-33107142D01*
X-33216666Y-32916666D01*
X-33178571Y-32764285D01*
X-33140476Y-32688095D01*
X-33102380Y-32650000D01*
X-33026190Y-32611904D01*
X-44295238Y-31435714D02*
X-44333333Y-31473809D01*
X-44447619Y-31511904D01*
X-44523809Y-31511904D01*
X-44638095Y-31473809D01*
X-44714285Y-31397619D01*
X-44752380Y-31321428D01*
X-44790476Y-31169047D01*
X-44790476Y-31054761D01*
X-44752380Y-30902380D01*
X-44714285Y-30826190D01*
X-44638095Y-30750000D01*
X-44523809Y-30711904D01*
X-44447619Y-30711904D01*
X-44333333Y-30750000D01*
X-44295238Y-30788095D01*
X-43533333Y-31511904D02*
X-43990476Y-31511904D01*
X-43761904Y-31511904D02*
X-43761904Y-30711904D01*
X-43838095Y-30826190D01*
X-43914285Y-30902380D01*
X-43990476Y-30940476D01*
X-43228571Y-30788095D02*
X-43190476Y-30750000D01*
X-43114285Y-30711904D01*
X-42923809Y-30711904D01*
X-42847619Y-30750000D01*
X-42809523Y-30788095D01*
X-42771428Y-30864285D01*
X-42771428Y-30940476D01*
X-42809523Y-31054761D01*
X-43266666Y-31511904D01*
X-42771428Y-31511904D01*
X-42466666Y-30788095D02*
X-42428571Y-30750000D01*
X-42352380Y-30711904D01*
X-42161904Y-30711904D01*
X-42085714Y-30750000D01*
X-42047619Y-30788095D01*
X-42009523Y-30864285D01*
X-42009523Y-30940476D01*
X-42047619Y-31054761D01*
X-42504761Y-31511904D01*
X-42009523Y-31511904D01*
X32766666Y-35635714D02*
X32728571Y-35673809D01*
X32614285Y-35711904D01*
X32538095Y-35711904D01*
X32423809Y-35673809D01*
X32347619Y-35597619D01*
X32309523Y-35521428D01*
X32271428Y-35369047D01*
X32271428Y-35254761D01*
X32309523Y-35102380D01*
X32347619Y-35026190D01*
X32423809Y-34950000D01*
X32538095Y-34911904D01*
X32614285Y-34911904D01*
X32728571Y-34950000D01*
X32766666Y-34988095D01*
X33490476Y-34911904D02*
X33109523Y-34911904D01*
X33071428Y-35292857D01*
X33109523Y-35254761D01*
X33185714Y-35216666D01*
X33376190Y-35216666D01*
X33452380Y-35254761D01*
X33490476Y-35292857D01*
X33528571Y-35369047D01*
X33528571Y-35559523D01*
X33490476Y-35635714D01*
X33452380Y-35673809D01*
X33376190Y-35711904D01*
X33185714Y-35711904D01*
X33109523Y-35673809D01*
X33071428Y-35635714D01*
X-37995238Y-34511904D02*
X-38376190Y-34511904D01*
X-38376190Y-33711904D01*
X-37309523Y-34511904D02*
X-37766666Y-34511904D01*
X-37538095Y-34511904D02*
X-37538095Y-33711904D01*
X-37614285Y-33826190D01*
X-37690476Y-33902380D01*
X-37766666Y-33940476D01*
X-36814285Y-33711904D02*
X-36738095Y-33711904D01*
X-36661904Y-33750000D01*
X-36623809Y-33788095D01*
X-36585714Y-33864285D01*
X-36547619Y-34016666D01*
X-36547619Y-34207142D01*
X-36585714Y-34359523D01*
X-36623809Y-34435714D01*
X-36661904Y-34473809D01*
X-36738095Y-34511904D01*
X-36814285Y-34511904D01*
X-36890476Y-34473809D01*
X-36928571Y-34435714D01*
X-36966666Y-34359523D01*
X-37004761Y-34207142D01*
X-37004761Y-34016666D01*
X-36966666Y-33864285D01*
X-36928571Y-33788095D01*
X-36890476Y-33750000D01*
X-36814285Y-33711904D01*
X-35861904Y-33978571D02*
X-35861904Y-34511904D01*
X-36052380Y-33673809D02*
X-36242857Y-34245238D01*
X-35747619Y-34245238D01*
X-340476Y-27061904D02*
X-340476Y-26261904D01*
X-149999Y-26261904D01*
X-35714Y-26300000D01*
X40476Y-26376190D01*
X78571Y-26452380D01*
X116666Y-26604761D01*
X116666Y-26719047D01*
X78571Y-26871428D01*
X40476Y-26947619D01*
X-35714Y-27023809D01*
X-149999Y-27061904D01*
X-340476Y-27061904D01*
X421428Y-26338095D02*
X459523Y-26300000D01*
X535714Y-26261904D01*
X726190Y-26261904D01*
X802380Y-26300000D01*
X840476Y-26338095D01*
X878571Y-26414285D01*
X878571Y-26490476D01*
X840476Y-26604761D01*
X383333Y-27061904D01*
X878571Y-27061904D01*
X32766666Y-25335714D02*
X32728571Y-25373809D01*
X32614285Y-25411904D01*
X32538095Y-25411904D01*
X32423809Y-25373809D01*
X32347619Y-25297619D01*
X32309523Y-25221428D01*
X32271428Y-25069047D01*
X32271428Y-24954761D01*
X32309523Y-24802380D01*
X32347619Y-24726190D01*
X32423809Y-24650000D01*
X32538095Y-24611904D01*
X32614285Y-24611904D01*
X32728571Y-24650000D01*
X32766666Y-24688095D01*
X33033333Y-24611904D02*
X33528571Y-24611904D01*
X33261904Y-24916666D01*
X33376190Y-24916666D01*
X33452380Y-24954761D01*
X33490476Y-24992857D01*
X33528571Y-25069047D01*
X33528571Y-25259523D01*
X33490476Y-25335714D01*
X33452380Y-25373809D01*
X33376190Y-25411904D01*
X33147619Y-25411904D01*
X33071428Y-25373809D01*
X33033333Y-25335714D01*
X32766666Y-29135714D02*
X32728571Y-29173809D01*
X32614285Y-29211904D01*
X32538095Y-29211904D01*
X32423809Y-29173809D01*
X32347619Y-29097619D01*
X32309523Y-29021428D01*
X32271428Y-28869047D01*
X32271428Y-28754761D01*
X32309523Y-28602380D01*
X32347619Y-28526190D01*
X32423809Y-28450000D01*
X32538095Y-28411904D01*
X32614285Y-28411904D01*
X32728571Y-28450000D01*
X32766666Y-28488095D01*
X33452380Y-28411904D02*
X33300000Y-28411904D01*
X33223809Y-28450000D01*
X33185714Y-28488095D01*
X33109523Y-28602380D01*
X33071428Y-28754761D01*
X33071428Y-29059523D01*
X33109523Y-29135714D01*
X33147619Y-29173809D01*
X33223809Y-29211904D01*
X33376190Y-29211904D01*
X33452380Y-29173809D01*
X33490476Y-29135714D01*
X33528571Y-29059523D01*
X33528571Y-28869047D01*
X33490476Y-28792857D01*
X33452380Y-28754761D01*
X33376190Y-28716666D01*
X33223809Y-28716666D01*
X33147619Y-28754761D01*
X33109523Y-28792857D01*
X33071428Y-28869047D01*
X-44295238Y-37885714D02*
X-44333333Y-37923809D01*
X-44447619Y-37961904D01*
X-44523809Y-37961904D01*
X-44638095Y-37923809D01*
X-44714285Y-37847619D01*
X-44752380Y-37771428D01*
X-44790476Y-37619047D01*
X-44790476Y-37504761D01*
X-44752380Y-37352380D01*
X-44714285Y-37276190D01*
X-44638095Y-37200000D01*
X-44523809Y-37161904D01*
X-44447619Y-37161904D01*
X-44333333Y-37200000D01*
X-44295238Y-37238095D01*
X-43533333Y-37961904D02*
X-43990476Y-37961904D01*
X-43761904Y-37961904D02*
X-43761904Y-37161904D01*
X-43838095Y-37276190D01*
X-43914285Y-37352380D01*
X-43990476Y-37390476D01*
X-42847619Y-37428571D02*
X-42847619Y-37961904D01*
X-43038095Y-37123809D02*
X-43228571Y-37695238D01*
X-42733333Y-37695238D01*
X-42047619Y-37161904D02*
X-42428571Y-37161904D01*
X-42466666Y-37542857D01*
X-42428571Y-37504761D01*
X-42352380Y-37466666D01*
X-42161904Y-37466666D01*
X-42085714Y-37504761D01*
X-42047619Y-37542857D01*
X-42009523Y-37619047D01*
X-42009523Y-37809523D01*
X-42047619Y-37885714D01*
X-42085714Y-37923809D01*
X-42161904Y-37961904D01*
X-42352380Y-37961904D01*
X-42428571Y-37923809D01*
X-42466666Y-37885714D01*
X-29945238Y-24461904D02*
X-30326190Y-24461904D01*
X-30326190Y-23661904D01*
X-29259523Y-24461904D02*
X-29716666Y-24461904D01*
X-29488095Y-24461904D02*
X-29488095Y-23661904D01*
X-29564285Y-23776190D01*
X-29640476Y-23852380D01*
X-29716666Y-23890476D01*
X-28764285Y-23661904D02*
X-28688095Y-23661904D01*
X-28611904Y-23700000D01*
X-28573809Y-23738095D01*
X-28535714Y-23814285D01*
X-28497619Y-23966666D01*
X-28497619Y-24157142D01*
X-28535714Y-24309523D01*
X-28573809Y-24385714D01*
X-28611904Y-24423809D01*
X-28688095Y-24461904D01*
X-28764285Y-24461904D01*
X-28840476Y-24423809D01*
X-28878571Y-24385714D01*
X-28916666Y-24309523D01*
X-28954761Y-24157142D01*
X-28954761Y-23966666D01*
X-28916666Y-23814285D01*
X-28878571Y-23738095D01*
X-28840476Y-23700000D01*
X-28764285Y-23661904D01*
X-28230952Y-23661904D02*
X-27697619Y-23661904D01*
X-28040476Y-24461904D01*
X-35095238Y-34385714D02*
X-35133333Y-34423809D01*
X-35247619Y-34461904D01*
X-35323809Y-34461904D01*
X-35438095Y-34423809D01*
X-35514285Y-34347619D01*
X-35552380Y-34271428D01*
X-35590476Y-34119047D01*
X-35590476Y-34004761D01*
X-35552380Y-33852380D01*
X-35514285Y-33776190D01*
X-35438095Y-33700000D01*
X-35323809Y-33661904D01*
X-35247619Y-33661904D01*
X-35133333Y-33700000D01*
X-35095238Y-33738095D01*
X-34333333Y-34461904D02*
X-34790476Y-34461904D01*
X-34561904Y-34461904D02*
X-34561904Y-33661904D01*
X-34638095Y-33776190D01*
X-34714285Y-33852380D01*
X-34790476Y-33890476D01*
X-33838095Y-33661904D02*
X-33761904Y-33661904D01*
X-33685714Y-33700000D01*
X-33647619Y-33738095D01*
X-33609523Y-33814285D01*
X-33571428Y-33966666D01*
X-33571428Y-34157142D01*
X-33609523Y-34309523D01*
X-33647619Y-34385714D01*
X-33685714Y-34423809D01*
X-33761904Y-34461904D01*
X-33838095Y-34461904D01*
X-33914285Y-34423809D01*
X-33952380Y-34385714D01*
X-33990476Y-34309523D01*
X-34028571Y-34157142D01*
X-34028571Y-33966666D01*
X-33990476Y-33814285D01*
X-33952380Y-33738095D01*
X-33914285Y-33700000D01*
X-33838095Y-33661904D01*
X-33190476Y-34461904D02*
X-33038095Y-34461904D01*
X-32961904Y-34423809D01*
X-32923809Y-34385714D01*
X-32847619Y-34271428D01*
X-32809523Y-34119047D01*
X-32809523Y-33814285D01*
X-32847619Y-33738095D01*
X-32885714Y-33700000D01*
X-32961904Y-33661904D01*
X-33114285Y-33661904D01*
X-33190476Y-33700000D01*
X-33228571Y-33738095D01*
X-33266666Y-33814285D01*
X-33266666Y-34004761D01*
X-33228571Y-34080952D01*
X-33190476Y-34119047D01*
X-33114285Y-34157142D01*
X-32961904Y-34157142D01*
X-32885714Y-34119047D01*
X-32847619Y-34080952D01*
X-32809523Y-34004761D01*
X40158261Y-34038263D02*
X40173788Y-34089852D01*
X40153252Y-34208557D01*
X40117189Y-34275672D01*
X40029538Y-34358314D01*
X39926360Y-34389367D01*
X39841213Y-34386862D01*
X39688951Y-34348295D01*
X39588278Y-34294202D01*
X39472078Y-34188519D01*
X39422994Y-34118899D01*
X39391941Y-34015721D01*
X39412477Y-33897016D01*
X39448539Y-33829901D01*
X39536190Y-33747259D01*
X39587779Y-33731732D01*
X40080130Y-33217849D02*
X40549939Y-33470286D01*
X39721512Y-33241388D02*
X40134722Y-33679645D01*
X40369128Y-33243394D01*
X40115694Y-32588264D02*
X40151757Y-32521149D01*
X40221377Y-32472065D01*
X40272966Y-32456538D01*
X40358113Y-32459043D01*
X40510375Y-32497610D01*
X40678164Y-32587766D01*
X40794363Y-32693449D01*
X40843448Y-32763069D01*
X40858974Y-32814658D01*
X40856469Y-32899805D01*
X40820407Y-32966920D01*
X40750787Y-33016004D01*
X40699198Y-33031531D01*
X40614051Y-33029026D01*
X40461789Y-32990459D01*
X40294000Y-32900303D01*
X40177800Y-32794620D01*
X40128716Y-32725000D01*
X40113190Y-32673411D01*
X40115694Y-32588264D01*
X-340476Y-37961904D02*
X-340476Y-37161904D01*
X-149999Y-37161904D01*
X-35714Y-37200000D01*
X40476Y-37276190D01*
X78571Y-37352380D01*
X116666Y-37504761D01*
X116666Y-37619047D01*
X78571Y-37771428D01*
X40476Y-37847619D01*
X-35714Y-37923809D01*
X-149999Y-37961904D01*
X-340476Y-37961904D01*
X878571Y-37961904D02*
X421428Y-37961904D01*
X650000Y-37961904D02*
X650000Y-37161904D01*
X573809Y-37276190D01*
X497619Y-37352380D01*
X421428Y-37390476D01*
X29716666Y-21935714D02*
X29678571Y-21973809D01*
X29564285Y-22011904D01*
X29488095Y-22011904D01*
X29373809Y-21973809D01*
X29297619Y-21897619D01*
X29259523Y-21821428D01*
X29221428Y-21669047D01*
X29221428Y-21554761D01*
X29259523Y-21402380D01*
X29297619Y-21326190D01*
X29373809Y-21250000D01*
X29488095Y-21211904D01*
X29564285Y-21211904D01*
X29678571Y-21250000D01*
X29716666Y-21288095D01*
X30478571Y-22011904D02*
X30021428Y-22011904D01*
X30250000Y-22011904D02*
X30250000Y-21211904D01*
X30173809Y-21326190D01*
X30097619Y-21402380D01*
X30021428Y-21440476D01*
X16735714Y-26361904D02*
X16469047Y-25980952D01*
X16278571Y-26361904D02*
X16278571Y-25561904D01*
X16583333Y-25561904D01*
X16659523Y-25600000D01*
X16697619Y-25638095D01*
X16735714Y-25714285D01*
X16735714Y-25828571D01*
X16697619Y-25904761D01*
X16659523Y-25942857D01*
X16583333Y-25980952D01*
X16278571Y-25980952D01*
X17497619Y-26361904D02*
X17040476Y-26361904D01*
X17269047Y-26361904D02*
X17269047Y-25561904D01*
X17192857Y-25676190D01*
X17116666Y-25752380D01*
X17040476Y-25790476D01*
X18221428Y-25561904D02*
X17840476Y-25561904D01*
X17802380Y-25942857D01*
X17840476Y-25904761D01*
X17916666Y-25866666D01*
X18107142Y-25866666D01*
X18183333Y-25904761D01*
X18221428Y-25942857D01*
X18259523Y-26019047D01*
X18259523Y-26209523D01*
X18221428Y-26285714D01*
X18183333Y-26323809D01*
X18107142Y-26361904D01*
X17916666Y-26361904D01*
X17840476Y-26323809D01*
X17802380Y-26285714D01*
X9441071Y-2511904D02*
X9441071Y-1711904D01*
X9631547Y-1711904D01*
X9745833Y-1750000D01*
X9822023Y-1826190D01*
X9860119Y-1902380D01*
X9898214Y-2054761D01*
X9898214Y-2169047D01*
X9860119Y-2321428D01*
X9822023Y-2397619D01*
X9745833Y-2473809D01*
X9631547Y-2511904D01*
X9441071Y-2511904D01*
X10622023Y-1711904D02*
X10241071Y-1711904D01*
X10202976Y-2092857D01*
X10241071Y-2054761D01*
X10317261Y-2016666D01*
X10507738Y-2016666D01*
X10583928Y-2054761D01*
X10622023Y-2092857D01*
X10660119Y-2169047D01*
X10660119Y-2359523D01*
X10622023Y-2435714D01*
X10583928Y-2473809D01*
X10507738Y-2511904D01*
X10317261Y-2511904D01*
X10241071Y-2473809D01*
X10202976Y-2435714D01*
X11155357Y-1711904D02*
X11231547Y-1711904D01*
X11307738Y-1750000D01*
X11345833Y-1788095D01*
X11383928Y-1864285D01*
X11422023Y-2016666D01*
X11422023Y-2207142D01*
X11383928Y-2359523D01*
X11345833Y-2435714D01*
X11307738Y-2473809D01*
X11231547Y-2511904D01*
X11155357Y-2511904D01*
X11079166Y-2473809D01*
X11041071Y-2435714D01*
X11002976Y-2359523D01*
X10964880Y-2207142D01*
X10964880Y-2016666D01*
X11002976Y-1864285D01*
X11041071Y-1788095D01*
X11079166Y-1750000D01*
X11155357Y-1711904D01*
X-34545238Y-27061904D02*
X-34926190Y-27061904D01*
X-34926190Y-26261904D01*
X-33859523Y-27061904D02*
X-34316666Y-27061904D01*
X-34088095Y-27061904D02*
X-34088095Y-26261904D01*
X-34164285Y-26376190D01*
X-34240476Y-26452380D01*
X-34316666Y-26490476D01*
X-33364285Y-26261904D02*
X-33288095Y-26261904D01*
X-33211904Y-26300000D01*
X-33173809Y-26338095D01*
X-33135714Y-26414285D01*
X-33097619Y-26566666D01*
X-33097619Y-26757142D01*
X-33135714Y-26909523D01*
X-33173809Y-26985714D01*
X-33211904Y-27023809D01*
X-33288095Y-27061904D01*
X-33364285Y-27061904D01*
X-33440476Y-27023809D01*
X-33478571Y-26985714D01*
X-33516666Y-26909523D01*
X-33554761Y-26757142D01*
X-33554761Y-26566666D01*
X-33516666Y-26414285D01*
X-33478571Y-26338095D01*
X-33440476Y-26300000D01*
X-33364285Y-26261904D01*
X-32792857Y-26338095D02*
X-32754761Y-26300000D01*
X-32678571Y-26261904D01*
X-32488095Y-26261904D01*
X-32411904Y-26300000D01*
X-32373809Y-26338095D01*
X-32335714Y-26414285D01*
X-32335714Y-26490476D01*
X-32373809Y-26604761D01*
X-32830952Y-27061904D01*
X-32335714Y-27061904D01*
X13216666Y-33261904D02*
X12950000Y-32880952D01*
X12759523Y-33261904D02*
X12759523Y-32461904D01*
X13064285Y-32461904D01*
X13140476Y-32500000D01*
X13178571Y-32538095D01*
X13216666Y-32614285D01*
X13216666Y-32728571D01*
X13178571Y-32804761D01*
X13140476Y-32842857D01*
X13064285Y-32880952D01*
X12759523Y-32880952D01*
X13483333Y-32461904D02*
X13978571Y-32461904D01*
X13711904Y-32766666D01*
X13826190Y-32766666D01*
X13902380Y-32804761D01*
X13940476Y-32842857D01*
X13978571Y-32919047D01*
X13978571Y-33109523D01*
X13940476Y-33185714D01*
X13902380Y-33223809D01*
X13826190Y-33261904D01*
X13597619Y-33261904D01*
X13521428Y-33223809D01*
X13483333Y-33185714D01*
X13383333Y-29661904D02*
X13383333Y-30233333D01*
X13345238Y-30347619D01*
X13269047Y-30423809D01*
X13154761Y-30461904D01*
X13078571Y-30461904D01*
X13764285Y-30461904D02*
X13764285Y-29661904D01*
X14069047Y-29661904D01*
X14145238Y-29700000D01*
X14183333Y-29738095D01*
X14221428Y-29814285D01*
X14221428Y-29928571D01*
X14183333Y-30004761D01*
X14145238Y-30042857D01*
X14069047Y-30080952D01*
X13764285Y-30080952D01*
X14488095Y-29661904D02*
X14983333Y-29661904D01*
X14716666Y-29966666D01*
X14830952Y-29966666D01*
X14907142Y-30004761D01*
X14945238Y-30042857D01*
X14983333Y-30119047D01*
X14983333Y-30309523D01*
X14945238Y-30385714D01*
X14907142Y-30423809D01*
X14830952Y-30461904D01*
X14602380Y-30461904D01*
X14526190Y-30423809D01*
X14488095Y-30385714D01*
X34166666Y-36935714D02*
X34128571Y-36973809D01*
X34014285Y-37011904D01*
X33938095Y-37011904D01*
X33823809Y-36973809D01*
X33747619Y-36897619D01*
X33709523Y-36821428D01*
X33671428Y-36669047D01*
X33671428Y-36554761D01*
X33709523Y-36402380D01*
X33747619Y-36326190D01*
X33823809Y-36250000D01*
X33938095Y-36211904D01*
X34014285Y-36211904D01*
X34128571Y-36250000D01*
X34166666Y-36288095D01*
X34852380Y-36478571D02*
X34852380Y-37011904D01*
X34661904Y-36173809D02*
X34471428Y-36745238D01*
X34966666Y-36745238D01*
X13216666Y-34461904D02*
X12950000Y-34080952D01*
X12759523Y-34461904D02*
X12759523Y-33661904D01*
X13064285Y-33661904D01*
X13140476Y-33700000D01*
X13178571Y-33738095D01*
X13216666Y-33814285D01*
X13216666Y-33928571D01*
X13178571Y-34004761D01*
X13140476Y-34042857D01*
X13064285Y-34080952D01*
X12759523Y-34080952D01*
X13521428Y-33738095D02*
X13559523Y-33700000D01*
X13635714Y-33661904D01*
X13826190Y-33661904D01*
X13902380Y-33700000D01*
X13940476Y-33738095D01*
X13978571Y-33814285D01*
X13978571Y-33890476D01*
X13940476Y-34004761D01*
X13483333Y-34461904D01*
X13978571Y-34461904D01*
X-40895238Y-36635714D02*
X-40933333Y-36673809D01*
X-41047619Y-36711904D01*
X-41123809Y-36711904D01*
X-41238095Y-36673809D01*
X-41314285Y-36597619D01*
X-41352380Y-36521428D01*
X-41390476Y-36369047D01*
X-41390476Y-36254761D01*
X-41352380Y-36102380D01*
X-41314285Y-36026190D01*
X-41238095Y-35950000D01*
X-41123809Y-35911904D01*
X-41047619Y-35911904D01*
X-40933333Y-35950000D01*
X-40895238Y-35988095D01*
X-40133333Y-36711904D02*
X-40590476Y-36711904D01*
X-40361904Y-36711904D02*
X-40361904Y-35911904D01*
X-40438095Y-36026190D01*
X-40514285Y-36102380D01*
X-40590476Y-36140476D01*
X-39371428Y-36711904D02*
X-39828571Y-36711904D01*
X-39600000Y-36711904D02*
X-39600000Y-35911904D01*
X-39676190Y-36026190D01*
X-39752380Y-36102380D01*
X-39828571Y-36140476D01*
X-39066666Y-35988095D02*
X-39028571Y-35950000D01*
X-38952380Y-35911904D01*
X-38761904Y-35911904D01*
X-38685714Y-35950000D01*
X-38647619Y-35988095D01*
X-38609523Y-36064285D01*
X-38609523Y-36140476D01*
X-38647619Y-36254761D01*
X-39104761Y-36711904D01*
X-38609523Y-36711904D01*
X13383333Y-31061904D02*
X13383333Y-31633333D01*
X13345238Y-31747619D01*
X13269047Y-31823809D01*
X13154761Y-31861904D01*
X13078571Y-31861904D01*
X13764285Y-31861904D02*
X13764285Y-31061904D01*
X14069047Y-31061904D01*
X14145238Y-31100000D01*
X14183333Y-31138095D01*
X14221428Y-31214285D01*
X14221428Y-31328571D01*
X14183333Y-31404761D01*
X14145238Y-31442857D01*
X14069047Y-31480952D01*
X13764285Y-31480952D01*
X14526190Y-31138095D02*
X14564285Y-31100000D01*
X14640476Y-31061904D01*
X14830952Y-31061904D01*
X14907142Y-31100000D01*
X14945238Y-31138095D01*
X14983333Y-31214285D01*
X14983333Y-31290476D01*
X14945238Y-31404761D01*
X14488095Y-31861904D01*
X14983333Y-31861904D01*
X-40945238Y-34435714D02*
X-40983333Y-34473809D01*
X-41097619Y-34511904D01*
X-41173809Y-34511904D01*
X-41288095Y-34473809D01*
X-41364285Y-34397619D01*
X-41402380Y-34321428D01*
X-41440476Y-34169047D01*
X-41440476Y-34054761D01*
X-41402380Y-33902380D01*
X-41364285Y-33826190D01*
X-41288095Y-33750000D01*
X-41173809Y-33711904D01*
X-41097619Y-33711904D01*
X-40983333Y-33750000D01*
X-40945238Y-33788095D01*
X-40183333Y-34511904D02*
X-40640476Y-34511904D01*
X-40411904Y-34511904D02*
X-40411904Y-33711904D01*
X-40488095Y-33826190D01*
X-40564285Y-33902380D01*
X-40640476Y-33940476D01*
X-39421428Y-34511904D02*
X-39878571Y-34511904D01*
X-39650000Y-34511904D02*
X-39650000Y-33711904D01*
X-39726190Y-33826190D01*
X-39802380Y-33902380D01*
X-39878571Y-33940476D01*
X-39154761Y-33711904D02*
X-38659523Y-33711904D01*
X-38926190Y-34016666D01*
X-38811904Y-34016666D01*
X-38735714Y-34054761D01*
X-38697619Y-34092857D01*
X-38659523Y-34169047D01*
X-38659523Y-34359523D01*
X-38697619Y-34435714D01*
X-38735714Y-34473809D01*
X-38811904Y-34511904D01*
X-39040476Y-34511904D01*
X-39116666Y-34473809D01*
X-39154761Y-34435714D01*
X14766666Y-35735714D02*
X14728571Y-35773809D01*
X14614285Y-35811904D01*
X14538095Y-35811904D01*
X14423809Y-35773809D01*
X14347619Y-35697619D01*
X14309523Y-35621428D01*
X14271428Y-35469047D01*
X14271428Y-35354761D01*
X14309523Y-35202380D01*
X14347619Y-35126190D01*
X14423809Y-35050000D01*
X14538095Y-35011904D01*
X14614285Y-35011904D01*
X14728571Y-35050000D01*
X14766666Y-35088095D01*
X15223809Y-35354761D02*
X15147619Y-35316666D01*
X15109523Y-35278571D01*
X15071428Y-35202380D01*
X15071428Y-35164285D01*
X15109523Y-35088095D01*
X15147619Y-35050000D01*
X15223809Y-35011904D01*
X15376190Y-35011904D01*
X15452380Y-35050000D01*
X15490476Y-35088095D01*
X15528571Y-35164285D01*
X15528571Y-35202380D01*
X15490476Y-35278571D01*
X15452380Y-35316666D01*
X15376190Y-35354761D01*
X15223809Y-35354761D01*
X15147619Y-35392857D01*
X15109523Y-35430952D01*
X15071428Y-35507142D01*
X15071428Y-35659523D01*
X15109523Y-35735714D01*
X15147619Y-35773809D01*
X15223809Y-35811904D01*
X15376190Y-35811904D01*
X15452380Y-35773809D01*
X15490476Y-35735714D01*
X15528571Y-35659523D01*
X15528571Y-35507142D01*
X15490476Y-35430952D01*
X15452380Y-35392857D01*
X15376190Y-35354761D01*
X16735714Y-27661904D02*
X16469047Y-27280952D01*
X16278571Y-27661904D02*
X16278571Y-26861904D01*
X16583333Y-26861904D01*
X16659523Y-26900000D01*
X16697619Y-26938095D01*
X16735714Y-27014285D01*
X16735714Y-27128571D01*
X16697619Y-27204761D01*
X16659523Y-27242857D01*
X16583333Y-27280952D01*
X16278571Y-27280952D01*
X17497619Y-27661904D02*
X17040476Y-27661904D01*
X17269047Y-27661904D02*
X17269047Y-26861904D01*
X17192857Y-26976190D01*
X17116666Y-27052380D01*
X17040476Y-27090476D01*
X18183333Y-27128571D02*
X18183333Y-27661904D01*
X17992857Y-26823809D02*
X17802380Y-27395238D01*
X18297619Y-27395238D01*
X-44345238Y-30461904D02*
X-44611904Y-30080952D01*
X-44802380Y-30461904D02*
X-44802380Y-29661904D01*
X-44497619Y-29661904D01*
X-44421428Y-29700000D01*
X-44383333Y-29738095D01*
X-44345238Y-29814285D01*
X-44345238Y-29928571D01*
X-44383333Y-30004761D01*
X-44421428Y-30042857D01*
X-44497619Y-30080952D01*
X-44802380Y-30080952D01*
X-43583333Y-30461904D02*
X-44040476Y-30461904D01*
X-43811904Y-30461904D02*
X-43811904Y-29661904D01*
X-43888095Y-29776190D01*
X-43964285Y-29852380D01*
X-44040476Y-29890476D01*
X-43088095Y-29661904D02*
X-43011904Y-29661904D01*
X-42935714Y-29700000D01*
X-42897619Y-29738095D01*
X-42859523Y-29814285D01*
X-42821428Y-29966666D01*
X-42821428Y-30157142D01*
X-42859523Y-30309523D01*
X-42897619Y-30385714D01*
X-42935714Y-30423809D01*
X-43011904Y-30461904D01*
X-43088095Y-30461904D01*
X-43164285Y-30423809D01*
X-43202380Y-30385714D01*
X-43240476Y-30309523D01*
X-43278571Y-30157142D01*
X-43278571Y-29966666D01*
X-43240476Y-29814285D01*
X-43202380Y-29738095D01*
X-43164285Y-29700000D01*
X-43088095Y-29661904D01*
X-42059523Y-30461904D02*
X-42516666Y-30461904D01*
X-42288095Y-30461904D02*
X-42288095Y-29661904D01*
X-42364285Y-29776190D01*
X-42440476Y-29852380D01*
X-42516666Y-29890476D01*
X-29995238Y-23285714D02*
X-30033333Y-23323809D01*
X-30147619Y-23361904D01*
X-30223809Y-23361904D01*
X-30338095Y-23323809D01*
X-30414285Y-23247619D01*
X-30452380Y-23171428D01*
X-30490476Y-23019047D01*
X-30490476Y-22904761D01*
X-30452380Y-22752380D01*
X-30414285Y-22676190D01*
X-30338095Y-22600000D01*
X-30223809Y-22561904D01*
X-30147619Y-22561904D01*
X-30033333Y-22600000D01*
X-29995238Y-22638095D01*
X-29233333Y-23361904D02*
X-29690476Y-23361904D01*
X-29461904Y-23361904D02*
X-29461904Y-22561904D01*
X-29538095Y-22676190D01*
X-29614285Y-22752380D01*
X-29690476Y-22790476D01*
X-28471428Y-23361904D02*
X-28928571Y-23361904D01*
X-28700000Y-23361904D02*
X-28700000Y-22561904D01*
X-28776190Y-22676190D01*
X-28852380Y-22752380D01*
X-28928571Y-22790476D01*
X-28204761Y-22561904D02*
X-27671428Y-22561904D01*
X-28014285Y-23361904D01*
X-34545238Y-28211904D02*
X-34926190Y-28211904D01*
X-34926190Y-27411904D01*
X-33859523Y-28211904D02*
X-34316666Y-28211904D01*
X-34088095Y-28211904D02*
X-34088095Y-27411904D01*
X-34164285Y-27526190D01*
X-34240476Y-27602380D01*
X-34316666Y-27640476D01*
X-33364285Y-27411904D02*
X-33288095Y-27411904D01*
X-33211904Y-27450000D01*
X-33173809Y-27488095D01*
X-33135714Y-27564285D01*
X-33097619Y-27716666D01*
X-33097619Y-27907142D01*
X-33135714Y-28059523D01*
X-33173809Y-28135714D01*
X-33211904Y-28173809D01*
X-33288095Y-28211904D01*
X-33364285Y-28211904D01*
X-33440476Y-28173809D01*
X-33478571Y-28135714D01*
X-33516666Y-28059523D01*
X-33554761Y-27907142D01*
X-33554761Y-27716666D01*
X-33516666Y-27564285D01*
X-33478571Y-27488095D01*
X-33440476Y-27450000D01*
X-33364285Y-27411904D01*
X-32830952Y-27411904D02*
X-32335714Y-27411904D01*
X-32602380Y-27716666D01*
X-32488095Y-27716666D01*
X-32411904Y-27754761D01*
X-32373809Y-27792857D01*
X-32335714Y-27869047D01*
X-32335714Y-28059523D01*
X-32373809Y-28135714D01*
X-32411904Y-28173809D01*
X-32488095Y-28211904D01*
X-32716666Y-28211904D01*
X-32792857Y-28173809D01*
X-32830952Y-28135714D01*
X-34645238Y-25885714D02*
X-34683333Y-25923809D01*
X-34797619Y-25961904D01*
X-34873809Y-25961904D01*
X-34988095Y-25923809D01*
X-35064285Y-25847619D01*
X-35102380Y-25771428D01*
X-35140476Y-25619047D01*
X-35140476Y-25504761D01*
X-35102380Y-25352380D01*
X-35064285Y-25276190D01*
X-34988095Y-25200000D01*
X-34873809Y-25161904D01*
X-34797619Y-25161904D01*
X-34683333Y-25200000D01*
X-34645238Y-25238095D01*
X-33883333Y-25961904D02*
X-34340476Y-25961904D01*
X-34111904Y-25961904D02*
X-34111904Y-25161904D01*
X-34188095Y-25276190D01*
X-34264285Y-25352380D01*
X-34340476Y-25390476D01*
X-33578571Y-25238095D02*
X-33540476Y-25200000D01*
X-33464285Y-25161904D01*
X-33273809Y-25161904D01*
X-33197619Y-25200000D01*
X-33159523Y-25238095D01*
X-33121428Y-25314285D01*
X-33121428Y-25390476D01*
X-33159523Y-25504761D01*
X-33616666Y-25961904D01*
X-33121428Y-25961904D01*
X-32359523Y-25961904D02*
X-32816666Y-25961904D01*
X-32588095Y-25961904D02*
X-32588095Y-25161904D01*
X-32664285Y-25276190D01*
X-32740476Y-25352380D01*
X-32816666Y-25390476D01*
X29716666Y-23235714D02*
X29678571Y-23273809D01*
X29564285Y-23311904D01*
X29488095Y-23311904D01*
X29373809Y-23273809D01*
X29297619Y-23197619D01*
X29259523Y-23121428D01*
X29221428Y-22969047D01*
X29221428Y-22854761D01*
X29259523Y-22702380D01*
X29297619Y-22626190D01*
X29373809Y-22550000D01*
X29488095Y-22511904D01*
X29564285Y-22511904D01*
X29678571Y-22550000D01*
X29716666Y-22588095D01*
X30021428Y-22588095D02*
X30059523Y-22550000D01*
X30135714Y-22511904D01*
X30326190Y-22511904D01*
X30402380Y-22550000D01*
X30440476Y-22588095D01*
X30478571Y-22664285D01*
X30478571Y-22740476D01*
X30440476Y-22854761D01*
X29983333Y-23311904D01*
X30478571Y-23311904D01*
X-34645238Y-24785714D02*
X-34683333Y-24823809D01*
X-34797619Y-24861904D01*
X-34873809Y-24861904D01*
X-34988095Y-24823809D01*
X-35064285Y-24747619D01*
X-35102380Y-24671428D01*
X-35140476Y-24519047D01*
X-35140476Y-24404761D01*
X-35102380Y-24252380D01*
X-35064285Y-24176190D01*
X-34988095Y-24100000D01*
X-34873809Y-24061904D01*
X-34797619Y-24061904D01*
X-34683333Y-24100000D01*
X-34645238Y-24138095D01*
X-33883333Y-24861904D02*
X-34340476Y-24861904D01*
X-34111904Y-24861904D02*
X-34111904Y-24061904D01*
X-34188095Y-24176190D01*
X-34264285Y-24252380D01*
X-34340476Y-24290476D01*
X-33616666Y-24061904D02*
X-33121428Y-24061904D01*
X-33388095Y-24366666D01*
X-33273809Y-24366666D01*
X-33197619Y-24404761D01*
X-33159523Y-24442857D01*
X-33121428Y-24519047D01*
X-33121428Y-24709523D01*
X-33159523Y-24785714D01*
X-33197619Y-24823809D01*
X-33273809Y-24861904D01*
X-33502380Y-24861904D01*
X-33578571Y-24823809D01*
X-33616666Y-24785714D01*
X-32397619Y-24061904D02*
X-32778571Y-24061904D01*
X-32816666Y-24442857D01*
X-32778571Y-24404761D01*
X-32702380Y-24366666D01*
X-32511904Y-24366666D01*
X-32435714Y-24404761D01*
X-32397619Y-24442857D01*
X-32359523Y-24519047D01*
X-32359523Y-24709523D01*
X-32397619Y-24785714D01*
X-32435714Y-24823809D01*
X-32511904Y-24861904D01*
X-32702380Y-24861904D01*
X-32778571Y-24823809D01*
X-32816666Y-24785714D01*
X24666666Y-23235714D02*
X24628571Y-23273809D01*
X24514285Y-23311904D01*
X24438095Y-23311904D01*
X24323809Y-23273809D01*
X24247619Y-23197619D01*
X24209523Y-23121428D01*
X24171428Y-22969047D01*
X24171428Y-22854761D01*
X24209523Y-22702380D01*
X24247619Y-22626190D01*
X24323809Y-22550000D01*
X24438095Y-22511904D01*
X24514285Y-22511904D01*
X24628571Y-22550000D01*
X24666666Y-22588095D01*
X24933333Y-22511904D02*
X25466666Y-22511904D01*
X25123809Y-23311904D01*
X-15514285Y-29585714D02*
X-15552380Y-29623809D01*
X-15666666Y-29661904D01*
X-15742857Y-29661904D01*
X-15857142Y-29623809D01*
X-15933333Y-29547619D01*
X-15971428Y-29471428D01*
X-16009523Y-29319047D01*
X-16009523Y-29204761D01*
X-15971428Y-29052380D01*
X-15933333Y-28976190D01*
X-15857142Y-28900000D01*
X-15742857Y-28861904D01*
X-15666666Y-28861904D01*
X-15552380Y-28900000D01*
X-15514285Y-28938095D01*
X-15247619Y-28861904D02*
X-14752380Y-28861904D01*
X-15019047Y-29166666D01*
X-14904761Y-29166666D01*
X-14828571Y-29204761D01*
X-14790476Y-29242857D01*
X-14752380Y-29319047D01*
X-14752380Y-29509523D01*
X-14790476Y-29585714D01*
X-14828571Y-29623809D01*
X-14904761Y-29661904D01*
X-15133333Y-29661904D01*
X-15209523Y-29623809D01*
X-15247619Y-29585714D01*
X-13990476Y-29661904D02*
X-14447619Y-29661904D01*
X-14219047Y-29661904D02*
X-14219047Y-28861904D01*
X-14295238Y-28976190D01*
X-14371428Y-29052380D01*
X-14447619Y-29090476D01*
X-40845238Y-35611904D02*
X-41226190Y-35611904D01*
X-41226190Y-34811904D01*
X-40159523Y-35611904D02*
X-40616666Y-35611904D01*
X-40388095Y-35611904D02*
X-40388095Y-34811904D01*
X-40464285Y-34926190D01*
X-40540476Y-35002380D01*
X-40616666Y-35040476D01*
X-39664285Y-34811904D02*
X-39588095Y-34811904D01*
X-39511904Y-34850000D01*
X-39473809Y-34888095D01*
X-39435714Y-34964285D01*
X-39397619Y-35116666D01*
X-39397619Y-35307142D01*
X-39435714Y-35459523D01*
X-39473809Y-35535714D01*
X-39511904Y-35573809D01*
X-39588095Y-35611904D01*
X-39664285Y-35611904D01*
X-39740476Y-35573809D01*
X-39778571Y-35535714D01*
X-39816666Y-35459523D01*
X-39854761Y-35307142D01*
X-39854761Y-35116666D01*
X-39816666Y-34964285D01*
X-39778571Y-34888095D01*
X-39740476Y-34850000D01*
X-39664285Y-34811904D01*
X-38673809Y-34811904D02*
X-39054761Y-34811904D01*
X-39092857Y-35192857D01*
X-39054761Y-35154761D01*
X-38978571Y-35116666D01*
X-38788095Y-35116666D01*
X-38711904Y-35154761D01*
X-38673809Y-35192857D01*
X-38635714Y-35269047D01*
X-38635714Y-35459523D01*
X-38673809Y-35535714D01*
X-38711904Y-35573809D01*
X-38788095Y-35611904D01*
X-38978571Y-35611904D01*
X-39054761Y-35573809D01*
X-39092857Y-35535714D01*
X-30964285Y-24845238D02*
X-30926190Y-24883333D01*
X-30888095Y-24997619D01*
X-30888095Y-25073809D01*
X-30926190Y-25188095D01*
X-31002380Y-25264285D01*
X-31078571Y-25302380D01*
X-31230952Y-25340476D01*
X-31345238Y-25340476D01*
X-31497619Y-25302380D01*
X-31573809Y-25264285D01*
X-31650000Y-25188095D01*
X-31688095Y-25073809D01*
X-31688095Y-24997619D01*
X-31650000Y-24883333D01*
X-31611904Y-24845238D01*
X-30888095Y-24083333D02*
X-30888095Y-24540476D01*
X-30888095Y-24311904D02*
X-31688095Y-24311904D01*
X-31573809Y-24388095D01*
X-31497619Y-24464285D01*
X-31459523Y-24540476D01*
X-30888095Y-23321428D02*
X-30888095Y-23778571D01*
X-30888095Y-23550000D02*
X-31688095Y-23550000D01*
X-31573809Y-23626190D01*
X-31497619Y-23702380D01*
X-31459523Y-23778571D01*
X-31345238Y-22864285D02*
X-31383333Y-22940476D01*
X-31421428Y-22978571D01*
X-31497619Y-23016666D01*
X-31535714Y-23016666D01*
X-31611904Y-22978571D01*
X-31650000Y-22940476D01*
X-31688095Y-22864285D01*
X-31688095Y-22711904D01*
X-31650000Y-22635714D01*
X-31611904Y-22597619D01*
X-31535714Y-22559523D01*
X-31497619Y-22559523D01*
X-31421428Y-22597619D01*
X-31383333Y-22635714D01*
X-31345238Y-22711904D01*
X-31345238Y-22864285D01*
X-31307142Y-22940476D01*
X-31269047Y-22978571D01*
X-31192857Y-23016666D01*
X-31040476Y-23016666D01*
X-30964285Y-22978571D01*
X-30926190Y-22940476D01*
X-30888095Y-22864285D01*
X-30888095Y-22711904D01*
X-30926190Y-22635714D01*
X-30964285Y-22597619D01*
X-31040476Y-22559523D01*
X-31192857Y-22559523D01*
X-31269047Y-22597619D01*
X-31307142Y-22635714D01*
X-31345238Y-22711904D01*
X-46595238Y-34185714D02*
X-46633333Y-34223809D01*
X-46747619Y-34261904D01*
X-46823809Y-34261904D01*
X-46938095Y-34223809D01*
X-47014285Y-34147619D01*
X-47052380Y-34071428D01*
X-47090476Y-33919047D01*
X-47090476Y-33804761D01*
X-47052380Y-33652380D01*
X-47014285Y-33576190D01*
X-46938095Y-33500000D01*
X-46823809Y-33461904D01*
X-46747619Y-33461904D01*
X-46633333Y-33500000D01*
X-46595238Y-33538095D01*
X-45833333Y-34261904D02*
X-46290476Y-34261904D01*
X-46061904Y-34261904D02*
X-46061904Y-33461904D01*
X-46138095Y-33576190D01*
X-46214285Y-33652380D01*
X-46290476Y-33690476D01*
X-45528571Y-33538095D02*
X-45490476Y-33500000D01*
X-45414285Y-33461904D01*
X-45223809Y-33461904D01*
X-45147619Y-33500000D01*
X-45109523Y-33538095D01*
X-45071428Y-33614285D01*
X-45071428Y-33690476D01*
X-45109523Y-33804761D01*
X-45566666Y-34261904D01*
X-45071428Y-34261904D01*
X-44576190Y-33461904D02*
X-44500000Y-33461904D01*
X-44423809Y-33500000D01*
X-44385714Y-33538095D01*
X-44347619Y-33614285D01*
X-44309523Y-33766666D01*
X-44309523Y-33957142D01*
X-44347619Y-34109523D01*
X-44385714Y-34185714D01*
X-44423809Y-34223809D01*
X-44500000Y-34261904D01*
X-44576190Y-34261904D01*
X-44652380Y-34223809D01*
X-44690476Y-34185714D01*
X-44728571Y-34109523D01*
X-44766666Y-33957142D01*
X-44766666Y-33766666D01*
X-44728571Y-33614285D01*
X-44690476Y-33538095D01*
X-44652380Y-33500000D01*
X-44576190Y-33461904D01*
X-20214285Y-26395238D02*
X-20176190Y-26433333D01*
X-20138095Y-26547619D01*
X-20138095Y-26623809D01*
X-20176190Y-26738095D01*
X-20252380Y-26814285D01*
X-20328571Y-26852380D01*
X-20480952Y-26890476D01*
X-20595238Y-26890476D01*
X-20747619Y-26852380D01*
X-20823809Y-26814285D01*
X-20900000Y-26738095D01*
X-20938095Y-26623809D01*
X-20938095Y-26547619D01*
X-20900000Y-26433333D01*
X-20861904Y-26395238D01*
X-20138095Y-25633333D02*
X-20138095Y-26090476D01*
X-20138095Y-25861904D02*
X-20938095Y-25861904D01*
X-20823809Y-25938095D01*
X-20747619Y-26014285D01*
X-20709523Y-26090476D01*
X-20938095Y-25138095D02*
X-20938095Y-25061904D01*
X-20900000Y-24985714D01*
X-20861904Y-24947619D01*
X-20785714Y-24909523D01*
X-20633333Y-24871428D01*
X-20442857Y-24871428D01*
X-20290476Y-24909523D01*
X-20214285Y-24947619D01*
X-20176190Y-24985714D01*
X-20138095Y-25061904D01*
X-20138095Y-25138095D01*
X-20176190Y-25214285D01*
X-20214285Y-25252380D01*
X-20290476Y-25290476D01*
X-20442857Y-25328571D01*
X-20633333Y-25328571D01*
X-20785714Y-25290476D01*
X-20861904Y-25252380D01*
X-20900000Y-25214285D01*
X-20938095Y-25138095D01*
X-20938095Y-24376190D02*
X-20938095Y-24300000D01*
X-20900000Y-24223809D01*
X-20861904Y-24185714D01*
X-20785714Y-24147619D01*
X-20633333Y-24109523D01*
X-20442857Y-24109523D01*
X-20290476Y-24147619D01*
X-20214285Y-24185714D01*
X-20176190Y-24223809D01*
X-20138095Y-24300000D01*
X-20138095Y-24376190D01*
X-20176190Y-24452380D01*
X-20214285Y-24490476D01*
X-20290476Y-24528571D01*
X-20442857Y-24566666D01*
X-20633333Y-24566666D01*
X-20785714Y-24528571D01*
X-20861904Y-24490476D01*
X-20900000Y-24452380D01*
X-20938095Y-24376190D01*
X15240580Y-4240000D02*
X14959420Y-4240000D01*
X15240580Y-5260000D02*
X14959420Y-5260000D01*
X-14702500Y-5515580D02*
X-14702500Y-5234420D01*
X-15722500Y-5515580D02*
X-15722500Y-5234420D01*
X-11322500Y-5234420D02*
X-11322500Y-5515580D01*
X-10302500Y-5234420D02*
X-10302500Y-5515580D01*
X-17085000Y-2603080D02*
X-17085000Y-2321920D01*
X-16065000Y-2603080D02*
X-16065000Y-2321920D01*
X-10302500Y-2434420D02*
X-10302500Y-2715580D01*
X-11322500Y-2434420D02*
X-11322500Y-2715580D01*
X-21836164Y-34268000D02*
X-22051836Y-34268000D01*
X-21836164Y-33548000D02*
X-22051836Y-33548000D01*
X-26104000Y-36659836D02*
X-26104000Y-36444164D01*
X-25384000Y-36659836D02*
X-25384000Y-36444164D01*
X-27099500Y-35451164D02*
X-27099500Y-35666836D01*
X-26379500Y-35451164D02*
X-26379500Y-35666836D01*
X-28115500Y-35451164D02*
X-28115500Y-35666836D01*
X-27395500Y-35451164D02*
X-27395500Y-35666836D01*
X-29195000Y-35451164D02*
X-29195000Y-35666836D01*
X-28475000Y-35451164D02*
X-28475000Y-35666836D01*
X-31310000Y-29757836D02*
X-31310000Y-29542164D01*
X-30590000Y-29757836D02*
X-30590000Y-29542164D01*
X-31530000Y-29747836D02*
X-31530000Y-29532164D01*
X-32250000Y-29747836D02*
X-32250000Y-29532164D01*
X-7246000Y-4573064D02*
X-7246000Y-3368936D01*
X-9966000Y-4573064D02*
X-9966000Y-3368936D01*
X6090000Y-720000D02*
X6090000Y-1650000D01*
X6090000Y-3880000D02*
X6090000Y-2950000D01*
X6090000Y-3880000D02*
X8250000Y-3880000D01*
X6090000Y-720000D02*
X7550000Y-720000D01*
X6090000Y-4120000D02*
X6090000Y-5050000D01*
X6090000Y-7280000D02*
X8250000Y-7280000D01*
X6090000Y-7280000D02*
X6090000Y-6350000D01*
X6090000Y-4120000D02*
X7550000Y-4120000D01*
X14845276Y-5627500D02*
X15354724Y-5627500D01*
X14845276Y-6672500D02*
X15354724Y-6672500D01*
X15354724Y-3872500D02*
X14845276Y-3872500D01*
X15354724Y-2827500D02*
X14845276Y-2827500D01*
X14954724Y-29072500D02*
X14445276Y-29072500D01*
X14954724Y-28027500D02*
X14445276Y-28027500D01*
X14954724Y-25322500D02*
X14445276Y-25322500D01*
X14954724Y-24277500D02*
X14445276Y-24277500D01*
X522500Y-2295276D02*
X522500Y-2804724D01*
X-522500Y-2295276D02*
X-522500Y-2804724D01*
X-522500Y-5395276D02*
X-522500Y-5904724D01*
X522500Y-5395276D02*
X522500Y-5904724D01*
X-12757776Y-2297500D02*
X-13267224Y-2297500D01*
X-12757776Y-1252500D02*
X-13267224Y-1252500D01*
X-15735000Y-2220276D02*
X-15735000Y-2729724D01*
X-14690000Y-2220276D02*
X-14690000Y-2729724D01*
X-22245500Y-31240276D02*
X-22245500Y-31749724D01*
X-21200500Y-31240276D02*
X-21200500Y-31749724D01*
X-11502500Y-5555000D02*
X-11502500Y-3125000D01*
X-14572500Y-3795000D02*
X-14572500Y-5555000D01*
D14*
X-17262742Y-35000000D02*
X-17050610Y-35212132D01*
X-15212132Y-37050610D02*
X-15000000Y-37262742D01*
X-15000000Y-37262742D02*
X-14787868Y-37050610D01*
X-12984746Y-35247487D02*
X-12737258Y-35000000D01*
X-12737258Y-35000000D02*
X-12949390Y-34787868D01*
X-17015254Y-34752513D02*
X-17262742Y-35000000D01*
X-15000000Y-32737258D02*
X-14787868Y-32949390D01*
X-17050610Y-35212132D02*
X-17474874Y-35636396D01*
X-15212132Y-32949390D02*
X-15000000Y-32737258D01*
D11*
X-23490000Y-27540000D02*
X-24240000Y-27540000D01*
X-23490000Y-33760000D02*
X-24240000Y-33760000D01*
X-23490000Y-28290000D02*
X-23490000Y-27540000D01*
X-23490000Y-33010000D02*
X-23490000Y-33760000D01*
X-29710000Y-27540000D02*
X-28960000Y-27540000D01*
X-29710000Y-28290000D02*
X-29710000Y-27540000D01*
X-29710000Y-33010000D02*
X-29710000Y-33760000D01*
D10*
X-21200000Y-34700000D02*
X-25200000Y-34700000D01*
X-21200000Y-38000000D02*
X-21200000Y-34700000D01*
X3250000Y-10750000D02*
X3250000Y-23550000D01*
X-3250000Y-23550000D02*
X-3250000Y-10750000D01*
X3250000Y-23550000D02*
X-3250000Y-23550000D01*
X-3250000Y-10750000D02*
X3250000Y-10750000D01*
D11*
X-14290000Y-19210000D02*
X-9390000Y-19210000D01*
X-14290000Y-9090000D02*
X-14290000Y-8500000D01*
X-16510000Y-19800000D02*
X-16510000Y-19210000D01*
X-18610000Y-9090000D02*
X-16510000Y-9090000D01*
X-16510000Y-9090000D02*
X-16510000Y-8500000D01*
X-18610000Y-19210000D02*
X-18610000Y-9090000D01*
X-9390000Y-19210000D02*
X-9390000Y-9090000D01*
X-18610000Y-19210000D02*
X-16510000Y-19210000D01*
X-14290000Y-9090000D02*
X-9390000Y-9090000D01*
X-14290000Y-19800000D02*
X-14290000Y-19210000D01*
X-16510000Y-19800000D02*
G75*
G03*
X-14290000Y-19800000I1110000J0D01*
G01*
X-14290000Y-8500000D02*
G75*
G03*
X-16510000Y-8500000I-1110000J0D01*
G01*
X-1550000Y-2594000D02*
X-1550000Y-5134000D01*
X-3986000Y-8078000D02*
X4014000Y-8078000D01*
X4014000Y-8078000D02*
X4014000Y-78000D01*
X-3986000Y-78000D02*
X-3986000Y-8078000D01*
X-1042000Y-5642000D02*
X1498000Y-5642000D01*
X1498000Y-5642000D02*
X1498000Y-2594000D01*
X4014000Y-78000D02*
X-3986000Y-78000D01*
X-1550000Y-5134000D02*
X-1042000Y-5642000D01*
X1498000Y-2594000D02*
X-1550000Y-2594000D01*
X14290000Y-19210000D02*
X14290000Y-19800000D01*
X14290000Y-19210000D02*
X9390000Y-19210000D01*
X18610000Y-9090000D02*
X18610000Y-19210000D01*
X16510000Y-19210000D02*
X16510000Y-19800000D01*
X18610000Y-19210000D02*
X16510000Y-19210000D01*
X16510000Y-8500000D02*
X16510000Y-9090000D01*
X14290000Y-9090000D02*
X9390000Y-9090000D01*
X14290000Y-8500000D02*
X14290000Y-9090000D01*
X18610000Y-9090000D02*
X16510000Y-9090000D01*
X9390000Y-9090000D02*
X9390000Y-19210000D01*
X16510000Y-8500000D02*
G75*
G03*
X14290000Y-8500000I-1110000J0D01*
G01*
X14290000Y-19800000D02*
G75*
G03*
X16510000Y-19800000I1110000J0D01*
G01*
D10*
X18095276Y-37172500D02*
X18604724Y-37172500D01*
X18095276Y-36127500D02*
X18604724Y-36127500D01*
D11*
X-22260000Y-28640580D02*
X-22260000Y-28359420D01*
X-21240000Y-28640580D02*
X-21240000Y-28359420D01*
D10*
X-37657836Y-31260000D02*
X-37442164Y-31260000D01*
X-37657836Y-30540000D02*
X-37442164Y-30540000D01*
X33850000Y-34800000D02*
X37550000Y-34800000D01*
X37550000Y-34800000D02*
X37550000Y-29500000D01*
X-35492164Y-30540000D02*
X-35707836Y-30540000D01*
X-35492164Y-31260000D02*
X-35707836Y-31260000D01*
X-43292164Y-32790000D02*
X-43507836Y-32790000D01*
X-43292164Y-33510000D02*
X-43507836Y-33510000D01*
X32390000Y-33690580D02*
X32390000Y-33409420D01*
X33410000Y-33690580D02*
X33410000Y-33409420D01*
X-70252147Y-53205014D02*
X-70700915Y-53446145D01*
X-69757527Y-54125545D02*
X-70206295Y-54366676D01*
X1250000Y-31750000D02*
X1250000Y-27850000D01*
X-750000Y-31750000D02*
X1250000Y-31750000D01*
X-750000Y-31750000D02*
X-750000Y-27850000D01*
X32390000Y-26990580D02*
X32390000Y-26709420D01*
X33410000Y-26990580D02*
X33410000Y-26709420D01*
X33410000Y-30609420D02*
X33410000Y-30890580D01*
X32390000Y-30609420D02*
X32390000Y-30890580D01*
X-43292164Y-36910000D02*
X-43507836Y-36910000D01*
X-43292164Y-36190000D02*
X-43507836Y-36190000D01*
X-81266112Y-32047207D02*
X-54839390Y-17847617D01*
X-54839390Y-17847617D02*
X-48212914Y-30180088D01*
X-48212914Y-30180088D02*
X-74639636Y-44379678D01*
X-74639636Y-44379678D02*
X-81266112Y-32047207D01*
X-52538540Y-20016970D02*
X-39325179Y-12917175D01*
X-39325179Y-12917175D02*
X-35538621Y-19964301D01*
X-35538621Y-19964301D02*
X-48751983Y-27064096D01*
X-48751983Y-27064096D02*
X-52538540Y-20016970D01*
D11*
X-66520120Y-44182432D02*
G75*
G03*
X-66520120Y-44182432I-1414213J0D01*
G01*
X-50664087Y-35662678D02*
G75*
G03*
X-50664087Y-35662678I-1414213J0D01*
G01*
D10*
X44511698Y-34594920D02*
X41472625Y-32961967D01*
X44511698Y-34594920D02*
X46229435Y-35517893D01*
X42088302Y-39105080D02*
X43806039Y-40028054D01*
X42088302Y-39105080D02*
X40370565Y-38182107D01*
X-35492164Y-32310000D02*
X-35707836Y-32310000D01*
X-35492164Y-31590000D02*
X-35707836Y-31590000D01*
X-42150000Y-33690000D02*
X-43550000Y-33690000D01*
X-43550000Y-36010000D02*
X-41650000Y-36010000D01*
X38467285Y-35234771D02*
X38334206Y-35482443D01*
X39365794Y-35717557D02*
X39232715Y-35965229D01*
D11*
X73481305Y-53279396D02*
X62241139Y-47239837D01*
X74600036Y-53880512D02*
X75771621Y-54510027D01*
X73481305Y-53279396D02*
X72222275Y-55622566D01*
X62241139Y-47239837D02*
X60982109Y-49583007D01*
X72222275Y-55622566D02*
X60982109Y-49583007D01*
X75771621Y-54510027D02*
X75142106Y-55681612D01*
D10*
X1250000Y-32550000D02*
X1250000Y-36450000D01*
X1250000Y-32550000D02*
X-750000Y-32550000D01*
X-750000Y-32550000D02*
X-750000Y-36450000D01*
X27609420Y-22160000D02*
X27890580Y-22160000D01*
X27609420Y-21140000D02*
X27890580Y-21140000D01*
X14954724Y-26572500D02*
X14445276Y-26572500D01*
X14954724Y-25527500D02*
X14445276Y-25527500D01*
X-48040452Y-38140452D02*
X-48980904Y-37200000D01*
X-48980904Y-37200000D02*
X-48040452Y-36259548D01*
X-47142426Y-39038478D02*
X-47100000Y-39080904D01*
X-47142426Y-39038478D02*
X-45261522Y-37157574D01*
X-45261522Y-37157574D02*
X-45219096Y-37200000D01*
X-47100000Y-39080904D02*
X-45219096Y-37200000D01*
X16600000Y-700000D02*
X12300000Y-700000D01*
X16600000Y-2700000D02*
X16600000Y-700000D01*
X12300000Y-2700000D02*
X16600000Y-2700000D01*
X15295276Y-33422500D02*
X15804724Y-33422500D01*
X15295276Y-32377500D02*
X15804724Y-32377500D01*
X-37792426Y-30038478D02*
X-35911522Y-28157574D01*
X-38690452Y-29140452D02*
X-39630904Y-28200000D01*
X-37750000Y-30080904D02*
X-35869096Y-28200000D01*
X-35911522Y-28157574D02*
X-35869096Y-28200000D01*
X-37792426Y-30038478D02*
X-37750000Y-30080904D01*
X-39630904Y-28200000D02*
X-38690452Y-27259548D01*
D11*
X16800000Y-30700000D02*
X15400000Y-30700000D01*
X15400000Y-29500000D02*
X16800000Y-29500000D01*
D10*
X74639636Y-44379678D02*
X48212914Y-30180088D01*
X48212914Y-30180088D02*
X54839390Y-17847617D01*
X54839390Y-17847617D02*
X81266112Y-32047207D01*
X81266112Y-32047207D02*
X74639636Y-44379678D01*
X48751983Y-27064096D02*
X35538621Y-19964301D01*
X35538621Y-19964301D02*
X39325179Y-12917175D01*
X39325179Y-12917175D02*
X52538540Y-20016970D01*
X52538540Y-20016970D02*
X48751983Y-27064096D01*
D11*
X69348546Y-44182432D02*
G75*
G03*
X69348546Y-44182432I-1414213J0D01*
G01*
X53492513Y-35662678D02*
G75*
G03*
X53492513Y-35662678I-1414213J0D01*
G01*
D10*
X32240580Y-37160000D02*
X31959420Y-37160000D01*
X32240580Y-36140000D02*
X31959420Y-36140000D01*
X15804724Y-34622500D02*
X15295276Y-34622500D01*
X15804724Y-33577500D02*
X15295276Y-33577500D01*
X-39392164Y-32640000D02*
X-39607836Y-32640000D01*
X-39392164Y-33360000D02*
X-39607836Y-33360000D01*
X-69219052Y-52247589D02*
X-69914832Y-50952680D01*
X-71386044Y-53411955D02*
X-69219052Y-52247589D01*
X-69914832Y-50952680D02*
X-72081824Y-52117046D01*
D11*
X16800000Y-32100000D02*
X15400000Y-32100000D01*
X15400000Y-30900000D02*
X16800000Y-30900000D01*
D10*
X-39607836Y-30540000D02*
X-39392164Y-30540000D01*
X-39607836Y-31260000D02*
X-39392164Y-31260000D01*
X15259420Y-37160000D02*
X15540580Y-37160000D01*
X15259420Y-36140000D02*
X15540580Y-36140000D01*
X14954724Y-27822500D02*
X14445276Y-27822500D01*
X14954724Y-26777500D02*
X14445276Y-26777500D01*
X-66357527Y-52325545D02*
X-66806295Y-52566676D01*
X-66852147Y-51405014D02*
X-67300915Y-51646145D01*
X-43553641Y-32480000D02*
X-43246359Y-32480000D01*
X-43553641Y-31720000D02*
X-43246359Y-31720000D01*
X-29157836Y-24740000D02*
X-28942164Y-24740000D01*
X-29157836Y-25460000D02*
X-28942164Y-25460000D01*
X-33542164Y-30210000D02*
X-33757836Y-30210000D01*
X-33542164Y-29490000D02*
X-33757836Y-29490000D01*
X27609420Y-23460000D02*
X27890580Y-23460000D01*
X27609420Y-22440000D02*
X27890580Y-22440000D01*
X-33542164Y-28440000D02*
X-33757836Y-28440000D01*
X-33542164Y-29160000D02*
X-33757836Y-29160000D01*
X30410000Y-34810000D02*
X31750000Y-34810000D01*
X20190000Y-25540000D02*
X20190000Y-26490000D01*
X20190000Y-35760000D02*
X20190000Y-34810000D01*
X29460000Y-25540000D02*
X30410000Y-25540000D01*
X30410000Y-35760000D02*
X30410000Y-34810000D01*
X30410000Y-25540000D02*
X30410000Y-26490000D01*
X21140000Y-25540000D02*
X20190000Y-25540000D01*
X29460000Y-35760000D02*
X30410000Y-35760000D01*
X21140000Y-35760000D02*
X20190000Y-35760000D01*
X22659420Y-23460000D02*
X22940580Y-23460000D01*
X22659420Y-22440000D02*
X22940580Y-22440000D01*
X-66514832Y-49152680D02*
X-68681824Y-50317046D01*
X-65819052Y-50447589D02*
X-66514832Y-49152680D01*
X-67986044Y-51611955D02*
X-65819052Y-50447589D01*
X-15140580Y-31060000D02*
X-14859420Y-31060000D01*
X-15140580Y-30040000D02*
X-14859420Y-30040000D01*
X-31107836Y-25790000D02*
X-30892164Y-25790000D01*
X-31107836Y-26510000D02*
X-30892164Y-26510000D01*
X-45192164Y-34490000D02*
X-45407836Y-34490000D01*
X-45192164Y-35210000D02*
X-45407836Y-35210000D01*
X-19940000Y-28640580D02*
X-19940000Y-28359420D01*
X-20960000Y-28640580D02*
X-20960000Y-28359420D01*
%LPC*%
D15*
X15875000Y-4750000D03*
X14325000Y-4750000D03*
D16*
X-15212500Y-6150000D03*
X-15212500Y-4600000D03*
D17*
X-10812500Y-4600000D03*
X-10812500Y-6150000D03*
D16*
X-16575000Y-3237500D03*
X-16575000Y-1687500D03*
D17*
X-10812500Y-1800000D03*
X-10812500Y-3350000D03*
D18*
X-21464000Y-33908000D03*
X-22424000Y-33908000D03*
D19*
X-25744000Y-37032000D03*
X-25744000Y-36072000D03*
D20*
X-26739500Y-35079000D03*
X-26739500Y-36039000D03*
X-27755500Y-35079000D03*
X-27755500Y-36039000D03*
X-28835000Y-35079000D03*
X-28835000Y-36039000D03*
D19*
X-30950000Y-30130000D03*
X-30950000Y-29170000D03*
X-31890000Y-30120000D03*
X-31890000Y-29160000D03*
D21*
X-8606000Y-5371000D03*
X-8606000Y-2571000D03*
D22*
X7850000Y-3250000D03*
X7850000Y-1350000D03*
X5850000Y-2300000D03*
X7850000Y-6650000D03*
X7850000Y-4750000D03*
X5850000Y-5700000D03*
D23*
X14187500Y-6150000D03*
X16012500Y-6150000D03*
D24*
X16012500Y-3350000D03*
X14187500Y-3350000D03*
X15612500Y-28550000D03*
X13787500Y-28550000D03*
X15612500Y-24800000D03*
X13787500Y-24800000D03*
D25*
X0Y-1637500D03*
X0Y-3462500D03*
X0Y-4737500D03*
X0Y-6562500D03*
D24*
X-12100000Y-1775000D03*
X-13925000Y-1775000D03*
D25*
X-15212500Y-1562500D03*
X-15212500Y-3387500D03*
X-21723000Y-30582500D03*
X-21723000Y-32407500D03*
D26*
X-12062500Y-3365000D03*
X-13012500Y-3365000D03*
X-13962500Y-3365000D03*
X-13962500Y-5985000D03*
X-13012500Y-5985000D03*
X-12062500Y-5985000D03*
D27*
X-16732412Y-35318198D03*
X-16378858Y-35671751D03*
X-16025305Y-36025305D03*
X-15671751Y-36378858D03*
X-15318198Y-36732412D03*
D28*
X-14328249Y-36378858D03*
X-13974695Y-36025305D03*
X-13621142Y-35671751D03*
D27*
X-13267588Y-34681802D03*
X-13621142Y-34328249D03*
X-13974695Y-33974695D03*
X-14328249Y-33621142D03*
X-14681802Y-33267588D03*
D28*
X-15671751Y-33621142D03*
X-16025305Y-33974695D03*
X-16378858Y-34328249D03*
D29*
X-28550000Y-33750000D03*
X-27900000Y-33750000D03*
X-27250000Y-33750000D03*
X-26600000Y-33750000D03*
X-25950000Y-33750000D03*
X-25300000Y-33750000D03*
X-24650000Y-33750000D03*
D30*
X-23500000Y-32600000D03*
X-23500000Y-31950000D03*
X-23500000Y-31300000D03*
X-23500000Y-30650000D03*
X-23500000Y-30000000D03*
X-23500000Y-29350000D03*
X-23500000Y-28700000D03*
D29*
X-24650000Y-27550000D03*
X-25300000Y-27550000D03*
X-25950000Y-27550000D03*
X-26600000Y-27550000D03*
X-27250000Y-27550000D03*
X-27900000Y-27550000D03*
X-28550000Y-27550000D03*
D30*
X-29700000Y-28700000D03*
X-29700000Y-29350000D03*
X-29700000Y-30000000D03*
X-29700000Y-30650000D03*
X-29700000Y-31300000D03*
X-29700000Y-31950000D03*
X-29700000Y-32600000D03*
D31*
X-26600000Y-30650000D03*
D32*
X-22100000Y-35500000D03*
X-24300000Y-35500000D03*
X-24300000Y-37200000D03*
X-22100000Y-37200000D03*
D33*
X0Y-14150000D03*
X0Y-20150000D03*
D34*
X-15400000Y-19650000D03*
X-15400000Y-8650000D03*
D35*
X-5400000Y-11650000D03*
X-5400000Y-16650000D03*
D36*
X2514000Y-1578000D03*
X-2566000Y-1578000D03*
X-2566000Y-6658000D03*
X2514000Y-6658000D03*
D34*
X15400000Y-19650000D03*
X15400000Y-8650000D03*
D35*
X5400000Y-16650000D03*
X5400000Y-11650000D03*
D37*
X21200000Y-3600000D03*
X-21200000Y-3600000D03*
D23*
X17437500Y-36650000D03*
X19262500Y-36650000D03*
D16*
X-21750000Y-29275000D03*
X-21750000Y-27725000D03*
D38*
X-38030000Y-30900000D03*
X-37070000Y-30900000D03*
D39*
X36700000Y-33800000D03*
X36700000Y-30500000D03*
X34700000Y-30500000D03*
X34700000Y-33800000D03*
D18*
X-35120000Y-30900000D03*
X-36080000Y-30900000D03*
D40*
X-61779777Y-42881670D03*
D41*
X-60430253Y-42156544D03*
D18*
X-42920000Y-33150000D03*
X-43880000Y-33150000D03*
D16*
X32900000Y-34325000D03*
X32900000Y-32775000D03*
D42*
X-37065000Y-31950000D03*
X-38035000Y-31950000D03*
D43*
X-69425408Y-53353941D03*
X-71033034Y-54217749D03*
D44*
X250000Y-31150000D03*
X250000Y-27850000D03*
D16*
X32900000Y-27625000D03*
X32900000Y-26075000D03*
D17*
X32900000Y-29975000D03*
X32900000Y-31525000D03*
D18*
X-42920000Y-36550000D03*
X-43880000Y-36550000D03*
D45*
X-67934333Y-44182432D03*
X-52078300Y-35662678D03*
D46*
X-49764370Y-23067213D03*
X-38312791Y-16914058D03*
D47*
X-42630499Y-13103887D03*
D48*
X-39106936Y-11210608D03*
X-40868717Y-12157248D03*
D49*
X-37518646Y-22617507D03*
D50*
X-35756865Y-21670868D03*
X-33995083Y-20724228D03*
D42*
X-28565000Y-26150000D03*
X-29535000Y-26150000D03*
D51*
X60430253Y-42156544D03*
D52*
X61779777Y-42881670D03*
D53*
X42021469Y-34000437D03*
X41420353Y-35119168D03*
X40819237Y-36237899D03*
X40218121Y-37356631D03*
X44578531Y-39699563D03*
X45179647Y-38580832D03*
X45780763Y-37462101D03*
X46381879Y-36343369D03*
D18*
X-35120000Y-31950000D03*
X-36080000Y-31950000D03*
D54*
X-41900000Y-35500000D03*
X-41900000Y-34850000D03*
X-41900000Y-34200000D03*
X-43800000Y-34200000D03*
X-43800000Y-34850000D03*
X-43800000Y-35500000D03*
D55*
X39216823Y-34917310D03*
X38483177Y-36282690D03*
D56*
X73970521Y-55052097D03*
D57*
X71733059Y-53849865D03*
X69495596Y-52647633D03*
X67258134Y-51445401D03*
X65020671Y-50243169D03*
X62783209Y-49040937D03*
D44*
X250000Y-33150000D03*
X250000Y-36450000D03*
D58*
X26975000Y-21650000D03*
X28525000Y-21650000D03*
D24*
X15612500Y-26050000D03*
X13787500Y-26050000D03*
D59*
X-47100000Y-37200000D03*
D60*
X15800000Y-1700000D03*
X12300000Y-1700000D03*
D61*
X-34155000Y-30900000D03*
X-33185000Y-30900000D03*
D23*
X14637500Y-32900000D03*
X16462500Y-32900000D03*
D59*
X-37750000Y-28200000D03*
D62*
X7266000Y-22266000D03*
D63*
X5734000Y-20734000D03*
D64*
X7266000Y-20734000D03*
D65*
X5734000Y-22266000D03*
D66*
X15500000Y-30100000D03*
D67*
X16700000Y-30100000D03*
D45*
X67934333Y-44182432D03*
X52078300Y-35662678D03*
D68*
X49764370Y-23067213D03*
X38312791Y-16914058D03*
D69*
X35756865Y-21670868D03*
D70*
X37518646Y-22617507D03*
D69*
X33995083Y-20724228D03*
D71*
X39106936Y-11210608D03*
D72*
X42630499Y-13103887D03*
D71*
X40868717Y-12157248D03*
D15*
X32875000Y-36650000D03*
X31325000Y-36650000D03*
D24*
X16462500Y-34100000D03*
X14637500Y-34100000D03*
D18*
X-39020000Y-33000000D03*
X-39980000Y-33000000D03*
D73*
X-70258442Y-51971690D03*
X-71800000Y-52800000D03*
D66*
X15500000Y-31500000D03*
D67*
X16700000Y-31500000D03*
D38*
X-39980000Y-30900000D03*
X-39020000Y-30900000D03*
D58*
X14625000Y-36650000D03*
X16175000Y-36650000D03*
D24*
X15612500Y-27300000D03*
X13787500Y-27300000D03*
D43*
X-66025408Y-51553941D03*
X-67633034Y-52417749D03*
D74*
X-43910000Y-32100000D03*
X-42890000Y-32100000D03*
D38*
X-29530000Y-25100000D03*
X-28570000Y-25100000D03*
D42*
X-33165000Y-31950000D03*
X-34135000Y-31950000D03*
D18*
X-33170000Y-29850000D03*
X-34130000Y-29850000D03*
D58*
X26975000Y-22950000D03*
X28525000Y-22950000D03*
D18*
X-33170000Y-28800000D03*
X-34130000Y-28800000D03*
D75*
X30975000Y-34400000D03*
X30975000Y-33900000D03*
X30975000Y-33400000D03*
X30975000Y-32900000D03*
X30975000Y-32400000D03*
X30975000Y-31900000D03*
X30975000Y-31400000D03*
X30975000Y-30900000D03*
X30975000Y-30400000D03*
X30975000Y-29900000D03*
X30975000Y-29400000D03*
X30975000Y-28900000D03*
X30975000Y-28400000D03*
X30975000Y-27900000D03*
X30975000Y-27400000D03*
X30975000Y-26900000D03*
D76*
X29050000Y-24975000D03*
X28550000Y-24975000D03*
X28050000Y-24975000D03*
X27550000Y-24975000D03*
X27050000Y-24975000D03*
X26550000Y-24975000D03*
X26050000Y-24975000D03*
X25550000Y-24975000D03*
X25050000Y-24975000D03*
X24550000Y-24975000D03*
X24050000Y-24975000D03*
X23550000Y-24975000D03*
X23050000Y-24975000D03*
X22550000Y-24975000D03*
X22050000Y-24975000D03*
X21550000Y-24975000D03*
D75*
X19625000Y-26900000D03*
X19625000Y-27400000D03*
X19625000Y-27900000D03*
X19625000Y-28400000D03*
X19625000Y-28900000D03*
X19625000Y-29400000D03*
X19625000Y-29900000D03*
X19625000Y-30400000D03*
X19625000Y-30900000D03*
X19625000Y-31400000D03*
X19625000Y-31900000D03*
X19625000Y-32400000D03*
X19625000Y-32900000D03*
X19625000Y-33400000D03*
X19625000Y-33900000D03*
X19625000Y-34400000D03*
D76*
X21550000Y-36325000D03*
X22050000Y-36325000D03*
X22550000Y-36325000D03*
X23050000Y-36325000D03*
X23550000Y-36325000D03*
X24050000Y-36325000D03*
X24550000Y-36325000D03*
X25050000Y-36325000D03*
X25550000Y-36325000D03*
X26050000Y-36325000D03*
X26550000Y-36325000D03*
X27050000Y-36325000D03*
X27550000Y-36325000D03*
X28050000Y-36325000D03*
X28550000Y-36325000D03*
X29050000Y-36325000D03*
D58*
X22025000Y-22950000D03*
X23575000Y-22950000D03*
D73*
X-66858442Y-50171690D03*
X-68400000Y-51000000D03*
D58*
X-15775000Y-30550000D03*
X-14225000Y-30550000D03*
D42*
X-39020000Y-31950000D03*
X-39990000Y-31950000D03*
D38*
X-31480000Y-26150000D03*
X-30520000Y-26150000D03*
D18*
X-44820000Y-34850000D03*
X-45780000Y-34850000D03*
D16*
X-20450000Y-29275000D03*
X-20450000Y-27725000D03*
D77*
X5500000Y-36300000D03*
X5500000Y-29300000D03*
D78*
X2800000Y-36600000D03*
X7930000Y-36600000D03*
X2760000Y-27300000D03*
X8460000Y-27300000D03*
X7710000Y-30500000D03*
X2760000Y-30500000D03*
X8750000Y-33550000D03*
D77*
X-5500000Y-29300000D03*
X-5500000Y-36300000D03*
D78*
X-8200000Y-36600000D03*
X-3070000Y-36600000D03*
X-8240000Y-27300000D03*
X-2540000Y-27300000D03*
X-3290000Y-30500000D03*
X-8240000Y-30500000D03*
X-2250000Y-33550000D03*
M02*
