G04 #@! TF.GenerationSoftware,KiCad,Pcbnew,(6.0.0)*
G04 #@! TF.CreationDate,2022-01-13T00:17:18-05:00*
G04 #@! TF.ProjectId,TGD,5447442e-6b69-4636-9164-5f7063625858,rev?*
G04 #@! TF.SameCoordinates,Original*
G04 #@! TF.FileFunction,Copper,L4,Bot*
G04 #@! TF.FilePolarity,Positive*
%FSLAX46Y46*%
G04 Gerber Fmt 4.6, Leading zero omitted, Abs format (unit mm)*
G04 Created by KiCad (PCBNEW (6.0.0)) date 2022-01-13 00:17:18*
%MOMM*%
%LPD*%
G01*
G04 APERTURE LIST*
G04 Aperture macros list*
%AMRoundRect*
0 Rectangle with rounded corners*
0 $1 Rounding radius*
0 $2 $3 $4 $5 $6 $7 $8 $9 X,Y pos of 4 corners*
0 Add a 4 corners polygon primitive as box body*
4,1,4,$2,$3,$4,$5,$6,$7,$8,$9,$2,$3,0*
0 Add four circle primitives for the rounded corners*
1,1,$1+$1,$2,$3*
1,1,$1+$1,$4,$5*
1,1,$1+$1,$6,$7*
1,1,$1+$1,$8,$9*
0 Add four rect primitives between the rounded corners*
20,1,$1+$1,$2,$3,$4,$5,0*
20,1,$1+$1,$4,$5,$6,$7,0*
20,1,$1+$1,$6,$7,$8,$9,0*
20,1,$1+$1,$8,$9,$2,$3,0*%
%AMHorizOval*
0 Thick line with rounded ends*
0 $1 width*
0 $2 $3 position (X,Y) of the first rounded end (center of the circle)*
0 $4 $5 position (X,Y) of the second rounded end (center of the circle)*
0 Add line between two ends*
20,1,$1,$2,$3,$4,$5,0*
0 Add two circle primitives to create the rounded ends*
1,1,$1,$2,$3*
1,1,$1,$4,$5*%
%AMRotRect*
0 Rectangle, with rotation*
0 The origin of the aperture is its center*
0 $1 length*
0 $2 width*
0 $3 Rotation angle, in degrees counterclockwise*
0 Add horizontal line*
21,1,$1,$2,0,0,$3*%
G04 Aperture macros list end*
G04 #@! TA.AperFunction,ComponentPad*
%ADD10RoundRect,1.500000X-1.250000X0.000000X-1.250000X0.000000X1.250000X0.000000X1.250000X0.000000X0*%
G04 #@! TD*
G04 #@! TA.AperFunction,ComponentPad*
%ADD11C,1.400000*%
G04 #@! TD*
G04 #@! TA.AperFunction,ComponentPad*
%ADD12C,3.500000*%
G04 #@! TD*
G04 #@! TA.AperFunction,ComponentPad*
%ADD13C,1.778000*%
G04 #@! TD*
G04 #@! TA.AperFunction,ComponentPad*
%ADD14RoundRect,0.200000X1.303591X-0.207727X0.546280X1.201698X-1.303591X0.207727X-0.546280X-1.201698X0*%
G04 #@! TD*
G04 #@! TA.AperFunction,ComponentPad*
%ADD15RoundRect,0.200000X-1.303591X0.207727X-0.546280X-1.201698X1.303591X-0.207727X0.546280X1.201698X0*%
G04 #@! TD*
G04 #@! TA.AperFunction,ComponentPad*
%ADD16RoundRect,0.250000X1.354210X-0.407571X0.407571X1.354210X-1.354210X0.407571X-0.407571X-1.354210X0*%
G04 #@! TD*
G04 #@! TA.AperFunction,ComponentPad*
%ADD17RoundRect,0.250000X0.407571X1.354210X-1.354210X0.407571X-0.407571X-1.354210X1.354210X-0.407571X0*%
G04 #@! TD*
G04 #@! TA.AperFunction,ComponentPad*
%ADD18RoundRect,0.250000X-0.407571X-1.354210X1.354210X-0.407571X0.407571X1.354210X-1.354210X0.407571X0*%
G04 #@! TD*
G04 #@! TA.AperFunction,ComponentPad*
%ADD19RoundRect,0.250000X-1.354210X0.407571X-0.407571X-1.354210X1.354210X-0.407571X0.407571X1.354210X0*%
G04 #@! TD*
G04 #@! TA.AperFunction,ComponentPad*
%ADD20RoundRect,0.200000X0.546280X-1.201698X1.303591X0.207727X-0.546280X1.201698X-1.303591X-0.207727X0*%
G04 #@! TD*
G04 #@! TA.AperFunction,ComponentPad*
%ADD21RoundRect,0.200000X-0.546280X1.201698X-1.303591X-0.207727X0.546280X-1.201698X1.303591X0.207727X0*%
G04 #@! TD*
G04 #@! TA.AperFunction,ComponentPad*
%ADD22RotRect,1.700000X1.700000X241.750000*%
G04 #@! TD*
G04 #@! TA.AperFunction,ComponentPad*
%ADD23HorizOval,1.700000X0.000000X0.000000X0.000000X0.000000X0*%
G04 #@! TD*
G04 #@! TA.AperFunction,ComponentPad*
%ADD24RotRect,1.700000X1.700000X45.000000*%
G04 #@! TD*
G04 #@! TA.AperFunction,ComponentPad*
%ADD25RoundRect,0.250000X1.000000X1.000000X-1.000000X1.000000X-1.000000X-1.000000X1.000000X-1.000000X0*%
G04 #@! TD*
G04 #@! TA.AperFunction,ComponentPad*
%ADD26RoundRect,0.250000X-1.000000X-1.000000X1.000000X-1.000000X1.000000X1.000000X-1.000000X1.000000X0*%
G04 #@! TD*
G04 #@! TA.AperFunction,ComponentPad*
%ADD27RoundRect,0.250000X-1.000000X1.000000X-1.000000X-1.000000X1.000000X-1.000000X1.000000X1.000000X0*%
G04 #@! TD*
G04 #@! TA.AperFunction,ComponentPad*
%ADD28RoundRect,0.250000X1.000000X-1.000000X1.000000X1.000000X-1.000000X1.000000X-1.000000X-1.000000X0*%
G04 #@! TD*
G04 #@! TA.AperFunction,ComponentPad*
%ADD29RoundRect,0.250000X-1.354210X-0.407571X0.407571X-1.354210X1.354210X0.407571X-0.407571X1.354210X0*%
G04 #@! TD*
G04 #@! TA.AperFunction,ComponentPad*
%ADD30RoundRect,0.250000X-0.407571X1.354210X-1.354210X-0.407571X0.407571X-1.354210X1.354210X0.407571X0*%
G04 #@! TD*
G04 #@! TA.AperFunction,ComponentPad*
%ADD31RoundRect,0.250000X0.407571X-1.354210X1.354210X0.407571X-0.407571X1.354210X-1.354210X-0.407571X0*%
G04 #@! TD*
G04 #@! TA.AperFunction,ComponentPad*
%ADD32RoundRect,0.250000X1.354210X0.407571X-0.407571X1.354210X-1.354210X-0.407571X0.407571X-1.354210X0*%
G04 #@! TD*
G04 #@! TA.AperFunction,ComponentPad*
%ADD33O,0.900000X1.700000*%
G04 #@! TD*
G04 #@! TA.AperFunction,ViaPad*
%ADD34C,0.609600*%
G04 #@! TD*
G04 #@! TA.AperFunction,Conductor*
%ADD35C,0.203200*%
G04 #@! TD*
G04 #@! TA.AperFunction,Conductor*
%ADD36C,0.304800*%
G04 #@! TD*
G04 APERTURE END LIST*
D10*
X0Y-14150000D03*
X0Y-20150000D03*
D11*
X-15400000Y-19650000D03*
X-15400000Y-8650000D03*
D12*
X-5400000Y-11650000D03*
X-5400000Y-16650000D03*
D13*
X2514000Y-1578000D03*
X-2566000Y-1578000D03*
X-2566000Y-6658000D03*
X2514000Y-6658000D03*
D11*
X15400000Y-19650000D03*
X15400000Y-8650000D03*
D12*
X5400000Y-16650000D03*
X5400000Y-11650000D03*
D14*
X-61779777Y-42881670D03*
D15*
X-60430253Y-42156544D03*
D16*
X-42630499Y-13103887D03*
D17*
X-39106936Y-11210608D03*
X-40868717Y-12157248D03*
D18*
X-37518646Y-22617507D03*
D19*
X-35756865Y-21670868D03*
X-33995083Y-20724228D03*
D20*
X60430253Y-42156544D03*
D21*
X61779777Y-42881670D03*
D22*
X73970521Y-55052097D03*
D23*
X71733059Y-53849865D03*
X69495596Y-52647633D03*
X67258134Y-51445401D03*
X65020671Y-50243169D03*
X62783209Y-49040937D03*
D24*
X-47100000Y-37200000D03*
X-37750000Y-28200000D03*
D25*
X7266000Y-22266000D03*
D26*
X5734000Y-20734000D03*
D27*
X7266000Y-20734000D03*
D28*
X5734000Y-22266000D03*
D29*
X35756865Y-21670868D03*
D30*
X37518646Y-22617507D03*
D29*
X33995083Y-20724228D03*
D31*
X39106936Y-11210608D03*
D32*
X42630499Y-13103887D03*
D31*
X40868717Y-12157248D03*
D33*
X2800000Y-36600000D03*
X7930000Y-36600000D03*
X2760000Y-27300000D03*
X8460000Y-27300000D03*
X7710000Y-30500000D03*
X2760000Y-30500000D03*
X8750000Y-33550000D03*
X-8200000Y-36600000D03*
X-3070000Y-36600000D03*
X-8240000Y-27300000D03*
X-2540000Y-27300000D03*
X-3290000Y-30500000D03*
X-8240000Y-30500000D03*
X-2250000Y-33550000D03*
D34*
X-45450000Y-39500000D03*
X32900000Y-34925000D03*
X-35900000Y-27300000D03*
X-34250000Y-25300000D03*
X-44950000Y-33650000D03*
X39152806Y-36697194D03*
X-48900000Y-36750000D03*
X-26676000Y-28828000D03*
X-47600000Y-39050000D03*
X-41050000Y-32200000D03*
X-27500000Y-24500000D03*
X-19800000Y-36800000D03*
X-21469000Y-33463500D03*
X14287500Y-4050000D03*
X-30550000Y-25150000D03*
X16800000Y-36650000D03*
X-24771000Y-32511000D03*
X-33100000Y-33000000D03*
X-35500000Y-33100000D03*
X-37850000Y-33200000D03*
X-32150000Y-27200000D03*
X-23350000Y-36150000D03*
X-31200000Y-33100000D03*
X-26676000Y-30733000D03*
X-40000000Y-37000000D03*
X-26676000Y-32511000D03*
X-39200000Y-34950000D03*
X-32300000Y-25300000D03*
X-36050000Y-29650000D03*
X-66250000Y-49850000D03*
X28525000Y-22250000D03*
X-21100000Y-27725000D03*
X-13500000Y-31200000D03*
X-27750000Y-36600000D03*
X-39850000Y-28100000D03*
X-47100000Y-35050000D03*
X-28454000Y-32511000D03*
X-28454000Y-28828000D03*
X-44050000Y-37650000D03*
X-13012500Y-4675000D03*
X23600000Y-22350000D03*
X-38800000Y-29650000D03*
X-34130000Y-29330000D03*
X-69650000Y-51650000D03*
X-28454000Y-30733000D03*
X-29900000Y-27450000D03*
X-31430000Y-29180000D03*
X-38200000Y-26500000D03*
X32900000Y-25000000D03*
X-41400000Y-29700000D03*
X-36400000Y-25250000D03*
X-40850000Y-34000000D03*
X-42500000Y-38500000D03*
X-9550000Y-3950000D03*
X-24771000Y-28828000D03*
X-24771000Y-30733000D03*
X32900000Y-29350000D03*
X-41600000Y-36500000D03*
X-16550000Y-3850000D03*
X-27500000Y-34650000D03*
X26975000Y-22275000D03*
X-68800000Y-53000000D03*
X39631455Y-35618545D03*
X-22575000Y-28700000D03*
X8900000Y-4750000D03*
X46800000Y-38000000D03*
X-11425000Y-1775000D03*
X8900000Y-1350000D03*
X47400000Y-36900000D03*
X-31410000Y-30130000D03*
X15612500Y-26687500D03*
X-16462500Y-31237500D03*
X-44700000Y-36550000D03*
X13200000Y-27300000D03*
X8900000Y-3250000D03*
X8900000Y-6650000D03*
X13150000Y-24800000D03*
X-25000000Y-25500000D03*
X26550000Y-26550000D03*
X-10200000Y-35450000D03*
X42400000Y-35700000D03*
X45550000Y-40250000D03*
X-26000000Y-25500000D03*
X25950000Y-28750000D03*
X-10350000Y-36850000D03*
X-24000000Y-25500000D03*
X27050000Y-27550000D03*
X-18800000Y-35300000D03*
X46150000Y-39150000D03*
X21100000Y-33400000D03*
X21750000Y-34750000D03*
X16037500Y-5450000D03*
X29900000Y-23800000D03*
X15550000Y-33500000D03*
X14650000Y-31800000D03*
X-56638214Y-42038214D03*
X26550000Y-34750000D03*
X56791030Y-42041030D03*
X27550000Y-34750000D03*
X43000000Y-34550000D03*
X24650000Y-27350000D03*
X24050000Y-26550000D03*
X-10200000Y-34450000D03*
X-27000000Y-25500000D03*
X22150000Y-27300000D03*
X-42850000Y-31500000D03*
X-27650000Y-26500000D03*
X-65400000Y-48650000D03*
X17650000Y-27900000D03*
X28050000Y-37700000D03*
D35*
X13200000Y-27300000D02*
X13755911Y-26744089D01*
X10200000Y-4550000D02*
X8900000Y-3250000D01*
X10200000Y-20993111D02*
X10200000Y-4550000D01*
X13755911Y-26744089D02*
X13755911Y-24549022D01*
X13755911Y-24549022D02*
X10200000Y-20993111D01*
X13150000Y-24800000D02*
X9500000Y-21150000D01*
X9500000Y-7250000D02*
X8900000Y-6650000D01*
X9500000Y-21150000D02*
X9500000Y-7250000D01*
X-10400000Y-35650000D02*
X-17300000Y-35650000D01*
X-10200000Y-35450000D02*
X-10400000Y-35650000D01*
X-9950000Y-35200000D02*
X-5957221Y-35200000D01*
X-5957221Y-35200000D02*
X-5956100Y-35198879D01*
X47000000Y-35700000D02*
X42400000Y-35700000D01*
X-18397280Y-27233188D02*
X-20736379Y-24894089D01*
X-24394089Y-24894089D02*
X-25000000Y-25500000D01*
X48600000Y-36700000D02*
X47000000Y-35700000D01*
X33250000Y-26550000D02*
X26550000Y-26550000D01*
X-17300000Y-35650000D02*
X-18397280Y-34552720D01*
X25050000Y-28050000D02*
X26550000Y-26550000D01*
X23119532Y-28050000D02*
X25050000Y-28050000D01*
X-10200000Y-35450000D02*
X-9950000Y-35200000D01*
X15970653Y-35198879D02*
X23119532Y-28050000D01*
X42400000Y-35700000D02*
X33250000Y-26550000D01*
X48600000Y-39200000D02*
X48600000Y-36700000D01*
X-18397280Y-34552720D02*
X-18397280Y-27233188D01*
X69592980Y-52746248D02*
X69550000Y-50150000D01*
X-20736379Y-24894089D02*
X-24394089Y-24894089D01*
X69550000Y-50150000D02*
X48600000Y-39200000D01*
X-5956100Y-35198879D02*
X15970653Y-35198879D01*
X33613888Y-28744089D02*
X45119799Y-40250000D01*
X32643111Y-28750000D02*
X32649022Y-28744089D01*
X48650000Y-40250000D02*
X45550000Y-40250000D01*
X-20663621Y-26105911D02*
X-19500000Y-27269532D01*
X-8996160Y-38153840D02*
X14154756Y-38153840D01*
X-18200000Y-36850000D02*
X-10300000Y-36850000D01*
X23453156Y-28855440D02*
X25844560Y-28855440D01*
X-26000000Y-25500000D02*
X-25394089Y-26105911D01*
X14154756Y-38153840D02*
X23453156Y-28855440D01*
X45119799Y-40250000D02*
X45550000Y-40250000D01*
X25950000Y-28750000D02*
X32643111Y-28750000D01*
X-10300000Y-36850000D02*
X-8996160Y-38153840D01*
X-19500000Y-27269532D02*
X-19500000Y-35550000D01*
X25844560Y-28855440D02*
X25950000Y-28750000D01*
X-19500000Y-35550000D02*
X-18200000Y-36850000D01*
X65000000Y-48800000D02*
X48650000Y-40250000D01*
X-25394089Y-26105911D02*
X-20663621Y-26105911D01*
X65020671Y-50243169D02*
X65000000Y-48800000D01*
X32649022Y-28744089D02*
X33613888Y-28744089D01*
X-10055911Y-36244089D02*
X-8548880Y-37751120D01*
X-7887756Y-37750000D02*
X-3382244Y-37750000D01*
X47500000Y-39150000D02*
X46150000Y-39150000D01*
X-18800000Y-27400000D02*
X-20700000Y-25500000D01*
X67250000Y-49450000D02*
X47500000Y-39150000D01*
X-18688178Y-35300000D02*
X-17744089Y-36244089D01*
X-7888876Y-37751120D02*
X-7887756Y-37750000D01*
X33300000Y-27550000D02*
X27050000Y-27550000D01*
X-3381124Y-37751120D02*
X13987944Y-37751120D01*
X26143111Y-27550000D02*
X27050000Y-27550000D01*
X44900000Y-39150000D02*
X33300000Y-27550000D01*
X46150000Y-39150000D02*
X44900000Y-39150000D01*
X-3382244Y-37750000D02*
X-3381124Y-37751120D01*
X67258134Y-51445401D02*
X67250000Y-49450000D01*
X-17744089Y-36244089D02*
X-10055911Y-36244089D01*
X-20700000Y-25500000D02*
X-24000000Y-25500000D01*
X-18800000Y-35300000D02*
X-18800000Y-27400000D01*
X-8548880Y-37751120D02*
X-7888876Y-37751120D01*
X-18800000Y-35300000D02*
X-18688178Y-35300000D01*
X13987944Y-37751120D02*
X23286344Y-28452720D01*
X23286344Y-28452720D02*
X25240391Y-28452720D01*
X25240391Y-28452720D02*
X26143111Y-27550000D01*
X10900000Y-20750000D02*
X10900000Y-7250000D01*
X10900000Y-7250000D02*
X12700000Y-5450000D01*
X12700000Y-5450000D02*
X16037500Y-5450000D01*
X29900000Y-23800000D02*
X13950000Y-23800000D01*
X13950000Y-23800000D02*
X10900000Y-20750000D01*
X26100000Y-25900000D02*
X33500000Y-25900000D01*
X42150000Y-34550000D02*
X43000000Y-34550000D01*
X24650000Y-27350000D02*
X26100000Y-25900000D01*
X33500000Y-25900000D02*
X42150000Y-34550000D01*
X-6122912Y-34796159D02*
X15803841Y-34796159D01*
X-10200000Y-34450000D02*
X-9852720Y-34797280D01*
X-9852720Y-34797280D02*
X-6124033Y-34797280D01*
X-6124033Y-34797280D02*
X-6122912Y-34796159D01*
X15803841Y-34796159D02*
X24050000Y-26550000D01*
X-25991369Y-24491369D02*
X-20558631Y-24491369D01*
X11118439Y-34393439D02*
X15637029Y-34393439D01*
X-17994560Y-34352720D02*
X-17100000Y-35247280D01*
X-11897280Y-35247280D02*
X-9000000Y-32350000D01*
X-20558631Y-24491369D02*
X-17994560Y-27055440D01*
X9075000Y-32350000D02*
X11118439Y-34393439D01*
X-27000000Y-25500000D02*
X-25991369Y-24491369D01*
X-9000000Y-32350000D02*
X9075000Y-32350000D01*
X-17100000Y-35247280D02*
X-11897280Y-35247280D01*
X22150000Y-27880468D02*
X22150000Y-27300000D01*
X15637029Y-34393439D02*
X22150000Y-27880468D01*
X-17994560Y-27055440D02*
X-17994560Y-34352720D01*
D36*
X-27650000Y-26500000D02*
X-33900000Y-26500000D01*
X-38900000Y-31500000D02*
X-42850000Y-31500000D01*
X-33900000Y-26500000D02*
X-38900000Y-31500000D01*
D35*
X28150000Y-37800000D02*
X28050000Y-37700000D01*
X62783209Y-49040937D02*
X59150000Y-49050000D01*
X38450000Y-37800000D02*
X28150000Y-37800000D01*
X59150000Y-49050000D02*
X38450000Y-37800000D01*
M02*
