G04 #@! TF.GenerationSoftware,KiCad,Pcbnew,(6.0.0)*
G04 #@! TF.CreationDate,2022-01-13T00:17:18-05:00*
G04 #@! TF.ProjectId,TGD,5447442e-6b69-4636-9164-5f7063625858,rev?*
G04 #@! TF.SameCoordinates,Original*
G04 #@! TF.FileFunction,Copper,L1,Top*
G04 #@! TF.FilePolarity,Positive*
%FSLAX46Y46*%
G04 Gerber Fmt 4.6, Leading zero omitted, Abs format (unit mm)*
G04 Created by KiCad (PCBNEW (6.0.0)) date 2022-01-13 00:17:18*
%MOMM*%
%LPD*%
G01*
G04 APERTURE LIST*
G04 Aperture macros list*
%AMRoundRect*
0 Rectangle with rounded corners*
0 $1 Rounding radius*
0 $2 $3 $4 $5 $6 $7 $8 $9 X,Y pos of 4 corners*
0 Add a 4 corners polygon primitive as box body*
4,1,4,$2,$3,$4,$5,$6,$7,$8,$9,$2,$3,0*
0 Add four circle primitives for the rounded corners*
1,1,$1+$1,$2,$3*
1,1,$1+$1,$4,$5*
1,1,$1+$1,$6,$7*
1,1,$1+$1,$8,$9*
0 Add four rect primitives between the rounded corners*
20,1,$1+$1,$2,$3,$4,$5,0*
20,1,$1+$1,$4,$5,$6,$7,0*
20,1,$1+$1,$6,$7,$8,$9,0*
20,1,$1+$1,$8,$9,$2,$3,0*%
%AMHorizOval*
0 Thick line with rounded ends*
0 $1 width*
0 $2 $3 position (X,Y) of the first rounded end (center of the circle)*
0 $4 $5 position (X,Y) of the second rounded end (center of the circle)*
0 Add line between two ends*
20,1,$1,$2,$3,$4,$5,0*
0 Add two circle primitives to create the rounded ends*
1,1,$1,$2,$3*
1,1,$1,$4,$5*%
%AMRotRect*
0 Rectangle, with rotation*
0 The origin of the aperture is its center*
0 $1 length*
0 $2 width*
0 $3 Rotation angle, in degrees counterclockwise*
0 Add horizontal line*
21,1,$1,$2,0,0,$3*%
%AMFreePoly0*
4,1,13,0.500000,-0.500000,0.000000,-0.500000,-0.095671,-0.480970,-0.176777,-0.426777,-0.230970,-0.345671,-0.250000,-0.250000,-0.250000,0.250000,-0.230970,0.345671,-0.176777,0.426777,-0.095671,0.480970,0.000000,0.500000,0.500000,0.500000,0.500000,-0.500000,0.500000,-0.500000,$1*%
%AMFreePoly1*
4,1,13,0.095671,0.480970,0.176777,0.426777,0.230970,0.345671,0.250000,0.250000,0.250000,-0.250000,0.230970,-0.345671,0.176777,-0.426777,0.095671,-0.480970,0.000000,-0.500000,-0.500000,-0.500000,-0.500000,0.500000,0.000000,0.500000,0.095671,0.480970,0.095671,0.480970,$1*%
G04 Aperture macros list end*
G04 #@! TA.AperFunction,SMDPad,CuDef*
%ADD10RoundRect,0.225000X0.225000X0.250000X-0.225000X0.250000X-0.225000X-0.250000X0.225000X-0.250000X0*%
G04 #@! TD*
G04 #@! TA.AperFunction,SMDPad,CuDef*
%ADD11RoundRect,0.225000X0.250000X-0.225000X0.250000X0.225000X-0.250000X0.225000X-0.250000X-0.225000X0*%
G04 #@! TD*
G04 #@! TA.AperFunction,SMDPad,CuDef*
%ADD12RoundRect,0.225000X-0.250000X0.225000X-0.250000X-0.225000X0.250000X-0.225000X0.250000X0.225000X0*%
G04 #@! TD*
G04 #@! TA.AperFunction,SMDPad,CuDef*
%ADD13RoundRect,0.140000X0.140000X0.170000X-0.140000X0.170000X-0.140000X-0.170000X0.140000X-0.170000X0*%
G04 #@! TD*
G04 #@! TA.AperFunction,SMDPad,CuDef*
%ADD14RoundRect,0.140000X0.170000X-0.140000X0.170000X0.140000X-0.170000X0.140000X-0.170000X-0.140000X0*%
G04 #@! TD*
G04 #@! TA.AperFunction,SMDPad,CuDef*
%ADD15RoundRect,0.140000X-0.170000X0.140000X-0.170000X-0.140000X0.170000X-0.140000X0.170000X0.140000X0*%
G04 #@! TD*
G04 #@! TA.AperFunction,SMDPad,CuDef*
%ADD16RoundRect,0.250000X1.075000X-0.375000X1.075000X0.375000X-1.075000X0.375000X-1.075000X-0.375000X0*%
G04 #@! TD*
G04 #@! TA.AperFunction,SMDPad,CuDef*
%ADD17R,0.900000X0.800000*%
G04 #@! TD*
G04 #@! TA.AperFunction,SMDPad,CuDef*
%ADD18RoundRect,0.237500X-0.250000X-0.237500X0.250000X-0.237500X0.250000X0.237500X-0.250000X0.237500X0*%
G04 #@! TD*
G04 #@! TA.AperFunction,SMDPad,CuDef*
%ADD19RoundRect,0.237500X0.250000X0.237500X-0.250000X0.237500X-0.250000X-0.237500X0.250000X-0.237500X0*%
G04 #@! TD*
G04 #@! TA.AperFunction,SMDPad,CuDef*
%ADD20RoundRect,0.237500X-0.237500X0.250000X-0.237500X-0.250000X0.237500X-0.250000X0.237500X0.250000X0*%
G04 #@! TD*
G04 #@! TA.AperFunction,SMDPad,CuDef*
%ADD21R,0.650000X1.220000*%
G04 #@! TD*
G04 #@! TA.AperFunction,SMDPad,CuDef*
%ADD22RotRect,1.000000X0.300000X45.000000*%
G04 #@! TD*
G04 #@! TA.AperFunction,SMDPad,CuDef*
%ADD23RotRect,0.300000X1.000000X45.000000*%
G04 #@! TD*
G04 #@! TA.AperFunction,SMDPad,CuDef*
%ADD24RoundRect,0.075000X0.075000X-0.425000X0.075000X0.425000X-0.075000X0.425000X-0.075000X-0.425000X0*%
G04 #@! TD*
G04 #@! TA.AperFunction,SMDPad,CuDef*
%ADD25RoundRect,0.075000X0.425000X-0.075000X0.425000X0.075000X-0.425000X0.075000X-0.425000X-0.075000X0*%
G04 #@! TD*
G04 #@! TA.AperFunction,SMDPad,CuDef*
%ADD26R,4.800000X4.800000*%
G04 #@! TD*
G04 #@! TA.AperFunction,SMDPad,CuDef*
%ADD27R,1.400000X1.200000*%
G04 #@! TD*
G04 #@! TA.AperFunction,ComponentPad*
%ADD28RoundRect,1.500000X-1.250000X0.000000X-1.250000X0.000000X1.250000X0.000000X1.250000X0.000000X0*%
G04 #@! TD*
G04 #@! TA.AperFunction,ComponentPad*
%ADD29C,1.400000*%
G04 #@! TD*
G04 #@! TA.AperFunction,ComponentPad*
%ADD30C,3.500000*%
G04 #@! TD*
G04 #@! TA.AperFunction,ComponentPad*
%ADD31C,1.778000*%
G04 #@! TD*
G04 #@! TA.AperFunction,SMDPad,CuDef*
%ADD32RoundRect,0.140000X-0.140000X-0.170000X0.140000X-0.170000X0.140000X0.170000X-0.140000X0.170000X0*%
G04 #@! TD*
G04 #@! TA.AperFunction,SMDPad,CuDef*
%ADD33R,1.300000X1.600000*%
G04 #@! TD*
G04 #@! TA.AperFunction,ComponentPad*
%ADD34RoundRect,0.200000X1.303591X-0.207727X0.546280X1.201698X-1.303591X0.207727X-0.546280X-1.201698X0*%
G04 #@! TD*
G04 #@! TA.AperFunction,ComponentPad*
%ADD35RoundRect,0.200000X-1.303591X0.207727X-0.546280X-1.201698X1.303591X-0.207727X0.546280X1.201698X0*%
G04 #@! TD*
G04 #@! TA.AperFunction,SMDPad,CuDef*
%ADD36RoundRect,0.147500X0.147500X0.172500X-0.147500X0.172500X-0.147500X-0.172500X0.147500X-0.172500X0*%
G04 #@! TD*
G04 #@! TA.AperFunction,SMDPad,CuDef*
%ADD37RoundRect,0.237500X0.107809X0.327541X-0.332636X0.090882X-0.107809X-0.327541X0.332636X-0.090882X0*%
G04 #@! TD*
G04 #@! TA.AperFunction,SMDPad,CuDef*
%ADD38R,1.200000X0.900000*%
G04 #@! TD*
G04 #@! TA.AperFunction,ComponentPad*
%ADD39RoundRect,0.250000X1.354210X-0.407571X0.407571X1.354210X-1.354210X0.407571X-0.407571X-1.354210X0*%
G04 #@! TD*
G04 #@! TA.AperFunction,ComponentPad*
%ADD40RoundRect,0.250000X0.407571X1.354210X-1.354210X0.407571X-0.407571X-1.354210X1.354210X-0.407571X0*%
G04 #@! TD*
G04 #@! TA.AperFunction,ComponentPad*
%ADD41RoundRect,0.250000X-0.407571X-1.354210X1.354210X-0.407571X0.407571X1.354210X-1.354210X0.407571X0*%
G04 #@! TD*
G04 #@! TA.AperFunction,ComponentPad*
%ADD42RoundRect,0.250000X-1.354210X0.407571X-0.407571X-1.354210X1.354210X-0.407571X0.407571X1.354210X0*%
G04 #@! TD*
G04 #@! TA.AperFunction,ComponentPad*
%ADD43RoundRect,0.200000X0.546280X-1.201698X1.303591X0.207727X-0.546280X1.201698X-1.303591X-0.207727X0*%
G04 #@! TD*
G04 #@! TA.AperFunction,ComponentPad*
%ADD44RoundRect,0.200000X-0.546280X1.201698X-1.303591X-0.207727X0.546280X-1.201698X1.303591X0.207727X0*%
G04 #@! TD*
G04 #@! TA.AperFunction,SMDPad,CuDef*
%ADD45RoundRect,0.150000X-0.797733X0.258355X0.655737X-0.522622X0.797733X-0.258355X-0.655737X0.522622X0*%
G04 #@! TD*
G04 #@! TA.AperFunction,SMDPad,CuDef*
%ADD46R,0.650000X0.400000*%
G04 #@! TD*
G04 #@! TA.AperFunction,SMDPad,CuDef*
%ADD47RoundRect,0.225000X-0.113726X0.316530X-0.326720X-0.079870X0.113726X-0.316530X0.326720X0.079870X0*%
G04 #@! TD*
G04 #@! TA.AperFunction,ComponentPad*
%ADD48RotRect,1.700000X1.700000X241.750000*%
G04 #@! TD*
G04 #@! TA.AperFunction,ComponentPad*
%ADD49HorizOval,1.700000X0.000000X0.000000X0.000000X0.000000X0*%
G04 #@! TD*
G04 #@! TA.AperFunction,SMDPad,CuDef*
%ADD50RoundRect,0.225000X-0.225000X-0.250000X0.225000X-0.250000X0.225000X0.250000X-0.225000X0.250000X0*%
G04 #@! TD*
G04 #@! TA.AperFunction,ComponentPad*
%ADD51RotRect,1.700000X1.700000X45.000000*%
G04 #@! TD*
G04 #@! TA.AperFunction,SMDPad,CuDef*
%ADD52R,1.300000X1.700000*%
G04 #@! TD*
G04 #@! TA.AperFunction,SMDPad,CuDef*
%ADD53RoundRect,0.147500X-0.147500X-0.172500X0.147500X-0.172500X0.147500X0.172500X-0.147500X0.172500X0*%
G04 #@! TD*
G04 #@! TA.AperFunction,ComponentPad*
%ADD54RoundRect,0.250000X1.000000X1.000000X-1.000000X1.000000X-1.000000X-1.000000X1.000000X-1.000000X0*%
G04 #@! TD*
G04 #@! TA.AperFunction,ComponentPad*
%ADD55RoundRect,0.250000X-1.000000X-1.000000X1.000000X-1.000000X1.000000X1.000000X-1.000000X1.000000X0*%
G04 #@! TD*
G04 #@! TA.AperFunction,ComponentPad*
%ADD56RoundRect,0.250000X-1.000000X1.000000X-1.000000X-1.000000X1.000000X-1.000000X1.000000X1.000000X0*%
G04 #@! TD*
G04 #@! TA.AperFunction,ComponentPad*
%ADD57RoundRect,0.250000X1.000000X-1.000000X1.000000X1.000000X-1.000000X1.000000X-1.000000X-1.000000X0*%
G04 #@! TD*
G04 #@! TA.AperFunction,SMDPad,CuDef*
%ADD58FreePoly0,0.000000*%
G04 #@! TD*
G04 #@! TA.AperFunction,SMDPad,CuDef*
%ADD59FreePoly1,0.000000*%
G04 #@! TD*
G04 #@! TA.AperFunction,ComponentPad*
%ADD60RoundRect,0.250000X-1.354210X-0.407571X0.407571X-1.354210X1.354210X0.407571X-0.407571X1.354210X0*%
G04 #@! TD*
G04 #@! TA.AperFunction,ComponentPad*
%ADD61RoundRect,0.250000X-0.407571X1.354210X-1.354210X-0.407571X0.407571X-1.354210X1.354210X0.407571X0*%
G04 #@! TD*
G04 #@! TA.AperFunction,ComponentPad*
%ADD62RoundRect,0.250000X0.407571X-1.354210X1.354210X0.407571X-0.407571X1.354210X-1.354210X-0.407571X0*%
G04 #@! TD*
G04 #@! TA.AperFunction,ComponentPad*
%ADD63RoundRect,0.250000X1.354210X0.407571X-0.407571X1.354210X-1.354210X-0.407571X0.407571X-1.354210X0*%
G04 #@! TD*
G04 #@! TA.AperFunction,SMDPad,CuDef*
%ADD64RoundRect,0.237500X0.140843X0.345291X-0.365670X0.073132X-0.140843X-0.345291X0.365670X-0.073132X0*%
G04 #@! TD*
G04 #@! TA.AperFunction,SMDPad,CuDef*
%ADD65RoundRect,0.135000X-0.135000X-0.185000X0.135000X-0.185000X0.135000X0.185000X-0.135000X0.185000X0*%
G04 #@! TD*
G04 #@! TA.AperFunction,SMDPad,CuDef*
%ADD66RoundRect,0.075000X0.700000X0.075000X-0.700000X0.075000X-0.700000X-0.075000X0.700000X-0.075000X0*%
G04 #@! TD*
G04 #@! TA.AperFunction,SMDPad,CuDef*
%ADD67RoundRect,0.075000X0.075000X0.700000X-0.075000X0.700000X-0.075000X-0.700000X0.075000X-0.700000X0*%
G04 #@! TD*
G04 #@! TA.AperFunction,ComponentPad*
%ADD68O,0.900000X1.700000*%
G04 #@! TD*
G04 #@! TA.AperFunction,ViaPad*
%ADD69C,0.609600*%
G04 #@! TD*
G04 #@! TA.AperFunction,Conductor*
%ADD70C,0.203200*%
G04 #@! TD*
G04 #@! TA.AperFunction,Conductor*
%ADD71C,0.406400*%
G04 #@! TD*
G04 #@! TA.AperFunction,Conductor*
%ADD72C,0.304800*%
G04 #@! TD*
G04 #@! TA.AperFunction,Conductor*
%ADD73C,0.250000*%
G04 #@! TD*
G04 APERTURE END LIST*
D10*
X15875000Y-4750000D03*
X14325000Y-4750000D03*
D11*
X-15212500Y-6150000D03*
X-15212500Y-4600000D03*
D12*
X-10812500Y-4600000D03*
X-10812500Y-6150000D03*
D11*
X-16575000Y-3237500D03*
X-16575000Y-1687500D03*
D12*
X-10812500Y-1800000D03*
X-10812500Y-3350000D03*
D13*
X-21464000Y-33908000D03*
X-22424000Y-33908000D03*
D14*
X-25744000Y-37032000D03*
X-25744000Y-36072000D03*
D15*
X-26739500Y-35079000D03*
X-26739500Y-36039000D03*
X-27755500Y-35079000D03*
X-27755500Y-36039000D03*
X-28835000Y-35079000D03*
X-28835000Y-36039000D03*
D14*
X-30950000Y-30130000D03*
X-30950000Y-29170000D03*
X-31890000Y-30120000D03*
X-31890000Y-29160000D03*
D16*
X-8606000Y-5371000D03*
X-8606000Y-2571000D03*
D17*
X7850000Y-3250000D03*
X7850000Y-1350000D03*
X5850000Y-2300000D03*
X7850000Y-6650000D03*
X7850000Y-4750000D03*
X5850000Y-5700000D03*
D18*
X14187500Y-6150000D03*
X16012500Y-6150000D03*
D19*
X16012500Y-3350000D03*
X14187500Y-3350000D03*
X15612500Y-28550000D03*
X13787500Y-28550000D03*
X15612500Y-24800000D03*
X13787500Y-24800000D03*
D20*
X0Y-1637500D03*
X0Y-3462500D03*
X0Y-4737500D03*
X0Y-6562500D03*
D19*
X-12100000Y-1775000D03*
X-13925000Y-1775000D03*
D20*
X-15212500Y-1562500D03*
X-15212500Y-3387500D03*
X-21723000Y-30582500D03*
X-21723000Y-32407500D03*
D21*
X-12062500Y-3365000D03*
X-13012500Y-3365000D03*
X-13962500Y-3365000D03*
X-13962500Y-5985000D03*
X-13012500Y-5985000D03*
X-12062500Y-5985000D03*
D22*
X-16732412Y-35318198D03*
X-16378858Y-35671751D03*
X-16025305Y-36025305D03*
X-15671751Y-36378858D03*
X-15318198Y-36732412D03*
D23*
X-14328249Y-36378858D03*
X-13974695Y-36025305D03*
X-13621142Y-35671751D03*
D22*
X-13267588Y-34681802D03*
X-13621142Y-34328249D03*
X-13974695Y-33974695D03*
X-14328249Y-33621142D03*
X-14681802Y-33267588D03*
D23*
X-15671751Y-33621142D03*
X-16025305Y-33974695D03*
X-16378858Y-34328249D03*
D24*
X-28550000Y-33750000D03*
X-27900000Y-33750000D03*
X-27250000Y-33750000D03*
X-26600000Y-33750000D03*
X-25950000Y-33750000D03*
X-25300000Y-33750000D03*
X-24650000Y-33750000D03*
D25*
X-23500000Y-32600000D03*
X-23500000Y-31950000D03*
X-23500000Y-31300000D03*
X-23500000Y-30650000D03*
X-23500000Y-30000000D03*
X-23500000Y-29350000D03*
X-23500000Y-28700000D03*
D24*
X-24650000Y-27550000D03*
X-25300000Y-27550000D03*
X-25950000Y-27550000D03*
X-26600000Y-27550000D03*
X-27250000Y-27550000D03*
X-27900000Y-27550000D03*
X-28550000Y-27550000D03*
D25*
X-29700000Y-28700000D03*
X-29700000Y-29350000D03*
X-29700000Y-30000000D03*
X-29700000Y-30650000D03*
X-29700000Y-31300000D03*
X-29700000Y-31950000D03*
X-29700000Y-32600000D03*
D26*
X-26600000Y-30650000D03*
D27*
X-22100000Y-35500000D03*
X-24300000Y-35500000D03*
X-24300000Y-37200000D03*
X-22100000Y-37200000D03*
D28*
X0Y-14150000D03*
X0Y-20150000D03*
D29*
X-15400000Y-19650000D03*
X-15400000Y-8650000D03*
D30*
X-5400000Y-11650000D03*
X-5400000Y-16650000D03*
D31*
X2514000Y-1578000D03*
X-2566000Y-1578000D03*
X-2566000Y-6658000D03*
X2514000Y-6658000D03*
D29*
X15400000Y-19650000D03*
X15400000Y-8650000D03*
D30*
X5400000Y-16650000D03*
X5400000Y-11650000D03*
D18*
X17437500Y-36650000D03*
X19262500Y-36650000D03*
D11*
X-21750000Y-29275000D03*
X-21750000Y-27725000D03*
D32*
X-38030000Y-30900000D03*
X-37070000Y-30900000D03*
D33*
X36700000Y-33800000D03*
X36700000Y-30500000D03*
X34700000Y-30500000D03*
X34700000Y-33800000D03*
D13*
X-35120000Y-30900000D03*
X-36080000Y-30900000D03*
D34*
X-61779777Y-42881670D03*
D35*
X-60430253Y-42156544D03*
D13*
X-42920000Y-33150000D03*
X-43880000Y-33150000D03*
D11*
X32900000Y-34325000D03*
X32900000Y-32775000D03*
D36*
X-37065000Y-31950000D03*
X-38035000Y-31950000D03*
D37*
X-69425408Y-53353941D03*
X-71033034Y-54217749D03*
D38*
X250000Y-31150000D03*
X250000Y-27850000D03*
D11*
X32900000Y-27625000D03*
X32900000Y-26075000D03*
D12*
X32900000Y-29975000D03*
X32900000Y-31525000D03*
D13*
X-42920000Y-36550000D03*
X-43880000Y-36550000D03*
D39*
X-42630499Y-13103887D03*
D40*
X-39106936Y-11210608D03*
X-40868717Y-12157248D03*
D41*
X-37518646Y-22617507D03*
D42*
X-35756865Y-21670868D03*
X-33995083Y-20724228D03*
D36*
X-28565000Y-26150000D03*
X-29535000Y-26150000D03*
D43*
X60430253Y-42156544D03*
D44*
X61779777Y-42881670D03*
D45*
X42021469Y-34000437D03*
X41420353Y-35119168D03*
X40819237Y-36237899D03*
X40218121Y-37356631D03*
X44578531Y-39699563D03*
X45179647Y-38580832D03*
X45780763Y-37462101D03*
X46381879Y-36343369D03*
D13*
X-35120000Y-31950000D03*
X-36080000Y-31950000D03*
D46*
X-41900000Y-35500000D03*
X-41900000Y-34850000D03*
X-41900000Y-34200000D03*
X-43800000Y-34200000D03*
X-43800000Y-34850000D03*
X-43800000Y-35500000D03*
D47*
X39216823Y-34917310D03*
X38483177Y-36282690D03*
D48*
X73970521Y-55052097D03*
D49*
X71733059Y-53849865D03*
X69495596Y-52647633D03*
X67258134Y-51445401D03*
X65020671Y-50243169D03*
X62783209Y-49040937D03*
D38*
X250000Y-33150000D03*
X250000Y-36450000D03*
D50*
X26975000Y-21650000D03*
X28525000Y-21650000D03*
D19*
X15612500Y-26050000D03*
X13787500Y-26050000D03*
D51*
X-47100000Y-37200000D03*
D52*
X15800000Y-1700000D03*
X12300000Y-1700000D03*
D53*
X-34155000Y-30900000D03*
X-33185000Y-30900000D03*
D18*
X14637500Y-32900000D03*
X16462500Y-32900000D03*
D51*
X-37750000Y-28200000D03*
D54*
X7266000Y-22266000D03*
D55*
X5734000Y-20734000D03*
D56*
X7266000Y-20734000D03*
D57*
X5734000Y-22266000D03*
D58*
X15500000Y-30100000D03*
D59*
X16700000Y-30100000D03*
D60*
X35756865Y-21670868D03*
D61*
X37518646Y-22617507D03*
D60*
X33995083Y-20724228D03*
D62*
X39106936Y-11210608D03*
D63*
X42630499Y-13103887D03*
D62*
X40868717Y-12157248D03*
D10*
X32875000Y-36650000D03*
X31325000Y-36650000D03*
D19*
X16462500Y-34100000D03*
X14637500Y-34100000D03*
D13*
X-39020000Y-33000000D03*
X-39980000Y-33000000D03*
D64*
X-70258442Y-51971690D03*
X-71800000Y-52800000D03*
D58*
X15500000Y-31500000D03*
D59*
X16700000Y-31500000D03*
D32*
X-39980000Y-30900000D03*
X-39020000Y-30900000D03*
D50*
X14625000Y-36650000D03*
X16175000Y-36650000D03*
D19*
X15612500Y-27300000D03*
X13787500Y-27300000D03*
D37*
X-66025408Y-51553941D03*
X-67633034Y-52417749D03*
D65*
X-43910000Y-32100000D03*
X-42890000Y-32100000D03*
D32*
X-29530000Y-25100000D03*
X-28570000Y-25100000D03*
D36*
X-33165000Y-31950000D03*
X-34135000Y-31950000D03*
D13*
X-33170000Y-29850000D03*
X-34130000Y-29850000D03*
D50*
X26975000Y-22950000D03*
X28525000Y-22950000D03*
D13*
X-33170000Y-28800000D03*
X-34130000Y-28800000D03*
D66*
X30975000Y-34400000D03*
X30975000Y-33900000D03*
X30975000Y-33400000D03*
X30975000Y-32900000D03*
X30975000Y-32400000D03*
X30975000Y-31900000D03*
X30975000Y-31400000D03*
X30975000Y-30900000D03*
X30975000Y-30400000D03*
X30975000Y-29900000D03*
X30975000Y-29400000D03*
X30975000Y-28900000D03*
X30975000Y-28400000D03*
X30975000Y-27900000D03*
X30975000Y-27400000D03*
X30975000Y-26900000D03*
D67*
X29050000Y-24975000D03*
X28550000Y-24975000D03*
X28050000Y-24975000D03*
X27550000Y-24975000D03*
X27050000Y-24975000D03*
X26550000Y-24975000D03*
X26050000Y-24975000D03*
X25550000Y-24975000D03*
X25050000Y-24975000D03*
X24550000Y-24975000D03*
X24050000Y-24975000D03*
X23550000Y-24975000D03*
X23050000Y-24975000D03*
X22550000Y-24975000D03*
X22050000Y-24975000D03*
X21550000Y-24975000D03*
D66*
X19625000Y-26900000D03*
X19625000Y-27400000D03*
X19625000Y-27900000D03*
X19625000Y-28400000D03*
X19625000Y-28900000D03*
X19625000Y-29400000D03*
X19625000Y-29900000D03*
X19625000Y-30400000D03*
X19625000Y-30900000D03*
X19625000Y-31400000D03*
X19625000Y-31900000D03*
X19625000Y-32400000D03*
X19625000Y-32900000D03*
X19625000Y-33400000D03*
X19625000Y-33900000D03*
X19625000Y-34400000D03*
D67*
X21550000Y-36325000D03*
X22050000Y-36325000D03*
X22550000Y-36325000D03*
X23050000Y-36325000D03*
X23550000Y-36325000D03*
X24050000Y-36325000D03*
X24550000Y-36325000D03*
X25050000Y-36325000D03*
X25550000Y-36325000D03*
X26050000Y-36325000D03*
X26550000Y-36325000D03*
X27050000Y-36325000D03*
X27550000Y-36325000D03*
X28050000Y-36325000D03*
X28550000Y-36325000D03*
X29050000Y-36325000D03*
D50*
X22025000Y-22950000D03*
X23575000Y-22950000D03*
D64*
X-66858442Y-50171690D03*
X-68400000Y-51000000D03*
D50*
X-15775000Y-30550000D03*
X-14225000Y-30550000D03*
D36*
X-39020000Y-31950000D03*
X-39990000Y-31950000D03*
D32*
X-31480000Y-26150000D03*
X-30520000Y-26150000D03*
D13*
X-44820000Y-34850000D03*
X-45780000Y-34850000D03*
D11*
X-20450000Y-29275000D03*
X-20450000Y-27725000D03*
D68*
X2800000Y-36600000D03*
X7930000Y-36600000D03*
X2760000Y-27300000D03*
X8460000Y-27300000D03*
X7710000Y-30500000D03*
X2760000Y-30500000D03*
X8750000Y-33550000D03*
X-8200000Y-36600000D03*
X-3070000Y-36600000D03*
X-8240000Y-27300000D03*
X-2540000Y-27300000D03*
X-3290000Y-30500000D03*
X-8240000Y-30500000D03*
X-2250000Y-33550000D03*
D69*
X-45450000Y-39500000D03*
X32900000Y-34925000D03*
X-35900000Y-27300000D03*
X-34250000Y-25300000D03*
X-44950000Y-33650000D03*
X39152806Y-36697194D03*
X-48900000Y-36750000D03*
X-26676000Y-28828000D03*
X-47600000Y-39050000D03*
X-41050000Y-32200000D03*
X-27500000Y-24500000D03*
X-19800000Y-36800000D03*
X-21469000Y-33463500D03*
X14287500Y-4050000D03*
X-30550000Y-25150000D03*
X16800000Y-36650000D03*
X-24771000Y-32511000D03*
X-33100000Y-33000000D03*
X-35500000Y-33100000D03*
X-37850000Y-33200000D03*
X-32150000Y-27200000D03*
X-23350000Y-36150000D03*
X-31200000Y-33100000D03*
X-26676000Y-30733000D03*
X-40000000Y-37000000D03*
X-26676000Y-32511000D03*
X-39200000Y-34950000D03*
X-32300000Y-25300000D03*
X-36050000Y-29650000D03*
X-66250000Y-49850000D03*
X28525000Y-22250000D03*
X-21100000Y-27725000D03*
X-13500000Y-31200000D03*
X-27750000Y-36600000D03*
X-39850000Y-28100000D03*
X-47100000Y-35050000D03*
X-28454000Y-32511000D03*
X-28454000Y-28828000D03*
X-44050000Y-37650000D03*
X-13012500Y-4675000D03*
X23600000Y-22350000D03*
X-38800000Y-29650000D03*
X-34130000Y-29330000D03*
X-69650000Y-51650000D03*
X-28454000Y-30733000D03*
X-29900000Y-27450000D03*
X-31430000Y-29180000D03*
X-38200000Y-26500000D03*
X32900000Y-25000000D03*
X-41400000Y-29700000D03*
X-36400000Y-25250000D03*
X-40850000Y-34000000D03*
X-42500000Y-38500000D03*
X-9550000Y-3950000D03*
X-24771000Y-28828000D03*
X-24771000Y-30733000D03*
X32900000Y-29350000D03*
X-41600000Y-36500000D03*
X-16550000Y-3850000D03*
X-27500000Y-34650000D03*
X26975000Y-22275000D03*
X-68800000Y-53000000D03*
X39631455Y-35618545D03*
X-22575000Y-28700000D03*
X8900000Y-4750000D03*
X46800000Y-38000000D03*
X-11425000Y-1775000D03*
X8900000Y-1350000D03*
X47400000Y-36900000D03*
X-31410000Y-30130000D03*
X15612500Y-26687500D03*
X-16462500Y-31237500D03*
X-44700000Y-36550000D03*
X13200000Y-27300000D03*
X8900000Y-3250000D03*
X8900000Y-6650000D03*
X13150000Y-24800000D03*
X-25000000Y-25500000D03*
X26550000Y-26550000D03*
X-10200000Y-35450000D03*
X42400000Y-35700000D03*
X45550000Y-40250000D03*
X-26000000Y-25500000D03*
X25950000Y-28750000D03*
X-10350000Y-36850000D03*
X-24000000Y-25500000D03*
X27050000Y-27550000D03*
X-18800000Y-35300000D03*
X46150000Y-39150000D03*
X21100000Y-33400000D03*
X21750000Y-34750000D03*
X16037500Y-5450000D03*
X29900000Y-23800000D03*
X15550000Y-33500000D03*
X14650000Y-31800000D03*
X-56638214Y-42038214D03*
X26550000Y-34750000D03*
X56791030Y-42041030D03*
X27550000Y-34750000D03*
X43000000Y-34550000D03*
X24650000Y-27350000D03*
X24050000Y-26550000D03*
X-10200000Y-34450000D03*
X-27000000Y-25500000D03*
X22150000Y-27300000D03*
X-42850000Y-31500000D03*
X-27650000Y-26500000D03*
X-65400000Y-48650000D03*
X17650000Y-27900000D03*
X28050000Y-37700000D03*
D70*
X-27670500Y-35982000D02*
X-27724000Y-35982000D01*
X32900000Y-29350000D02*
X35550000Y-29350000D01*
X-15607107Y-35100000D02*
X-14392893Y-35100000D01*
D71*
X-9550000Y-3950000D02*
X-9950000Y-3950000D01*
D70*
X32450000Y-28900000D02*
X32900000Y-29350000D01*
X-13500000Y-31200000D02*
X-14150000Y-30550000D01*
X-28724000Y-35962000D02*
X-28744000Y-35982000D01*
D71*
X-9950000Y-3950000D02*
X-10550000Y-3350000D01*
D70*
X-13150000Y-31550000D02*
X-13200000Y-31500000D01*
D72*
X-29587500Y-31300000D02*
X-27250000Y-31300000D01*
X-24650000Y-27550000D02*
X-24650000Y-28707000D01*
D70*
X28550000Y-24975000D02*
X28550000Y-23075000D01*
X32875000Y-36650000D02*
X32875000Y-34350000D01*
X-25744000Y-37032000D02*
X-26739500Y-36039000D01*
D73*
X-42850000Y-34850000D02*
X-42920000Y-34780000D01*
D71*
X-13012500Y-4675000D02*
X-13012500Y-3365000D01*
X-10550000Y-3350000D02*
X-10812500Y-3350000D01*
D70*
X-21469000Y-33903000D02*
X-21464000Y-33908000D01*
D71*
X-24650000Y-28700000D02*
X-26600000Y-30650000D01*
D72*
X-24650000Y-28707000D02*
X-24771000Y-28828000D01*
D70*
X28525000Y-21750000D02*
X28525000Y-22350000D01*
D71*
X13950000Y-3350000D02*
X12300000Y-1700000D01*
X-15212500Y-4600000D02*
X-15212500Y-3387500D01*
D72*
X-36575000Y-30900000D02*
X-36080000Y-30900000D01*
X-30950000Y-29170000D02*
X-30755000Y-29170000D01*
D70*
X-21469000Y-33463500D02*
X-21469000Y-33903000D01*
D72*
X14325000Y-3487500D02*
X14187500Y-3350000D01*
D70*
X28550000Y-23075000D02*
X28525000Y-23050000D01*
X-13200000Y-31500000D02*
X-13500000Y-31200000D01*
X-16378858Y-34328249D02*
X-15607107Y-35100000D01*
D72*
X-28976000Y-29350000D02*
X-29025000Y-29350000D01*
X14325000Y-4750000D02*
X14325000Y-3487500D01*
D70*
X-14392893Y-35100000D02*
X-13621142Y-34328249D01*
X16800000Y-36650000D02*
X17437500Y-36650000D01*
D73*
X-41900000Y-34850000D02*
X-42850000Y-34850000D01*
D70*
X-26744000Y-35982000D02*
X-27670500Y-35982000D01*
X28550000Y-37131914D02*
X29246926Y-37828840D01*
X34175000Y-34325000D02*
X34700000Y-33800000D01*
X-12800000Y-31900000D02*
X-13200000Y-31500000D01*
D73*
X-42920000Y-34780000D02*
X-42920000Y-33150000D01*
D70*
X35550000Y-29350000D02*
X36700000Y-30500000D01*
D72*
X-31850000Y-29170000D02*
X-30950000Y-29170000D01*
X-30575000Y-29350000D02*
X-29700000Y-29350000D01*
D70*
X30975000Y-28900000D02*
X32450000Y-28900000D01*
X-14681802Y-33267588D02*
X-14667588Y-33267588D01*
X32900000Y-26075000D02*
X32900000Y-25000000D01*
D72*
X39152806Y-36697194D02*
X38483177Y-36282690D01*
D71*
X-15212500Y-4600000D02*
X-13087500Y-4600000D01*
D70*
X32900000Y-34325000D02*
X34175000Y-34325000D01*
D71*
X-13087500Y-4600000D02*
X-13012500Y-4675000D01*
D70*
X29246926Y-37828840D02*
X32090692Y-37828840D01*
X-27755500Y-35973500D02*
X-27744000Y-35962000D01*
D72*
X-30755000Y-29170000D02*
X-30575000Y-29350000D01*
D73*
X-42920000Y-36550000D02*
X-42920000Y-34780000D01*
D70*
X32875000Y-34350000D02*
X32900000Y-34325000D01*
X-27900000Y-29350000D02*
X-26600000Y-30650000D01*
D72*
X-21100000Y-27725000D02*
X-21750000Y-27725000D01*
D71*
X14187500Y-3350000D02*
X13950000Y-3350000D01*
D70*
X-14667588Y-33267588D02*
X-13150000Y-31750000D01*
X32090692Y-37828840D02*
X32875000Y-37044532D01*
X16175000Y-36650000D02*
X16800000Y-36650000D01*
X-14328249Y-33621142D02*
X-14321142Y-33621142D01*
X-12800000Y-32100000D02*
X-12800000Y-31900000D01*
X-19050000Y-37550000D02*
X-16135786Y-37550000D01*
X14187500Y-4612500D02*
X14325000Y-4750000D01*
X28525000Y-22350000D02*
X28525000Y-23050000D01*
D72*
X40218121Y-37356631D02*
X39152806Y-36697194D01*
D70*
X-14150000Y-30550000D02*
X-14225000Y-30550000D01*
X-27744000Y-35962000D02*
X-28724000Y-35962000D01*
X-19800000Y-36800000D02*
X-19050000Y-37550000D01*
X28550000Y-36325000D02*
X28550000Y-37131914D01*
X-27755500Y-36384500D02*
X-27755500Y-35973500D01*
D71*
X-13012500Y-3365000D02*
X-13012500Y-3389722D01*
D72*
X-20450000Y-27725000D02*
X-21100000Y-27725000D01*
X-27250000Y-31300000D02*
X-26600000Y-30650000D01*
D70*
X-14321142Y-33621142D02*
X-12800000Y-32100000D01*
X-16135786Y-37550000D02*
X-15318198Y-36732412D01*
D72*
X-29025000Y-29350000D02*
X-29700000Y-29350000D01*
D70*
X-15318198Y-36732412D02*
X-15332412Y-36732412D01*
X-27724000Y-35982000D02*
X-27744000Y-35962000D01*
D72*
X-37070000Y-30900000D02*
X-36575000Y-30900000D01*
D70*
X-22398000Y-37102000D02*
X-24098000Y-35402000D01*
X32900000Y-29350000D02*
X32900000Y-29975000D01*
X-13621142Y-34328249D02*
X-12800000Y-33507107D01*
X-28456750Y-31300000D02*
X-29643250Y-31300000D01*
X-13150000Y-31750000D02*
X-13150000Y-31550000D01*
X-12800000Y-33507107D02*
X-12800000Y-31900000D01*
X32875000Y-37044532D02*
X32875000Y-36650000D01*
X-22144000Y-37102000D02*
X-22398000Y-37102000D01*
D72*
X-34130000Y-29850000D02*
X-34130000Y-29330000D01*
D70*
X-24098000Y-35402000D02*
X-24344000Y-35402000D01*
D72*
X-34130000Y-29330000D02*
X-34130000Y-28800000D01*
X-28454000Y-28828000D02*
X-28976000Y-29350000D01*
D71*
X-10812500Y-1800000D02*
X-10812500Y-1800000D01*
D70*
X15612500Y-26687500D02*
X15612500Y-26050000D01*
X29050000Y-34750000D02*
X29050000Y-36325000D01*
X28050000Y-27593111D02*
X28050000Y-27500000D01*
D71*
X-10812500Y-1800000D02*
X-10631250Y-1800000D01*
D72*
X-43880000Y-36550000D02*
X-44700000Y-36550000D01*
X-30820000Y-30000000D02*
X-30950000Y-30130000D01*
D70*
X-16703554Y-32596446D02*
X-17100000Y-32200000D01*
D71*
X-11425000Y-1775000D02*
X-10837500Y-1775000D01*
D70*
X-17412500Y-32187500D02*
X-17800000Y-32575000D01*
D72*
X8900000Y-4750000D02*
X7850000Y-4750000D01*
D70*
X21550000Y-24975000D02*
X21550000Y-23900000D01*
X-17464214Y-36050000D02*
X-16732412Y-35318198D01*
X26975000Y-21750000D02*
X26975000Y-22375000D01*
X29950000Y-28400000D02*
X29050000Y-27500000D01*
X26880911Y-21744089D02*
X26975000Y-21650000D01*
X21243111Y-34400000D02*
X28050000Y-27593111D01*
D72*
X-27250000Y-34573500D02*
X-27250000Y-33750000D01*
X8900000Y-1350000D02*
X7850000Y-1350000D01*
X-16550000Y-3262500D02*
X-16575000Y-3237500D01*
X-21744000Y-29906000D02*
X-21750000Y-29900000D01*
D70*
X-17800000Y-35900000D02*
X-17650000Y-36050000D01*
X-17112500Y-31887500D02*
X-16750000Y-31525000D01*
D71*
X-10631250Y-1800000D02*
X-9860250Y-2571000D01*
D70*
X-16696446Y-32596446D02*
X-16750000Y-32542893D01*
D71*
X-10837500Y-1775000D02*
X-10812500Y-1800000D01*
D70*
X26975000Y-22375000D02*
X26975000Y-23050000D01*
D72*
X-21750000Y-30555500D02*
X-21723000Y-30582500D01*
X-68800000Y-53000000D02*
X-69425408Y-53353941D01*
D70*
X-21744000Y-29906000D02*
X-21744000Y-30739500D01*
X22205911Y-21744089D02*
X26880911Y-21744089D01*
X30975000Y-28400000D02*
X32125000Y-28400000D01*
D72*
X-22575000Y-28700000D02*
X-23612500Y-28700000D01*
D70*
X-16750000Y-31525000D02*
X-16462500Y-31237500D01*
D72*
X-22325000Y-28700000D02*
X-22575000Y-28700000D01*
D70*
X28050000Y-24000000D02*
X28050000Y-24975000D01*
X29125000Y-36325000D02*
X30226120Y-37426120D01*
X28050000Y-27500000D02*
X28050000Y-33750000D01*
X21100000Y-23450000D02*
X21100000Y-22655954D01*
X-15671751Y-33621142D02*
X-16696446Y-32596446D01*
D72*
X-16550000Y-3850000D02*
X-16550000Y-3262500D01*
D70*
X21100000Y-22655954D02*
X22005954Y-21750000D01*
X28050000Y-33750000D02*
X29050000Y-34750000D01*
D72*
X-29700000Y-30000000D02*
X-30820000Y-30000000D01*
D70*
X19625000Y-34400000D02*
X21243111Y-34400000D01*
D71*
X-9860250Y-2571000D02*
X-8606000Y-2571000D01*
D72*
X-30950000Y-30130000D02*
X-31530000Y-30130000D01*
D71*
X-12237500Y-1637500D02*
X-12100000Y-1775000D01*
D72*
X-43880000Y-35980000D02*
X-43880000Y-35580000D01*
D70*
X22005954Y-21750000D02*
X22200000Y-21750000D01*
D72*
X39631455Y-35618545D02*
X39500000Y-35550000D01*
D70*
X28050000Y-27500000D02*
X28050000Y-26500000D01*
X32076120Y-37273880D02*
X32076120Y-35501120D01*
D72*
X39500000Y-35550000D02*
X39216823Y-34917310D01*
D70*
X-17100000Y-31900000D02*
X-17112500Y-31887500D01*
X30226120Y-37426120D02*
X31923880Y-37426120D01*
X-17412500Y-32187500D02*
X-17112500Y-31887500D01*
X-16696446Y-32596446D02*
X-16703554Y-32596446D01*
X30975000Y-28400000D02*
X29950000Y-28400000D01*
X-17400000Y-32200000D02*
X-17412500Y-32187500D01*
D72*
X-27250000Y-33637500D02*
X-27250000Y-34325000D01*
D70*
X31923880Y-37426120D02*
X32076120Y-37273880D01*
D72*
X-21750000Y-29900000D02*
X-21750000Y-29275000D01*
D70*
X-17800000Y-32575000D02*
X-17800000Y-35900000D01*
X28050000Y-24975000D02*
X28050000Y-26500000D01*
X32125000Y-28400000D02*
X32900000Y-27625000D01*
X22200000Y-21750000D02*
X22205911Y-21744089D01*
X28050000Y-26500000D02*
X29050000Y-27500000D01*
D72*
X-43880000Y-35580000D02*
X-43800000Y-35500000D01*
D70*
X26975000Y-22950000D02*
X28050000Y-24025000D01*
D71*
X-12100000Y-1775000D02*
X-11425000Y-1775000D01*
D72*
X-21750000Y-29275000D02*
X-22325000Y-28700000D01*
D70*
X-17400000Y-32600000D02*
X-17400000Y-32200000D01*
D72*
X-43880000Y-36550000D02*
X-43880000Y-35980000D01*
D70*
X29050000Y-36325000D02*
X29125000Y-36325000D01*
D72*
X-20450000Y-29275000D02*
X-21750000Y-29275000D01*
D70*
X-17100000Y-32200000D02*
X-17100000Y-31900000D01*
D72*
X-21750000Y-29275000D02*
X-21750000Y-30555500D01*
D70*
X21550000Y-23900000D02*
X21100000Y-23450000D01*
D72*
X-27755500Y-35079000D02*
X-27250000Y-34573500D01*
X-31530000Y-30130000D02*
X-31850000Y-30130000D01*
D70*
X-17650000Y-36050000D02*
X-17464214Y-36050000D01*
D72*
X40819237Y-36237899D02*
X39631455Y-35618545D01*
D70*
X15612500Y-27300000D02*
X15612500Y-26687500D01*
X-16462500Y-31237500D02*
X-15775000Y-30550000D01*
X32076120Y-35501120D02*
X30975000Y-34400000D01*
X-16025305Y-33974695D02*
X-17400000Y-32600000D01*
X29850000Y-35175000D02*
X29850000Y-31718086D01*
X30168086Y-31400000D02*
X30975000Y-31400000D01*
X31325000Y-36650000D02*
X29850000Y-35175000D01*
X29850000Y-31718086D02*
X30168086Y-31400000D01*
X32525000Y-32400000D02*
X32900000Y-32775000D01*
X30975000Y-32400000D02*
X32525000Y-32400000D01*
X32976111Y-32698889D02*
X35598889Y-32698889D01*
X35598889Y-32698889D02*
X36700000Y-33800000D01*
X32900000Y-32775000D02*
X32976111Y-32698889D01*
X34200000Y-30500000D02*
X34700000Y-30500000D01*
X30975000Y-31900000D02*
X32525000Y-31900000D01*
X33175000Y-31525000D02*
X34200000Y-30500000D01*
X32525000Y-31900000D02*
X32900000Y-31525000D01*
X32900000Y-31525000D02*
X33175000Y-31525000D01*
D71*
X-11950000Y-8500000D02*
X-13962500Y-6487500D01*
X-14127500Y-6150000D02*
X-13962500Y-5985000D01*
X-8650000Y-9000000D02*
X-8150000Y-8500000D01*
X-6950000Y-20150000D02*
X-8650000Y-18450000D01*
X11837500Y-8500000D02*
X14187500Y-6150000D01*
X-15212500Y-6150000D02*
X-14127500Y-6150000D01*
X0Y-20150000D02*
X-6950000Y-20150000D01*
X-13962500Y-6487500D02*
X-13962500Y-5985000D01*
X250000Y-31150000D02*
X50000Y-31150000D01*
X-13962500Y-5985000D02*
X-13012500Y-5985000D01*
X-9150000Y-8500000D02*
X-11950000Y-8500000D01*
X-8650000Y-9000000D02*
X-9150000Y-8500000D01*
X-1050000Y-21200000D02*
X0Y-20150000D01*
X50000Y-31150000D02*
X-1050000Y-30050000D01*
X-8150000Y-8500000D02*
X11837500Y-8500000D01*
X-8650000Y-18450000D02*
X-8650000Y-9000000D01*
X-1050000Y-30050000D02*
X-1050000Y-21200000D01*
X250000Y-33150000D02*
X250000Y-31150000D01*
X-10193500Y-5749000D02*
X-8984000Y-5749000D01*
X-11897500Y-6150000D02*
X-12062500Y-5985000D01*
X-10737500Y-6075000D02*
X-10812500Y-6150000D01*
X-10812500Y-6150000D02*
X-10594500Y-6150000D01*
X-10594500Y-6150000D02*
X-10193500Y-5749000D01*
X-8984000Y-5749000D02*
X-8606000Y-5371000D01*
X-10812500Y-6150000D02*
X-11897500Y-6150000D01*
X-11287500Y-4600000D02*
X-12062500Y-3825000D01*
X-10812500Y-4600000D02*
X-11287500Y-4600000D01*
X-12062500Y-3825000D02*
X-12062500Y-3365000D01*
X-13962500Y-3365000D02*
X-13962500Y-1812500D01*
X-15212500Y-1562500D02*
X-14137500Y-1562500D01*
D72*
X-15337500Y-1687500D02*
X-15212500Y-1562500D01*
D71*
X-13962500Y-1812500D02*
X-13925000Y-1775000D01*
X-16575000Y-1687500D02*
X-15337500Y-1687500D01*
X-14137500Y-1562500D02*
X-13925000Y-1775000D01*
D70*
X-25300000Y-34131914D02*
X-24833914Y-34598000D01*
X-22424000Y-34074000D02*
X-22424000Y-33908000D01*
X-25300000Y-33750000D02*
X-25300000Y-34131914D01*
X-25300000Y-34019414D02*
X-25300000Y-33637500D01*
X-22948000Y-34598000D02*
X-22424000Y-34074000D01*
X-22144000Y-35402000D02*
X-22648000Y-34898000D01*
X-22948000Y-34598000D02*
X-22648000Y-34898000D01*
X-24833914Y-34598000D02*
X-22948000Y-34598000D01*
X-25950000Y-33637500D02*
X-25950000Y-35866000D01*
X-24714000Y-37102000D02*
X-24344000Y-37102000D01*
X-25950000Y-35866000D02*
X-25744000Y-36072000D01*
X-25744000Y-36072000D02*
X-24714000Y-37102000D01*
X-26600000Y-34878000D02*
X-26744000Y-35022000D01*
X-26600000Y-33637500D02*
X-26600000Y-34878000D01*
X-27900000Y-33750000D02*
X-27900000Y-34144000D01*
X-27900000Y-33637500D02*
X-27900000Y-33989000D01*
X-27900000Y-34144000D02*
X-28835000Y-35079000D01*
D72*
X-37065000Y-31950000D02*
X-36080000Y-31950000D01*
D73*
X-47100000Y-36170000D02*
X-47100000Y-38000000D01*
X-45780000Y-34850000D02*
X-47100000Y-36170000D01*
D70*
X22075000Y-23050000D02*
X22075000Y-24950000D01*
X22075000Y-24950000D02*
X22050000Y-24975000D01*
D72*
X4700000Y-3450000D02*
X5850000Y-2300000D01*
X0Y-1637500D02*
X1812500Y-3450000D01*
X1812500Y-3450000D02*
X4700000Y-3450000D01*
D70*
X13787500Y-27300000D02*
X13787500Y-27312500D01*
X13787500Y-27312500D02*
X13787500Y-28550000D01*
D72*
X7850000Y-3250000D02*
X8900000Y-3250000D01*
X0Y-4737500D02*
X4887500Y-4737500D01*
X4887500Y-4737500D02*
X5850000Y-5700000D01*
X8900000Y-6650000D02*
X7850000Y-6650000D01*
D70*
X13787500Y-26050000D02*
X13787500Y-24800000D01*
X20562500Y-37950000D02*
X26400000Y-37950000D01*
X27050000Y-37300000D02*
X27050000Y-36325000D01*
X19262500Y-36650000D02*
X20562500Y-37950000D01*
X26400000Y-37950000D02*
X27050000Y-37300000D01*
X-12900000Y-37100000D02*
X-11850000Y-37100000D01*
X26550000Y-26550000D02*
X26550000Y-24975000D01*
X-11850000Y-37100000D02*
X-10200000Y-35450000D01*
X-25950000Y-26450000D02*
X-25000000Y-25500000D01*
X-13974695Y-36025305D02*
X-12900000Y-37100000D01*
X-25950000Y-27550000D02*
X-25950000Y-26450000D01*
X25947071Y-27447071D02*
X25944089Y-27444089D01*
X25944089Y-27444089D02*
X25944089Y-26299022D01*
X-26600000Y-27550000D02*
X-26597280Y-27547280D01*
X25944089Y-26299022D02*
X26050000Y-26193111D01*
X-26597280Y-27547280D02*
X-26597280Y-26097280D01*
X26050000Y-26193111D02*
X26050000Y-24975000D01*
X-11050000Y-37550000D02*
X-10350000Y-36850000D01*
X-14328249Y-36378858D02*
X-13157107Y-37550000D01*
X-26597280Y-26097280D02*
X-26000000Y-25500000D01*
X25947071Y-28747071D02*
X25947071Y-27447071D01*
X25950000Y-28750000D02*
X25947071Y-28747071D01*
X-13157107Y-37550000D02*
X-11050000Y-37550000D01*
X-23599401Y-33244401D02*
X-22559901Y-33244401D01*
X-23992500Y-33637500D02*
X-23599401Y-33244401D01*
X-24650000Y-33637500D02*
X-23992500Y-33637500D01*
X-22559901Y-33244401D02*
X-21723000Y-32407500D01*
X-18800000Y-36300000D02*
X-18000000Y-37100000D01*
X-24015234Y-25500000D02*
X-24000000Y-25500000D01*
X-18000000Y-37100000D02*
X-16392893Y-37100000D01*
X27200000Y-26343111D02*
X27200000Y-27400000D01*
X27050000Y-26193111D02*
X27200000Y-26343111D01*
X-18800000Y-35300000D02*
X-18800000Y-36300000D01*
X-16392893Y-37100000D02*
X-15671751Y-36378858D01*
X-25300000Y-26784766D02*
X-24015234Y-25500000D01*
X27050000Y-24975000D02*
X27050000Y-26193111D01*
X-25300000Y-27550000D02*
X-25300000Y-26784766D01*
X27200000Y-27400000D02*
X27050000Y-27550000D01*
X16700000Y-35350000D02*
X18150000Y-33900000D01*
X14625000Y-36650000D02*
X15925000Y-35350000D01*
X18150000Y-33900000D02*
X19625000Y-33900000D01*
X15925000Y-35350000D02*
X16700000Y-35350000D01*
D72*
X-35120000Y-30900000D02*
X-35120000Y-28670000D01*
X-30882160Y-28100000D02*
X-30282160Y-28700000D01*
X-30282160Y-28700000D02*
X-29700000Y-28700000D01*
X-34155000Y-30900000D02*
X-35120000Y-30900000D01*
X-35120000Y-28670000D02*
X-34550000Y-28100000D01*
X-35120000Y-31950000D02*
X-34135000Y-31950000D01*
X-34135000Y-31950000D02*
X-34135000Y-30920000D01*
X-34550000Y-28100000D02*
X-30882160Y-28100000D01*
X-34135000Y-30920000D02*
X-34155000Y-30900000D01*
X-38030000Y-30900000D02*
X-38030000Y-31945000D01*
X-39020000Y-33000000D02*
X-39020000Y-31950000D01*
X-38030000Y-31945000D02*
X-38035000Y-31950000D01*
X-39020000Y-31950000D02*
X-38035000Y-31950000D01*
X-39990000Y-30910000D02*
X-39980000Y-30900000D01*
X-39980000Y-31960000D02*
X-39990000Y-31950000D01*
X-41900000Y-35500000D02*
X-40760000Y-35500000D01*
X-40760000Y-35500000D02*
X-39980000Y-34720000D01*
X-39990000Y-31950000D02*
X-39990000Y-30910000D01*
X-39980000Y-33000000D02*
X-39980000Y-31960000D01*
X-39980000Y-34720000D02*
X-39980000Y-33000000D01*
X-41900000Y-31345232D02*
X-41900000Y-34200000D01*
X-31480000Y-26150000D02*
X-36704768Y-26150000D01*
X-36704768Y-26150000D02*
X-41900000Y-31345232D01*
D73*
X-43800000Y-34850000D02*
X-44820000Y-34850000D01*
D72*
X-30600000Y-30900000D02*
X-33185000Y-30900000D01*
X-33170000Y-30885000D02*
X-33185000Y-30900000D01*
X-33170000Y-28800000D02*
X-33170000Y-29850000D01*
X-33170000Y-29850000D02*
X-33170000Y-30885000D01*
X-29587500Y-30650000D02*
X-30350000Y-30650000D01*
X-30350000Y-30650000D02*
X-30600000Y-30900000D01*
D70*
X21100000Y-33400000D02*
X19625000Y-33400000D01*
X21550000Y-34750000D02*
X21550000Y-36325000D01*
X16012500Y-6150000D02*
X16012500Y-6150000D01*
X15875000Y-6012500D02*
X16012500Y-6150000D01*
X29898880Y-23901120D02*
X30000000Y-23800000D01*
X29898880Y-27714837D02*
X29898880Y-23901120D01*
D71*
X16012500Y-3350000D02*
X16012500Y-1912500D01*
X16012500Y-6150000D02*
X16012500Y-4887500D01*
D70*
X30975000Y-27900000D02*
X30084043Y-27900000D01*
X30084043Y-27900000D02*
X29898880Y-27714837D01*
D71*
X16012500Y-1912500D02*
X15800000Y-1700000D01*
X16012500Y-4612500D02*
X15875000Y-4750000D01*
D70*
X15875000Y-3487500D02*
X16012500Y-3350000D01*
D71*
X16012500Y-3350000D02*
X16012500Y-4612500D01*
X16012500Y-4887500D02*
X15875000Y-4750000D01*
D73*
X-43880000Y-34120000D02*
X-43800000Y-34200000D01*
X-43910000Y-32100000D02*
X-43910000Y-33120000D01*
X-43880000Y-33150000D02*
X-43880000Y-34120000D01*
X-43910000Y-33120000D02*
X-43880000Y-33150000D01*
D71*
X-6600000Y-35000000D02*
X-8200000Y-36600000D01*
X250000Y-36450000D02*
X-1200000Y-35000000D01*
X-1200000Y-35000000D02*
X-6600000Y-35000000D01*
X2800000Y-36600000D02*
X1500000Y-35300000D01*
X1500000Y-35300000D02*
X1500000Y-29100000D01*
X1500000Y-29100000D02*
X250000Y-27850000D01*
D72*
X-2566000Y-5816000D02*
X-212500Y-3462500D01*
X-2566000Y-6658000D02*
X-2566000Y-5816000D01*
X-212500Y-3462500D02*
X0Y-3462500D01*
X2418500Y-6562500D02*
X2514000Y-6658000D01*
X0Y-6562500D02*
X2418500Y-6562500D01*
X-71033034Y-54217749D02*
X-71800000Y-52800000D01*
X-67633034Y-52417749D02*
X-68400000Y-51000000D01*
D70*
X15550000Y-33500000D02*
X15550000Y-31550000D01*
X15550000Y-31550000D02*
X15500000Y-31500000D01*
X14637500Y-34100000D02*
X14950000Y-34100000D01*
X14950000Y-34100000D02*
X15550000Y-33500000D01*
X14637500Y-30962500D02*
X15500000Y-30100000D01*
X14637500Y-32900000D02*
X14637500Y-30962500D01*
X-56638214Y-42038214D02*
X-60210030Y-42038214D01*
X26550000Y-34750000D02*
X26550000Y-36325000D01*
X56791030Y-42041030D02*
X60210030Y-42038214D01*
X27550000Y-36325000D02*
X27550000Y-34750000D01*
X-22200000Y-31600000D02*
X-22550000Y-31950000D01*
X18789397Y-35873880D02*
X18350000Y-36313277D01*
X-22550000Y-32250000D02*
X-22900000Y-32600000D01*
X18350000Y-36986723D02*
X17186723Y-38150000D01*
X-23574500Y-32638000D02*
X-23612500Y-32600000D01*
X-22550000Y-31950000D02*
X-22550000Y-32250000D01*
X24550000Y-37200000D02*
X24202720Y-37547280D01*
X-21281277Y-31600000D02*
X-22200000Y-31600000D01*
X24550000Y-36325000D02*
X24550000Y-37200000D01*
X17186723Y-38150000D02*
X-19306889Y-38150000D01*
X-20850000Y-36606889D02*
X-20850000Y-32031277D01*
X18350000Y-36313277D02*
X18350000Y-36986723D01*
X-22900000Y-32600000D02*
X-23500000Y-32600000D01*
X24202720Y-37547280D02*
X21416812Y-37547280D01*
X-20850000Y-32031277D02*
X-21281277Y-31600000D01*
X19743412Y-35873880D02*
X18789397Y-35873880D01*
X-19306889Y-38150000D02*
X-20850000Y-36606889D01*
X21416812Y-37547280D02*
X19743412Y-35873880D01*
X24655911Y-26299022D02*
X24550000Y-26193111D01*
X24550000Y-26193111D02*
X24550000Y-24975000D01*
X24650000Y-27350000D02*
X24655911Y-27444089D01*
X24655911Y-27444089D02*
X24655911Y-26299022D01*
X-12300000Y-36550000D02*
X-10200000Y-34450000D01*
X24050000Y-26550000D02*
X24050000Y-24975000D01*
X-13621142Y-35671751D02*
X-13621142Y-35678858D01*
X-12750000Y-36550000D02*
X-12300000Y-36550000D01*
X-13621142Y-35678858D02*
X-12750000Y-36550000D01*
X23550000Y-25920978D02*
X23550000Y-24975000D01*
X22170978Y-27300000D02*
X23550000Y-25920978D01*
X-27000000Y-26800000D02*
X-27000000Y-25500000D01*
X-27250000Y-27550000D02*
X-27250000Y-27050000D01*
X-27250000Y-27050000D02*
X-27000000Y-26800000D01*
X22150000Y-27300000D02*
X22170978Y-27300000D01*
X17100000Y-31900000D02*
X16700000Y-31500000D01*
X19625000Y-31900000D02*
X17100000Y-31900000D01*
X18000000Y-31400000D02*
X16700000Y-30100000D01*
X19625000Y-31400000D02*
X18000000Y-31400000D01*
D72*
X-33165000Y-31950000D02*
X-29587500Y-31950000D01*
X-28565000Y-27647500D02*
X-28550000Y-27662500D01*
X-28565000Y-26150000D02*
X-28565000Y-27647500D01*
D70*
X17711723Y-32900000D02*
X19625000Y-32900000D01*
X16511723Y-34100000D02*
X17711723Y-32900000D01*
X16462500Y-34100000D02*
X16511723Y-34100000D01*
X19625000Y-32400000D02*
X16962500Y-32400000D01*
X16962500Y-32400000D02*
X16462500Y-32900000D01*
X20480794Y-26448880D02*
X17713620Y-26448880D01*
X20485754Y-26453840D02*
X20480794Y-26448880D01*
X22447606Y-26453840D02*
X20485754Y-26453840D01*
X23050000Y-24975000D02*
X23050000Y-25851446D01*
X23050000Y-25851446D02*
X22447606Y-26453840D01*
X17713620Y-26448880D02*
X15612500Y-28550000D01*
X16863620Y-26051120D02*
X17541848Y-26051120D01*
X20647606Y-26046160D02*
X20652566Y-26051120D01*
X22550000Y-25781914D02*
X22550000Y-24975000D01*
X17546808Y-26046160D02*
X20647606Y-26046160D01*
X17541848Y-26051120D02*
X17546808Y-26046160D01*
X15612500Y-24800000D02*
X16863620Y-26051120D01*
X22280794Y-26051120D02*
X22550000Y-25781914D01*
X20652566Y-26051120D02*
X22280794Y-26051120D01*
D72*
X-42850000Y-31500000D02*
X-42850000Y-32060000D01*
X-42850000Y-32060000D02*
X-42890000Y-32100000D01*
X-27650008Y-26450011D02*
X-27900000Y-26700003D01*
X-27900000Y-26700003D02*
X-27900000Y-27550000D01*
X-29535000Y-26150000D02*
X-29535000Y-25105000D01*
X-29535000Y-25105000D02*
X-29530000Y-25100000D01*
X-30520000Y-26150000D02*
X-29535000Y-26150000D01*
D70*
X17650000Y-27900000D02*
X18650000Y-26900000D01*
X-65400000Y-50928533D02*
X-66025408Y-51553941D01*
X18650000Y-26900000D02*
X19625000Y-26900000D01*
X-65400000Y-48650000D02*
X-65400000Y-50928533D01*
X28050000Y-36325000D02*
X28050000Y-37700000D01*
G04 #@! TA.AperFunction,Conductor*
G36*
X-40596468Y-30721309D02*
G01*
X-40539632Y-30763856D01*
X-40514821Y-30830376D01*
X-40514500Y-30839365D01*
X-40514499Y-30999074D01*
X-40514499Y-31101044D01*
X-40513724Y-31105937D01*
X-40507915Y-31142614D01*
X-40499868Y-31193427D01*
X-40495365Y-31202264D01*
X-40495365Y-31202265D01*
X-40483665Y-31225227D01*
X-40443135Y-31304771D01*
X-40433805Y-31314101D01*
X-40431887Y-31317613D01*
X-40430296Y-31319803D01*
X-40430579Y-31320009D01*
X-40399779Y-31376413D01*
X-40396900Y-31403196D01*
X-40396900Y-31416196D01*
X-40416902Y-31484317D01*
X-40433805Y-31505291D01*
X-40466779Y-31538265D01*
X-40487873Y-31579665D01*
X-40520088Y-31642890D01*
X-40520089Y-31642893D01*
X-40524590Y-31651727D01*
X-40539500Y-31745863D01*
X-40539499Y-32154136D01*
X-40524590Y-32248273D01*
X-40466779Y-32361735D01*
X-40427305Y-32401209D01*
X-40393279Y-32463521D01*
X-40398344Y-32534336D01*
X-40427305Y-32579399D01*
X-40443135Y-32595229D01*
X-40499868Y-32706573D01*
X-40501419Y-32716363D01*
X-40501419Y-32716364D01*
X-40503667Y-32730560D01*
X-40514500Y-32798955D01*
X-40514499Y-33201044D01*
X-40499868Y-33293427D01*
X-40443135Y-33404771D01*
X-40423805Y-33424101D01*
X-40389779Y-33486413D01*
X-40386900Y-33513196D01*
X-40386900Y-34499267D01*
X-40406902Y-34567388D01*
X-40423805Y-34588362D01*
X-40890396Y-35054953D01*
X-40952708Y-35088979D01*
X-41023523Y-35083914D01*
X-41062003Y-35061083D01*
X-41072865Y-35051671D01*
X-41080548Y-35050000D01*
X-41514900Y-35050000D01*
X-41539481Y-35047579D01*
X-41543865Y-35046707D01*
X-41549933Y-35045500D01*
X-41899943Y-35045500D01*
X-42250066Y-35045501D01*
X-42259807Y-35047439D01*
X-42260514Y-35047579D01*
X-42285093Y-35050000D01*
X-42714884Y-35050000D01*
X-42730123Y-35054475D01*
X-42731328Y-35055865D01*
X-42732999Y-35063548D01*
X-42732999Y-35094669D01*
X-42732629Y-35101490D01*
X-42727105Y-35152352D01*
X-42723479Y-35167604D01*
X-42678324Y-35288054D01*
X-42669786Y-35303649D01*
X-42593285Y-35405724D01*
X-42580728Y-35418281D01*
X-42529935Y-35456348D01*
X-42487420Y-35513208D01*
X-42479500Y-35557173D01*
X-42479499Y-35624692D01*
X-42499500Y-35692813D01*
X-42553155Y-35739307D01*
X-42623429Y-35749412D01*
X-42640651Y-35745691D01*
X-42648603Y-35743381D01*
X-42662705Y-35743421D01*
X-42666000Y-35750691D01*
X-42666000Y-36277885D01*
X-42661525Y-36293124D01*
X-42660135Y-36294329D01*
X-42652452Y-36296000D01*
X-42151576Y-36296000D01*
X-42136781Y-36291656D01*
X-42134937Y-36281225D01*
X-42136688Y-36271641D01*
X-42180569Y-36120603D01*
X-42178647Y-36120045D01*
X-42186048Y-36060078D01*
X-42155269Y-35996100D01*
X-42094787Y-35958918D01*
X-42061714Y-35954500D01*
X-41572207Y-35954499D01*
X-41549934Y-35954499D01*
X-41514182Y-35947388D01*
X-41487874Y-35942156D01*
X-41487872Y-35942155D01*
X-41475699Y-35939734D01*
X-41465379Y-35932839D01*
X-41465378Y-35932838D01*
X-41458340Y-35928135D01*
X-41388338Y-35906900D01*
X-40695554Y-35906900D01*
X-40674152Y-35899946D01*
X-40654926Y-35895330D01*
X-40642487Y-35893360D01*
X-40632694Y-35891809D01*
X-40612641Y-35881592D01*
X-40594380Y-35874028D01*
X-40582403Y-35870136D01*
X-40582401Y-35870135D01*
X-40572968Y-35867070D01*
X-40554759Y-35853840D01*
X-40537904Y-35843510D01*
X-40517849Y-35833292D01*
X-39646708Y-34962151D01*
X-39636490Y-34942096D01*
X-39626160Y-34925241D01*
X-39618761Y-34915057D01*
X-39612930Y-34907032D01*
X-39609864Y-34897597D01*
X-39605972Y-34885620D01*
X-39598408Y-34867358D01*
X-39592692Y-34856140D01*
X-39592692Y-34856139D01*
X-39588191Y-34847306D01*
X-39584670Y-34825074D01*
X-39580054Y-34805848D01*
X-39576165Y-34793879D01*
X-39573100Y-34784446D01*
X-39573100Y-33607885D01*
X-39553098Y-33539764D01*
X-39499442Y-33493271D01*
X-39429168Y-33483167D01*
X-39389897Y-33495619D01*
X-39292265Y-33545366D01*
X-39292258Y-33545368D01*
X-39283427Y-33549868D01*
X-39273637Y-33551419D01*
X-39273636Y-33551419D01*
X-39252471Y-33554771D01*
X-39191045Y-33564500D01*
X-39020035Y-33564500D01*
X-38848956Y-33564499D01*
X-38825792Y-33560830D01*
X-38766371Y-33551420D01*
X-38766369Y-33551419D01*
X-38756573Y-33549868D01*
X-38645229Y-33493135D01*
X-38556865Y-33404771D01*
X-38500132Y-33293427D01*
X-38485500Y-33201045D01*
X-38485501Y-32798956D01*
X-38496333Y-32730560D01*
X-38498580Y-32716371D01*
X-38498581Y-32716369D01*
X-38500132Y-32706573D01*
X-38504635Y-32697736D01*
X-38504636Y-32697732D01*
X-38526917Y-32654003D01*
X-38540021Y-32584227D01*
X-38513321Y-32518442D01*
X-38455293Y-32477536D01*
X-38384361Y-32474496D01*
X-38357454Y-32484531D01*
X-38308273Y-32509590D01*
X-38214137Y-32524500D01*
X-38035019Y-32524500D01*
X-37855864Y-32524499D01*
X-37787836Y-32513725D01*
X-37771520Y-32511141D01*
X-37761727Y-32509590D01*
X-37648265Y-32451779D01*
X-37639095Y-32442609D01*
X-37635833Y-32440828D01*
X-37633232Y-32438938D01*
X-37632988Y-32439274D01*
X-37576783Y-32408583D01*
X-37505968Y-32413648D01*
X-37460905Y-32442609D01*
X-37451735Y-32451779D01*
X-37401183Y-32477536D01*
X-37347110Y-32505088D01*
X-37347107Y-32505089D01*
X-37338273Y-32509590D01*
X-37244137Y-32524500D01*
X-37065019Y-32524500D01*
X-36885864Y-32524499D01*
X-36817836Y-32513725D01*
X-36801520Y-32511141D01*
X-36791727Y-32509590D01*
X-36678265Y-32451779D01*
X-36651291Y-32424805D01*
X-36588979Y-32390779D01*
X-36518164Y-32395844D01*
X-36473101Y-32424805D01*
X-36454771Y-32443135D01*
X-36343427Y-32499868D01*
X-36333637Y-32501419D01*
X-36333636Y-32501419D01*
X-36310470Y-32505088D01*
X-36251045Y-32514500D01*
X-36080035Y-32514500D01*
X-35908956Y-32514499D01*
X-35885792Y-32510830D01*
X-35826371Y-32501420D01*
X-35826369Y-32501419D01*
X-35816573Y-32499868D01*
X-35705229Y-32443135D01*
X-35689095Y-32427001D01*
X-35626783Y-32392975D01*
X-35555968Y-32398040D01*
X-35510905Y-32427001D01*
X-35494771Y-32443135D01*
X-35383427Y-32499868D01*
X-35373637Y-32501419D01*
X-35373636Y-32501419D01*
X-35350470Y-32505088D01*
X-35291045Y-32514500D01*
X-35120035Y-32514500D01*
X-34948956Y-32514499D01*
X-34925792Y-32510830D01*
X-34866371Y-32501420D01*
X-34866369Y-32501419D01*
X-34856573Y-32499868D01*
X-34745229Y-32443135D01*
X-34726899Y-32424805D01*
X-34664587Y-32390779D01*
X-34593772Y-32395844D01*
X-34548709Y-32424805D01*
X-34521735Y-32451779D01*
X-34471183Y-32477536D01*
X-34417110Y-32505088D01*
X-34417107Y-32505089D01*
X-34408273Y-32509590D01*
X-34314137Y-32524500D01*
X-34135019Y-32524500D01*
X-33955864Y-32524499D01*
X-33887836Y-32513725D01*
X-33871520Y-32511141D01*
X-33861727Y-32509590D01*
X-33748265Y-32451779D01*
X-33739095Y-32442609D01*
X-33735833Y-32440828D01*
X-33733232Y-32438938D01*
X-33732988Y-32439274D01*
X-33676783Y-32408583D01*
X-33605968Y-32413648D01*
X-33560905Y-32442609D01*
X-33551735Y-32451779D01*
X-33501183Y-32477536D01*
X-33447110Y-32505088D01*
X-33447107Y-32505089D01*
X-33438273Y-32509590D01*
X-33344137Y-32524500D01*
X-33165019Y-32524500D01*
X-32985864Y-32524499D01*
X-32917836Y-32513725D01*
X-32901520Y-32511141D01*
X-32891727Y-32509590D01*
X-32778265Y-32451779D01*
X-32720291Y-32393805D01*
X-32657979Y-32359779D01*
X-32631196Y-32356900D01*
X-30580271Y-32356900D01*
X-30512150Y-32376902D01*
X-30465657Y-32430558D01*
X-30455413Y-32486392D01*
X-30454500Y-32486392D01*
X-30454500Y-32713608D01*
X-30448182Y-32761596D01*
X-30444110Y-32770328D01*
X-30444110Y-32770329D01*
X-30408013Y-32847740D01*
X-30399074Y-32866909D01*
X-30316909Y-32949074D01*
X-30306917Y-32953733D01*
X-30306916Y-32953734D01*
X-30220329Y-32994110D01*
X-30220328Y-32994110D01*
X-30211596Y-32998182D01*
X-30202043Y-32999440D01*
X-30202042Y-32999440D01*
X-30183979Y-33001818D01*
X-30163608Y-33004500D01*
X-29631219Y-33004500D01*
X-29563098Y-33024502D01*
X-29516605Y-33078158D01*
X-29505956Y-33116895D01*
X-29502105Y-33152352D01*
X-29498479Y-33167604D01*
X-29453324Y-33288054D01*
X-29444786Y-33303649D01*
X-29368285Y-33405724D01*
X-29355724Y-33418285D01*
X-29253649Y-33494786D01*
X-29238054Y-33503324D01*
X-29117605Y-33548479D01*
X-29096855Y-33553412D01*
X-29035209Y-33588628D01*
X-29002387Y-33651583D01*
X-29000000Y-33675995D01*
X-29000000Y-33874000D01*
X-29020002Y-33942121D01*
X-29073658Y-33988614D01*
X-29126000Y-34000000D01*
X-37000000Y-34000000D01*
X-39481809Y-37474533D01*
X-39527990Y-37513995D01*
X-45461333Y-40480666D01*
X-45531207Y-40493240D01*
X-45542393Y-40491521D01*
X-47939140Y-40012172D01*
X-48002015Y-39979199D01*
X-48027443Y-39944330D01*
X-49708270Y-36534652D01*
X-49720450Y-36464709D01*
X-49692881Y-36399284D01*
X-49680496Y-36386151D01*
X-49582359Y-36296000D01*
X-47049096Y-33968865D01*
X-44641927Y-31757565D01*
X-44578229Y-31726211D01*
X-44507692Y-31734272D01*
X-44452710Y-31779189D01*
X-44430740Y-31846701D01*
X-44432239Y-31870069D01*
X-44433725Y-31879449D01*
X-44433726Y-31879459D01*
X-44434500Y-31884347D01*
X-44434499Y-32315652D01*
X-44433724Y-32320545D01*
X-44433724Y-32320546D01*
X-44422253Y-32392975D01*
X-44420054Y-32406862D01*
X-44364040Y-32516796D01*
X-44328466Y-32552370D01*
X-44294440Y-32614682D01*
X-44299505Y-32685497D01*
X-44328466Y-32730560D01*
X-44343135Y-32745229D01*
X-44399868Y-32856573D01*
X-44414500Y-32948955D01*
X-44414499Y-33351044D01*
X-44399868Y-33443427D01*
X-44343135Y-33554771D01*
X-44296405Y-33601501D01*
X-44262379Y-33663813D01*
X-44259500Y-33690596D01*
X-44259500Y-33718765D01*
X-44279502Y-33786886D01*
X-44296405Y-33807860D01*
X-44298168Y-33809623D01*
X-44308484Y-33816516D01*
X-44364734Y-33900699D01*
X-44379500Y-33974933D01*
X-44379500Y-34185873D01*
X-44399502Y-34253994D01*
X-44453158Y-34300487D01*
X-44523432Y-34310591D01*
X-44544436Y-34305706D01*
X-44547741Y-34304632D01*
X-44556573Y-34300132D01*
X-44566363Y-34298581D01*
X-44566364Y-34298581D01*
X-44593546Y-34294276D01*
X-44648955Y-34285500D01*
X-44819965Y-34285500D01*
X-44991044Y-34285501D01*
X-45014208Y-34289170D01*
X-45073629Y-34298580D01*
X-45073631Y-34298581D01*
X-45083427Y-34300132D01*
X-45194771Y-34356865D01*
X-45210905Y-34372999D01*
X-45273217Y-34407025D01*
X-45344032Y-34401960D01*
X-45389095Y-34372999D01*
X-45405229Y-34356865D01*
X-45516573Y-34300132D01*
X-45526363Y-34298581D01*
X-45526364Y-34298581D01*
X-45553546Y-34294276D01*
X-45608955Y-34285500D01*
X-45779965Y-34285500D01*
X-45951044Y-34285501D01*
X-45974208Y-34289170D01*
X-46033629Y-34298580D01*
X-46033631Y-34298581D01*
X-46043427Y-34300132D01*
X-46154771Y-34356865D01*
X-46243135Y-34445229D01*
X-46299868Y-34556573D01*
X-46301419Y-34566363D01*
X-46301419Y-34566364D01*
X-46304130Y-34583484D01*
X-46314500Y-34648955D01*
X-46314500Y-34795616D01*
X-46334502Y-34863737D01*
X-46351405Y-34884711D01*
X-47330216Y-35863522D01*
X-47348964Y-35878664D01*
X-47350189Y-35879779D01*
X-47358940Y-35885429D01*
X-47365387Y-35893607D01*
X-47365389Y-35893609D01*
X-47379729Y-35911800D01*
X-47383678Y-35916244D01*
X-47383604Y-35916306D01*
X-47386958Y-35920264D01*
X-47390638Y-35923944D01*
X-47393660Y-35928173D01*
X-47396341Y-35931925D01*
X-47409761Y-35947762D01*
X-48499764Y-37037766D01*
X-48541815Y-37100699D01*
X-48561567Y-37200000D01*
X-48541815Y-37299301D01*
X-48499765Y-37362234D01*
X-47262234Y-38599764D01*
X-47199301Y-38641815D01*
X-47100000Y-38661567D01*
X-47087829Y-38659146D01*
X-47012869Y-38644236D01*
X-47012868Y-38644235D01*
X-47000699Y-38641815D01*
X-46937766Y-38599765D01*
X-45700236Y-37362234D01*
X-45658185Y-37299301D01*
X-45638433Y-37200000D01*
X-45653167Y-37125926D01*
X-45655764Y-37112869D01*
X-45655765Y-37112868D01*
X-45658185Y-37100699D01*
X-45671447Y-37080850D01*
X-45696796Y-37042912D01*
X-45696799Y-37042908D01*
X-45700235Y-37037766D01*
X-45704614Y-37033387D01*
X-45704617Y-37033383D01*
X-46476558Y-36261442D01*
X-46510584Y-36199130D01*
X-46505519Y-36128315D01*
X-46476558Y-36083252D01*
X-45844711Y-35451405D01*
X-45782399Y-35417379D01*
X-45755617Y-35414500D01*
X-45626198Y-35414499D01*
X-45608956Y-35414499D01*
X-45604062Y-35413724D01*
X-45526371Y-35401420D01*
X-45526369Y-35401419D01*
X-45516573Y-35399868D01*
X-45505631Y-35394293D01*
X-45484773Y-35383665D01*
X-45405229Y-35343135D01*
X-45389095Y-35327001D01*
X-45326783Y-35292975D01*
X-45255968Y-35298040D01*
X-45210905Y-35327001D01*
X-45194771Y-35343135D01*
X-45083427Y-35399868D01*
X-45073637Y-35401419D01*
X-45073636Y-35401419D01*
X-45047899Y-35405495D01*
X-44991045Y-35414500D01*
X-44820035Y-35414500D01*
X-44648956Y-35414499D01*
X-44556573Y-35399868D01*
X-44547737Y-35395366D01*
X-44544435Y-35394293D01*
X-44473467Y-35392266D01*
X-44412669Y-35428928D01*
X-44381344Y-35492641D01*
X-44379499Y-35514121D01*
X-44379499Y-35725066D01*
X-44364734Y-35799301D01*
X-44357839Y-35809621D01*
X-44357838Y-35809622D01*
X-44332943Y-35846879D01*
X-44311728Y-35914631D01*
X-44330511Y-35983098D01*
X-44383328Y-36030542D01*
X-44453410Y-36041899D01*
X-44485926Y-36033290D01*
X-44546364Y-36008256D01*
X-44546365Y-36008256D01*
X-44553993Y-36005096D01*
X-44562177Y-36004019D01*
X-44562179Y-36004018D01*
X-44691812Y-35986952D01*
X-44700000Y-35985874D01*
X-44708188Y-35986952D01*
X-44837821Y-36004018D01*
X-44837823Y-36004019D01*
X-44846007Y-36005096D01*
X-44982063Y-36061453D01*
X-45098897Y-36151103D01*
X-45188547Y-36267937D01*
X-45244904Y-36403993D01*
X-45264126Y-36550000D01*
X-45244904Y-36696007D01*
X-45188547Y-36832063D01*
X-45098897Y-36948897D01*
X-44982063Y-37038547D01*
X-44846007Y-37094904D01*
X-44837823Y-37095981D01*
X-44837821Y-37095982D01*
X-44723232Y-37111067D01*
X-44709532Y-37112871D01*
X-44708188Y-37113048D01*
X-44700000Y-37114126D01*
X-44691812Y-37113048D01*
X-44690467Y-37112871D01*
X-44676768Y-37111067D01*
X-44562179Y-37095982D01*
X-44562177Y-37095981D01*
X-44553993Y-37094904D01*
X-44417937Y-37038547D01*
X-44411385Y-37033520D01*
X-44404236Y-37029392D01*
X-44402942Y-37031634D01*
X-44348776Y-37010702D01*
X-44279229Y-37024977D01*
X-44264247Y-37034332D01*
X-44261786Y-37036120D01*
X-44254771Y-37043135D01*
X-44245935Y-37047637D01*
X-44245934Y-37047638D01*
X-44201967Y-37070040D01*
X-44143427Y-37099868D01*
X-44133637Y-37101419D01*
X-44133636Y-37101419D01*
X-44107899Y-37105495D01*
X-44051045Y-37114500D01*
X-43880035Y-37114500D01*
X-43708956Y-37114499D01*
X-43662688Y-37107171D01*
X-43592280Y-37116271D01*
X-43553885Y-37142525D01*
X-43465926Y-37230484D01*
X-43453499Y-37240124D01*
X-43326220Y-37315396D01*
X-43311784Y-37321643D01*
X-43191395Y-37356619D01*
X-43177295Y-37356579D01*
X-43174000Y-37349309D01*
X-43174000Y-37343558D01*
X-42666000Y-37343558D01*
X-42662027Y-37357089D01*
X-42654129Y-37358224D01*
X-42528216Y-37321643D01*
X-42513780Y-37315396D01*
X-42386501Y-37240124D01*
X-42374074Y-37230484D01*
X-42269516Y-37125926D01*
X-42259876Y-37113499D01*
X-42184604Y-36986220D01*
X-42178357Y-36971784D01*
X-42136688Y-36828359D01*
X-42135232Y-36820391D01*
X-42138052Y-36806969D01*
X-42149513Y-36804000D01*
X-42647885Y-36804000D01*
X-42663124Y-36808475D01*
X-42664329Y-36809865D01*
X-42666000Y-36817548D01*
X-42666000Y-37343558D01*
X-43174000Y-37343558D01*
X-43174000Y-35756442D01*
X-43179020Y-35739346D01*
X-43215396Y-35682742D01*
X-43220500Y-35647245D01*
X-43220501Y-35281123D01*
X-43220501Y-35274934D01*
X-43235266Y-35200699D01*
X-43231066Y-35199864D01*
X-43236157Y-35152676D01*
X-43235172Y-35149320D01*
X-43235266Y-35149301D01*
X-43221707Y-35081135D01*
X-43220500Y-35075067D01*
X-43220501Y-34624934D01*
X-43235266Y-34550699D01*
X-43231066Y-34549864D01*
X-43236157Y-34502676D01*
X-43235172Y-34499320D01*
X-43235266Y-34499301D01*
X-43221707Y-34431135D01*
X-43220500Y-34425067D01*
X-43220501Y-34054234D01*
X-43200499Y-33986115D01*
X-43182500Y-33968064D01*
X-43174000Y-33949309D01*
X-43174000Y-33022000D01*
X-43153998Y-32953879D01*
X-43100342Y-32907386D01*
X-43048000Y-32896000D01*
X-42792000Y-32896000D01*
X-42723879Y-32916002D01*
X-42677386Y-32969658D01*
X-42666000Y-33022000D01*
X-42666000Y-33943558D01*
X-42662027Y-33957089D01*
X-42654129Y-33958224D01*
X-42640653Y-33954309D01*
X-42569657Y-33954512D01*
X-42510040Y-33993066D01*
X-42480732Y-34057731D01*
X-42479500Y-34075304D01*
X-42479500Y-34142824D01*
X-42499500Y-34210943D01*
X-42529934Y-34243651D01*
X-42580727Y-34281718D01*
X-42593285Y-34294276D01*
X-42669786Y-34396351D01*
X-42678324Y-34411946D01*
X-42723478Y-34532394D01*
X-42727105Y-34547649D01*
X-42732631Y-34598514D01*
X-42733000Y-34605328D01*
X-42733000Y-34631885D01*
X-42728525Y-34647124D01*
X-42727135Y-34648329D01*
X-42719452Y-34650000D01*
X-42285100Y-34650000D01*
X-42260519Y-34652421D01*
X-42250067Y-34654500D01*
X-41900057Y-34654500D01*
X-41549934Y-34654499D01*
X-41539487Y-34652421D01*
X-41514907Y-34650000D01*
X-41085116Y-34650000D01*
X-41069877Y-34645525D01*
X-41068672Y-34644135D01*
X-41067001Y-34636452D01*
X-41067001Y-34605331D01*
X-41067371Y-34598510D01*
X-41072895Y-34547648D01*
X-41076521Y-34532396D01*
X-41121676Y-34411946D01*
X-41130214Y-34396351D01*
X-41206715Y-34294276D01*
X-41219272Y-34281719D01*
X-41270065Y-34243652D01*
X-41312580Y-34186792D01*
X-41320500Y-34142826D01*
X-41320501Y-33981123D01*
X-41320501Y-33974934D01*
X-41335266Y-33900699D01*
X-41391516Y-33816516D01*
X-41437102Y-33786056D01*
X-41482630Y-33731578D01*
X-41493100Y-33681291D01*
X-41493100Y-31565965D01*
X-41473098Y-31497844D01*
X-41456195Y-31476870D01*
X-40729595Y-30750270D01*
X-40667283Y-30716244D01*
X-40596468Y-30721309D01*
G37*
G04 #@! TD.AperFunction*
G04 #@! TA.AperFunction,Conductor*
G36*
X-27057879Y-24020002D02*
G01*
X-27011386Y-24073658D01*
X-27000000Y-24126000D01*
X-27000000Y-24825375D01*
X-27020002Y-24893496D01*
X-27073658Y-24939989D01*
X-27109553Y-24950297D01*
X-27115573Y-24951089D01*
X-27137821Y-24954018D01*
X-27137823Y-24954019D01*
X-27146007Y-24955096D01*
X-27282063Y-25011453D01*
X-27398897Y-25101103D01*
X-27488547Y-25217937D01*
X-27544904Y-25353993D01*
X-27545464Y-25358245D01*
X-27581457Y-25417298D01*
X-27588676Y-25420805D01*
X-27583245Y-25425484D01*
X-27563239Y-25493261D01*
X-27564126Y-25500000D01*
X-27563048Y-25508188D01*
X-27550943Y-25600132D01*
X-27544904Y-25646007D01*
X-27541744Y-25653635D01*
X-27541743Y-25653640D01*
X-27495367Y-25765600D01*
X-27487777Y-25836190D01*
X-27519556Y-25899677D01*
X-27580614Y-25935905D01*
X-27628220Y-25938741D01*
X-27641810Y-25936952D01*
X-27641812Y-25936952D01*
X-27650000Y-25935874D01*
X-27658188Y-25936952D01*
X-27787821Y-25954018D01*
X-27787823Y-25954019D01*
X-27796007Y-25955096D01*
X-27803634Y-25958255D01*
X-27803633Y-25958255D01*
X-27852950Y-25978683D01*
X-27923540Y-25986272D01*
X-27987027Y-25954493D01*
X-28023255Y-25893435D01*
X-28025618Y-25881985D01*
X-28029242Y-25859104D01*
X-28020142Y-25788693D01*
X-27993888Y-25750298D01*
X-27919516Y-25675926D01*
X-27909876Y-25663499D01*
X-27834604Y-25536220D01*
X-27828357Y-25521784D01*
X-27810045Y-25458754D01*
X-27771832Y-25398918D01*
X-27767728Y-25397030D01*
X-27770560Y-25394692D01*
X-27785690Y-25359009D01*
X-27787581Y-25357091D01*
X-27799513Y-25354000D01*
X-28698000Y-25354000D01*
X-28766121Y-25333998D01*
X-28812614Y-25280342D01*
X-28824000Y-25228000D01*
X-28824000Y-24827885D01*
X-28316000Y-24827885D01*
X-28311525Y-24843124D01*
X-28310135Y-24844329D01*
X-28302452Y-24846000D01*
X-27801576Y-24846000D01*
X-27786781Y-24841656D01*
X-27784937Y-24831225D01*
X-27786688Y-24821641D01*
X-27828357Y-24678216D01*
X-27834604Y-24663780D01*
X-27909876Y-24536501D01*
X-27919516Y-24524074D01*
X-28024074Y-24419516D01*
X-28036501Y-24409876D01*
X-28163780Y-24334604D01*
X-28178216Y-24328357D01*
X-28298605Y-24293381D01*
X-28312705Y-24293421D01*
X-28316000Y-24300691D01*
X-28316000Y-24827885D01*
X-28824000Y-24827885D01*
X-28824000Y-24306442D01*
X-28827973Y-24292911D01*
X-28835871Y-24291776D01*
X-28961784Y-24328357D01*
X-28976220Y-24334604D01*
X-29103499Y-24409876D01*
X-29115926Y-24419516D01*
X-29203884Y-24507474D01*
X-29266196Y-24541500D01*
X-29312689Y-24542828D01*
X-29341548Y-24538257D01*
X-29354067Y-24536274D01*
X-29354069Y-24536274D01*
X-29358955Y-24535500D01*
X-29529965Y-24535500D01*
X-29701044Y-24535501D01*
X-29707358Y-24536501D01*
X-29783629Y-24548580D01*
X-29783631Y-24548581D01*
X-29793427Y-24550132D01*
X-29904771Y-24606865D01*
X-29993135Y-24695229D01*
X-30049868Y-24806573D01*
X-30064500Y-24898955D01*
X-30064499Y-25301044D01*
X-30049868Y-25393427D01*
X-30045365Y-25402264D01*
X-30045365Y-25402265D01*
X-30011186Y-25469344D01*
X-29998082Y-25539120D01*
X-30024782Y-25604905D01*
X-30082809Y-25645812D01*
X-30153741Y-25648853D01*
X-30180656Y-25638814D01*
X-30247206Y-25604905D01*
X-30256573Y-25600132D01*
X-30266363Y-25598581D01*
X-30266364Y-25598581D01*
X-30292101Y-25594505D01*
X-30348955Y-25585500D01*
X-30519965Y-25585500D01*
X-30691044Y-25585501D01*
X-30714208Y-25589170D01*
X-30773629Y-25598580D01*
X-30773631Y-25598581D01*
X-30783427Y-25600132D01*
X-30792264Y-25604635D01*
X-30792265Y-25604635D01*
X-30815227Y-25616335D01*
X-30894771Y-25656865D01*
X-30910905Y-25672999D01*
X-30973217Y-25707025D01*
X-31044032Y-25701960D01*
X-31089095Y-25672999D01*
X-31105229Y-25656865D01*
X-31216573Y-25600132D01*
X-31226363Y-25598581D01*
X-31226364Y-25598581D01*
X-31252101Y-25594505D01*
X-31308955Y-25585500D01*
X-31479965Y-25585500D01*
X-31651044Y-25585501D01*
X-31674208Y-25589170D01*
X-31733629Y-25598580D01*
X-31733631Y-25598581D01*
X-31743427Y-25600132D01*
X-31752264Y-25604635D01*
X-31752265Y-25604635D01*
X-31775227Y-25616335D01*
X-31854771Y-25656865D01*
X-31904101Y-25706195D01*
X-31966413Y-25740221D01*
X-31993196Y-25743100D01*
X-36769214Y-25743100D01*
X-36778647Y-25746165D01*
X-36790616Y-25750054D01*
X-36809842Y-25754670D01*
X-36832074Y-25758191D01*
X-36840907Y-25762692D01*
X-36840908Y-25762692D01*
X-36852126Y-25768408D01*
X-36870388Y-25775972D01*
X-36882365Y-25779864D01*
X-36882367Y-25779865D01*
X-36891800Y-25782930D01*
X-36899825Y-25788761D01*
X-36910009Y-25796160D01*
X-36926864Y-25806490D01*
X-36946919Y-25816708D01*
X-42233292Y-31103081D01*
X-42237794Y-31111916D01*
X-42238324Y-31112646D01*
X-42294547Y-31155998D01*
X-42365284Y-31162072D01*
X-42428074Y-31128938D01*
X-42440214Y-31115294D01*
X-42451103Y-31101103D01*
X-42567937Y-31011453D01*
X-42703993Y-30955096D01*
X-42712177Y-30954019D01*
X-42712179Y-30954018D01*
X-42841812Y-30936952D01*
X-42850000Y-30935874D01*
X-42858188Y-30936952D01*
X-42987821Y-30954018D01*
X-42987823Y-30954019D01*
X-42996007Y-30955096D01*
X-43132063Y-31011453D01*
X-43248897Y-31101103D01*
X-43338547Y-31217937D01*
X-43394904Y-31353993D01*
X-43395981Y-31362177D01*
X-43395982Y-31362179D01*
X-43397736Y-31375501D01*
X-43410809Y-31474803D01*
X-43439530Y-31539728D01*
X-43498795Y-31578820D01*
X-43569786Y-31579665D01*
X-43592933Y-31570622D01*
X-43602073Y-31565965D01*
X-43653138Y-31539946D01*
X-43662927Y-31538396D01*
X-43662929Y-31538395D01*
X-43689421Y-31534199D01*
X-43744347Y-31525500D01*
X-43855916Y-31525500D01*
X-44065897Y-31525501D01*
X-44134017Y-31505499D01*
X-44180510Y-31451844D01*
X-44190615Y-31381570D01*
X-44161122Y-31316989D01*
X-44151137Y-31306710D01*
X-38134745Y-25779864D01*
X-36886066Y-24632789D01*
X-36822369Y-24601435D01*
X-36801030Y-24599581D01*
X-30499692Y-24589737D01*
X-30097192Y-24292911D01*
X-29733348Y-24024593D01*
X-29666652Y-24000260D01*
X-29658565Y-24000000D01*
X-27126000Y-24000000D01*
X-27057879Y-24020002D01*
G37*
G04 #@! TD.AperFunction*
G04 #@! TA.AperFunction,Conductor*
G36*
X-31925075Y-26576902D02*
G01*
X-31904101Y-26593805D01*
X-31854771Y-26643135D01*
X-31743427Y-26699868D01*
X-31733637Y-26701419D01*
X-31733636Y-26701419D01*
X-31710470Y-26705088D01*
X-31651045Y-26714500D01*
X-31480035Y-26714500D01*
X-31308956Y-26714499D01*
X-31285792Y-26710830D01*
X-31226371Y-26701420D01*
X-31226369Y-26701419D01*
X-31216573Y-26699868D01*
X-31105229Y-26643135D01*
X-31089095Y-26627001D01*
X-31026783Y-26592975D01*
X-30955968Y-26598040D01*
X-30910905Y-26627001D01*
X-30894771Y-26643135D01*
X-30783427Y-26699868D01*
X-30773637Y-26701419D01*
X-30773636Y-26701419D01*
X-30750470Y-26705088D01*
X-30691045Y-26714500D01*
X-30520035Y-26714500D01*
X-30348956Y-26714499D01*
X-30325792Y-26710830D01*
X-30266371Y-26701420D01*
X-30266369Y-26701419D01*
X-30256573Y-26699868D01*
X-30145229Y-26643135D01*
X-30126899Y-26624805D01*
X-30064587Y-26590779D01*
X-29993772Y-26595844D01*
X-29948709Y-26624805D01*
X-29921735Y-26651779D01*
X-29888211Y-26668860D01*
X-29817110Y-26705088D01*
X-29817107Y-26705089D01*
X-29808273Y-26709590D01*
X-29714137Y-26724500D01*
X-29535019Y-26724500D01*
X-29355864Y-26724499D01*
X-29287836Y-26713725D01*
X-29271520Y-26711141D01*
X-29261727Y-26709590D01*
X-29233808Y-26695365D01*
X-29155102Y-26655263D01*
X-29085325Y-26642159D01*
X-29019541Y-26668860D01*
X-28978635Y-26726888D01*
X-28971900Y-26767530D01*
X-28971900Y-27620671D01*
X-28991902Y-27688792D01*
X-29045558Y-27735285D01*
X-29084297Y-27745935D01*
X-29102359Y-27747896D01*
X-29117604Y-27751521D01*
X-29238054Y-27796676D01*
X-29253649Y-27805214D01*
X-29355724Y-27881715D01*
X-29368285Y-27894276D01*
X-29444786Y-27996351D01*
X-29453324Y-28011946D01*
X-29498478Y-28132394D01*
X-29502106Y-28147650D01*
X-29505957Y-28183106D01*
X-29533198Y-28248669D01*
X-29591561Y-28289096D01*
X-29631220Y-28295500D01*
X-29642905Y-28295500D01*
X-29662614Y-28293949D01*
X-29662873Y-28293908D01*
X-29663088Y-28293874D01*
X-29663090Y-28293874D01*
X-29667976Y-28293100D01*
X-30061427Y-28293100D01*
X-30129548Y-28273098D01*
X-30150522Y-28256195D01*
X-30640009Y-27766708D01*
X-30660064Y-27756490D01*
X-30676919Y-27746160D01*
X-30687103Y-27738761D01*
X-30695128Y-27732930D01*
X-30704561Y-27729865D01*
X-30704563Y-27729864D01*
X-30716540Y-27725972D01*
X-30734802Y-27718408D01*
X-30746020Y-27712692D01*
X-30746021Y-27712692D01*
X-30754854Y-27708191D01*
X-30777086Y-27704670D01*
X-30796312Y-27700054D01*
X-30808281Y-27696165D01*
X-30817714Y-27693100D01*
X-34614446Y-27693100D01*
X-34623879Y-27696165D01*
X-34635848Y-27700054D01*
X-34655074Y-27704670D01*
X-34677306Y-27708191D01*
X-34686139Y-27712692D01*
X-34686140Y-27712692D01*
X-34697358Y-27718408D01*
X-34715620Y-27725972D01*
X-34727597Y-27729864D01*
X-34727599Y-27729865D01*
X-34737032Y-27732930D01*
X-34745057Y-27738761D01*
X-34755241Y-27746160D01*
X-34772096Y-27756490D01*
X-34792151Y-27766708D01*
X-35453292Y-28427849D01*
X-35457795Y-28436687D01*
X-35463508Y-28447900D01*
X-35473840Y-28464759D01*
X-35487070Y-28482968D01*
X-35490135Y-28492401D01*
X-35490136Y-28492403D01*
X-35494028Y-28504380D01*
X-35501592Y-28522641D01*
X-35511809Y-28542694D01*
X-35513360Y-28552487D01*
X-35515330Y-28564926D01*
X-35519946Y-28584152D01*
X-35526900Y-28605554D01*
X-35526900Y-30007408D01*
X-35546902Y-30075529D01*
X-35600558Y-30122022D01*
X-35670832Y-30132126D01*
X-35688053Y-30128405D01*
X-35808605Y-30093381D01*
X-35822705Y-30093421D01*
X-35826000Y-30100691D01*
X-35826000Y-31028000D01*
X-35846002Y-31096121D01*
X-35899658Y-31142614D01*
X-35952000Y-31154000D01*
X-37198000Y-31154000D01*
X-37266121Y-31133998D01*
X-37312614Y-31080342D01*
X-37324000Y-31028000D01*
X-37324000Y-30627885D01*
X-36816000Y-30627885D01*
X-36811525Y-30643124D01*
X-36810135Y-30644329D01*
X-36802452Y-30646000D01*
X-36352115Y-30646000D01*
X-36336876Y-30641525D01*
X-36335671Y-30640135D01*
X-36334000Y-30632452D01*
X-36334000Y-30106442D01*
X-36337973Y-30092911D01*
X-36345871Y-30091776D01*
X-36471784Y-30128357D01*
X-36486222Y-30134605D01*
X-36510860Y-30149176D01*
X-36579676Y-30166636D01*
X-36639140Y-30149176D01*
X-36663778Y-30134605D01*
X-36678216Y-30128357D01*
X-36798605Y-30093381D01*
X-36812705Y-30093421D01*
X-36816000Y-30100691D01*
X-36816000Y-30627885D01*
X-37324000Y-30627885D01*
X-37324000Y-30106442D01*
X-37327973Y-30092911D01*
X-37335871Y-30091776D01*
X-37461784Y-30128357D01*
X-37476220Y-30134604D01*
X-37603499Y-30209876D01*
X-37615926Y-30219516D01*
X-37703884Y-30307474D01*
X-37766196Y-30341500D01*
X-37812689Y-30342828D01*
X-37844244Y-30337830D01*
X-37854067Y-30336274D01*
X-37854069Y-30336274D01*
X-37858955Y-30335500D01*
X-38029965Y-30335500D01*
X-38201044Y-30335501D01*
X-38205937Y-30336276D01*
X-38205938Y-30336276D01*
X-38273210Y-30346930D01*
X-38343621Y-30337830D01*
X-38382014Y-30311576D01*
X-38474074Y-30219516D01*
X-38486501Y-30209876D01*
X-38613780Y-30134604D01*
X-38628216Y-30128357D01*
X-38748605Y-30093381D01*
X-38762705Y-30093421D01*
X-38766000Y-30100691D01*
X-38766000Y-31028000D01*
X-38786002Y-31096121D01*
X-38839658Y-31142614D01*
X-38892000Y-31154000D01*
X-39148000Y-31154000D01*
X-39216121Y-31133998D01*
X-39262614Y-31080342D01*
X-39274000Y-31028000D01*
X-39274000Y-30106442D01*
X-39277973Y-30092911D01*
X-39285871Y-30091776D01*
X-39411784Y-30128357D01*
X-39426220Y-30134604D01*
X-39553499Y-30209876D01*
X-39565926Y-30219516D01*
X-39653884Y-30307474D01*
X-39716196Y-30341500D01*
X-39762689Y-30342828D01*
X-39794244Y-30337830D01*
X-39804067Y-30336274D01*
X-39804069Y-30336274D01*
X-39808955Y-30335500D01*
X-39820611Y-30335500D01*
X-40010636Y-30335501D01*
X-40078756Y-30315499D01*
X-40125249Y-30261844D01*
X-40135354Y-30191570D01*
X-40105861Y-30126989D01*
X-40099731Y-30120406D01*
X-38834757Y-28855432D01*
X-38772445Y-28821406D01*
X-38701630Y-28826471D01*
X-38656567Y-28855432D01*
X-37916617Y-29595382D01*
X-37916612Y-29595386D01*
X-37912234Y-29599764D01*
X-37849301Y-29641815D01*
X-37750000Y-29661567D01*
X-37737829Y-29659146D01*
X-37662869Y-29644236D01*
X-37662868Y-29644235D01*
X-37650699Y-29641815D01*
X-37596445Y-29605564D01*
X-37592911Y-29603203D01*
X-37592909Y-29603202D01*
X-37587766Y-29599765D01*
X-36350236Y-28362234D01*
X-36308185Y-28299301D01*
X-36288433Y-28200000D01*
X-36298846Y-28147650D01*
X-36305764Y-28112869D01*
X-36305765Y-28112868D01*
X-36308185Y-28100699D01*
X-36350235Y-28037766D01*
X-37094568Y-27293433D01*
X-37128594Y-27231121D01*
X-37123529Y-27160306D01*
X-37094568Y-27115243D01*
X-36573130Y-26593805D01*
X-36510818Y-26559779D01*
X-36484035Y-26556900D01*
X-31993196Y-26556900D01*
X-31925075Y-26576902D01*
G37*
G04 #@! TD.AperFunction*
G04 #@! TA.AperFunction,Conductor*
G36*
X-33933879Y-28566002D02*
G01*
X-33887386Y-28619658D01*
X-33876000Y-28672000D01*
X-33876000Y-29978000D01*
X-33896002Y-30046121D01*
X-33949658Y-30092614D01*
X-34002000Y-30104000D01*
X-34258000Y-30104000D01*
X-34326121Y-30083998D01*
X-34372614Y-30030342D01*
X-34384000Y-29978000D01*
X-34384000Y-28672000D01*
X-34363998Y-28603879D01*
X-34310342Y-28557386D01*
X-34258000Y-28546000D01*
X-34002000Y-28546000D01*
X-33933879Y-28566002D01*
G37*
G04 #@! TD.AperFunction*
G04 #@! TA.AperFunction,Conductor*
G36*
X-31051187Y-28908879D02*
G01*
X-31018452Y-28916000D01*
X-30822000Y-28916000D01*
X-30753879Y-28936002D01*
X-30707386Y-28989658D01*
X-30696000Y-29042000D01*
X-30696000Y-29181885D01*
X-30691525Y-29197124D01*
X-30687313Y-29200774D01*
X-30676484Y-29200000D01*
X-29676000Y-29200000D01*
X-29607879Y-29220002D01*
X-29561386Y-29273658D01*
X-29550000Y-29326000D01*
X-29550000Y-29374000D01*
X-29570002Y-29442121D01*
X-29623658Y-29488614D01*
X-29676000Y-29500000D01*
X-30636681Y-29500000D01*
X-30704802Y-29479998D01*
X-30745884Y-29432586D01*
X-30756687Y-29423226D01*
X-30767516Y-29424000D01*
X-31762030Y-29424000D01*
X-31788813Y-29421121D01*
X-31821548Y-29414000D01*
X-32018000Y-29414000D01*
X-32086121Y-29393998D01*
X-32132614Y-29340342D01*
X-32144000Y-29288000D01*
X-32144000Y-29032000D01*
X-32123998Y-28963879D01*
X-32070342Y-28917386D01*
X-32018000Y-28906000D01*
X-31077970Y-28906000D01*
X-31051187Y-28908879D01*
G37*
G04 #@! TD.AperFunction*
M02*
