M48
; DRILL file {KiCad (6.0.0)} date Thu Jan 13 00:17:20 2022
; FORMAT={-:-/ absolute / inch / decimal}
; #@! TF.CreationDate,2022-01-13T00:17:20-05:00
; #@! TF.GenerationSoftware,Kicad,Pcbnew,(6.0.0)
; #@! TF.FileFunction,Plated,1,4,PTH
FMAT,2
INCH
; #@! TA.AperFunction,Plated,PTH,ViaDrill
T1C0.0120
; #@! TA.AperFunction,Plated,PTH,ComponentDrill
T2C0.0197
; #@! TA.AperFunction,Plated,PTH,ComponentDrill
T3C0.0394
; #@! TA.AperFunction,Plated,PTH,ComponentDrill
T4C0.0400
; #@! TA.AperFunction,Plated,PTH,ComponentDrill
T5C0.0591
; #@! TA.AperFunction,Plated,PTH,ComponentDrill
T6C0.0748
%
G90
G05
T1
X-2.7421Y-2.0335
X-2.7087Y-2.0866
X-2.6083Y-1.9626
X-2.5748Y-1.9154
X-2.2299Y-1.655
X-1.9252Y-1.4469
X-1.874Y-1.5374
X-1.8543Y-1.3799
X-1.7894Y-1.5551
X-1.7697Y-1.3248
X-1.7598Y-1.439
X-1.7343Y-1.4823
X-1.687Y-1.2402
X-1.6732Y-1.5157
X-1.6378Y-1.437
X-1.6299Y-1.1693
X-1.6161Y-1.2677
X-1.6083Y-1.3386
X-1.5748Y-1.4567
X-1.5689Y-1.1063
X-1.5433Y-1.376
X-1.5276Y-1.1673
X-1.5039Y-1.0433
X-1.4902Y-1.3071
X-1.4331Y-0.9941
X-1.4193Y-1.1673
X-1.4134Y-1.0748
X-1.3976Y-1.3031
X-1.3484Y-0.9961
X-1.3437Y-1.1547
X-1.3031Y-1.2992
X-1.2717Y-0.9961
X-1.2657Y-1.0709
X-1.2374Y-1.1488
X-1.2366Y-1.1862
X-1.2283Y-1.3031
X-1.2028Y-0.9902
X-1.1772Y-1.0807
X-1.1202Y-1.135
X-1.1202Y-1.21
X-1.1202Y-1.28
X-1.0925Y-1.4409
X-1.0886Y-1.0433
X-1.0827Y-0.9646
X-1.0827Y-1.3642
X-1.063Y-1.0039
X-1.0502Y-1.135
X-1.0502Y-1.21
X-1.0502Y-1.28
X-1.0236Y-1.0039
X-0.9843Y-1.0039
X-0.9752Y-1.135
X-0.9752Y-1.21
X-0.9752Y-1.28
X-0.9449Y-1.0039
X-0.9193Y-1.4232
X-0.8888Y-1.1299
X-0.8452Y-1.3175
X-0.8307Y-1.0915
X-0.7795Y-1.4488
X-0.7402Y-1.3898
X-0.6516Y-0.1516
X-0.6481Y-1.2298
X-0.5315Y-1.2283
X-0.5123Y-0.1841
X-0.4498Y-0.0699
X-0.4075Y-1.4508
X-0.4016Y-1.3563
X-0.4016Y-1.3957
X-0.376Y-0.1555
X0.3504Y-0.0531
X0.3504Y-0.128
X0.3504Y-0.187
X0.3504Y-0.2618
X0.5177Y-0.9764
X0.5197Y-1.0748
X0.5625Y-0.1594
X0.5768Y-1.252
X0.6122Y-1.3189
X0.6147Y-1.0507
X0.6314Y-0.2146
X0.6614Y-1.4429
X0.6949Y-1.0984
X0.8307Y-1.315
X0.8563Y-1.3681
X0.872Y-1.0748
X0.9291Y-0.8799
X0.9469Y-1.0453
X0.9705Y-1.0768
X1.0217Y-1.1319
X1.0453Y-1.0453
X1.0453Y-1.3681
X1.062Y-0.877
X1.065Y-1.0846
X1.0846Y-1.3681
X1.1043Y-1.4843
X1.123Y-0.876
X1.1772Y-0.937
X1.2953Y-0.9843
X1.2953Y-1.1555
X1.2953Y-1.375
X1.5414Y-1.4448
X1.5603Y-1.4023
X1.6693Y-1.4055
X1.6929Y-1.3602
X1.7933Y-1.5846
X1.8169Y-1.5413
X1.8425Y-1.4961
X1.8661Y-1.4528
X2.2359Y-1.6552
T3
X-2.4409Y-1.6929
X-2.3705Y-1.655
X-1.8543Y-1.4646
X-1.6784Y-0.5159
X-1.609Y-0.4786
X-1.5396Y-0.4414
X-1.4862Y-1.1102
X-1.4771Y-0.8905
X-1.4078Y-0.8532
X-1.3384Y-0.8159
X-0.6063Y-0.3406
X-0.6063Y-0.7736
X0.2159Y-0.8065
X0.2159Y-0.8865
X0.2959Y-0.8065
X0.2959Y-0.8865
X0.6063Y-0.3406
X0.6063Y-0.7736
X1.3384Y-0.8159
X1.4078Y-0.8532
X1.4771Y-0.8905
X1.5396Y-0.4414
X1.609Y-0.4786
X1.6784Y-0.5159
X2.3705Y-1.655
X2.4409Y-1.6929
X2.4718Y-1.9307
X2.5599Y-1.9781
X2.648Y-2.0254
X2.736Y-2.0727
X2.8241Y-2.1201
X2.9122Y-2.1674
T4
X-0.101Y-0.0621
X-0.101Y-0.2621
X0.099Y-0.0621
X0.099Y-0.2621
T6
X-0.2126Y-0.4587
X-0.2126Y-0.6555
X0.2126Y-0.4587
X0.2126Y-0.6555
T2
G00X-0.3244Y-1.0591
M15
G01X-0.3244Y-1.0906
M16
G05
G00X-0.3244Y-1.185
M15
G01X-0.3244Y-1.2165
M16
G05
G00X-0.3228Y-1.4252
M15
G01X-0.3228Y-1.4567
M16
G05
G00X-0.1295Y-1.185
M15
G01X-0.1295Y-1.2165
M16
G05
G00X-0.1209Y-1.4252
M15
G01X-0.1209Y-1.4567
M16
G05
G00X-0.1Y-1.0591
M15
G01X-0.1Y-1.0906
M16
G05
G00X-0.0886Y-1.3051
M15
G01X-0.0886Y-1.3366
M16
G05
G00X0.1087Y-1.0591
M15
G01X0.1087Y-1.0906
M16
G05
G00X0.1087Y-1.185
M15
G01X0.1087Y-1.2165
M16
G05
G00X0.1102Y-1.4252
M15
G01X0.1102Y-1.4567
M16
G05
G00X0.3035Y-1.185
M15
G01X0.3035Y-1.2165
M16
G05
G00X0.3122Y-1.4252
M15
G01X0.3122Y-1.4567
M16
G05
G00X0.3331Y-1.0591
M15
G01X0.3331Y-1.0906
M16
G05
G00X0.3445Y-1.3051
M15
G01X0.3445Y-1.3366
M16
G05
T5
G00X0.0492Y-0.5571
M15
G01X-0.0492Y-0.5571
M16
G05
G00X0.0492Y-0.7933
M15
G01X-0.0492Y-0.7933
M16
G05
T0
M30
